<svg xmlns="http://www.w3.org/2000/svg" viewBox="0 0 42.22 24.99"><defs><style>.cls-1{fill:none;}</style></defs><g id="Layer_2" data-name="Layer 2"><g id="Layer_1-2" data-name="Layer 1"><path d="M15.7,16.61a.1.1,0,0,1,.05,0l.14.08a1.11,1.11,0,0,1,.29.39l0,0c.08,0,.17.07.25.12a.82.82,0,0,1,.2.12,1.62,1.62,0,0,1,.18.19,1.11,1.11,0,0,1,.22.38,1.62,1.62,0,0,1,.11.54v.18a.88.88,0,0,1,0,.16,1.06,1.06,0,0,1,0,.19.36.36,0,0,1,0,.11,1.08,1.08,0,0,1-.11.18.64.64,0,0,1-.13.15.91.91,0,0,1-.37.21s-.05,0-.05.08,0,.11,0,.17a.92.92,0,0,1-.09.23l-.15.19a1.7,1.7,0,0,1-1.27.56c-.49,0-.95-.41-1.42-.22-.23.1-.43.33-.68.3-.43-.05-1.52-.24-1.54-.8a.81.81,0,0,1-.82.09c-.29-.15-.25-.5-.44-.63s-.57,0-.83-.2c-1-.73.19-2.41,1.09-2.58l.23,0h.25a.07.07,0,0,0,.06,0c.08-.07.15-.15.23-.21a2,2,0,0,1,.36-.17,1.7,1.7,0,0,1,.5-.09h.27a1.74,1.74,0,0,1,.45.11.06.06,0,0,0,.07,0,.87.87,0,0,1,.27-.14l.2-.07a1.25,1.25,0,0,1,.19,0,1.55,1.55,0,0,1,.43,0l.12,0,.17.05a.56.56,0,0,1,.16.07,1.14,1.14,0,0,1,.23.15c.05,0,.09.07.16,0a.86.86,0,0,1,.32-.05h.31l.2,0,.2,0Z"/><path d="M2.07,11.49c.07-.2.13-.34.17-.49.13-.49.38-.61.88-.44a6.73,6.73,0,0,0,6-.76,5.56,5.56,0,0,1,4.73-.49c2.21.63,4.44,1.23,6.66,1.84a6.41,6.41,0,0,0,3.9-.11c1.27-.44,2.53-.92,3.74-1.48a5,5,0,0,1,3.58-.35c1.8.47,3.62.84,5.44,1.18a8.41,8.41,0,0,0,1.81,0c.37,0,.75-.06,1.15-.1l.25,1a9.22,9.22,0,0,1-4.88.16c-1.42-.33-2.83-.69-4.22-1.11a3,3,0,0,0-2.45.28,11.89,11.89,0,0,1-6.09,1.87,23.06,23.06,0,0,1-4.36-.64c-1.68-.39-3.32-.91-5-1.42a4.42,4.42,0,0,0-3.86.49C7.16,12.45,4.68,12.38,2.07,11.49Z"/><path d="M24.42,4.49l.06,0,.16.1a1.06,1.06,0,0,1,.33.45l0,0,.29.13a1.14,1.14,0,0,1,.23.15,2.18,2.18,0,0,1,.22.21A1.48,1.48,0,0,1,26,6a2,2,0,0,1,.13.64v.2a1.36,1.36,0,0,1,0,.2,1.6,1.6,0,0,1-.05.21.34.34,0,0,1-.05.14,2.39,2.39,0,0,1-.13.21.8.8,0,0,1-.15.17,1.12,1.12,0,0,1-.42.25.09.09,0,0,0-.07.09,1.23,1.23,0,0,1,0,.19.75.75,0,0,1-.11.28l-.17.22a1.3,1.3,0,0,1-.34.28l-.47.22-.06,0-.31.09-.35,0h-.24a1.1,1.1,0,0,1-.4-.08,1.27,1.27,0,0,1-.36-.2l-.14-.15c-.05-.07-.06-.07-.11,0a.34.34,0,0,1-.24.11h-.14s-.07,0-.07.05a.27.27,0,0,1-.1.17.65.65,0,0,1-.16.13,1.23,1.23,0,0,1-.39.07l-.1,0-.24-.07a.51.51,0,0,1-.25-.21s0,0-.08,0a.61.61,0,0,1-.14.1.83.83,0,0,1-.54,0l-.07,0a.35.35,0,0,1-.17-.12c0-.06-.1-.12-.14-.19a.86.86,0,0,1-.05-.23c0-.05,0-.11,0-.16s0,0,0-.05l0,0,0,0a1.25,1.25,0,0,1-.5.14l-.24,0A.66.66,0,0,1,18,8.65a.55.55,0,0,1-.23-.43,1.47,1.47,0,0,1,0-.21c0-.09,0-.09-.1-.09a2.57,2.57,0,0,1-.48,0,3.25,3.25,0,0,1-.42-.11.81.81,0,0,1-.3-.21.68.68,0,0,1-.19-.46,1.52,1.52,0,0,1,0-.48,1.22,1.22,0,0,1,.16-.37A.87.87,0,0,1,16.85,6a.09.09,0,0,0,.06-.06,1.36,1.36,0,0,1,0-.17.22.22,0,0,1,0-.08,2.21,2.21,0,0,1,.16-.35,1.1,1.1,0,0,1,.2-.23L17.5,5l.34-.14a1.29,1.29,0,0,1,.21-.06l.26,0h.29a.13.13,0,0,0,.08,0,1.48,1.48,0,0,1,.26-.24,1.62,1.62,0,0,1,.42-.2,1.92,1.92,0,0,1,.58-.11l.32,0a1.87,1.87,0,0,1,.52.12.06.06,0,0,0,.08,0,1.34,1.34,0,0,1,.31-.17L21.41,4a1.6,1.6,0,0,1,.23,0,1.4,1.4,0,0,1,.5,0l.13,0a1.17,1.17,0,0,1,.2.06.75.75,0,0,1,.18.08,2.61,2.61,0,0,1,.28.17c.06,0,.1.09.18.06a1.21,1.21,0,0,1,.37-.07l.36,0,.24,0,.23.05Z"/><path d="M28.4,17.74a3,3,0,0,1-.53-.41,2.54,2.54,0,0,1-1-1.74v-.2a1.36,1.36,0,0,1,0-.2A1.55,1.55,0,0,1,27,15a.57.57,0,0,1,0-.14,2.25,2.25,0,0,1,.12-.21,1.09,1.09,0,0,1,.13-.17.94.94,0,0,1,.37-.25s.05,0,.05-.09,0-.13,0-.19a.79.79,0,0,1,.1-.27,1.64,1.64,0,0,1,.14-.22,1.37,1.37,0,0,1,.3-.29c.13-.08.27-.15.41-.22l.05,0,.27-.09.31-.05h.2a.85.85,0,0,1,.35.08,1.3,1.3,0,0,1,.31.21.64.64,0,0,1,.13.15c0,.06,0,.06.1,0a.24.24,0,0,1,.2-.11h.13s0,0,.06,0a.21.21,0,0,1,.08-.17.39.39,0,0,1,.14-.12.81.81,0,0,1,.34-.08l.09,0,.2.07a.45.45,0,0,1,.22.21s0,0,.08,0a.29.29,0,0,1,.12-.1.61.61,0,0,1,.46,0l.07,0a.32.32,0,0,1,.14.12,2,2,0,0,1,.12.19,1.31,1.31,0,0,1,.06.39.09.09,0,0,1,0,.05l0,0,0,0a.78.78,0,0,1,1,0,.81.81,0,0,1,.19.69,1.73,1.73,0,0,1,.9.17,1,1,0,0,1,.24,1.41,6.45,6.45,0,0,0-.37.54,4.56,4.56,0,0,1-.24.55c-.25.41-.73.44-1.12.56s-.76.53-1.28.55l-.28,0a1.49,1.49,0,0,1-.46-.12,0,0,0,0,0-.07,0,1,1,0,0,1-.27.17l-.2.08-.2,0a1.09,1.09,0,0,1-.44,0l-.11,0a1.27,1.27,0,0,1-.18-.06l-.16-.08-.24-.17s-.09-.09-.15-.06A1.16,1.16,0,0,1,28.4,17.74Z"/><rect class="cls-1" width="42.22" height="24.99"/></g></g></svg>