<svg xmlns="http://www.w3.org/2000/svg" viewBox="0 0 76.43 44.16"><defs><style>.cls-1{fill:none;}</style></defs><g id="Layer_2" data-name="Layer 2"><g id="Layer_1-2" data-name="Layer 1"><path d="M22.43,32.76a.82.82,0,0,0-.22-.27.37.37,0,0,1-.05-.57,1.39,1.39,0,0,1,.31-.23c.07-.05.15-.09.22-.15a.32.32,0,0,1,.38,0c.12.07.25.13.36.21a1.28,1.28,0,0,0,.6.22h0c.17.14.39.12.58.18a.87.87,0,0,0,.79-.17.44.44,0,0,1,.38-.1.25.25,0,0,0,.15,0c.13,0,.17-.11.12-.23s-.12-.32-.18-.48a.17.17,0,0,1,0-.12,1.78,1.78,0,0,1,.29-.32.44.44,0,0,0,.13-.62.63.63,0,0,1,0-.73.48.48,0,0,1,.26-.12,3.13,3.13,0,0,1,.44,0A7.81,7.81,0,0,0,28.34,29a1,1,0,0,0,.63-.88c0-.27,0-.54,0-.81a2.39,2.39,0,0,0-.3-1.31l-.2-.37s0,0,0,0c0-.18-.07-.32-.11-.48a.57.57,0,0,0-.28-.37.42.42,0,0,1-.2-.36,1.08,1.08,0,0,0-.15-.55L27.33,23a.13.13,0,0,1,0-.1c0-.23-.15-.37-.26-.54a3.12,3.12,0,0,0-.86-.76,3.24,3.24,0,0,0-.57-.4,6.11,6.11,0,0,0-1-.52,5.23,5.23,0,0,0-.54-.12c-.3,0-.58-.13-.87-.19s-.42-.06-.64-.09L22,20.26l-.14,0c-.45,0-.9,0-1.34-.06a3.23,3.23,0,0,0-1.47.3,1.6,1.6,0,0,1-.61.14,1.18,1.18,0,0,0-.3.1l-.64.29a2.64,2.64,0,0,0-.37.2c-.27.18-.55.36-.8.55a2.61,2.61,0,0,0-.67.77c-.11.18-.26.34-.38.52l-.35.58c-.13.21-.26.42-.37.64a3,3,0,0,0-.28.92c0,.16-.09.32-.13.48s0,.24-.07.36a6.5,6.5,0,0,0-.12.75c0,.2,0,.41,0,.62s0,.63,0,1c0,.17,0,.34.06.51s0,0,0,.05a.92.92,0,0,0,.38.65c.13.14.27.27.41.41a.36.36,0,0,0,.52,0,.17.17,0,0,1,.12-.05.32.32,0,0,0,.3-.11.1.1,0,0,1,.09,0,3.26,3.26,0,0,1,.93.18l.1,0a2.51,2.51,0,0,1,.66.14.19.19,0,0,1,.17.17c0,.14.08.16.21.12h.18l.44.05a.59.59,0,0,1,.42.24c.14.16.27.32.4.49a.65.65,0,0,1,0,.77,1.37,1.37,0,0,0-.23.45c-.05.16-.21.49,0,.53a3.57,3.57,0,0,0,.46,0l.64,0,1.26,0h.46A2.63,2.63,0,0,0,22.43,32.76Z"/><path class="cls-1" d="M0,44.16V0H76.43V44.16Z"/><path d="M4,37c.12-.34.24-.6.31-.86.22-.88.68-1.09,1.57-.79A11.85,11.85,0,0,0,16.5,34a10,10,0,0,1,8.4-.88c3.94,1.13,7.89,2.19,11.84,3.29a11.39,11.39,0,0,0,6.93-.2c2.25-.78,4.49-1.63,6.65-2.63a9,9,0,0,1,6.36-.63c3.19.83,6.42,1.49,9.66,2.11a15,15,0,0,0,3.21,0c.67,0,1.33-.12,2-.18L72,36.6a16.4,16.4,0,0,1-8.67.29c-2.51-.6-5-1.24-7.49-2a5.3,5.3,0,0,0-4.35.49c-3.37,1.88-6.91,3.43-10.83,3.32A40,40,0,0,1,33,37.59c-3-.68-5.9-1.61-8.83-2.51a7.87,7.87,0,0,0-6.86.86C13.05,38.66,8.65,38.54,4,37Z"/><path class="cls-1" d="M0,44.16V0H76.43V44.16Z"/><path d="M52.24,33.74h-.3c-.18,0-.26-.1-.19-.26a6.89,6.89,0,0,1,.44-1,1.63,1.63,0,0,1,.49-.45c.15-.11.17-.18.07-.33-.51-.78-1-1.58-1.52-2.36A24.15,24.15,0,0,1,50,27a23.35,23.35,0,0,1-1.24-2.63,2.24,2.24,0,0,0-.22-.4c-.13-.19-.19-.2-.36,0a.92.92,0,0,1-.76.3.63.63,0,0,1-.51-.33c-.22-.41-.46-.8-.65-1.23a2.45,2.45,0,0,1-.14-.78.42.42,0,0,0-.26-.42,1,1,0,0,1-.65-.86,8.69,8.69,0,0,1,0-1,.72.72,0,0,1,.09-.27c.1-.22.09-.27-.15-.34a.86.86,0,0,1-.59-.39s-.07-.1-.07-.15a5,5,0,0,1-.11-1.68,1.54,1.54,0,0,0-.08-.66c-.09-.35-.22-.7-.29-1.05a1.48,1.48,0,0,1,.91-1.5.88.88,0,0,0,.52-.95A.4.4,0,0,0,45,12.3l-.35,0c-.27,0-.36-.1-.34-.37s.08-.54.07-.81a2.64,2.64,0,0,0-.11-.73,1,1,0,0,1,0-.67l.18-.47a.51.51,0,0,1,.4-.32c.18,0,.23-.14.13-.31s-.19-.55-.46-.72a.2.2,0,0,1,0-.08c-.08-.41-.19-.82-.24-1.23a1.91,1.91,0,0,1,.32-1.29.79.79,0,0,1,.9-.27,2.06,2.06,0,0,1,.63.22.93.93,0,0,0,.73,0,3.87,3.87,0,0,1,.61-.12,3.06,3.06,0,0,0,.75-.19,15.22,15.22,0,0,0,1.41-.82,1,1,0,0,1,1.13.16.52.52,0,0,1,.1.26,1.54,1.54,0,0,0,.24.82,2.19,2.19,0,0,1,.35,1.26,1.7,1.7,0,0,1-.19.75A1.51,1.51,0,0,0,51.1,8.6a1.5,1.5,0,0,0,.52.92.31.31,0,0,0,.25.05.66.66,0,0,1,.77.24,3.39,3.39,0,0,1,.67,2.28.71.71,0,0,1-.4.6c-.11.05-.2.12-.17.26a.27.27,0,0,0,.26.24,2.69,2.69,0,0,0,.57,0c.59-.11,1,.14.9.74a11.85,11.85,0,0,1-.27,2c-.15.68-.45.83-1.14.71a.71.71,0,0,0-.25,0,.22.22,0,0,0-.22.23,2.93,2.93,0,0,0,.18.79.75.75,0,0,0,.8.38h.14c.35,0,.43,0,.47.38.06.54.08,1.09.11,1.63,0,.23,0,.47,0,.71a.62.62,0,0,1-.07.23c-.15.33-.23.36-.54.18a.39.39,0,0,0-.54.11,2.49,2.49,0,0,0-.55,1.53c0,.66-.09,1.32-.15,2a6.39,6.39,0,0,0,.13,1.38,12.45,12.45,0,0,1,.17,2,8.17,8.17,0,0,0,.18,1.37c.05.36.09.72.13,1.08,0,.15,0,.27-.18.31s-.12.11,0,.19.34.41.53.59a1,1,0,0,0,.38.18c.32.09.66.14,1,.24a2.52,2.52,0,0,1,.59.3.32.32,0,0,1,.08.41A.36.36,0,0,1,55,33c-.09,0-.2.12-.25.22-.16.28-.21.3-.51.2a.25.25,0,0,0-.2.06.47.47,0,0,1-.74-.08c-.07-.08-.15-.13-.23,0A.92.92,0,0,1,52.24,33.74Z"/></g></g></svg>