<svg xmlns="http://www.w3.org/2000/svg" viewBox="0 0 83.04 44.16"><defs><style>.cls-1{fill:none;}</style></defs><g id="Layer_2" data-name="Layer 2"><g id="Layer_1-2" data-name="Layer 1"><path class="cls-1" d="M0,44.16V0H83V44.16Z"/><path d="M66.67,6.62C63.46,6,60.2,5.42,57,4.63A5.1,5.1,0,0,0,53.36,5c-1,.5-2,1-3,1.54a18.68,18.68,0,0,1-6.77,1.94c-.56,0-1.12,0-1.76,0,.27.78.5,1.49.76,2.19a18,18,0,0,0,3.64,5.8,12.61,12.61,0,0,0,1.6,1.41c.94.75,1.89,1.49,2.85,2.19s1.86,1.31,2.79,1.94c.45.31.95.54,1.39.86s.88.72,1.32,1.08a5.27,5.27,0,0,0,.76.58c1.7.93,3.41,1.83,5.09,2.77a3.39,3.39,0,0,0,1.37.35,20,20,0,0,1,5,1.38c2,.75,4,1.47,6,2.19a3.23,3.23,0,0,0,1,.16c.9,0,1.8,0,2.69,0A1.36,1.36,0,0,1,79.47,33a1,1,0,0,1-.2.43,2.56,2.56,0,0,1-1.76.93c-.7.08-1.39.24-2.08.35a1.51,1.51,0,0,1-.56,0l-7.42-2.24c-.74-.22-1.47-.47-2.2-.7A3.44,3.44,0,0,0,62,32.5a10.37,10.37,0,0,1-5.19,2.14,22.62,22.62,0,0,1-3.08.16,12.36,12.36,0,0,0-4.39.62,7.09,7.09,0,0,1-2.51.39,7.62,7.62,0,0,0-3.39.93Q40.58,38,37.78,39.33A34.84,34.84,0,0,1,33.27,41a16.73,16.73,0,0,1-2.6.64,20.51,20.51,0,0,1-2.22,0,4.41,4.41,0,0,0-1.46.21A17.16,17.16,0,0,1,22.32,43a7.09,7.09,0,0,1-1.59-.1A17.25,17.25,0,0,1,19,42.59a2.32,2.32,0,0,1-1.3-.72A1.16,1.16,0,0,1,18.07,40a2.64,2.64,0,0,1,.88-.21c1.09,0,2.19-.05,3.28-.07a2,2,0,0,0,.43,0c.21,0,.52-.07.57-.2a.67.67,0,0,0-.2-.75A5.4,5.4,0,0,1,21.78,37c-.39-1-.77-2-1.08-3a5.45,5.45,0,0,1-.23-1.61,20.18,20.18,0,0,0-.78-5.46l-.75-2.66a1.18,1.18,0,0,0-.66-.78c-.34-.14-.68-.26-1-.39a5.22,5.22,0,0,1-2.55-1.7,5.66,5.66,0,0,1-.55-1c-.42-1-.82-1.93-1.21-2.9s-.7-1.95-1.11-2.9C11,12.73,10.17,10.88,9.33,9a12.69,12.69,0,0,0-.67-1.26.66.66,0,0,0-.37-.26c-.83-.24-4.62-.46-5.46-.69a2.43,2.43,0,0,1-.28-.1c.15-.44.28-.87.45-1.28A.81.81,0,0,1,4,5c.71.17,4.37.37,5.07.57.07,0,.14.15.17.24.31.82.58,1.65.92,2.46.47,1.1,1,2.17,1.48,3.27l3.15,7.15c.19.45.32.93.52,1.39a3.64,3.64,0,0,0,2,1.84c.19.08.37.15.56.21a3.47,3.47,0,0,1,2.59,2.8c.26,1.2.55,2.39.8,3.6a6.32,6.32,0,0,1,.09,1.31,16.49,16.49,0,0,0,.79,4.77,10.44,10.44,0,0,0,1.29,2.94,11.92,11.92,0,0,0,.91,1.11.83.83,0,0,1,.13.18,1.12,1.12,0,0,1-1,1.86c-.95.05-1.9.05-2.86.06a4.34,4.34,0,0,0-1.95.44,2.67,2.67,0,0,0,1.41.45,14.86,14.86,0,0,0,3.77,0A12.33,12.33,0,0,0,26,41a4.32,4.32,0,0,1,1.59-.3,17.22,17.22,0,0,0,7.1-1.44c2.8-1.23,5.64-2.4,8.46-3.58a15.62,15.62,0,0,1,4.77-1.09,9.09,9.09,0,0,0,1.86-.41,15.43,15.43,0,0,1,4.62-.72c1,0,2,0,3-.1A7.32,7.32,0,0,0,61,31.79a5.77,5.77,0,0,1,2.66-1.24,5,5,0,0,1,2.26.24c1.36.47,2.72.95,4.1,1.39.63.2,1.3.29,1.94.45a4.83,4.83,0,0,1,1,.33,4.11,4.11,0,0,0,1.85.42H77a1.49,1.49,0,0,0,1.11-.45c.16-.16.15-.3-.06-.39a.89.89,0,0,0-.36-.07c-.61,0-1.22,0-1.83,0A6.22,6.22,0,0,1,73.05,32c-1.83-.76-3.68-1.49-5.51-2.26a10,10,0,0,0-2-.45,22.42,22.42,0,0,1-4.4-1.21,14.39,14.39,0,0,1-1.29-.67c-.76-.43-1.5-.9-2.28-1.28a21.52,21.52,0,0,1-3-1.92c-1.53-1.11-3.1-2.14-4.62-3.26-1.28-.95-2.56-1.93-3.75-3a20.07,20.07,0,0,1-5.37-8.49c-.34-1-.6-2-.88-2.9h1.69a11.73,11.73,0,0,0,4.25-.91c2-.77,4-1.53,5.9-2.38a9.93,9.93,0,0,1,6.58-.55c1.76.43,3.53.8,5.3,1.18a19.53,19.53,0,0,1,2.75.61C67.36,4.85,66.84,5.92,66.67,6.62Z"/><path d="M11.55,5.75a12.57,12.57,0,0,0,6.37-2,9.52,9.52,0,0,1,4.55-1.43c.22,0,.33,0,.41.27.24.79.52,1.57.77,2.35.77,2.38,1.55,4.75,2.3,7.13a10.5,10.5,0,0,0,1.37,2.69,59,59,0,0,0,4.05,5.63,23.2,23.2,0,0,0,1.93,1.91,9.3,9.3,0,0,1,1.88,1.93,2.18,2.18,0,0,0,.58.5,81.27,81.27,0,0,0,6.64,4.71,12.1,12.1,0,0,0,2.74,1.25,1.46,1.46,0,0,1,1.15,1A1.25,1.25,0,0,1,46,33a3,3,0,0,1-.6.48,10.07,10.07,0,0,1-3.92,1.32A16.46,16.46,0,0,0,36,36.59a30,30,0,0,1-5.88,2.53,5.94,5.94,0,0,1-2.65.2,3.83,3.83,0,0,1-2.7-1.89,16.78,16.78,0,0,1-2.17-5,21.34,21.34,0,0,1-.31-2.25,35.51,35.51,0,0,0-.7-5.44,4.74,4.74,0,0,0-1.39-2.54,6.54,6.54,0,0,0-1.93-1.25,5,5,0,0,1-2.4-2.2A12.07,12.07,0,0,1,14,13.84a20.51,20.51,0,0,0-.69-2.61C13,10.16,12.7,9.09,12.37,8c-.19-.65-.46-1.27-.69-1.91ZM45.29,31.88l-.3-.16c-1.67-.89-3.38-1.73-5-2.7-1.12-.67-2.12-1.51-3.19-2.26a24.84,24.84,0,0,1-4.12-3.47A56,56,0,0,1,27.54,17a18.44,18.44,0,0,1-2.23-3.72c-.4-1.07-.84-2.13-1.19-3.22C23.69,8.7,23.34,7.32,22.94,6a8.23,8.23,0,0,0-.46-1.16c-.11-.25-.3-.31-.6-.28a9.68,9.68,0,0,0-3.29,1.34,17.57,17.57,0,0,1-3.47,1.52c-.52.14-1,.24-1.59.37a1.87,1.87,0,0,0,0,.25c.28,1.14.52,2.28.84,3.41a22.45,22.45,0,0,0,1.37,4.45c.11.22.2.45.29.68a5.58,5.58,0,0,0,3,3.24,6,6,0,0,1,3.33,3.53,16.56,16.56,0,0,1,.72,4.13A31.62,31.62,0,0,0,23.74,32a9.59,9.59,0,0,0,1.06,3c.44.67.83,1.37,1.28,2a1.91,1.91,0,0,0,1.53.82c.27,0,.53.11.8.15a1.88,1.88,0,0,0,1.1,0l4.67-2c1.2-.53,2.39-1.08,3.61-1.58a16.71,16.71,0,0,1,3.43-.85,18,18,0,0,0,4-1.53S45.26,31.92,45.29,31.88Z"/><path d="M24.34,2.38c.62.14,1.21.23,1.78.39l12,3.32a.53.53,0,0,1,.4.39,18.92,18.92,0,0,0,.65,2c.44,1,.89,2.06,1.42,3,.7,1.29,1.46,2.54,2.21,3.8a26.07,26.07,0,0,0,3.4,4.16,10.91,10.91,0,0,0,2,1.89c.46.29.93.58,1.41.82a19.65,19.65,0,0,1,2.87,1.75c1.25.9,2.58,1.68,3.86,2.53s2.29,1.53,3.44,2.29a2.72,2.72,0,0,0,.5.19c.14,0,.3.07.43.13.77.37.71.9.16,1.39a7.7,7.7,0,0,1-3.55,1.8,10.35,10.35,0,0,1-2.21.27c-1.52,0-3-.1-4.56-.22a4.43,4.43,0,0,1-1.35-.43A64.67,64.67,0,0,1,39.49,26a37.93,37.93,0,0,1-6-5.27,21.67,21.67,0,0,1-3.12-3.64,23.13,23.13,0,0,1-1.29-2.53c-1-2.24-2-4.5-3-6.75-.19-.44-.33-.89-.49-1.34-.11-.3-.22-.61-.32-.92C25,4.51,24.68,3.48,24.34,2.38Zm2.33,2.81c.06.24.09.42.15.6.23.79.43,1.6.71,2.37s.64,1.44.95,2.17c.6,1.4,1.11,2.84,1.81,4.19a24,24,0,0,0,4.3,5.68,38.13,38.13,0,0,0,6.27,5.21c1.71,1.12,3.38,2.29,5.11,3.36,1.08.68,2.23,1.24,3.36,1.83a6.07,6.07,0,0,0,2.28.71c1.07.08,2.15.14,3.22.16a6.2,6.2,0,0,0,2.78-.55c.7-.32,1.41-.59,2.1-.88l-3.89-2.6c-1.22-.8-2.47-1.58-3.7-2.37A21.75,21.75,0,0,0,50,23.66a16.59,16.59,0,0,1-5.12-3.91,32.46,32.46,0,0,1-5.23-7.88c-.52-1.16-1-2.32-1.54-3.49A.49.49,0,0,0,37.58,8a5.24,5.24,0,0,1-.67-.12,78.4,78.4,0,0,1-9.27-2.41Z"/></g></g></svg>