<svg xmlns="http://www.w3.org/2000/svg" viewBox="0 0 141.6 69.96"><g id="Layer_2" data-name="Layer 2"><g id="Layer_1-2" data-name="Layer 1"><path d="M119.49,17.59a3.26,3.26,0,0,1,2.92-.21c5.08,2.33,13.48,7.12,19.19,4.74-2.54-4-6.34-6.07-8.09-10.77a19.26,19.26,0,0,1-1.4-6.6c0-2.29,2-5.79-1.38-4.46-1.44.58-3.16,2.47-4.13,3.68a34.08,34.08,0,0,0-5,9,2.8,2.8,0,0,1-2.2,2,3.11,3.11,0,0,0-.68.19"/><path d="M79.43,26c-5.7-1.44-11.23-1.69-15.78-5.88-1.39-1.28-2.19-2.91-3.41-4.28-.93-1-2.56-1.65-3-3-.41-1.21-2.31-1.93-2.92-3.57a4.81,4.81,0,0,0-1.46-1.68,14.3,14.3,0,0,0-2.47-1.8A1.78,1.78,0,0,0,49,5.63c-.2,0-1.4.11-1.48.26a49.48,49.48,0,0,0-3.42,6.59,121.18,121.18,0,0,0-3.25,11.69L15.46,44.54c-3.09,2.81-6.17,5.64-9.08,8.63A52.85,52.85,0,0,0,1,59.72a5.69,5.69,0,0,0-1,3.67c.07.53,1.79,1,2.82,1.23,1.68.31,3.42.35,5.13.5l0,.58c-1.08.3-2.16.56-3.23.91s-2.52.39-2.35,2S4,70,5.12,70c2,0,4.06-.1,6.08,0,3.8.1,7.45-1.48,10.94-2.81,1.33-.51,2.77-.8,4.09-1.32a10.2,10.2,0,0,0,1.59-.85c.64-.42,1.26-.88,1.84-1.31a49.71,49.71,0,0,0,6-5.32c1.56-1.58,2.06-5,4.3-5.79a.78.78,0,0,1,.67.37l3.57-1.11c-.41-1.18.51-1,2.65-1.63,1.45-.91,1.81-.81,2.09.08l3.43-1.36c-.05-.24,0-.69.18-.77.93-.44.88-5.08,1.93-4.6l17.29,3.33a32.15,32.15,0,0,0,2.32-4.48c2-4.48,3.26-10.1,7.5-13"/><path d="M86.08,22.77"/><path d="M72.15,34.37a18,18,0,0,0,9,6.48,13.64,13.64,0,0,1,2.44,1.35,4.18,4.18,0,0,0,1.22.45c.1,0,.46-.54.4-.62a2.39,2.39,0,0,0-.86-.75c-3.41-1.64-6.93-3.08-9.63-5.87-.75-.78-1.46-1.59-2.38-2.59l1.77-2.54c4.33,2.95,8.36,5.71,12.42,8.44a9.07,9.07,0,0,0,2.35,1.22c.4.12.95-.26,1.43-.41a3.92,3.92,0,0,0-1-.83,24.77,24.77,0,0,1-8.17-4.94,10.36,10.36,0,0,0-1-.95C78,31.4,78,31.31,79.56,29.25a6.41,6.41,0,0,0,.41-1l13.82,9.46.49-.66c-1.73-1.41-3.43-2.87-5.21-4.22s-3.65-2.6-5.62-4c.72-.66,2.33-.88.57-2.15,3.29.61,4.74,3.26,7,4.82s4,3.11,6.25,4.86c.34-1.65-.65-2-1.3-2.58-1.7-1.4-3.44-2.74-5.14-4.13-.94-.75-1.84-1.55-3-2.55,1.64-.45,2.24-1.27,1.5-2.64l-.21-.16-1.91-.62c.21-.76.39-1.58.67-2.37a23.94,23.94,0,0,1,1.55-4.09c1-1.82,2.33-3.48,3.47-5.23a3.1,3.1,0,0,0,.22-1c-.37.07-.91,0-1.08.25a23.66,23.66,0,0,0-4.59,8.34,29,29,0,0,1-1.18,3.18,1,1,0,0,1-.32.42c-.79.61-1.6,1.2-2.63,2-.8-.09-1.1-.84-.66-1.75,1.4-2.93,2.91-5.82,4.37-8.73.53-1,1.49-1.91,1.37-3.19l-.43-.27a22.25,22.25,0,0,0-2,2.82c-1.67,3.22-3.22,6.5-4.87,9.73a2,2,0,0,1-1.12.93c-1.07.3-1.64.7-.88,1.85.11.16,0,.44,0,.72l-2-1.38A25.49,25.49,0,0,1,83.29,14c.32-.32.3-1,.44-1.47l-.5-.25c-.9,1-1.9,2-2.69,3.09a26.68,26.68,0,0,0-4.66,9.94c-.29,1.41-1.29,1.52-2.47,2.06A15.19,15.19,0,0,1,73.65,25a34.63,34.63,0,0,1,4.91-11.2,4.14,4.14,0,0,0,.36-1.32l-.5-.23A31,31,0,0,0,76,15.43,28.21,28.21,0,0,0,72,25.84a2,2,0,0,1-1.45,1.69Z"/><path d="M110.63,7.15c-1.06,2.37-2.07,4.59-3,6.83-.58,1.32-1.13,2.66-1.65,4a2.71,2.71,0,0,0,.85,3.51c1.61,1.26,3.06,2.73,4.61,4.08.62.53,1.29.79,1.86-.12-1.32-1-2.68-2-3.89-3.06s-1.12-1.86.22-3.36c1.72,1.79,3.4,3.58,5.14,5.31a2.37,2.37,0,0,0,1.25.58c.23,0,.52-.29.78-.46A5,5,0,0,0,116,23.4c-.86-.8-1.76-1.56-2.68-2.3a1.84,1.84,0,0,1-.33-2.84L120.75,24l.45-.48a7.74,7.74,0,0,0-1-1.19c-1.06-.86-2.21-1.61-3.24-2.5a1.42,1.42,0,0,1-.34-1.26,1,1,0,0,1,1.61-.53,41.78,41.78,0,0,1,3.39,2.7c.58.51,1,1.21,1.59,1.69.27.21.8.1,1.21.14-.11-.45-.09-1.06-.38-1.33-.92-.87-2-1.56-3-2.42a4.08,4.08,0,0,1-1-2.06C119,13,121.81,10.31,122.29,7c.08-.49.24-1,.37-1.48-1.2-.15-1.46.5-1.67,1.3-.59,2.18-1.1,4.4-1.89,6.52a14.91,14.91,0,0,1-2.12,3,2.44,2.44,0,0,1-.66-2.89c1.05-2.2,2.16-4.37,3.21-6.56a2.8,2.8,0,0,0,.1-.88c-.32.07-.79,0-.94.24a20.38,20.38,0,0,0-1.81,2.87c-1.1,2.22-2.09,4.51-3.19,6.74a3.49,3.49,0,0,1-1.25,1.22c.24-3.62,2.29-6.58,3.82-10a3.08,3.08,0,0,0-2.81,2.21c-.48,1.48-.87,3-1.45,4.43-.39,1-.34,2.23-1.82,2.63-.53.14-.79,1.25-1.3,1.86a14.62,14.62,0,0,1,2.8-9.28C112.5,7.81,111.67,7.68,110.63,7.15Z"/><path d="M97.39,21.35c.28.68.53,1.37.85,2,.13.26.49.66.62.62,1.66-.57,2.07,1.05,3,1.71,1.4,1,2.63,2.28,4,3.4a1.93,1.93,0,0,0,1.12.34c-1.26-2.58-3.53-4.06-5.78-5.53.76-1.69,1.33-1.82,2.68-.66,2,1.69,3.9,3.39,5.88,5,.2.17.66,0,1,0-.09-.31-.07-.74-.27-.93-1.48-1.38-3-2.72-4.5-4.08-.45-.41-.88-.85-1.36-1.32.51-1,1.37-1.71.21-3-.49-.53-.14-2.11.19-3.1.85-2.54,1.89-5,2.88-7.51a7.66,7.66,0,0,1,.67-1.14c-.92-.93-1.62-.06-1.83.49-1.1,2.84-2,5.77-3.07,8.61a23.27,23.27,0,0,1-2,3.6c-.12.19-.54.19-.82.28-.06-.32-.27-.69-.17-1,.7-2.1,1.38-4.21,2.22-6.26.49-1.2,1.26-2.28,1.85-3.44.13-.27,0-.67,0-1-.34.13-.86.16-1,.41-1.06,2-2.09,4.09-3,6.19a21.12,21.12,0,0,0-1,3.23C99.34,19.74,99,21,97,20.94Z"/><path d="M50.89,36.27c-1.06,2.37-2.06,4.59-3,6.83-.58,1.32-1.13,2.66-1.65,4a2.71,2.71,0,0,0,.85,3.51c1.61,1.26,3.06,2.73,4.61,4.08.61.54,1.29.79,1.86-.12-1.33-1-2.68-2-3.9-3.06s-1.11-1.86.23-3.36c1.72,1.79,3.4,3.58,5.14,5.32a2.36,2.36,0,0,0,1.25.57c.23,0,.52-.29.78-.46a5.34,5.34,0,0,0-.72-1.06c-.86-.8-1.77-1.56-2.68-2.3a1.84,1.84,0,0,1-.33-2.84L61,53.12l.45-.48a8.41,8.41,0,0,0-1-1.19c-1.06-.86-2.21-1.61-3.24-2.5a1.41,1.41,0,0,1-.33-1.25,1,1,0,0,1,1.61-.54c1.18.83,2.3,1.76,3.39,2.7.58.51,1,1.21,1.59,1.69.27.21.8.11,1.21.15-.12-.46-.09-1.07-.38-1.34-.93-.86-2-1.56-2.95-2.41a4.07,4.07,0,0,1-1-2.07c-1.08-3.76,1.73-6.45,2.21-9.73a15.1,15.1,0,0,1,.36-1.48c-1.19-.15-1.45.5-1.66,1.3-.59,2.19-1.1,4.41-1.89,6.52-.41,1.07-.39-.31-1.17.75-.86-.94-2.11.4-1.61-.64,1-2.2,2.15-4.37,3.21-6.56a2.8,2.8,0,0,0,.1-.88c-.32.07-.8,0-.94.24a21,21,0,0,0-1.81,2.87c-1.11,2.22.09,1.48-1,3.71-.25.5-1.21.33-1.72.67.25-3.62.58-3,2.11-6.46a3.08,3.08,0,0,0-2.81,2.21c-.48,1.48-.87,3-1.45,4.43-.39,1-.34,2.23-1.83,2.63-.52.14-.78,1.25-1.29,1.86A14.69,14.69,0,0,1,51.94,38C52.76,36.93,51.94,36.81,50.89,36.27Z"/><path d="M37.66,50.47c.28.68.52,1.37.85,2,.12.26.49.66.62.62,1.65-.57,2.07,1.05,3,1.71,1.4,1,2.63,2.28,4,3.4a1.91,1.91,0,0,0,1.12.34C45.91,56,43.65,54.51,41.4,53c.76-1.69,1.33-1.82,2.68-.66,2,1.7,3.9,3.39,5.88,5,.2.17.66,0,1,0-.09-.31-.07-.74-.28-.93-1.47-1.38-3-2.72-4.5-4.08-.45-.41-.87-.85-1.35-1.32.51-1,1.37-1.71.21-3-.5-.53-.15-2.11.18-3.09.85-2.55,1.9-5,2.89-7.52a7.66,7.66,0,0,1,.67-1.14c-.92-.93-1.62-.06-1.83.49-1.1,2.84-2,5.77-3.07,8.61a22.1,22.1,0,0,1-2,3.6c-.11.19-.53.19-.81.29-.07-.33-.27-.7-.18-1,.7-2.1,1.39-4.21,2.23-6.26.48-1.2,1.26-2.28,1.84-3.44.14-.27,0-.67,0-1-.34.13-.87.16-1,.41-1.06,2-2.1,4.09-3,6.19a21.21,21.21,0,0,0-1,3.24c-.35,1.31-.74,2.55-2.7,2.5Z"/><path d="M89.28,24.46c.24,1.89,1.93,2.27,3.16,3.2,1.6,1.2,3,2.67,4.52,4,.93.79,1.94,1.48,2.91,2.21,1.2-.7,1.16-.79,0-1.62-2.43-1.81-4.81-3.69-7.22-5.55l.37-.23.39-2.38.1-.24-1.63-2c1.26-3.65,2.53-7.59,5.19-10.93-2.19.53-2.8,2.44-3.62,4a68.33,68.33,0,0,0-2.78,6.78,11.18,11.18,0,0,1-1,1.34,10.29,10.29,0,0,0-.66,1.33Z"/><path d="M93.45,24.06a2.7,2.7,0,0,0,2.1,1.57c1.06.29,1.91,1.39,2.85,2.15,1.46,1.17,2.91,2.38,4.4,3.51.25.19.7.11,1,.15-.11-.36-.11-.86-.36-1.07-1.63-1.42-3.33-2.77-5-4.16-.6-.52-1.14-1.1-1.71-1.65l.5-.13c0-.78.19-1.72-.15-2.32a3.92,3.92,0,0,1,.06-3.76c.89-2.08,1.89-4.11,2.85-6.17.2-.45.42-.9.63-1.34l-.28-.32c-.38.23-.91.36-1.12.69-1.83,3-3.64,5.95-3.87,9.57a1,1,0,0,1-.47.78c-1.14.38-1.19,1.36-1.4,2.26Z"/><path d="M133.86,19a19.34,19.34,0,0,1-1.88-1.6c-2.5-2.71-3-5.68-1.15-8.76.22-.35.06-.93.08-1.4-.52.26-1.32.39-1.5.8-.59,1.32-.78,2.83-1.42,4.11-1.31,2.61-1.39,2.58,1,4.51,1,.86,2.05,1.77,3.15,2.53.4.28,1.05.2,1.58.28Z"/></g></g></svg>