<?xml version="1.0" encoding="UTF-8"?>
<svg id="Layer_2" data-name="Layer 2" xmlns="http://www.w3.org/2000/svg" viewBox="0 0 21.02 12.68">
  <defs>
    <style>
      .cls-1 {
        fill: none;
      }

      .cls-1, .cls-2 {
        stroke-width: 0px;
      }

      .cls-2 {
        fill: #010101;
      }
    </style>
  </defs>
  <g id="Layer_2-2" data-name="Layer 2">
    <g id="DMn">
      <g id="Layer_1-2" data-name="Layer 1-2">
        <g id="switch3">
          <g id="g7">
            <g id="g9">
              <path id="path9" class="cls-2" d="M15.89,3.5h.02s.58-.16,1.31-.14c.68.02,1.63.19,2.35.91l.07-.07c-.74-.74-1.73-.92-2.42-.94-.75-.02-1.33.14-1.34.14-.42.05-.33.05-1.3.2.08.11.1.27.01.38-.15.19-.59.22-.66-.09-.01-.06,0-.13,0-.19,0-.01,0-.02,0-.03l-.02-.05c-.13.03-3.16.67-3.4,1.11-.01.02-.02.04-.03.05-.28.02-.99.07-1.12.27-.01.02-.02.04-.03.06-.26-.02-.75,0-1.05.38-.16-.04-.31-.02-.46.04-.21.09-.47.2-.58.36-.06,0-.13,0-.2.03-.19.09-.47.18-.63.3-.11-.01-.18.02-.27.05-.26.11-.5.22-.46.49l-.07-.1h0v-.02s-1.06.5-1.3.5c-.13,0-.19.18-.2.32-.42.04-1.28.15-1.68.3v.02s0,.05-.02.07v-.02c-.79.24-1.13.22-1.16.15l-.05.02c.07.14.49.07.82-.01l-.74.31.02.05,1.07-.46s-.03.07-.01.1c.07.12,1.34-.18,1.48-.21-.22.07-1.46.45-1.7.54-.03,0-.07,0-.11.01l-.44.05v.05s.25-.03.25-.03c-.15.08-.28.18-.29.19l.02.02h0l.02.02s.04-.03.09-.07l.41-.17c.09,0,.49-.06.59-.08-.12.05-.22.09-.29.12-.01-.02-.04-.01-.17,0-.52.06-.8.4-.82.41l.04.03s.28-.33.77-.39c-.22.09-.62.29-.71.65h.05c.08-.31.45-.5.66-.59-.02.03-.01.07.05.08.3.08,1.5-.48,1.78-.62v-.02h-.02c.07-.04.14-.07.21-.09.07.07.16.11.27.11.26,0,.66-.2.89-.31.13.17.6.3.9.31-.1.23-.36.29-.33.41.01.07.08.23.18.34-.02.39-.37.92-.37.93l.04.03.63-.82-.02-.02h0l-.02-.02s.09-.04.14-.08c.19-.17.12-.53.04-.78.16-.03.35-.12.43-.26.04.06.06.07.07.07.02,0,.03-.01.03-.04,0,0,.01,0,.02,0,.1.37.14.52.23.57l-.05.02h-.03s-.07.29-.13.59c-.13.62-.08.65-.05.66.03.02.06-.01.08-.04.05-.06.14-.38.21-.69-.02.31-.03.6,0,.63.12.11.29-.89.16-1.14h-.02s-.03.02-.03.02c0-.01,0-.03,0-.04.1,0,.19-.01.22-.09.06-.15-.16-.49-.28-.64.09-.04.18-.1.25-.15.2.13.48-.05.66-.18.15.19.34.73.57.66.13.14.44.46.51.28.06-.16-.25-.39-.36-.46.03-.22-.3-.49-.48-.62.01,0,.03-.01.04-.02.12.1.27-.06.35-.13.05.27.39.75.64.69-.01,0-.03.02-.04.05h.05c.04-.16.87.97.98.76.06-.12-.73-.92-.83-1.02.04-.26-.31-.53-.55-.66.08-.05.16-.09.24-.13.04.08.1.13.19.12.09.2.38.45.61.64.04.04.06.06.09.06.04,0,.07-.04.09-.07.07.06.62.48.7.46.06.07.15.47.21.47.05,0,.04-.1.04-.16-.02-.44-.75-.94-.83-1,.02-.03.03-.06.05-.08.11-.15-.36-.42-.52-.51.02-.02.04-.04.05-.07.37.26,1.2.18,1.63,0,.25.17.54.3.84.41h0s0,0,0,0c.04.01.08.03.12.04-.02.04-.03.08-.06.09l.03.04s.06-.07.08-.12c.01,0,.02,0,.03,0-.02.05-.04.08-.06.1l.03.04s.07-.07.09-.13c.03,0,.06.02.09.02-.01.04-.03.06-.06.08l.03.04s.06-.06.08-.11c.01,0,.02,0,.03,0-.02.04-.05.07-.07.09l.03.04s.07-.07.1-.12c.03,0,.06.01.09.02-.02.05-.05.08-.08.1l.03.04s.08-.07.1-.13c.03,0,.07.01.1.02-.03.06-.05.1-.09.12l.03.04s.08-.08.11-.15c.01,0,.03,0,.04,0-.03.06-.05.1-.09.12l.03.04s.08-.08.11-.16c.02,0,.03,0,.05,0-.02.05-.05.09-.08.11l.03.04s.08-.08.11-.15c.02,0,.03,0,.05,0-.02.05-.05.08-.08.1l.03.04s.08-.07.11-.14c.02,0,.04,0,.06,0-.03.06-.06.11-.09.13l.03.04c.05-.03.09-.09.12-.17.03,0,.06,0,.09,0-.03.05-.05.1-.09.12l.03.04s.08-.08.11-.16c.02,0,.03,0,.05,0-.03.05-.05.1-.09.12l.03.04s.08-.09.12-.16c.02,0,.04,0,.06,0-.03.07-.06.13-.1.15l.03.04c.06-.03.1-.11.13-.2.02,0,.04,0,.06,0-.03.07-.06.12-.1.14l.03.04c.05-.03.09-.1.13-.19.02,0,.03,0,.05,0-.03.07-.06.13-.1.16l.03.04c.06-.03.1-.11.13-.21,0,0,.02,0,.03,0-.03.08-.07.15-.11.18l.03.04c.06-.04.1-.12.14-.23.03,0,.06,0,.08-.02-.03.08-.06.14-.11.16l.03.04s.07-.06.09-.11v.02c.06-.03.1-.08.13-.15.01,0,.03,0,.04-.01-.03.06-.06.11-.09.13l.03.04c.06-.03.1-.1.13-.19.01,0,.03-.01.04-.02-.03.08-.07.15-.11.17l.03.04c.07-.04.11-.13.15-.25.02-.01.03-.01.04-.02-.04.11-.08.2-.13.23l.03.04c.07-.04.12-.15.16-.28.01,0,.02.02.02.04-.03.1-.07.17-.12.2l.03.04s.04-.03.05-.05c-.1.28-.32.69-.21.6.14-.11.23-.27.28-.44.02,0,.23-.16.32-.51.27-.21.35-.63.33-.85.13-.27.13-.59.07-.68.07-.17.09-.35.08-.48.22-.36.2-.88.07-.8-.41.23-.85.4-1.29.47,0,0,0-.01,0-.02h-.05s0,.01,0,.02c-.02,0-.04,0-.05,0,0,0,0,0,0-.01h-.05s0,0,0,.02c-.02,0-.03,0-.05,0,0,0,0,0,0,0h-.05s0,0,0,.01c-.02,0-.03,0-.04,0,0,0,0-.01,0-.02h-.05s0,0,0,.02c-.03,0-.07,0-.1,0,0-.01,0-.02,0-.04h-.05s0,.02-.01.03c-.03,0-.06,0-.1,0,0-.02,0-.03.01-.05h-.04s0-.03,0-.04c.02.01.08,0,.12-.01.36-.05,1.45-.2,1.48-.31.01-.04.03-.07.04-.1.87-.17,2.78.8,3.3,2.83l.08-.02c-.54-2.12-2.52-3.06-3.4-2.88-.13-.03-.62.1-.75.14.17-.09.33-.18.42-.23.14-.08.14-.17.11-.25.08-.02.15-.04.22-.09.29-.05.95-.09,1.64.24.9.43,1.56,1.33,1.95,2.67l.08-.02c-.68-2.33-2.13-3.13-3.54-2.98.03-.03.02-.04.06-.04h0ZM9.7,7.72h0s0,0,0,0c0,0,0,0,0,0h0ZM9.28,6.89h-.03s.02,0,.03,0h0ZM14.03,4.77s0,0,.01,0c-.02.14-.03.26-.05.36-.01,0-.03,0-.04,0,0-.07,0-.15,0-.23.03-.04.06-.08.08-.12h0ZM14.09,5.34s.04-.05.06-.08c0,0,.01,0,.02,0-.03.14-.04.29-.06.43-.03,0-.07,0-.1-.01.02-.13.03-.28.06-.42,0,0,.02,0,.03,0-.01.02-.02.04-.04.05l.03.04h0ZM14.34,5.36s0,0,.01-.01c-.02.14-.03.25-.05.35-.02,0-.03,0-.05,0,.03-.14.03-.3.06-.44h.03s-.03.05-.04.06l.03.04h0ZM14.44,5.35s.01-.01.02-.02c-.02.14-.03.27-.06.38-.02,0-.03,0-.05,0,.03-.13.04-.3.06-.44,0,0,.02,0,.03,0-.01.02-.02.04-.04.05l.03.04h0ZM14.54,5.33s.02-.01.02-.02c-.02.14-.03.29-.06.4-.02,0-.04,0-.06,0,.03-.13.04-.3.07-.45,0,0,.02,0,.02,0,0,.01-.02.03-.03.03l.03.04h0ZM14.65,5.36s.05-.06.07-.11h0c-.03.16-.04.34-.07.46-.03,0-.06,0-.09,0,.03-.13.04-.32.07-.46.01,0,.02,0,.03,0-.01.03-.03.05-.04.07l.03.04h0ZM14.79,5.32s0,0,.01-.01c-.02.15-.03.29-.06.39-.02,0-.03,0-.05,0,.03-.13.04-.31.07-.47,0,0,.02,0,.03,0-.01.02-.02.04-.04.05l.03.04h0ZM14.9,5.31s.02-.02.02-.03c-.02.14-.03.3-.06.41-.02,0-.04,0-.06,0,.03-.13.04-.32.07-.47,0,0,.02,0,.03,0-.01.02-.02.04-.03.05l.03.04h0ZM15,5.32s.02-.02.02-.03c-.02.15-.03.28-.06.38-.02,0-.04,0-.06,0,.03-.14.04-.33.07-.48.01,0,.03,0,.04,0-.01.04-.03.07-.05.08l.03.04h0ZM15.29,5.27s.03-.04.05-.06c-.02.16-.03.3-.06.41-.02,0-.05.01-.07.02.03-.12.04-.28.06-.42.01-.02.02-.04.03-.07,0,0,.02,0,.03,0-.01.04-.03.08-.06.1l.03.04h0ZM15.6,5.09c-.02.17-.03.34-.08.44-.01,0-.02,0-.03.01.05-.13.06-.33.08-.5,0,0,.01,0,.02,0,0,0-.01.02-.02.02l.03.03h0ZM15.76,5.06c-.03.07-.03.11,0,.09,0,.08-.02.16-.03.23-.01.03-.02.06-.04.09,0,0,0,0-.01,0,.03-.13.04-.31.07-.46,0-.02.01-.03.02-.05,0,0,.02,0,.03,0,0,.01,0,.02,0,.04-.01.03-.03.05-.04.06l.02.02h0ZM15.7,4.99s-.03.05-.04.06l.03.03c-.02.16-.03.31-.07.41-.01,0-.02.01-.03.02.04-.13.05-.33.08-.5,0,0,0,0,0,0,.01,0,.02-.01.03-.02,0,0,0,0,0,0h0ZM15.36,6.33c-.02.06-.03.12-.04.17-.01,0-.03.01-.04.02.02-.08.04-.16.06-.24,0-.01.02-.03.03-.05,0,0,.02,0,.02,0,0,.01,0,.03-.01.04-.01.02-.03.03-.04.04l.02.03h0ZM15.28,6.33c-.02.08-.04.14-.06.22-.01,0-.03.01-.04.02.02-.09.05-.19.07-.28,0,0,0-.01,0-.02.01,0,.02,0,.03,0,0,0,0,0,0,0-.01.02-.03.03-.04.04l.02.03h0ZM15.28,6.65s0,.01,0,.02h-.02s.01-.01.02-.02ZM14.86,6.46c-.02.08-.03.14-.05.21,0,0-.02,0-.03,0,.02-.09.04-.18.07-.26.01-.02.03-.05.04-.08,0,0,0,0,.01,0,0,.02-.01.04-.02.06-.01.02-.03.03-.04.04l.02.03h0ZM13.65,6.63c.03-.1.05-.2.08-.3,0-.01.01-.02.02-.03.03,0,.06,0,.09.01,0,.01,0,.02-.01.04-.01.02-.03.03-.04.04l.02.03c-.03.09-.04.15-.06.23-.03,0-.07-.01-.1-.02h0ZM13.72,6.75s-.01.03-.02.05c0-.02.01-.03.02-.05h0ZM13.47,6.32s.04-.04.06-.07c0,0,.02,0,.02,0,0,0,0,0,0,.01-.01.02-.03.03-.04.04l.02.03c-.02.09-.04.17-.06.25-.02,0-.04-.01-.06-.02.01-.11.02-.23.04-.33,0,0,.02,0,.03,0,0,.02-.02.03-.03.04l.03.04h0ZM13.59,6.29s0-.01.01-.02c.03,0,.06.01.09.02,0,0,0,.02,0,.02-.01.02-.03.03-.04.04l.02.03c-.02.09-.04.16-.06.24-.03,0-.06-.01-.09-.02.03-.1.05-.21.08-.31h0ZM13.91,5.9s.05-.07.07-.12c0,0,.02,0,.02,0-.04.13-.07.29-.12.42-.03,0-.07-.01-.1-.02.04-.12.07-.29.11-.42,0,0,.02,0,.03,0-.01.04-.03.07-.05.09l.03.04h0ZM14.26,5.91s.02-.02.03-.04c-.04.13-.06.26-.1.37-.02,0-.04,0-.05,0,.04-.11.06-.24.1-.36l.03.03h0ZM14.24,5.86s.01-.04.02-.05c0,0,0,0,.02,0,0,.02-.02.04-.03.05h0ZM14.15,5.92s.01,0,.02-.02c-.03.13-.06.23-.09.32-.02,0-.03,0-.05,0,.03-.1.06-.22.09-.33l.03.03ZM14.13,5.88s.02-.06.03-.08c0,0,.01,0,.02,0-.01.03-.03.06-.05.08ZM14.06,5.92s0,0,0,0c-.03.12-.05.21-.08.3-.01,0-.03,0-.04,0,.03-.1.06-.21.09-.33l.03.04ZM14.03,5.88s.02-.06.03-.09c0,0,.02,0,.02,0-.01.04-.03.07-.05.09ZM13.87,6.36s.02-.03.03-.05c.01,0,.02,0,.03,0,0,.01,0,.03-.01.04-.01.02-.03.03-.04.04l.02.03c-.03.1-.04.15-.06.24-.01,0-.03,0-.04,0,.03-.1.05-.2.08-.29h0ZM13.97,6.38s.02-.03.03-.05c.01,0,.02,0,.04,0,0,0,0,.02,0,.03-.01.02-.03.03-.04.04l.02.03c-.02.09-.04.17-.07.25-.02,0-.03,0-.05,0,.03-.1.05-.2.08-.29h0ZM14.07,6.38s.02-.03.02-.04c.01,0,.03,0,.04,0,0,0,0,0,0,.01-.01.02-.03.03-.04.04l.02.03c-.03.1-.05.18-.07.27-.02,0-.04,0-.05,0,.03-.1.05-.21.08-.31ZM14.18,6.37s.01-.02.02-.03c.02,0,.03,0,.05,0,0,.01,0,.03-.01.04-.01.02-.03.03-.04.04l.02.03c-.03.09-.04.16-.06.24-.02,0-.04,0-.06,0,.03-.1.05-.22.08-.32h0ZM14.28,6.41s.02-.04.03-.06c.03,0,.05,0,.08,0,0,0,0,.02,0,.02-.01.02-.03.03-.04.04l.02.03c-.03.09-.05.18-.07.26-.03,0-.06,0-.09,0,.03-.1.05-.2.08-.29h0ZM14.47,5.91s.05-.06.06-.1h.03c-.04.13-.08.31-.12.43-.03,0-.06,0-.09,0,.03-.11.06-.24.1-.36l.02.03h0ZM14.45,5.85s0-.03.01-.04h0s-.01.03-.02.04h0ZM14.66,6.24s-.04,0-.06,0c.04-.12.07-.27.11-.39h.01s.03-.02.05-.05c0,0,.01,0,.02,0-.05.14-.08.3-.12.44h0ZM14.81,5.87h.01s.04-.04.06-.07c0,0,0,0,.01,0-.05.14-.08.3-.12.44-.02,0-.04,0-.06,0,.03-.12.06-.25.1-.37h0ZM14.54,6.25s-.03,0-.05,0c.04-.11.07-.26.1-.39l.02.02s.04-.04.05-.07c-.04.13-.08.31-.12.43h0ZM14.43,6.4s.02-.03.03-.04h.04s0,.01,0,.02c-.01.02-.03.03-.04.04l.02.03c-.03.09-.05.18-.07.26-.02,0-.03,0-.05,0,.03-.1.05-.21.08-.31h0ZM14.53,6.39s.02-.03.03-.04c.02,0,.03,0,.05,0,0,.02-.01.03-.02.05-.01.02-.03.03-.04.04l.02.03c-.02.09-.04.15-.06.23-.02,0-.04,0-.06,0,.03-.1.05-.21.08-.31h0ZM14.63,6.42s.03-.05.04-.08c.01,0,.03,0,.04,0,0,.01,0,.03-.01.04-.01.02-.03.03-.04.04l.02.03c-.03.09-.04.16-.06.24-.02,0-.04,0-.06,0,.02-.09.05-.19.07-.27h0ZM14.68,6.68c.02-.09.05-.19.07-.28.01-.02.03-.04.04-.07.01,0,.02,0,.04,0,0,.02-.01.03-.02.05-.01.02-.03.03-.04.04l.02.03c-.03.09-.04.15-.06.23-.02,0-.03,0-.05,0h0ZM14.69,6.8s-.02.07-.04.09c.01-.03.02-.06.03-.09,0,0,0,0,0,0h0ZM14.88,6.22s-.03,0-.05,0c.04-.12.06-.26.1-.38h0s.03-.03.05-.06c0,0,.01,0,.02,0-.05.14-.08.3-.12.44ZM15.03,5.83h0s.03-.04.05-.06h0c-.05.13-.08.3-.12.44,0,0-.02,0-.03,0,.04-.12.06-.26.1-.38h0ZM15.12,5.83s.04-.04.05-.07c.02,0,.04,0,.05-.01-.05.14-.08.3-.12.44-.03,0-.05.01-.08.02.03-.12.06-.26.1-.37h0ZM15.17,6.17h-.01s0,0,0,0c0,0,0,0,0,0,.04-.13.07-.3.12-.43,0,0,0,0,0,0,0,0,.01,0,.02,0-.05.16-.08.32-.12.44h0ZM15.35,5.71s.02,0,.04-.01c-.05.15-.08.31-.12.44-.01,0-.02,0-.04.01.04-.12.08-.3.12-.44h0ZM15.1,6.31h0c-.03.12-.05.21-.08.3,0,0-.02,0-.03,0,.02-.08.04-.17.07-.25.01-.02.02-.04.03-.06h0ZM15.17,6.28s.01,0,.02,0c0,0-.01.01-.02.02l.02.03c-.03.09-.04.18-.07.26-.01,0-.02,0-.04.01.03-.1.05-.21.08-.31h0ZM15.36,6.11s-.02,0-.04.01c.04-.13.07-.3.12-.43.01,0,.03,0,.04-.01-.05.14-.08.3-.12.43h0ZM15.55,5.65s.03,0,.04-.02c-.05.13-.08.3-.12.44-.01,0-.03,0-.04.01.04-.14.07-.31.12-.44h0ZM15.58,5.8s.03-.02.04-.03c-.03.09-.05.18-.07.27-.01,0-.03.01-.04.02.02-.08.04-.17.07-.25ZM15.6,5.64s0,0,0,0c0,0,.01,0,.02,0,0,0,0,.01,0,.02h-.02s0,0,0,0ZM15.43,5.57s-.02,0-.03.01c.05-.11.06-.28.08-.43,0-.02.02-.04.03-.06v.02c-.01.17-.02.37-.08.47h0ZM15.43,5.13s-.02.03-.03.04l.02.03c-.01.11-.03.31-.08.4.03-.14.04-.33.07-.49,0,0,.02,0,.03,0,0,.01,0,.02,0,.04h0ZM15.22,5.2s-.02.03-.03.04l.02.03c-.02.14-.03.28-.06.38,0,0-.02,0-.03,0,.03-.14.04-.33.07-.49,0,0,.02,0,.03,0,0,.01,0,.03,0,.04h0ZM15.12,5.29s0,0,.01-.01c-.02.15-.03.28-.06.38-.02,0-.03,0-.05,0,.03-.14.04-.33.07-.48.01,0,.02,0,.04,0-.01.03-.03.06-.05.07l.03.04h0ZM14.36,5.81s0,.01-.01.02c0,0,0-.01,0-.02h0ZM14.36,5.89s.04-.04.05-.07c-.05.14-.07.29-.12.42-.02,0-.04,0-.06,0,.04-.11.07-.25.1-.38l.02.03h0ZM14.21,5.32l.03.04s0,0,0,0c-.02.12-.03.24-.05.34-.01,0-.03,0-.04,0,.02-.13.03-.29.06-.43.01,0,.02,0,.03,0-.01.03-.03.05-.04.06ZM13.92,5.24s0,0,0,0c0,0,.02,0,.03,0,0,.02-.02.03-.03.04l.03.04s.04-.04.05-.07c0,0,.01,0,.02,0-.03.14-.03.29-.06.41-.03,0-.06-.01-.09-.02.02-.12.03-.27.06-.4h0ZM13.81,5.06s.06-.07.09-.11c0,.06,0,.11,0,.16-.03,0-.06-.01-.09-.02,0-.01,0-.02,0-.03h0ZM13.77,5.28s.02-.04.03-.06c.03,0,.05,0,.08.01,0,.01-.01.03-.02.03l.02.02c-.02.12-.03.24-.05.35-.02,0-.03,0-.05-.01,0-.11,0-.23,0-.34h0ZM13.79,5.75s-.03.07-.05.09l.03.04s.05-.07.07-.12c0,0,.01,0,.02,0-.04.14-.07.29-.11.42-.03,0-.06-.01-.09-.02.04-.12.07-.28.11-.41,0,0,.02,0,.03,0h0ZM13.63,5.26s0,0,0,0l.03.04s.04-.05.05-.09c0,0,0,0,.01,0,0,.02,0,.04,0,.06,0,0,0,0,0,0h0c0,.12,0,.23,0,.34-.03,0-.06-.02-.09-.02,0-.11,0-.22,0-.33h0ZM13.6,5.82s.02-.07.03-.11c.03,0,.06.01.09.02,0,.04-.02.07-.04.09l.02.02c-.03.11-.05.21-.08.3-.01,0-.03,0-.04-.01.02-.09.02-.2.04-.31h0ZM13.57,5.31c0,.1,0,.18,0,.26-.01,0-.02,0-.03,0,0-.08,0-.13,0-.22.01-.01.02-.02.03-.03h0ZM13.57,5.7s-.01.07-.02.11c0,.01-.01.02-.02.03l.02.02c-.01.1-.02.19-.03.27-.03,0-.06-.02-.09-.03.01-.08.02-.17.03-.27l.03.03s.06-.09.06-.16c0,0,.02,0,.02,0h0ZM13.46,5.8s.01-.09.02-.13c0,0,.01,0,.02,0,0,.05-.02.1-.04.12h0ZM13.49,5.39c0,.06,0,.11,0,.16-.03,0-.05-.02-.08-.03,0-.02,0-.04,0-.06.03-.03.05-.05.08-.08ZM13.39,5.66s0,0,0,0c0,0,.02,0,.03,0-.03.14-.04.29-.05.42-.01,0-.02,0-.03,0,.02-.13.02-.27.05-.41h0ZM13.26,6.52c.01-.1.02-.22.04-.31,0,0,0,0,0-.01.01,0,.02,0,.03,0-.01.03-.03.05-.05.06l.03.04s.05-.05.07-.09c0,0,0,0,0,0-.02.11-.03.22-.04.33-.03,0-.06-.02-.09-.03h0ZM13.34,6.66c0,.05-.02.09-.04.12.01-.04.03-.08.04-.12,0,0,0,0,0,0h0ZM13.24,5.63s0,0,0,0c0,0,0,0,0,0l.03.04s.02-.02.03-.04c.02,0,.03,0,.05.01,0,0,0,0,0,0,0,0,0,.01-.01.02h0c-.03.14-.03.28-.05.4-.03,0-.05-.02-.08-.03.03-.1,0-.25.02-.4h0ZM13.23,6.17s.02,0,.03,0c0,0,0,0,0,0-.01.02-.02.04-.04.05l.02.03c-.01.08-.02.15-.03.23-.01,0-.02,0-.03-.01.01-.11.02-.22.04-.32h0ZM13.19,6.62s0,0,.01,0c0,.06-.02.11-.04.15,0-.05.02-.1.03-.15ZM13.14,6.48s-.05-.02-.08-.03c0-.1-.01-.21.01-.32.04.01.07.02.11.04-.03.1-.03.21-.04.32h0ZM13.14,5.71s.03-.02.04-.04c0,.14.01.26-.01.34-.02,0-.03-.01-.05-.02.03-.07.02-.17.02-.28ZM13.01,5.82s.05-.05.08-.07c0,.08,0,.17-.01.22-.03-.01-.05-.02-.08-.03.01-.03.01-.07.01-.12h0ZM12.98,6.09s.03.01.04.02c-.03.11-.01.22-.01.32-.01,0-.03-.01-.04-.02,0-.1-.01-.21,0-.32ZM12.99,6.56s-.02.04-.04.05c0-.02,0-.04.01-.05,0,0,.01,0,.02,0h0ZM12.96,5.87s0,.04,0,.05c-.01,0-.02-.01-.04-.02.02-.01.03-.03.05-.04h0ZM12.85,6.04s.06.02.08.03c-.02.11-.01.22-.01.32-.03-.01-.06-.02-.08-.04,0-.1-.01-.21,0-.31h0ZM12.74,6.04s.02-.02.04-.03c0,0,.01,0,.02,0-.02.11-.02.21-.01.31-.01,0-.03-.01-.04-.02,0-.08,0-.17,0-.27h0ZM12.69,6.08c0,.08,0,.14,0,.2-.01,0-.03-.02-.04-.02,0-.04,0-.09,0-.15.01-.01.03-.02.04-.03h0ZM12.54,6.2s.04-.03.06-.05c0,.03,0,.06,0,.09-.02-.01-.04-.02-.07-.04h0s0,0,0,0ZM12.21,6.63c-.06-.03-.12-.07-.17-.11.06-.03.11-.06.2-.12,0,.08,0,.17-.02.23ZM12.32,6.7s-.04-.02-.06-.04c.03-.07.03-.18.03-.29.02-.02.05-.03.07-.05-.02.15,0,.29-.04.37ZM12.42,6.74s-.03-.02-.05-.03c.05-.09.02-.26.04-.41.01,0,.03.01.04.02,0,0,0,0-.01.01v.02c0,.15.02.3-.02.38h0ZM12.55,6.38s0,0,0,0h0c-.04.15-.01.31-.03.41-.02,0-.04-.02-.06-.03.05-.1.02-.26.04-.41.02,0,.03.02.05.03,0,0,0,0,0,0h0ZM12.76,6.55c-.02.13,0,.25-.02.33-.06-.02-.12-.05-.17-.07.03-.11,0-.26.03-.4,0,0,0,0,0,0,.02,0,.03.02.05.02,0,0,0,0-.01.01l.03.04s.02-.02.03-.03c.02,0,.05.02.07.03,0,.02-.02.03-.04.05l.02.03h0ZM12.86,6.93s-.05-.02-.07-.03c.03-.11,0-.27.04-.41.03.01.05.02.08.03,0,.01-.02.03-.03.04l.03.04s.01,0,.02-.01c-.03.11-.04.23-.06.34ZM12.93,6.96s-.02,0-.03-.01c.02-.11.03-.23.06-.34l.03.04c-.02.1-.03.21-.05.31ZM13.07,7s-.06-.02-.09-.03c.02-.13.03-.28.07-.4.02,0,.05.02.07.02-.01.08-.03.15-.07.18l.03.04s.02-.02.03-.03c-.01.08-.02.15-.03.21h0ZM13.17,7.03s-.03,0-.05-.01c.01-.05.02-.12.03-.18h0c.05-.03.08-.1.1-.2.01,0,.03,0,.04.01-.04.12-.08.27-.12.38h0ZM13.31,7.07s-.06-.01-.09-.02c.02-.06.04-.14.07-.21v.02c.06-.03.09-.1.11-.18.01,0,.03,0,.04.01-.03.07-.06.13-.09.15l.03.04s0,0,0,0c-.02.06-.04.13-.06.19h0ZM13.46,7.1s-.07-.01-.1-.02c.04-.12.08-.26.12-.38.03,0,.06.01.09.02-.03.08-.06.14-.1.16l.03.04s0,0,.01-.01c-.02.06-.04.13-.06.18h0ZM13.55,7.11s-.03,0-.04,0c.04-.12.08-.26.12-.37.01,0,.03,0,.04,0-.04.12-.08.25-.12.37h0ZM13.65,7.13s-.03,0-.05,0c.02-.05.03-.11.05-.16.04-.03.07-.07.09-.13-.03.1-.06.2-.09.29ZM13.75,7.14s-.04,0-.05,0c.02-.05.04-.11.05-.16.05-.04.08-.11.11-.2,0,0,0,0,0,0-.02.05-.03.1-.05.16,0,0,0,0,0,0h0c-.02.07-.04.14-.06.2h0ZM13.86,7.15s-.04,0-.06,0c.02-.06.04-.12.06-.18.04-.04.07-.1.1-.17,0,0,.01,0,.02,0-.02.04-.03.09-.05.14,0,0,0,0,0,0h0c-.02.08-.04.15-.06.22h0ZM14.01,7.15s-.06,0-.09,0c.02-.06.04-.13.06-.2.04-.04.06-.09.09-.16.02,0,.04,0,.06,0-.02.05-.05.14-.1.17l.03.04s0,0,0,0c-.02.05-.03.1-.05.15h0ZM14.11,7.15s-.03,0-.05,0c.03-.1.02-.07.11-.35.02,0,.03,0,.05,0-.02.05-.03.1-.05.15,0,0,0,0,0,0h0c-.02.08-.04.14-.06.2h0ZM14.23,7.15s-.04,0-.06,0c.02-.05.04-.11.05-.17.04-.04.07-.1.1-.17,0,0,.01,0,.02,0-.02.04-.03.08-.04.13,0,0-.01.01-.02.02h0c-.02.08-.04.14-.05.19h0ZM14.38,7s-.03.09-.04.14c-.02,0-.04,0-.06,0,.02-.06.04-.12.05-.18.03-.04.06-.09.08-.15.01,0,.02,0,.03,0-.02.05-.04.1-.05.16,0,0-.01.01-.02.02h0s0,.01,0,.01ZM14.5,6.97c-.02.08-.03.11-.05.15-.02,0-.04,0-.05,0,.01-.04.03-.09.04-.14.04-.04.07-.11.09-.18,0,0,.01,0,.02,0-.02.05-.03.1-.05.15,0,0,0,0,0,0h0s0,0,0,0ZM14.53,7.11s-.02,0-.03,0c.01-.04.02-.08.04-.13.02-.02.03-.04.05-.06-.02.06-.04.12-.06.19ZM14.67,7.25s.02-.04.02-.06c0,0,.01,0,.02,0-.01.03-.03.05-.04.06h0ZM14.67,6.97l.03.04s-.01.05-.02.07c-.03,0-.06.01-.09.02l.03-.1h0c.06-.03.09-.11.13-.21,0,0,.01,0,.02,0-.01.03-.02.07-.04.11-.02.03-.04.06-.06.07h0ZM14.76,7.05s-.02,0-.03,0c.02-.05.03-.09.04-.14.02-.04.04-.08.05-.14,0,0,.01,0,.02,0-.03.09-.06.19-.08.27h0ZM14.86,7.01s-.03,0-.04.01c0-.02.01-.04.02-.06.02-.01.03-.03.05-.05-.01.03-.02.07-.03.1ZM14.88,6.83s.01-.04.02-.06c0,0,0,0,0,0,0,.02-.02.05-.03.06h0ZM14.91,6.62s0,.02-.01.03c-.01,0-.02,0-.03,0,.02-.08.04-.17.06-.24.02-.03.03-.06.05-.09.02,0,.04,0,.06,0,0,.01,0,.02-.01.03-.01.02-.03.03-.04.04l.02.03c-.02.08-.04.15-.06.22,0,0,0,0,0,0l-.03-.02h0ZM15,6.83s0,0,0,0h0s-.03.09-.04.14c-.01,0-.03.01-.04.02l.04-.13s.04-.04.06-.07c0,.01,0,.03-.01.04h0ZM15.09,6.84s0,0,0,0h0s-.02.06-.02.08c-.01,0-.03.01-.04.02,0-.03.02-.05.02-.08.02-.02.04-.04.06-.08,0,.02-.01.03-.02.05h0ZM15.14,6.94s-.02-.02-.03-.03c0-.01,0-.03.01-.04.02-.02.04-.05.06-.08,0,.02-.01.03-.02.05,0,0,0,0,0,0h0s-.02.06-.03.09h0ZM15.16,7.33c.02-.12.03-.23.01-.31l.05-.15c.05-.05.09-.14.12-.25.01,0,.02,0,.03,0-.03.1-.07.19-.12.23l.03.04s.08-.1.11-.18c-.02.15-.17.44-.24.62h0ZM15.43,6.31l.02.03s-.02.08-.03.12c-.01,0-.02,0-.04,0,0,0,.02-.1.05-.18.02-.03.03-.06.05-.09,0,0,.01,0,.02,0,0,.03-.02.05-.03.08-.01.02-.03.03-.04.04h0ZM15.48,6.77c.01-.12,0-.22-.03-.27.02-.07.04-.14.06-.21.02-.04.05-.08.06-.14.02-.01.03-.02.05-.02-.08.19-.15.34-.07.28.05-.04.09-.08.13-.13-.04.14-.13.34-.2.49h0ZM15.69,5.96s0,0-.08.04c.03-.11.05-.22.09-.32.03-.03.05-.07.08-.11.05.04-.01.21-.09.39h0ZM15.8,5.19s0-.05,0-.08c0,0,.01-.01.02-.02,0,.03-.02.07-.03.1ZM15.84,4.36c.08-.04.16-.1.17-.01h-.03c-.02.08-.04.2-.05.29-.02.04-.03.08-.05.11.02-.13.03-.28.06-.4h-.05c-.03.12-.05.29-.07.44-.01,0-.02.01-.04.02.02-.14.03-.32.07-.45h-.02s0,0,0,0ZM15.77,4.39s.02-.01.04-.02c-.04.15-.04.32-.07.47-.01,0-.02.01-.03.02.03-.14.04-.33.07-.47ZM15.68,4.44s.02-.01.04-.02c-.03.15-.04.33-.07.47-.01,0-.02.01-.03.02.03-.13.04-.32.07-.47ZM15.58,4.48s.03-.01.05-.02c-.03.14-.04.34-.07.47h0s0,0,0,0c0,0,0,0-.01,0,.02-.15.03-.32.07-.45h-.03s0,0,0,0ZM15.43,4.54s.08-.03.12-.05c-.03.14-.04.3-.07.44h-.02s0,.02,0,.03c-.02,0-.04.01-.05.02.02-.14.03-.31.07-.44h-.04s0-.01,0-.01ZM15.39,4.55s.02,0,.03-.01c-.04.14-.05.32-.07.46,0,0-.02,0-.03,0,.02-.15.03-.33.07-.46h0s0,0,0,0ZM15.28,4.59s.03-.01.05-.02c-.03.15-.04.32-.07.46-.02,0-.03.01-.05.02.03-.14.03-.32.07-.46h0ZM15.17,4.63s.04-.01.06-.02c-.03.15-.04.31-.07.46-.02,0-.04.01-.06.02.02-.14.03-.32.07-.45h0ZM15.05,4.66s.04-.01.06-.02c-.03.15-.04.31-.06.45-.02,0-.04,0-.06.01.03-.13.04-.3.06-.44h0ZM14.95,4.68s.03,0,.05-.01c-.03.16-.03.31-.06.44-.02,0-.03,0-.05,0,.03-.13.04-.3.06-.44h0ZM14.8,4.72s.06-.01.09-.02c-.03.15-.03.31-.06.43-.03,0-.06,0-.09.01.03-.13.03-.29.06-.42h0ZM14.69,4.73s.04,0,.06,0c-.03.15-.03.3-.06.42-.02,0-.04,0-.06,0,.03-.12.04-.28.06-.41ZM14.58,4.75s.04,0,.06,0c-.02.14-.03.29-.06.41-.02,0-.03,0-.05,0,.03-.12.04-.27.06-.41ZM14.48,4.76s.03,0,.05,0c-.02.13-.03.29-.06.4-.02,0-.03,0-.05,0,.02-.12.03-.26.06-.4ZM14.39,4.77s.03,0,.04,0c-.02.13-.03.28-.06.39-.01,0-.03,0-.04,0,.02-.11.03-.26.05-.39ZM14.24,4.77s.07,0,.1,0c-.02.13-.03.27-.05.38-.03,0-.07,0-.1,0,.02-.11.03-.25.05-.37h0ZM14.09,4.77s.06,0,.1,0c-.02.13-.03.26-.05.37-.03,0-.06,0-.09-.01.02-.11.03-.24.05-.36Z"/>
            </g>
          </g>
        </g>
      </g>
    </g>
    <circle class="cls-2" cx="14.28" cy="3.8" r=".21"/>
    <rect class="cls-1" width="21.02" height="12.68"/>
  </g>
</svg>