<?xml version="1.0" encoding="UTF-8" standalone="no"?>
<!-- Created with Inkscape (http://www.inkscape.org/) -->

<svg
   version="1.2"
   width="336.00101"
   height="200.881"
   viewBox="0 0 336.001 200.881"
   id="Layer_1"
   xml:space="preserve"
   style="overflow:inherit"
   xmlns="http://www.w3.org/2000/svg"
   xmlns:svg="http://www.w3.org/2000/svg"><defs
   id="defs12" />
<g
   id="a1Dt1N_1_">
	<g
   id="g4">
		<path
   d="m 0,121.2 c 3.39,5.396 3.054,12.447 4.56,18.48 0.209,0.77 -0.37,0.75 -0.72,0.96 0.436,0.364 0.998,0.603 1.2,1.2 -1.554,9.476 4.478,13.497 7.2,19.439 1.331,2.905 1.559,5.991 2.88,9.601 -0.678,0.281 -0.796,1.124 -0.96,1.92 1.646,1.987 4.124,1.775 6,3.12 3.566,2.556 5.067,7.079 8.16,10.08 5.392,0.391 9.583,-0.646 14.16,-0.721 13.048,-0.214 23.256,7.468 35.04,10.32 6.312,1.528 12.931,2.114 19.92,3.12 5.244,0.755 11.499,1.908 18,1.92 9.753,0.018 18.278,-2.402 26.4,-4.56 10.719,-2.848 19.044,-9.689 27.6,-14.641 1.417,1.943 1.832,4.889 4.08,6 0.17,0.632 0.17,1.769 0,2.4 1.036,0.392 2.043,-1.097 2.88,-1.681 2.46,0.98 6.257,0.623 6.96,3.36 2.325,0.354 2.486,-0.18 3.84,-0.96 1.072,0.607 2.326,1.033 3.36,1.68 3.889,-1.764 0.017,-4.684 -3.601,-3.84 -0.605,-0.602 0.459,-0.759 0.72,-1.2 -1.479,-1.17 -3.215,-1.626 -5.04,-0.72 -2.785,-3.489 -5.496,-7.825 -11.04,-6 0.591,-2.06 2.904,-2.593 4.56,-3.6 1.694,-1.031 3.101,-2.54 4.8,-3.601 7.194,-4.491 17.022,-8.112 27.601,-8.64 2.33,-0.116 4.944,-0.43 6.96,0.479 4.808,2.17 9.531,6.295 14.88,9.36 5.519,3.163 11.229,5.667 16.8,7.44 -0.292,-1.651 -4.91,-2.271 -4.56,-4.561 2.623,-4.173 8.667,0.617 12.72,0.24 -0.998,-2.498 -7.538,-3.437 -7.44,-6.72 0.118,-3.946 7.67,-0.323 10.561,-0.721 -1.4,-2.439 -5.942,-1.737 -6.24,-5.279 1.595,-1.474 3.961,0.938 5.76,0 -5.79,-3.09 -15.164,-3.875 -18,-9.12 3.706,-3.324 9.714,-3.044 15.12,-4.08 2.749,-0.527 7.818,-1.14 11.761,-0.48 12.029,2.014 22.939,7.693 35.76,7.681 -0.12,-1.64 -3.124,-0.396 -3.12,-2.16 2.908,-4.064 9.466,-1.547 14.88,-1.681 -0.941,-1.538 -4.558,-0.401 -6,-1.439 2.2,-2.963 8.632,-0.153 12.72,-0.48 -0.416,-1.743 -3.964,-0.355 -4.56,-1.92 -0.005,-2.405 3.688,-1.112 5.76,-1.439 -0.25,-1.422 -4.209,0.051 -4.8,-1.681 0.761,-3.639 5.81,-2.99 10.08,-3.119 -0.847,-1.233 -3.152,-1.008 -3.6,-2.641 1.964,-2.995 8.054,-1.866 11.76,-3.12 -2.848,-1.396 -8.305,1.364 -9.84,-1.68 0.672,-3.488 6.358,-1.961 9.84,-2.64 -2.616,-2.185 -10.706,1.105 -12,-2.4 1.849,-2.341 7.16,-0.684 10.08,-1.44 -2.212,-1.908 -13.385,0.146 -13.44,-3.119 -0.029,-1.737 1.744,-1.188 3.12,-1.921 -1.512,-1.102 -4,0.52 -5.76,-0.479 0.186,-1.174 1.405,-1.314 2.16,-1.92 -4.384,-1.227 -9.682,2.891 -13.2,0.24 1.19,-2.549 6.082,-2.477 8.399,-3.12 -1.648,-1.104 -4.575,0.409 -7.439,0.72 -3.905,0.424 -8.982,1.087 -11.76,-0.48 0.196,-3.083 5.006,-1.554 7.92,-1.92 -0.706,-1.662 -2.955,-0.934 -4.08,-0.96 -3.552,-0.082 -8.255,0.111 -12.721,0.96 -8.858,1.685 -16.447,7.245 -25.439,6.721 -0.743,-0.044 -1.402,-0.379 -2.16,-0.48 -4.696,-0.63 -10.604,-0.804 -13.68,-3.84 4.424,-3.176 11.647,-3.552 17.04,-5.76 -1.731,-0.892 -4.132,-0.759 -4.32,-2.641 -0.281,-2.8 4.994,-4.096 6.96,-5.52 -1.343,-0.443 -4.681,-0.286 -6,-1.44 -1.018,-3.75 2.509,-4.785 4.56,-6.24 -3.164,-0.286 -8.007,2.085 -10.8,0.24 -0.188,-3.228 2.645,-3.436 4.08,-5.04 -3.708,-0.396 -6.847,2.132 -10.08,3.6 -8.019,3.64 -16.062,7.477 -24.96,10.56 -1.782,0.618 -3.802,1.456 -5.28,1.68 -4.94,0.751 -10.437,-0.903 -15.6,-1.44 -2.99,-0.311 -5.854,-0.027 -8.16,-1.44 -0.389,-1.032 1.234,-1.905 1.68,-2.88 3.946,0.401 11.228,0.228 11.761,-4.32 0.496,-4.234 -4.668,-4.234 -7.2,-3.6 -3.73,0.935 -5.686,4.665 -8.641,4.8 -2.326,0.106 -6.589,-2.521 -9.6,-4.08 -5.133,-2.659 -9.39,-4.71 -15.12,-6.72 -16.155,-5.667 -38.084,-10.67 -57.6,-6.96 -2.976,0.566 -6.333,1.79 -9.6,2.64 -3.202,0.833 -6.528,1.607 -9.6,2.64 -6.428,2.162 -15.745,6.207 -21.6,3.36 -0.669,-3.724 2.26,-5.889 2.88,-9.12 5.576,-8.201 11.866,-17.171 18.48,-24.96 2.209,-2.602 4.215,-5.601 6.48,-7.92 2.063,-2.114 4.44,-3.854 6.48,-6 5.958,-6.268 12.008,-12.247 18.48,-18.48 6.082,-5.858 12.9,-11.312 20.16,-16.8 2.038,-1.54 5.995,-4.544 7.68,-4.56 2.251,-0.021 4.178,2.512 6.24,2.64 2.148,0.133 4.19,-1.559 6.24,-1.44 1.4,0.081 2.8,1.363 4.32,1.44 0.729,0.037 1.651,-0.577 2.4,-0.48 2.308,0.296 6.115,4.357 9.84,1.2 -2.098,-0.131 -3.367,0.675 -5.28,0 -1.686,-0.594 -2.676,-2.556 -4.08,-2.88 -2.274,-0.525 -4.912,0.374 -6.96,-0.96 -1.206,-0.785 -2.576,-3.984 -4.8,-4.32 -2.447,-0.37 -6.797,1.08 -8.88,1.92 -3.533,1.425 -8.566,5.542 -11.76,8.16 -10.878,8.919 -21.532,18.376 -31.2,28.32 -7.047,7.248 -13.643,13.539 -19.2,20.4 C 80.788,64.487 76.128,69.863 72,75.6 c -1.396,1.941 -2.297,4.345 -4.32,5.52 -0.998,4.866 -7.014,8.002 -6.72,14.16 0.823,1.417 3.59,0.89 5.28,1.44 -8.032,3.079 -20.527,1.513 -27.84,4.56 -6.438,2.683 -11.968,6.203 -18.72,8.88 -1.501,2.727 1.088,4.526 2.16,6.721 2.21,4.523 3.298,9.944 3.12,15.6 -0.322,-0.424 -1.389,0.393 -1.92,-0.24 0.203,-0.356 0.773,-0.347 1.2,-0.479 -0.246,-1.3 -2.398,0.51 -2.16,-0.96 0.557,0.076 0.921,-0.039 1.2,-0.24 -0.409,-1.234 -2.001,0.493 -2.64,-0.24 -0.77,-0.944 1.38,-0.574 1.44,-1.439 -1.14,-0.933 -2.033,1.039 -3.12,0.239 -0.735,-0.91 1.383,-0.571 1.44,-1.439 -0.853,-0.763 -2.305,0.937 -3.36,0 -0.047,-1.167 1.549,-0.691 1.92,-1.44 -0.728,-1.126 -2.137,0.571 -3.6,0.24 -0.681,-1.044 1.642,-0.829 1.92,-1.68 -0.732,-0.561 -1.963,0.428 -2.88,0.479 0.002,-1.038 1.132,-0.948 1.44,-1.68 -0.621,-0.259 -2.344,0.126 -2.88,0.72 -0.762,-0.856 1.275,-0.954 1.44,-1.68 -1.125,-0.625 -2.026,0.781 -3.6,0.479 -0.115,-1.155 1.49,-0.59 1.68,-1.439 -0.768,-0.752 -1.553,0.515 -2.64,0.239 0.359,-0.44 1.002,-0.598 1.2,-1.199 -0.952,-0.655 -1.717,0.584 -3.12,0.239 0.107,-0.692 1.033,-0.567 1.2,-1.199 -0.633,-0.695 -1.37,0.536 -2.4,0.239 -0.14,-0.939 0.987,-0.612 1.2,-1.199 -0.586,-0.647 -1.564,0.341 -2.64,0 0.02,-1.101 1.517,-0.724 2.16,-1.2 C 4.694,117.176 1.451,118.33 0,120 0,80.001 0,39.999 0,0 c 112.003,0 223.999,0 336.001,0 0,66.958 0,133.924 0,200.881 -112.003,0 -224,0 -336.001,0 0,-26.561 0,-53.12 0,-79.681 z"
   id="path6"
   style="fill:#ffffff;fill-rule:evenodd" />
		<path
   d="m 0,121.2 c 0,-0.399 0,-0.8 0,-1.2 1.451,-1.67 4.694,-2.824 7.44,-2.399 -0.643,0.477 -2.14,0.1 -2.16,1.2 1.076,0.341 2.054,-0.647 2.64,0 -0.213,0.587 -1.34,0.26 -1.2,1.199 1.03,0.297 1.767,-0.935 2.4,-0.239 -0.167,0.632 -1.093,0.507 -1.2,1.199 1.403,0.345 2.168,-0.895 3.12,-0.239 -0.198,0.602 -0.841,0.759 -1.2,1.199 1.087,0.275 1.873,-0.991 2.64,-0.239 -0.19,0.85 -1.795,0.284 -1.68,1.439 1.574,0.302 2.476,-1.104 3.6,-0.479 -0.165,0.726 -2.202,0.823 -1.44,1.68 0.536,-0.594 2.259,-0.979 2.88,-0.72 -0.308,0.731 -1.438,0.642 -1.44,1.68 0.917,-0.052 2.148,-1.04 2.88,-0.479 -0.278,0.851 -2.602,0.636 -1.92,1.68 1.463,0.331 2.873,-1.366 3.6,-0.24 -0.371,0.749 -1.967,0.273 -1.92,1.44 1.055,0.937 2.507,-0.763 3.36,0 -0.057,0.868 -2.175,0.529 -1.44,1.439 1.087,0.8 1.98,-1.172 3.12,-0.239 -0.06,0.865 -2.209,0.495 -1.44,1.439 0.639,0.733 2.231,-0.994 2.64,0.24 -0.279,0.201 -0.644,0.316 -1.2,0.24 -0.238,1.47 1.915,-0.34 2.16,0.96 -0.427,0.133 -0.997,0.123 -1.2,0.479 0.531,0.633 1.598,-0.184 1.92,0.24 0.178,-5.655 -0.91,-11.076 -3.12,-15.6 -1.072,-2.194 -3.661,-3.994 -2.16,-6.721 6.751,-2.677 12.281,-6.197 18.72,-8.88 7.313,-3.047 19.809,-1.481 27.84,-4.56 -1.69,-0.55 -4.458,-0.022 -5.28,-1.44 -0.293,-6.158 5.722,-9.294 6.72,-14.16 2.023,-1.175 2.923,-3.579 4.32,-5.52 4.128,-5.737 8.788,-11.113 13.2,-16.56 5.558,-6.861 12.153,-13.152 19.2,-20.4 9.668,-9.944 20.322,-19.401 31.2,-28.32 3.193,-2.618 8.227,-6.735 11.76,-8.16 2.083,-0.84 6.433,-2.29 8.88,-1.92 2.224,0.335 3.594,3.535 4.8,4.32 2.048,1.333 4.686,0.435 6.96,0.96 1.404,0.324 2.395,2.286 4.08,2.88 1.913,0.675 3.183,-0.131 5.28,0 -3.726,3.157 -7.533,-0.903 -9.84,-1.2 -0.749,-0.097 -1.67,0.517 -2.4,0.48 -1.521,-0.077 -2.92,-1.359 -4.32,-1.44 -2.049,-0.119 -4.091,1.573 -6.24,1.44 -2.062,-0.128 -3.989,-2.661 -6.24,-2.64 -1.685,0.016 -5.642,3.02 -7.68,4.56 -7.26,5.487 -14.079,10.942 -20.16,16.8 -6.472,6.234 -12.522,12.212 -18.48,18.48 -2.04,2.146 -4.417,3.886 -6.48,6 -2.265,2.319 -4.271,5.318 -6.48,7.92 -6.614,7.789 -12.904,16.759 -18.48,24.96 -0.62,3.231 -3.549,5.396 -2.88,9.12 5.855,2.847 15.172,-1.198 21.6,-3.36 3.072,-1.033 6.398,-1.807 9.6,-2.64 3.268,-0.851 6.624,-2.074 9.6,-2.64 19.516,-3.71 41.445,1.293 57.6,6.96 5.73,2.01 9.987,4.061 15.12,6.72 3.01,1.559 7.273,4.186 9.6,4.08 2.955,-0.135 4.91,-3.866 8.641,-4.8 2.532,-0.634 7.696,-0.634 7.2,3.6 -0.533,4.548 -7.814,4.721 -11.761,4.32 -0.445,0.975 -2.068,1.848 -1.68,2.88 2.307,1.413 5.17,1.129 8.16,1.44 5.163,0.537 10.659,2.191 15.6,1.44 1.479,-0.225 3.498,-1.062 5.28,-1.68 8.898,-3.083 16.941,-6.92 24.96,-10.56 3.233,-1.467 6.372,-3.996 10.08,-3.6 -1.436,1.604 -4.268,1.812 -4.08,5.04 2.793,1.845 7.636,-0.526 10.8,-0.24 -2.051,1.456 -5.577,2.491 -4.56,6.24 1.319,1.154 4.657,0.997 6,1.44 -1.966,1.424 -7.241,2.719 -6.96,5.52 0.188,1.882 2.589,1.749 4.32,2.641 -5.393,2.208 -12.616,2.584 -17.04,5.76 3.076,3.036 8.983,3.21 13.68,3.84 0.758,0.102 1.417,0.437 2.16,0.48 8.992,0.524 16.581,-5.036 25.439,-6.721 4.466,-0.849 9.169,-1.042 12.721,-0.96 1.125,0.026 3.374,-0.702 4.08,0.96 -2.914,0.366 -7.724,-1.163 -7.92,1.92 2.777,1.567 7.854,0.904 11.76,0.48 2.864,-0.311 5.791,-1.824 7.439,-0.72 -2.317,0.644 -7.209,0.571 -8.399,3.12 3.519,2.65 8.816,-1.467 13.2,-0.24 -0.755,0.605 -1.975,0.746 -2.16,1.92 1.76,0.999 4.248,-0.622 5.76,0.479 -1.376,0.732 -3.149,0.184 -3.12,1.921 0.056,3.266 11.229,1.211 13.44,3.119 -2.92,0.757 -8.231,-0.9 -10.08,1.44 1.294,3.506 9.384,0.216 12,2.4 -3.481,0.679 -9.168,-0.849 -9.84,2.64 1.535,3.044 6.992,0.283 9.84,1.68 -3.706,1.254 -9.796,0.125 -11.76,3.12 0.447,1.633 2.753,1.407 3.6,2.641 -4.271,0.129 -9.319,-0.52 -10.08,3.119 0.591,1.731 4.55,0.259 4.8,1.681 -2.072,0.327 -5.765,-0.966 -5.76,1.439 0.596,1.564 4.144,0.177 4.56,1.92 -4.088,0.327 -10.52,-2.482 -12.72,0.48 1.442,1.038 5.059,-0.099 6,1.439 -5.414,0.134 -11.972,-2.384 -14.88,1.681 -0.004,1.765 3,0.521 3.12,2.16 -12.82,0.013 -23.73,-5.667 -35.76,-7.681 -3.942,-0.659 -9.012,-0.047 -11.761,0.48 -5.406,1.036 -11.414,0.756 -15.12,4.08 2.836,5.245 12.21,6.03 18,9.12 -1.799,0.938 -4.165,-1.474 -5.76,0 0.298,3.542 4.84,2.84 6.24,5.279 -2.891,0.397 -10.442,-3.226 -10.561,0.721 -0.098,3.283 6.442,4.222 7.44,6.72 -4.053,0.377 -10.097,-4.413 -12.72,-0.24 -0.351,2.289 4.268,2.909 4.56,4.561 -5.57,-1.773 -11.281,-4.277 -16.8,-7.44 -5.349,-3.065 -10.072,-7.19 -14.88,-9.36 -2.016,-0.909 -4.63,-0.596 -6.96,-0.479 -10.578,0.527 -20.406,4.148 -27.601,8.64 -1.699,1.061 -3.106,2.569 -4.8,3.601 -1.656,1.007 -3.969,1.54 -4.56,3.6 5.544,-1.825 8.255,2.511 11.04,6 1.825,-0.906 3.562,-0.45 5.04,0.72 -0.261,0.441 -1.325,0.599 -0.72,1.2 3.617,-0.844 7.489,2.076 3.601,3.84 -1.034,-0.646 -2.288,-1.072 -3.36,-1.68 -1.354,0.78 -1.515,1.313 -3.84,0.96 -0.703,-2.737 -4.5,-2.38 -6.96,-3.36 -0.837,0.584 -1.844,2.072 -2.88,1.681 0.17,-0.632 0.17,-1.769 0,-2.4 -2.249,-1.111 -2.663,-4.057 -4.08,-6 -8.556,4.951 -16.881,11.793 -27.6,14.641 -8.122,2.157 -16.646,4.577 -26.4,4.56 -6.501,-0.012 -12.756,-1.165 -18,-1.92 -6.99,-1.006 -13.608,-1.592 -19.92,-3.12 -11.784,-2.853 -21.992,-10.534 -35.04,-10.32 -4.576,0.075 -8.768,1.111 -14.16,0.721 -3.093,-3.001 -4.594,-7.524 -8.16,-10.08 -1.876,-1.345 -4.354,-1.133 -6,-3.12 0.164,-0.796 0.282,-1.639 0.96,-1.92 -1.321,-3.609 -1.549,-6.695 -2.88,-9.601 -2.722,-5.942 -8.754,-9.964 -7.2,-19.439 -0.203,-0.598 -0.765,-0.836 -1.2,-1.2 0.351,-0.21 0.93,-0.19 0.72,-0.96 C 3.054,133.647 3.39,126.596 0,121.2 Z"
   id="path8"
   style="fill-rule:evenodd" />
	</g>
</g>
</svg>
