<svg xmlns="http://www.w3.org/2000/svg" viewBox="0 0 301.45 184.85"><g id="Layer_2" data-name="Layer 2"><g id="Layer_1-2" data-name="Layer 1"><path d="M169.86,0c.22.17.53.29.65.52.29.56,1.84.57.83,1.72-1.26,1.43-2.53,1.76-3.35.93s-.58-1.83.36-2.72c.17-.16.37-.3.55-.45Z"/><path d="M98.73,126.37c-2.06-.66-3.69.46-5.18,2.11a27.49,27.49,0,0,1-4.2,3.55,7.41,7.41,0,0,1-5.12,1.2,1.59,1.59,0,0,1-1.61-1.36c-.08-.83.71-1.2,1.46-1.28,3.34-.36,5.28-2.34,6.45-5.33s2.17-3.42,5.27-2.92,4.36-.2,5.88-2.89a10.67,10.67,0,0,1,3.52-4c1.58-.94,3.32-1.47,4.37-3.2.26-.43,1.3-1,1.9-.39a2.59,2.59,0,0,1,.82,2.52c-.22.85-.92,1-1.69,1a1.83,1.83,0,0,0-1.58.69c-1.77,2-3.57,3.94-4.48,6.57S101.66,126.43,98.73,126.37Z"/><path d="M253.34,178.41a12.21,12.21,0,0,1-7.72-3.9c-.5-.52-.92-1.11-1.44-1.6a4.32,4.32,0,0,0-4.12-1.33,4.62,4.62,0,0,1-5.65-2.91c-.9-2-1.63-4-3.37-5.57-.62-.53-.65-1.51-.82-2.33a.5.5,0,0,1,.48-.67,3.69,3.69,0,0,1,3.14.74,17.91,17.91,0,0,1,3.1,3.79c1.57,2.61,2.79,3.16,5.76,2.68s4.1.21,5.39,2.8a7.78,7.78,0,0,1,.46,1,6,6,0,0,0,5.79,4.4c.85.07,1.87.14,1.89,1.38s-1,1.32-1.93,1.47A7.77,7.77,0,0,1,253.34,178.41Z"/><path d="M65.11,145.26l-1.07.09c-2.36.23-4.05-.52-5-2.71a18.91,18.91,0,0,0-4-6.3c-.49-.5-.91-1.22-.34-1.94A1.7,1.7,0,0,1,56.8,134a7.31,7.31,0,0,1,3.72,2.89A23.68,23.68,0,0,1,61.87,139a3.85,3.85,0,0,0,4.39,2.33h.12c4.81-.22,5.24,0,7.12,4.41a5.16,5.16,0,0,0,4.69,3.52,5.38,5.38,0,0,1,2.25.76c.69.38.64.77.17,1.31a3.77,3.77,0,0,1-3.83,1,14.33,14.33,0,0,1-6.21-3.92c-.71-.7-1.41-1.41-2.16-2.07A4,4,0,0,0,65.11,145.26Z"/><path d="M136.27,164.77a2.16,2.16,0,0,1-.72,0c-2.18-.81-3.65.29-5,1.78-.9,1-1.82,1.91-2.79,2.79a8.52,8.52,0,0,1-6.8,2.36,2.19,2.19,0,0,1-1.42-.53,1.07,1.07,0,0,1,.22-1.88,6.49,6.49,0,0,1,2.48-.82,5.56,5.56,0,0,0,4.32-3.56c.42-1,1-1.93,1.45-2.88a2.64,2.64,0,0,1,2.66-1.48c1.08.06,2.15.19,3.22.25a3.85,3.85,0,0,0,3.84-2.14,18.58,18.58,0,0,1,3.67-4.55,3.09,3.09,0,0,1,2.48-1c1.34.12,2,1.34,1,2.29a29.18,29.18,0,0,0-5,7.68C139.3,164.27,138.2,164.7,136.27,164.77Z"/><path d="M202.74,121.7c.17,0,.65.06,1.12.14,2.56.42,4.29-.31,5.51-2.57a15.26,15.26,0,0,1,3.33-4,5.73,5.73,0,0,1,.45-.39c.7-.52,2.3-.6,2.69-.14a2.69,2.69,0,0,1-.52,2.65,13.2,13.2,0,0,0-3.2,5c-1.18,2.91-2.7,3.81-5.76,3.36a4.3,4.3,0,0,0-4,1.33c-1,1.11-2.07,2.22-3.16,3.28a9.15,9.15,0,0,1-6.63,2.56,3.37,3.37,0,0,1-1.9-.62,1,1,0,0,1-.57-1.1,1.16,1.16,0,0,1,.89-.88,3.94,3.94,0,0,1,.7-.13c3.19-.19,5.19-2,6.47-4.76.17-.36.31-.73.45-1.1C199.35,122.37,200.37,121.68,202.74,121.7Z"/><path d="M272.88,135.23a9.25,9.25,0,0,1-6.18-2.8c-1.19-1.06-2.28-2.23-3.46-3.31a3.42,3.42,0,0,0-3.18-.94,5.92,5.92,0,0,1-4.5-.76,3.55,3.55,0,0,1-1.55-2.2,9.79,9.79,0,0,0-3.08-5,6.83,6.83,0,0,1-.73-.79c-.4-.5-.9-1-.56-1.71s1.12-.79,1.86-.78a2.7,2.7,0,0,1,1.8.84,21.3,21.3,0,0,1,3.47,4.11,4.85,4.85,0,0,0,5.63,2.36,7.6,7.6,0,0,1,1.79-.11,2.75,2.75,0,0,1,2.45,1.47c.45.8.86,1.62,1.28,2.43a8.49,8.49,0,0,0,5.62,4.5l.46.13c.75.18,1.78.4,1.72,1.19s-1.07,1.3-2,1.39A7.85,7.85,0,0,1,272.88,135.23Z"/><path d="M150.15,78c1,.1,2,.18,3,.3a3,3,0,0,0,3.13-1.54,30.4,30.4,0,0,1,3.54-4.52,4.67,4.67,0,0,1,2.62-1.57,1.56,1.56,0,0,1,1.72.57,1.32,1.32,0,0,1-.35,1.74,20.27,20.27,0,0,0-4.3,6.57A4.21,4.21,0,0,1,154.3,82a3.77,3.77,0,0,0-3.91,1.14c-1,1-2,2.08-3,3.08a10.44,10.44,0,0,1-5.28,2.89,5.34,5.34,0,0,1-3.47-.6,1,1,0,0,1-.7-.89,1,1,0,0,1,.78-1,5,5,0,0,1,1.51-.32A5.54,5.54,0,0,0,145,83.53a28.44,28.44,0,0,0,1.84-3.5A3.1,3.1,0,0,1,150.15,78Z"/><path d="M226.54,73.67A10.47,10.47,0,0,1,223.41,72a4.2,4.2,0,0,0-4-.66,40.11,40.11,0,0,1-6.78,1.45,6.06,6.06,0,0,1-4.13-.89,4.4,4.4,0,0,1-1.08-.94c-.4-.5-.81-1.2-.43-1.74s1.2-.51,1.86-.21a7.64,7.64,0,0,0,8.11-1.1l.57-.43c2.31-1.75,3.34-1.92,5.54-.09,2.41,2,4.61,2.21,7.09.27a7.92,7.92,0,0,1,3.5-1.47,5.75,5.75,0,0,1,2.61.1c.68.21,1.32.54,1.37,1.32S237,68.76,236.31,69a20,20,0,0,0-6.62,3.53A7.91,7.91,0,0,1,226.54,73.67Z"/><path d="M167.57,19.07a8.87,8.87,0,0,1-2.89-1.31,3.84,3.84,0,0,0-4.37-.35c-2.55,1.22-5.14,2.19-8.05,1.82-.83-.1-1.67-.16-2.5-.26a2.08,2.08,0,0,1-1.43-.8,1.48,1.48,0,0,1-.31-1.76,1.23,1.23,0,0,1,1.53-.32c3.22,1.07,5.83,0,8.2-2.18s3.5-2.27,6.09-.64a5.17,5.17,0,0,0,6.42-.13,18.5,18.5,0,0,1,5.64-2.27,1.58,1.58,0,0,1,2,.93,1.41,1.41,0,0,1-1,1.68c-2.51.76-4.33,2.48-6.23,4.13A9.38,9.38,0,0,1,167.57,19.07Z"/><path d="M51.06,96.4a3.26,3.26,0,0,1-.53-.09,3,3,0,0,0-3.34,1,27,27,0,0,1-5.34,4.24,3.25,3.25,0,0,1-3.82,0c-.65-.49-.83-.92,0-1.45a3,3,0,0,1,1.17-.55,5.19,5.19,0,0,0,3.75-2.9,2.48,2.48,0,0,0,.17-.32c1.08-2.94,3.07-4.07,6.19-3.28,1.23.31,2.11-.51,2.77-1.51a17,17,0,0,1,3.08-3.79,2.82,2.82,0,0,1,2.13-.58c.59,0,.8.34.66.87a5.64,5.64,0,0,1-.52,1.46Q56,92,54.48,94.37A4.26,4.26,0,0,1,51.06,96.4Z"/><path d="M283.88,64.32a3.7,3.7,0,0,0-3.62,1.38,16.8,16.8,0,0,1-4.15,3.4,8.18,8.18,0,0,1-3.81.84,1.24,1.24,0,0,1-1.33-1c-.11-.67.44-1.11,1.1-1.17,2.73-.25,4.21-2,5.31-4.28,1.18-2.44,1.84-2.79,4.49-2.47a4.36,4.36,0,0,0,4.48-2.14,11.12,11.12,0,0,1,2.75-3.28,2.3,2.3,0,0,1,1.06-.52c1.28-.16,1.81.45,1.44,1.69A9.81,9.81,0,0,1,290.36,59c-.61,1-1.28,1.93-1.85,2.93C287.47,63.69,286,64.67,283.88,64.32Z"/><path d="M109.69,39.08a2,2,0,0,1,1.73,1.22,25.5,25.5,0,0,1,1.72,4.6,3.74,3.74,0,0,0,3,3.11c2.61.62,3.14,1.36,3.38,4.07.21,2.4.85,4.54,3.21,5.78.52.27,1,.91.63,1.47a1.35,1.35,0,0,1-2,.33c-2.1-1.58-4-3.27-4.93-5.87A4.74,4.74,0,0,0,113,50.36a4,4,0,0,1-2.78-5,5.12,5.12,0,0,0-.71-3.09,3.67,3.67,0,0,1-.45-2.53C109.19,39.38,109.29,39,109.69,39.08Z"/><path d="M71.22,23c.39,0,.8,0,1.19.1a3.2,3.2,0,0,0,3.51-1.72,12.75,12.75,0,0,1,2.8-3.4,3.36,3.36,0,0,1,.89-.59,1.47,1.47,0,0,1,1.59.17c.39.37.17.91,0,1.36a5.57,5.57,0,0,1-.54,1.06c-.87,1.43-1.76,2.85-2.65,4.27a3.54,3.54,0,0,1-3.72,1.87,4.28,4.28,0,0,0-3.73,1.17,46.17,46.17,0,0,1-4.79,3.8,3.78,3.78,0,0,1-3.92,0c-.44-.31-.23-.52,0-.73a4.1,4.1,0,0,1,1.55-.9,5.06,5.06,0,0,0,3.49-3c.21-.43.46-.85.66-1.28A3.25,3.25,0,0,1,71.22,23Z"/><path d="M255,32.63a5.94,5.94,0,0,1-3.3-1.18c-1.22-1-2.42-1.95-3.59-3a2.78,2.78,0,0,0-2.75-.72,3.9,3.9,0,0,1-4.18-1.43,39.43,39.43,0,0,1-3-4.48c-.32-.54-.79-1.38-.16-1.85a1.84,1.84,0,0,1,2.12.32,11.26,11.26,0,0,1,2.75,2.8A3.8,3.8,0,0,0,247.08,25c2.54-.39,3.42.2,4.59,2.43a5.53,5.53,0,0,0,4.43,3.25c.6.07,1.51.12,1.53.82s-.85.73-1.42.9A9.2,9.2,0,0,1,255,32.63Z"/><path d="M152.59,180.68a2.41,2.41,0,0,1,2.2,1.84,2.17,2.17,0,0,1-2.06,2.33,1.92,1.92,0,0,1-1.95-2.21A1.81,1.81,0,0,1,152.59,180.68Z"/><path d="M271.27,119.65a2,2,0,0,1-2.1-1.82c0-.91,1.27-2.35,2.05-2.36s1.91,1.45,1.91,2.44A1.74,1.74,0,0,1,271.27,119.65Z"/><path d="M45.08,139.44a2.2,2.2,0,0,1,2.2-2.07c.68,0,1.71,1.44,1.68,2.35a1.84,1.84,0,0,1-2,1.74A1.79,1.79,0,0,1,45.08,139.44Z"/><path d="M169.85,129.67a1.87,1.87,0,0,1,2-1.92,1.72,1.72,0,0,1,1.91,1.68c0,.95-1.2,2.45-1.92,2.41A2.18,2.18,0,0,1,169.85,129.67Z"/><path d="M259.52,163.31a1.73,1.73,0,0,1,1.63-1.73c1,0,2.58,1.35,2.55,2.16s-1.47,1.84-2.27,1.85A2.46,2.46,0,0,1,259.52,163.31Z"/><path d="M126.24,121.11a1.73,1.73,0,0,1,1.7,1.92,1.81,1.81,0,0,1-1.61,2c-.91,0-2.54-1.25-2.57-2S125.25,121.13,126.24,121.11Z"/><path d="M46.65,148.43a1.74,1.74,0,0,1-1.92,1.93c-1.19,0-1.83-.74-1.79-2a1.83,1.83,0,0,1,1.87-1.91A1.76,1.76,0,0,1,46.65,148.43Z"/><path d="M207.27,166.9c-1.3,0-2.13-.6-2.12-1.56s1.12-2.25,2-2.23,2.19,1.22,2.17,1.89A1.91,1.91,0,0,1,207.27,166.9Z"/><path d="M232.35,170.59a1.83,1.83,0,0,1,1.76,2,1.88,1.88,0,0,1-1.94,1.86c-1.18,0-2-.66-2-1.57A2.57,2.57,0,0,1,232.35,170.59Z"/><path d="M175.29,166.88a1.77,1.77,0,0,1-1.9-1.95,1.8,1.8,0,0,1,1.67-1.94,2.53,2.53,0,0,1,2.21,2A1.86,1.86,0,0,1,175.29,166.88Z"/><path d="M56.72,81.17A1.64,1.64,0,0,1,55.05,83c-.92,0-2.48-1.31-2.45-2S54.13,79.1,55,79.11A1.85,1.85,0,0,1,56.72,81.17Z"/><path d="M244.86,134.54a1.62,1.62,0,0,1-1.72-1.59,2.38,2.38,0,0,1,2-2.34,2.12,2.12,0,0,1,1.91,2.08C247,133.52,245.89,134.52,244.86,134.54Z"/><path d="M80.39,125.74A2.58,2.58,0,0,1,78.45,128a3.33,3.33,0,0,1-2.3-1.83c-.05-.69,1.57-1.91,2.58-2A1.58,1.58,0,0,1,80.39,125.74Z"/><path d="M110.56,166.32a2.07,2.07,0,0,1,2,2c0,.68-1.46,1.84-2.28,1.84a1.84,1.84,0,0,1-1.63-2A1.71,1.71,0,0,1,110.56,166.32Z"/><path d="M90.21,144.84c0-.94.88-1.58,2-1.52a1.73,1.73,0,0,1,1.86,1.61c0,.72-1.55,2.62-2.08,2.56A5.05,5.05,0,0,1,90.21,144.84Z"/><path d="M144.77,144.29a1.46,1.46,0,0,1-1.49-1.45,2.46,2.46,0,0,1,1.89-2.3c.79,0,2.29,1.18,2.31,1.81S145.81,144.28,144.77,144.29Z"/><path d="M205.18,141.13a2,2,0,0,1-2.11,1.71c-.7,0-1.73-1.42-1.72-2.34a1.58,1.58,0,0,1,1.57-1.62A2.53,2.53,0,0,1,205.18,141.13Z"/><path d="M134.79,154.13a1.58,1.58,0,0,1-1.69-1.5,2.36,2.36,0,0,1,1.92-2.26,3.36,3.36,0,0,1,2.21,2C137.24,153,135.75,154.12,134.79,154.13Z"/><path d="M267.16,104.44a1.58,1.58,0,0,1,1.74-1.67,1.81,1.81,0,0,1,1.93,1.67c0,.9-1.24,2.46-1.95,2.45S267.16,105.46,267.16,104.44Z"/><path d="M188.59,87.44c0,.78-1.09,1.73-2.08,1.76a1.82,1.82,0,0,1-1.83-1.82,1.66,1.66,0,0,1,1.76-1.83A1.9,1.9,0,0,1,188.59,87.44Z"/><path d="M161.13,96.44A1.81,1.81,0,0,1,158.68,98a5.87,5.87,0,0,1-1.75-1.22.48.48,0,0,1-.21-.51,4.27,4.27,0,0,1,2.51-1.84A2.61,2.61,0,0,1,161.13,96.44Z"/><path d="M282.53,135.83c1.18.07,1.84.72,1.77,1.79a1.9,1.9,0,0,1-1.92,1.88c-1-.07-2-1.1-2-1.9A1.83,1.83,0,0,1,282.53,135.83Z"/><path d="M273,87.35a2.55,2.55,0,0,1,2.23,2,2.41,2.41,0,0,1-1.82,2,1.89,1.89,0,0,1-1.92-2C271.49,88.13,272.1,87.35,273,87.35Z"/><path d="M212.46,109.6c0,.55-1.93,2-2.53,2a2.28,2.28,0,0,1-1.8-2,2.18,2.18,0,0,1,2-1.79C210.7,107.85,212.49,109.2,212.46,109.6Z"/><path d="M155,73.82c-.91,0-1.51-.7-1.52-1.78a1.86,1.86,0,0,1,1.62-2c.83,0,2.29,1.09,2.31,1.79S155.94,73.8,155,73.82Z"/><path d="M163.26,98.1a1.69,1.69,0,0,1,1.6,1.75c0,1-1.13,2.34-1.89,2.32a2.63,2.63,0,0,1-1.81-2A2.37,2.37,0,0,1,163.26,98.1Z"/><path d="M140.92,100.46a1.58,1.58,0,0,1-1.52,1.67,2.37,2.37,0,0,1-2.18-1.89c0-.79,1.22-2.26,1.89-2.23S140.9,99.53,140.92,100.46Z"/><path d="M121.05,68.72a1.74,1.74,0,0,1-1.6-1.88,1.6,1.6,0,0,1,1.7-1.72c.78,0,2.62,1.31,2.59,1.84S121.71,68.73,121.05,68.72Z"/><path d="M141,123.24a1.48,1.48,0,0,1-1.63,1.49c-1,0-2.15-1-2.16-1.72,0-.55,1.46-2.5,1.86-2.48S141.05,122.61,141,123.24Z"/><path d="M6.06,105a1.65,1.65,0,0,1,1.76-1.59,1.78,1.78,0,0,1,2,1.64c0,.89-1.22,2.32-2,2.29S6.08,105.84,6.06,105Z"/><path d="M237.67,154.46c0-.9.67-1.52,1.74-1.55a2,2,0,0,1,2.14,1.82c0,.6-1.34,1.88-2.05,1.92S237.69,155.5,237.67,154.46Z"/><path d="M286,72.32a2.19,2.19,0,0,1-2-1.92c0-.8,1.21-2.15,1.84-2.12s1.78,1.5,1.78,2.34A1.66,1.66,0,0,1,286,72.32Z"/><path d="M185.09,124.67a2.37,2.37,0,0,1-2.11-2.18,1.58,1.58,0,0,1,1.76-1.53c1,0,2.1,1,2.06,1.75A2,2,0,0,1,185.09,124.67Z"/><path d="M124.76,75.74a2.41,2.41,0,0,1,2.06,1.86,2.65,2.65,0,0,1-1.79,2,2,2,0,0,1-1.94-1.9A1.8,1.8,0,0,1,124.76,75.74Z"/><path d="M142.24,45.83c-1.14,0-1.74-.53-1.75-1.62s.55-1.92,1.46-2,2.33,1,2.34,1.67A2,2,0,0,1,142.24,45.83Z"/><path d="M99,36.5c0,1.17-.59,1.81-1.6,1.8a1.76,1.76,0,0,1-1.94-1.68c0-.89,1.18-2.17,1.93-2.14A1.84,1.84,0,0,1,99,36.5Z"/><path d="M215.85,130.1a2.31,2.31,0,0,1,1.76-1.87c.56,0,2.35,1.44,2.34,1.88a4.37,4.37,0,0,1-2.29,1.94A2.25,2.25,0,0,1,215.85,130.1Z"/><path d="M180.62,57.73A1.66,1.66,0,0,1,182.23,56c.91,0,2.07,1,2,1.83,0,.6-1.52,2.23-2,2.19S180.6,58.39,180.62,57.73Z"/><path d="M290.39,48.56c0,1-1.27,2.53-2,2.52s-1.67-1.34-1.63-2.1a2.17,2.17,0,0,1,2.15-1.83A1.39,1.39,0,0,1,290.39,48.56Z"/><path d="M53.8,102.74a1.7,1.7,0,0,1-1.46,1.74,2.51,2.51,0,0,1-2.08-2.13c0-.71,1.07-1.94,1.68-1.95S53.79,101.79,53.8,102.74Z"/><path d="M268.5,42.1a1.59,1.59,0,0,1,1.64-1.54c.91,0,2.38,1.2,2.35,1.9s-1.26,1.65-2,1.67A2.34,2.34,0,0,1,268.5,42.1Z"/><path d="M140.56,75.21a1.59,1.59,0,0,1,1.72,1.57c0,.91-1.1,2.06-1.88,2A4.6,4.6,0,0,1,138.14,77C138.12,76.44,139.79,75.19,140.56,75.21Z"/><path d="M235.84,87.76c0,1.12-.54,1.83-1.44,1.81s-2.12-1-2.14-1.77,1.07-2.07,1.68-2.09A2,2,0,0,1,235.84,87.76Z"/><path d="M123.1,15.82a1.61,1.61,0,0,1,1.61-1.58c.74,0,2.45,1.28,2.44,1.84s-1.67,1.8-2.23,1.81A2.29,2.29,0,0,1,123.1,15.82Z"/><path d="M212.63,95.19a2,2,0,0,1-1.8-1.76,2.34,2.34,0,0,1,1.78-1.84c.58,0,2.46,1.58,2.44,2.06S213.22,95.19,212.63,95.19Z"/><path d="M88.84,90.9a1.37,1.37,0,0,1-1.36-1.51,2.27,2.27,0,0,1,1.86-2c.72,0,2,1.18,2,1.78S90,90.93,88.84,90.9Z"/><path d="M21.34,79.37a2.3,2.3,0,0,1-2.15-2,1.56,1.56,0,0,1,1.54-1.63,2.8,2.8,0,0,1,2.21,1.72A1.91,1.91,0,0,1,21.34,79.37Z"/><path d="M187.72,149.91a2.83,2.83,0,0,1-1.84,2.11c-.6,0-1.83-1.41-1.82-2.12s1.35-2,1.91-1.92A3,3,0,0,1,187.72,149.91Z"/><path d="M99.84,67.92A2,2,0,0,1,98,66.3a2.21,2.21,0,0,1,1.81-1.92c.79,0,2.14,1.22,2.09,1.85A2.71,2.71,0,0,1,99.84,67.92Z"/><path d="M49.26,114.75c.71,0,2.11,1.08,2.14,1.66s-1.49,2.06-2.13,2-1.75-1.16-1.74-1.74A2,2,0,0,1,49.26,114.75Z"/><path d="M264.65,61.53a2.07,2.07,0,0,1-1.63,1.8,2.18,2.18,0,0,1-1.92-1.81c0-.77,1.23-2.1,1.87-2.08A2.62,2.62,0,0,1,264.65,61.53Z"/><path d="M106.5,34.07a1.33,1.33,0,0,1-1.21-1.52c0-1,1.08-2.41,1.79-2.41s1.61,1.25,1.63,2A2.35,2.35,0,0,1,106.5,34.07Z"/><path d="M250.59,18.77A1.39,1.39,0,0,1,249,17.4a2.5,2.5,0,0,1,1.88-2.07,2.69,2.69,0,0,1,2,1.69C252.9,17.77,251.65,18.74,250.59,18.77Z"/><path d="M92.63,59.15c0,.89-1.08,2.27-1.8,2.26s-1.68-1.27-1.68-1.95a2.49,2.49,0,0,1,2-1.91A1.58,1.58,0,0,1,92.63,59.15Z"/><path d="M245.75,52.39c-1.12,0-1.83-.6-1.81-1.48a2.37,2.37,0,0,1,1.91-2,2.51,2.51,0,0,1,1.77,1.73A1.81,1.81,0,0,1,245.75,52.39Z"/><path d="M62.27,56.65c.59,0,1.59,1.23,1.62,2s-1.12,2-1.7,2a3.72,3.72,0,0,1-1.85-2.06C60.31,57.91,61.6,56.65,62.27,56.65Z"/><path d="M301.45,103.45c-.08.67-.34,1.32-1.26,1.35a2.65,2.65,0,0,1-2.18-1.93,2.76,2.76,0,0,1,1.79-1.9C300.47,101,301.45,102.36,301.45,103.45Z"/><path d="M3.63,74.14A2.21,2.21,0,0,1,2,76a2.84,2.84,0,0,1-2-1.81c0-.63,1-1.67,1.72-1.72A2.22,2.22,0,0,1,3.63,74.14Z"/><path d="M87.42,9.82c-.59,0-1.89-1.18-1.86-1.66a3.07,3.07,0,0,1,2-1.68,4.46,4.46,0,0,1,2.05,1.7C89.64,8.59,88,9.84,87.42,9.82Z"/><path d="M200.35,6.65c-.56,0-2.07-1.27-1.91-1.73a2.1,2.1,0,0,1,1.61-1.57,2.35,2.35,0,0,1,2,1.7A2.33,2.33,0,0,1,200.35,6.65Z"/><path d="M105.6,104.05a1.73,1.73,0,0,1-1.48,1.4,2.08,2.08,0,0,1-1.84-1.6c0-.64,1.13-1.8,1.71-1.77A2.48,2.48,0,0,1,105.6,104.05Z"/><path d="M141.93,138.36a2.77,2.77,0,0,1-1.81-1.48c-.29-.48.25-.78.54-1.08a1.33,1.33,0,0,1,1.83-.28,1.21,1.21,0,0,1,.3.2c.37.37,1.27.56,1,1.12A3,3,0,0,1,141.93,138.36Z"/><path d="M198.21,40c0,.62-1.23,2-1.63,1.81a1.81,1.81,0,0,1-1.25-1.59c-.05-.53,1.21-2.13,1.52-2A3,3,0,0,1,198.21,40Z"/><path d="M105.94,78.11a1.67,1.67,0,0,1-1.55-1.38,1.07,1.07,0,0,1,1.17-1.22c.79,0,1.79.46,1.89,1.17S106.55,77.76,105.94,78.11Z"/></g></g></svg>