<?xml version="1.0" encoding="UTF-8"?>
<svg id="Layer_2" data-name="Layer 2" xmlns="http://www.w3.org/2000/svg" viewBox="0 0 114.11 91.33">
  <defs>
    <style>
      .cls-1 {
        fill: none;
      }

      .cls-1, .cls-2 {
        stroke-width: 0px;
      }
    </style>
  </defs>
  <g id="Layer_1-2" data-name="Layer 1">
    <g>
      <path class="cls-2" d="M11.34,58.96c.36-.14.72-.27,1.16-.44.24-1.98.49-4.06.76-6.13.12-.94.31-1.88.44-2.82.05-.38.06-.76.05-1.15-.03-1.49-.1-2.99,1.25-4-.68-1.39-.33-3.69,1.3-4.6-.7-1.13,0-3.94,1.12-4.81.28-.22.44-.63.59-.98.37-.9.47-2.04,1.1-2.67,1.06-1.06,1.16-2.3,1.32-3.58.1-.81.11-1.64.18-2.67-1.58.73-3.12,1.43-4.67,2.14l-.08-.17c1.37-.68,2.77-1.31,4.09-2.07.44-.25.73-.82.99-1.29,1.16-2.06,2-4.37,3.51-6.12,1.02-1.18,2.96-1.55,4.47-2.33,1.94-1,3.89-1.92,6.12-2.14,2.16-.21,4.11.21,5.51,1.91,1.18,1.43,1.4,3.26,1.42,5.07.02,1.58-.22,3.18-.06,4.75.25,2.36-.91,3.88-2.54,5.29-1,.87-1.84,1.94-2.81,2.85-.43.4-1,.66-1.5.98-.14-.1-.27-.19-.41-.29-.16,2.43-.31,4.87-.47,7.3.03,0,.06,0,.09,0v-7.18c-1.39.76-2.75,1.5-4.1,2.26-.17.1-.34.35-.36.54-.12,1.47-1.06,2.32-2.21,3.06.03,2.16-.54,3.3-1.97,3.9.02,1.54-.21,2.87-1.79,3.76-.44.25-.38,1.41-.53,2.15-.04.19.03.54-.05.57-1.41.52-.66,1.69-.85,2.59-.1.49-.48.92-.75,1.37-.08.13-.33.23-.32.31.31,2.27-1.41,4.01-1.57,6.23.33-.14.65-.28.93-.39-.67,2.51-3.19,2.97-4.91,4.62v-1.33c-.65.23-1.26.45-1.91.69-.14-.5-.3-1.04-.45-1.57-.51.15-1.02.29-1.58.45.04-.7.13-1.47.09-2.23,0-.22-.37-.42-.57-.63,0-.4,0-.8,0-1.2Z"/>
      <path class="cls-2" d="M97.99,12.31c.26.21.52.58.79.6.72.05,1.45-.06,2.17-.1-.18.53-.35,1.04-.52,1.55.51.16,1.02.32,1.6.5-.22.58-.46,1.22-.75,2,.48-.07.81-.11,1.4-.2-1.6,1.83-2.02,4.31-4.56,4.93.09-.22.22-.53.4-.97-1.38.43-2.78.65-3.96,1.28-1.2.63-2.59.98-3.77,1.27-1.35.34-2.61.93-3.96,1.23-.5.11-1,.19-1.56.29-.78,1.44-2.11,2.12-3.73,1.82-.77,1.68-2.17,2.16-3.92,2.03-.83,1.08-1.65,2.21-3.26,2.22-.14,0-.32.2-.41.35-.76,1.35-1.5,2.7-2.23,4.02,1.2.07,2.41.15,3.6.22-1.24.1-2.5.21-3.75.32.08.1.16.19.25.29-.3.52-.51,1.11-.91,1.53-1.27,1.34-2.64,2.58-3.89,3.94-1.21,1.31-2.73,1.49-4.37,1.46-1.5-.03-3.01.01-4.51.03-5.03.08-7.97-2.49-6.97-7.8.59-3.11,2.28-5.68,3.59-8.46.85-1.8,2.32-2.49,3.91-3.21,1.18-.53,2.36-1.05,3.51-1.62.25-.12.46-.42.6-.68.45-.83.86-1.69,1.48-2.45-.44.99-.89,1.98-1.34,2.99,1.43-.18,2.84-.28,4.21-.54.61-.12,1.16-.55,1.76-.82,1.02-.45,2.06-.88,3.09-1.32.27-.11.66-.14.79-.34.98-1.53,2.6-1.5,4.1-1.74.24-.04.53.24.8.38,1.23-1.55,2.85-2.03,4.51-1.27,1.2-1.27,2.71-1.29,4.41-1.2,1.55.08,3.12-.42,4.69-.64,1.72-.24,3.44-.46,5.17-.69l-.15-.28c.4-.3.81-.6,1.21-.91.16,0,.32,0,.48,0Z"/>
      <path class="cls-2" d="M60.08,70.4c-1.62.06-3.1-.26-3.91-1.98-1.96.11-3.1-.49-3.74-1.92-1.21-.3-2.58.11-3.37-1.26-.08-.15-.64-.05-.97-.02-1.02.07-2.04.17-2.35-.67-2.32-.73-4.37-1.38-6.56-2.08.16.41.29.73.42,1.05l-.17.16c-.85-.75-1.79-1.42-2.51-2.27-.68-.82-1.12-1.83-1.73-2.86.36.03.64.05,1.11.09-.23-.69-.43-1.3-.65-1.97.55-.16,1.17-.33,1.93-.55-.42-.6-.68-.97-.93-1.34,1.69-.12,3.28-.24,5.06-.37-.31.33-.49.51-.79.84.69.15,1.24.31,1.8.38,2.62.35,5.25.67,7.88.99.26.03.53-.02.8-.03,1.5-.07,2.97-.04,4.02,1.24,1.79-.7,3.5-.21,4.49,1.25,1.46-.67,4.02.02,4.97,1.29.17.23.52.35.81.47.94.37,2.12.47,2.78,1.11,1.11,1.08,2.39,1.13,3.71,1.3.81.1,1.63.15,2.57.23-.22-.48-.46-.99-.7-1.51-.24-.53-.49-1.06-.53-1.69.42.85.83,1.71,1.28,2.54.16.3.36.67.64.81,1.18.6,2.36,1.26,3.62,1.65,2.85.87,4,3.22,5.16,5.6.47.96.96,1.9,1.38,2.89.86,2.04,1.44,4.17.98,6.39-.73,3.52-2.93,4.4-6.83,4.61-1.62.08-3.26-.2-4.87-.05-2.31.22-3.8-.9-5.19-2.51-.87-1.01-1.94-1.84-2.85-2.82-.43-.46-.7-1.07-1.23-1.89-.82-.11-2.03-.33-3.25-.41-1.19-.08-2.38-.02-3.58-.03h7.19c-.77-1.42-1.52-2.8-2.3-4.18-.08-.14-.31-.26-.48-.27-1.48-.1-2.31-1.08-3.1-2.21Z"/>
    </g>
    <rect class="cls-1" width="114.11" height="91.33"/>
  </g>
</svg>