<svg xmlns="http://www.w3.org/2000/svg" viewBox="0 0 175.64 134.72"><defs><style>.cls-1{fill:none;}</style></defs><g id="Layer_2" data-name="Layer 2"><g id="Layer_1-2" data-name="Layer 1"><path d="M160.12,90.43a6.65,6.65,0,0,0-1.3,3.81c0,.42-.29.45-.58.54a61.13,61.13,0,0,1-7.37,1.72c-2.75.49-5.46,1.23-8.18,1.88-1.35.32-2.7.66-4,1a2.08,2.08,0,0,0-.67.36c-3.11,2.12-6.24,4.22-9.32,6.39a27.34,27.34,0,0,1-10.24,4.56,36.67,36.67,0,0,0-4.25,1.34,2.77,2.77,0,0,1-3-.59,4.14,4.14,0,0,0-.46-.37,2,2,0,0,0-3.21.87,1.41,1.41,0,0,1-1.06.85,64.44,64.44,0,0,1-13.16,2.08,24.91,24.91,0,0,1-3.76-.17c-.91-.08-1.24-.57-1-1.46a.58.58,0,0,0-.28-.73,10.69,10.69,0,0,0-1.45-.78A1.19,1.19,0,0,0,85,112.82a9.81,9.81,0,0,1-.3,1.43,1.32,1.32,0,0,1-1.76,1,1.49,1.49,0,0,0-1.41.23,3.27,3.27,0,0,1-2.21.45L75,115.67a60.05,60.05,0,0,1-9.24-1.37l-4-.82c-.81-.17-1.07,0-1.44.67a1.18,1.18,0,0,1-1.31.7,7.63,7.63,0,0,0-3.65.54A6.14,6.14,0,0,1,49.32,114a2.29,2.29,0,0,1,.32-3.8,3.4,3.4,0,0,0,1.59-2.11,9,9,0,0,1,2.87-4.37,24.68,24.68,0,0,0,5.55-7.4q3.26-6.12,6.52-12.25a17.7,17.7,0,0,0,1.62-5.14,2,2,0,0,0-1-2.07c-.94-.71-1.94-1.33-2.94-2A262.35,262.35,0,0,1,41.07,59.2,27.9,27.9,0,0,1,34.31,51,76.28,76.28,0,0,1,25.24,27a55.57,55.57,0,0,1-1-6.27,12,12,0,0,1,3-8.84c.54-.63,1.1-.61,1.62.09,1.09,1.46,2.09,3,3.21,4.43,2.11,2.71,4.31,5.36,6.44,8.05A160.09,160.09,0,0,1,49.69,41c1.46,2.42,2.77,5,4.87,6.9,1.72,1.59,3.48,3.13,5.3,4.59,5.86,4.71,11.77,9.36,17.66,14a5.79,5.79,0,0,0,3.61,1.4,25.42,25.42,0,0,1,8.12,1.73c3,1,6,2,9,2.93a13.21,13.21,0,0,0,5.41.55,3.91,3.91,0,0,0,2-.69c1.71-1.49,3.7-1.52,5.77-1.4s4,.24,5.94.22c5.68,0,11.35-.13,17-.27A9.27,9.27,0,0,1,141,73.39a28.46,28.46,0,0,1,2.51,2.4c2.34,2.62,4.63,5.29,6.95,7.93.36.41.74.81,1.13,1.2a6.73,6.73,0,0,0,4.67,2.31,5.58,5.58,0,0,1,3.84,2.14Z"/><rect class="cls-1" width="175.64" height="134.72"/></g></g></svg>