<svg xmlns="http://www.w3.org/2000/svg" viewBox="0 0 298.18 218.91"><defs><style>.cls-1{fill:#fff;}</style></defs><g id="Layer_2" data-name="Layer 2"><g id="Layer_1-2" data-name="Layer 1"><path class="cls-1" d="M226.38,52.1a12.77,12.77,0,0,0-13.49-10.2c-4.87.41-7.2,4.49-5,8.88a7.5,7.5,0,0,0,1,1.6c3.44,4.09,7.69,6.09,13.12,5a3.43,3.43,0,0,1,.64,0c.92,6.23,5,10.8,10.53,11.79,4.88.89,8.15-2.51,7.23-7.37S233.21,50.6,226.38,52.1Zm-119.56,84a45.06,45.06,0,0,0,.59-6.33,11.78,11.78,0,0,0-4.41-9c-3.3-2.61-7.23-1.7-9.11,2.06a10,10,0,0,0-.73,2c-1.42,5.62.87,10.82,6.32,14.41a12.7,12.7,0,0,0,7.27,14.05c2.38,1.06,4.81,1.39,7-.3s2.43-4.16,2.08-6.72a4.29,4.29,0,0,0-.16-.71A13.44,13.44,0,0,0,106.82,136.12ZM68.38,199a4.81,4.81,0,0,1,.5-.18,13.25,13.25,0,0,0,9.89-11.44c.38-3.66-1.67-6.61-5-7-3-.33-5.38,1-7.44,3A13,13,0,0,0,62,193.83c-.12.1-.16.14-.2.15-.28.05-.57.09-.85.15a13.1,13.1,0,0,0-10.26,8.09c-1,2.29-1.1,4.67.6,6.73s4.12,2.39,6.64,1.91C63.65,209.75,67.49,205.38,68.38,199ZM258,115a4.68,4.68,0,0,1-.55,0c-6.2.13-12,6.34-11.7,12.53.19,3.93,3.17,6.38,7,5.51,5.18-1.17,8.19-4.69,9.67-9.65.17-.58.27-1.19.4-1.78a32.19,32.19,0,0,0,5.3,0,11.84,11.84,0,0,0,8.86-6,5.55,5.55,0,0,0-3-8.22,9.87,9.87,0,0,0-2.68-.63C265.35,106.26,260.53,109.24,258,115ZM67.35,159.39c0-4.2-3.14-6.71-7.4-5.86a13.32,13.32,0,0,0-9.89,10.15,2.16,2.16,0,0,1-1.45,1.85,12.8,12.8,0,0,0-8,11.1c-.45,4.92,3.5,8,8.13,6.26s7.48-5.38,8.38-10.31a2.22,2.22,0,0,1,1.68-2.08C63.56,168.89,67.32,163.88,67.35,159.39ZM125,83c2.11,0,4.7-.67,6-3.44s.24-5.2-1.53-7.38a13,13,0,0,0-7.32-4.45,1.56,1.56,0,0,1-1.4-1.46c-.89-4.43-3.2-7.91-7.4-9.81s-8.34.43-8.56,5.18c-.24,5.14,2.13,9,6.34,11.84a3.08,3.08,0,0,1,1.2,1.14A13.17,13.17,0,0,0,125,83Zm13.74,130.12c3.71.05,6.19-2.66,5.83-6.55a12.71,12.71,0,0,0-6.86-10.19,2.57,2.57,0,0,1-1.42-2.22c-.65-4.65-2.84-8.36-7.22-10.39-3.77-1.75-7.31.12-8.24,4.17-1,4.52,1.4,10.16,5.56,13.06a3.12,3.12,0,0,1,1.18,1.77C128.61,208.2,133.83,213.09,138.71,213.14Zm8.6-59.57c.05-5.88-4.2-8.66-9-6.34a13,13,0,0,0-7.07,9.26,2.76,2.76,0,0,1-1.31,1.9,13,13,0,0,0-6.3,9.8c-.58,5.13,3.36,8.33,8.21,6.56,4.38-1.58,7-4.88,8.29-9.28a3.62,3.62,0,0,1,1.24-1.78A13.72,13.72,0,0,0,147.31,153.57Zm69.89,24.64a12.51,12.51,0,0,0-3.91-10.14c-3.92-3.6-8.85-2.22-10.28,2.9a12.65,12.65,0,0,0,2.16,11.3,2.88,2.88,0,0,1,.43,3,13.68,13.68,0,0,0,.1,9.68c1.59,3.84,5.14,4.69,8.36,2.09,4.25-3.44,6.11-11.41,3.86-16.41A18.07,18.07,0,0,1,217.2,178.21ZM199.36,34.46c2.42,0,4.65-.59,6-2.82s.93-4.61-.34-6.76a13.45,13.45,0,0,0-10-6.55,8.67,8.67,0,0,1-2.18-.64c-4.9-2.21-9.6-1.83-13.87,1.37s-3.61,8.32,1.19,10.6a12.47,12.47,0,0,0,8.52.76,2.11,2.11,0,0,1,2.2.55A13.16,13.16,0,0,0,199.36,34.46ZM74.91,58a34.42,34.42,0,0,0-1.29-4.92c-2.14-5-7.33-5.68-10.73-1.39-2.42,3.07-3,6.63-2.55,10.44A21.13,21.13,0,0,1,60.46,65c-.11,4.29,1.11,8.07,4.47,10.89,3.59,3,8,1.86,9.56-2.57a11.33,11.33,0,0,0,.58-5.54C74.43,64.5,73.67,61.31,74.91,58ZM131,40.79l-.49.12c.65,2.1,1,4.36,2,6.27,2.41,4.6,7.44,4.84,10.48.63a13.4,13.4,0,0,0,2.21-9.42,6.38,6.38,0,0,1,.32-2.64A13.69,13.69,0,0,0,146,27c-1.67-5.45-6.91-6.64-10.8-2.47a11.65,11.65,0,0,0-3.11,6.31C131.6,34.17,131.35,37.48,131,40.79Zm81.14,101.13a27.71,27.71,0,0,0-.78-3.75c-1.72-5-6.6-6.07-10.33-2.38a13.33,13.33,0,0,0-3.68,8.33,5.48,5.48,0,0,1-1,2.57,12.8,12.8,0,0,0-3,8.13c.12,4.19,3.33,6.68,7.41,5.65a11.89,11.89,0,0,0,8.16-7.08,78.08,78.08,0,0,0,2.87-8.64A19.9,19.9,0,0,0,212.14,141.92Zm-53,23.28c.44,1.82.86,3.55,1.3,5.27.3,1.16.72,2.29,1,3.46,1,4.41,3.14,7.95,7.38,9.84,3.94,1.76,7.51-.2,8.31-4.43a10.78,10.78,0,0,0-1.45-7.69,12.79,12.79,0,0,1-1.57-4.87,11.77,11.77,0,0,0-5.14-8.59c-3.26-2.13-6.9-1.13-8.5,2.41A29.41,29.41,0,0,0,159.16,165.2Zm131.58,6c6.38,0,9.1-4.45,6.41-9.4a13.24,13.24,0,0,0-6-5.51,12,12,0,0,1-2.15-1.43c-3.37-2.74-7.12-4.14-11.47-3.19s-6.12,4.94-4,8.84a12.66,12.66,0,0,0,6.87,5.54,6.16,6.16,0,0,1,1.92,1.2A13.45,13.45,0,0,0,290.74,171.22ZM256.23,41a10.15,10.15,0,0,0,6.89-1.69c3.36-2.35,3.72-6.2.86-9.12A11,11,0,0,0,257.56,27c-2.25-.34-4.5-.64-6.76-.82a12.61,12.61,0,0,0-10.09,3.23c-3.2,3.05-2.74,7.3,1.1,9.51A10.89,10.89,0,0,0,246,40.41C249.41,40.76,252.83,40.82,256.23,41Zm-23.77,65.67c-.09-3-.77-5.41-3.33-6.7s-4.82-.45-6.95,1a13.83,13.83,0,0,0-4.42,5.48A9.7,9.7,0,0,1,216,109a12.41,12.41,0,0,0-3.85,7.31,5.59,5.59,0,0,0,5.71,6.52,10.25,10.25,0,0,0,6.84-2.44,23.29,23.29,0,0,0,7.45-11.51A13.77,13.77,0,0,0,232.46,106.67ZM78.93,100.35a12.94,12.94,0,0,0-3.85-8.11,11.91,11.91,0,0,1-1.4-1.84,13.18,13.18,0,0,0-6.43-5.68c-5.14-2-9.34,1.33-8.58,6.79A13.57,13.57,0,0,0,62.36,99,13.73,13.73,0,0,1,63.94,101a12.67,12.67,0,0,0,7.17,5.83C75.49,108.13,78.93,105.51,78.93,100.35ZM280.29,68.12a35.57,35.57,0,0,0,5.88-1.83c4.37-2.23,4.78-6.93,1.07-10.12A13.39,13.39,0,0,0,273,54.74c-4.35,2.42-4.78,7.1-.93,10.26C274.42,66.93,277.2,67.65,280.29,68.12Zm-25.5,23.57c5.6,0,11.6-5.6,11.92-11.17a5.6,5.6,0,0,0-5.59-6.25C255.38,74,249,80,248.92,85.73A5.55,5.55,0,0,0,254.79,91.69Zm-83.9,24.14c0-5.44-5.37-11.33-10.77-11.86a5.71,5.71,0,0,0-6.56,6.29c.28,5.35,5.2,10.75,10.5,11.52A5.66,5.66,0,0,0,170.89,115.83Zm86.88,61.82A34.54,34.54,0,0,0,256,171.9c-2.21-4.38-6.88-4.83-10.12-1.13a13.45,13.45,0,0,0-1.61,14.09c2.37,4.46,7.09,5,10.32,1.12C256.58,183.61,257.33,180.79,257.77,177.65ZM192.21,97.72a12.38,12.38,0,0,0,7.13-2.12c3.59-2.59,3.75-6.75.38-9.61-3.92-3.33-11.1-3.55-15.23-.45-3.48,2.61-3.6,6.72-.26,9.51A12.44,12.44,0,0,0,192.21,97.72Zm57.54,51.09c0-4.85-3.49-10-7.78-11.71-4-1.58-7.49.33-8.27,4.56-.84,4.6,2.26,10.55,6.72,12.88C245.33,157.09,249.8,154.35,249.75,148.81ZM226.63,16.69c5.22,0,10.75-4.29,12-9.24,1-4.06-1.46-7.3-5.64-7.44a13.31,13.31,0,0,0-12.2,8.54C219.25,13.1,221.85,16.7,226.63,16.69ZM106.08,185.25c-5.21.46-9.4,2.53-11.73,7.37A5.59,5.59,0,0,0,98,200.81c5.39,1.59,12.81-2.28,14.57-7.62a5.53,5.53,0,0,0-3.92-7.49A24.75,24.75,0,0,0,106.08,185.25ZM54.17,125.33a13,13,0,0,0-9.74,4.82c-3.43,4.25-1.57,9.19,3.79,10.15a13.09,13.09,0,0,0,10.86-3c2.83-2.26,4-5.34,3-7.89S58.4,125.32,54.17,125.33Z"/><path d="M0,122.26c.3-.81.55-1.63.89-2.42,1.88-4.38,6.37-5.42,9.81-2.14,3.63,3.47,4.64,7.84,3.59,12.67a2,2,0,0,0,.63,2.22c3.4,3.33,5,7.4,4,12.15s-5.39,6.6-9.54,3.84a13.31,13.31,0,0,1-5.27-13,1.88,1.88,0,0,0-.6-2c-2-2-2.82-4.58-3.53-7.21Z"/><path d="M32.91,218.91a52,52,0,0,1-5.75-2.69,10.43,10.43,0,0,1-4.46-5.76c-1.34-4.13,1-7.66,5.33-7.88,4.7-.25,8.38,1.82,11.15,5.47,3.52,4.65,2.3,8.77-3.07,10.86Z"/><path d="M226.38,52.1c6.83-1.5,13,4.8,14,9.69s-2.35,8.26-7.23,7.37c-5.5-1-9.61-5.56-10.53-11.79a3.43,3.43,0,0,0-.64,0c-5.43,1.09-9.68-.91-13.12-5a7.5,7.5,0,0,1-1-1.6c-2.15-4.39.18-8.47,5-8.88A12.77,12.77,0,0,1,226.38,52.1Z"/><path d="M106.82,136.12a13.44,13.44,0,0,1,8.88,9.52,4.29,4.29,0,0,1,.16.71c.35,2.56.17,5-2.08,6.72s-4.65,1.36-7,.3a12.7,12.7,0,0,1-7.27-14.05c-5.45-3.59-7.74-8.79-6.32-14.41a10,10,0,0,1,.73-2c1.88-3.76,5.81-4.67,9.11-2.06a11.78,11.78,0,0,1,4.41,9A45.06,45.06,0,0,1,106.82,136.12Z"/><path d="M68.38,199c-.89,6.39-4.73,10.76-10.45,11.87-2.52.48-4.9.19-6.64-1.91s-1.59-4.44-.6-6.73A13.1,13.1,0,0,1,61,194.13c.28-.06.57-.1.85-.15,0,0,.08,0,.2-.15a13,13,0,0,1,4.32-10.43c2.06-2,4.47-3.33,7.44-3,3.34.36,5.39,3.31,5,7a13.25,13.25,0,0,1-9.89,11.44A4.81,4.81,0,0,0,68.38,199Z"/><path d="M258,115c2.57-5.77,7.39-8.75,13.33-8.2a9.87,9.87,0,0,1,2.68.63,5.55,5.55,0,0,1,3,8.22,11.84,11.84,0,0,1-8.86,6,32.19,32.19,0,0,1-5.3,0c-.13.59-.23,1.2-.4,1.78-1.48,5-4.49,8.48-9.67,9.65-3.87.87-6.85-1.58-7-5.51-.3-6.19,5.5-12.4,11.7-12.53A4.68,4.68,0,0,0,258,115Z"/><path d="M67.35,159.39c0,4.49-3.79,9.5-8.52,11.11a2.22,2.22,0,0,0-1.68,2.08c-.9,4.93-3.62,8.56-8.38,10.31s-8.58-1.34-8.13-6.26a12.8,12.8,0,0,1,8-11.1,2.16,2.16,0,0,0,1.45-1.85A13.32,13.32,0,0,1,60,153.53C64.21,152.68,67.39,155.19,67.35,159.39Z"/><path d="M125,83a13.17,13.17,0,0,1-12.64-8.38,3.08,3.08,0,0,0-1.2-1.14c-4.21-2.83-6.58-6.7-6.34-11.84.22-4.75,4.21-7.14,8.56-5.18s6.51,5.38,7.4,9.81a1.56,1.56,0,0,0,1.4,1.46,13,13,0,0,1,7.32,4.45c1.77,2.18,2.85,4.62,1.53,7.38S127.08,83,125,83Z"/><path d="M138.71,213.14c-4.88,0-10.1-4.94-11.17-10.35a3.12,3.12,0,0,0-1.18-1.77c-4.16-2.9-6.6-8.54-5.56-13.06.93-4.05,4.47-5.92,8.24-4.17,4.38,2,6.57,5.74,7.22,10.39a2.57,2.57,0,0,0,1.42,2.22,12.71,12.71,0,0,1,6.86,10.19C144.9,210.48,142.42,213.19,138.71,213.14Z"/><path d="M147.31,153.57a13.72,13.72,0,0,1-5.93,10.12,3.62,3.62,0,0,0-1.24,1.78c-1.32,4.4-3.91,7.7-8.29,9.28-4.85,1.77-8.79-1.43-8.21-6.56a13,13,0,0,1,6.3-9.8,2.76,2.76,0,0,0,1.31-1.9,13,13,0,0,1,7.07-9.26C143.11,144.91,147.36,147.69,147.31,153.57Z"/><path d="M217.2,178.21a18.07,18.07,0,0,0,.72,2.41c2.25,5,.39,13-3.86,16.41-3.22,2.6-6.77,1.75-8.36-2.09a13.68,13.68,0,0,1-.1-9.68,2.88,2.88,0,0,0-.43-3A12.65,12.65,0,0,1,203,171c1.43-5.12,6.36-6.5,10.28-2.9A12.51,12.51,0,0,1,217.2,178.21Z"/><path d="M199.36,34.46A13.16,13.16,0,0,1,190.92,31a2.11,2.11,0,0,0-2.2-.55,12.47,12.47,0,0,1-8.52-.76c-4.8-2.28-5.45-7.41-1.19-10.6s9-3.58,13.87-1.37a8.67,8.67,0,0,0,2.18.64,13.45,13.45,0,0,1,10,6.55c1.27,2.15,1.73,4.47.34,6.76S201.78,34.44,199.36,34.46Z"/><path d="M74.91,58c-1.24,3.32-.48,6.51.16,9.78a11.33,11.33,0,0,1-.58,5.54c-1.53,4.43-6,5.59-9.56,2.57-3.36-2.82-4.58-6.6-4.47-10.89a21.13,21.13,0,0,0-.12-2.87c-.46-3.81.13-7.37,2.55-10.44,3.4-4.29,8.59-3.64,10.73,1.39A34.42,34.42,0,0,1,74.91,58Z"/><path d="M131,40.79c.35-3.31.6-6.62,1.07-9.91a11.65,11.65,0,0,1,3.11-6.31c3.89-4.17,9.13-3,10.8,2.47a13.69,13.69,0,0,1-.45,8.71,6.38,6.38,0,0,0-.32,2.64A13.4,13.4,0,0,1,143,47.81c-3,4.21-8.07,4-10.48-.63-1-1.91-1.36-4.17-2-6.27Z"/><path d="M212.14,141.92a19.9,19.9,0,0,1-.38,2.83,78.08,78.08,0,0,1-2.87,8.64,11.89,11.89,0,0,1-8.16,7.08c-4.08,1-7.29-1.46-7.41-5.65a12.8,12.8,0,0,1,3-8.13,5.48,5.48,0,0,0,1-2.57,13.33,13.33,0,0,1,3.68-8.33c3.73-3.69,8.61-2.58,10.33,2.38A27.71,27.71,0,0,1,212.14,141.92Z"/><path d="M159.16,165.2a29.41,29.41,0,0,1,1.3-4.6c1.6-3.54,5.24-4.54,8.5-2.41a11.77,11.77,0,0,1,5.14,8.59,12.79,12.79,0,0,0,1.57,4.87,10.78,10.78,0,0,1,1.45,7.69c-.8,4.23-4.37,6.19-8.31,4.43-4.24-1.89-6.41-5.43-7.38-9.84-.25-1.17-.67-2.3-1-3.46C160,168.75,159.6,167,159.16,165.2Z"/><path d="M290.74,171.22a13.45,13.45,0,0,1-8.38-3.95,6.16,6.16,0,0,0-1.92-1.2,12.66,12.66,0,0,1-6.87-5.54c-2.16-3.9-.41-7.88,4-8.84s8.1.45,11.47,3.19a12,12,0,0,0,2.15,1.43,13.24,13.24,0,0,1,6,5.51C299.84,166.77,297.12,171.26,290.74,171.22Z"/><path d="M256.23,41c-3.4-.18-6.82-.24-10.21-.59A10.89,10.89,0,0,1,241.81,39c-3.84-2.21-4.3-6.46-1.1-9.51a12.61,12.61,0,0,1,10.09-3.23c2.26.18,4.51.48,6.76.82A11,11,0,0,1,264,30.19c2.86,2.92,2.5,6.77-.86,9.12A10.15,10.15,0,0,1,256.23,41Z"/><path d="M232.46,106.67a13.77,13.77,0,0,1-.34,2.24,23.29,23.29,0,0,1-7.45,11.51,10.25,10.25,0,0,1-6.84,2.44,5.59,5.59,0,0,1-5.71-6.52A12.41,12.41,0,0,1,216,109a9.7,9.7,0,0,0,1.79-2.55,13.83,13.83,0,0,1,4.42-5.48c2.13-1.48,4.46-2.28,6.95-1S232.37,103.67,232.46,106.67Z"/><path d="M78.93,100.35c0,5.16-3.44,7.78-7.82,6.49A12.67,12.67,0,0,1,63.94,101,13.73,13.73,0,0,0,62.36,99a13.57,13.57,0,0,1-3.69-7.44c-.76-5.46,3.44-8.79,8.58-6.79a13.18,13.18,0,0,1,6.43,5.68,11.91,11.91,0,0,0,1.4,1.84A12.94,12.94,0,0,1,78.93,100.35Z"/><path d="M280.29,68.12c-3.09-.47-5.87-1.19-8.21-3.12-3.85-3.16-3.42-7.84.93-10.26a13.39,13.39,0,0,1,14.23,1.43c3.71,3.19,3.3,7.89-1.07,10.12A35.57,35.57,0,0,1,280.29,68.12Z"/><path d="M254.79,91.69a5.55,5.55,0,0,1-5.87-6C249,80,255.38,74,261.12,74.27a5.6,5.6,0,0,1,5.59,6.25C266.39,86.09,260.39,91.72,254.79,91.69Z"/><path d="M170.89,115.83a5.66,5.66,0,0,1-6.83,6c-5.3-.77-10.22-6.17-10.5-11.52a5.71,5.71,0,0,1,6.56-6.29C165.52,104.5,170.87,110.39,170.89,115.83Z"/><path d="M257.77,177.65c-.44,3.14-1.19,6-3.18,8.33-3.23,3.86-8,3.34-10.32-1.12a13.45,13.45,0,0,1,1.61-14.09c3.24-3.7,7.91-3.25,10.12,1.13A34.54,34.54,0,0,1,257.77,177.65Z"/><path d="M192.21,97.72a12.44,12.44,0,0,1-8-2.67c-3.34-2.79-3.22-6.9.26-9.51,4.13-3.1,11.31-2.88,15.23.45,3.37,2.86,3.21,7-.38,9.61A12.38,12.38,0,0,1,192.21,97.72Z"/><path d="M249.75,148.81c.05,5.54-4.42,8.28-9.33,5.73-4.46-2.33-7.56-8.28-6.72-12.88.78-4.23,4.23-6.14,8.27-4.56C246.26,138.77,249.71,144,249.75,148.81Z"/><path d="M226.63,16.69c-4.78,0-7.38-3.59-5.89-8.14A13.31,13.31,0,0,1,232.94,0c4.18.14,6.63,3.38,5.64,7.44C237.38,12.4,231.85,16.67,226.63,16.69Z"/><path d="M106.08,185.25a24.75,24.75,0,0,1,2.55.45,5.53,5.53,0,0,1,3.92,7.49c-1.76,5.34-9.18,9.21-14.57,7.62a5.59,5.59,0,0,1-3.63-8.19C96.68,187.78,100.87,185.71,106.08,185.25Z"/><path d="M54.17,125.33c4.23,0,7,1.56,7.95,4.12s-.21,5.63-3,7.89a13.09,13.09,0,0,1-10.86,3c-5.36-1-7.22-5.9-3.79-10.15A13,13,0,0,1,54.17,125.33Z"/></g></g></svg>