<svg xmlns="http://www.w3.org/2000/svg" viewBox="0 0 68.8 76.24"><g id="Layer_2" data-name="Layer 2"><g id="Layer_1-2" data-name="Layer 1"><path d="M39,74a18.5,18.5,0,0,1-3-5.44c-2.36-5.49-2.44-11.16-1.82-17,.42-4-.14-8-.33-12,0-.51.08-1.33-1-1.3-2.49.07-2.49.05-3.36-1.74-.65.06-.76.64-.89,1.07-2,6.94-3.09,13.92,0,20.84A33.44,33.44,0,0,1,31,66.91c.35,2.25-.31,4.38-.42,7.06A3.69,3.69,0,0,1,30,71.14a26.54,26.54,0,0,0-2.63-12.61c-2.26-4.74-2.28-9.91-1.77-15,.39-3.83.56-3.82-1.06-7.24-.1,0-.3,0-.31.06-.68,2.91-2.19,5.42-3.53,8.05s-.66,5.68-.4,8.55a17,17,0,0,0,1.94,6.47,10.63,10.63,0,0,1,.8,2.12c1,3.55.9,7.35,2.76,10.71a3.48,3.48,0,0,1-2.15-2.82,66.14,66.14,0,0,0-3.58-12.08c-1.78-4.23-1.34-8.9-.9-13.42.12-1.3,1.18-2.2,1.86-3.25,1.57-2.42,1.06-3.69-1.69-4.33-.13,0-.29,0-.37-.06-2.13-1.9-2.88.06-3.85,1.38l-.23.3c-3.9,5.19-4.1,6.32-.59,11.75C16.52,53.15,17,57,17.47,60.81c.3,2.37.26,4.78.47,7.15a20.32,20.32,0,0,0,2.31,6.72,11.06,11.06,0,0,1-2.88-5,21,21,0,0,1-1-6.33,36,36,0,0,0-1.18-9.13c-.6-2.54-2.73-4.19-3.73-6.6,3.21,9.37,5.12,18.81,2.91,28.6l-.5,0c.08-1.58.07-3.16.25-4.73A37.48,37.48,0,0,0,12,54.82c-.93-2.67-2.23-5.29-2.22-8.16a41.88,41.88,0,0,0-.63-7.08c-.53-3.09,1-5.61,2.5-8.11a3.54,3.54,0,0,1,2.66-1.61c.61-.1,1.09-.39,1.15-1.06,0-.21-.11-.58-.24-.62-.54-.15-1,.23-1.35.52A75.47,75.47,0,0,0,3.24,38.23a7.49,7.49,0,0,0-1.51,7.4A21.08,21.08,0,0,1,.57,60c-.66-.36-.4-.83-.3-1.2a26.33,26.33,0,0,0,0-14.33c-1-3.59.55-6.73,3.2-8.94,2.82-2.34,5.22-5.08,8-7.41a6.56,6.56,0,0,1,2.19-1.44c2-.57,2.88-2.07,3.83-3.65a3.59,3.59,0,0,0,.57-2.68,5.63,5.63,0,0,1,1.78-5.49A55.73,55.73,0,0,0,29.64,2.64C32-1,34.8-.85,36.91,3c1.57,2.87,2.83,5.9,4.88,8.5,1.2,1.54,2.82,2.7,3.91,4.34a6,6,0,0,1,1.12,4.62c-.45,2.56.71,3.8,3.22,3.74,3.51-.08,7.92,3.38,9,7.19.49,1.68.81,3.42,1.16,5.15a16.39,16.39,0,0,0,1.28,4.32,4.08,4.08,0,0,1,.57,2.74c-1,4,1.32,7.06,3.24,10.08a21.31,21.31,0,0,1,3.5,11.12c-.75.08-.66-.43-.68-.73A19,19,0,0,0,65,55.49c-1.31-2.07-2.3-4.34-3.4-6.53-.49-1-.85-1.12-1.76-.24a12.36,12.36,0,0,0-4.21,10.62c.23,2.57-1.94,4.08-3.35,5.91a5.53,5.53,0,0,1,1.16-2.72,5.06,5.06,0,0,0,1.05-3.73c-.78-4.07.94-7.3,3.49-10.14a6.34,6.34,0,0,0,1.67-5.51c-.53-5.9-4.65-8.46-9-10.87C48.54,31.1,48.13,31.8,47,34c-1.69,3.19.94,5,1.88,7.34C50,44,52.18,46.18,52.78,49.2a7.5,7.5,0,0,1-1,6c-3.11,4.33-4.25,9.2-4.5,14.38a5.52,5.52,0,0,1-.37,1,15.37,15.37,0,0,1,.24-7.7,18,18,0,0,1,2.67-6.43,8.31,8.31,0,0,0,.4-9.42c-1.71-3.16-3.61-6.2-5.43-9.3-.55-.93-1.13-1.33-2.29-.72-1.66.85-2.18.46-2.4-1.46-.06-.61.05-1.29-.69-1.66-.69.42-.33,1.13-.46,1.7-.28,1.3-.73,2.48-2.27,2.64-1,.11-1.13.7-1.12,1.55,0,3.59,0,7.18,0,10.77a29.05,29.05,0,0,1-.34,5.27c-1.05,5.81.81,11.06,3.22,16.19C38.78,72.49,39.38,72.91,39,74Zm19.38-38c.43-1.36-.2-2.31-.36-3.32-.58-3.74-3.24-5.48-6.43-6.7a3.5,3.5,0,0,0-3.21.61,1.84,1.84,0,0,0-.69,1.85c0,.85.73.92,1.36,1a10,10,0,0,1,5.29,2.72C55.71,33.39,57,34.67,58.41,36.05ZM10.92,40.86c1.63-2.43,3.1-4.67,4.63-6.87.43-.63.7-1.22.15-1.85s-1.39-.36-2,0C11.25,33.57,9.8,37.88,10.92,40.86Z"/></g></g></svg>