<svg xmlns="http://www.w3.org/2000/svg" viewBox="0 0 208.7 191.56"><g id="Layer_2" data-name="Layer 2"><g id="Layer_1-2" data-name="Layer 1"><path d="M201.69,27c-.28,6.3-5.08,6.29-8.54,7.41-3.91,1.26-8,2-12,3.08a7.6,7.6,0,0,0-1.83,1.14,7.24,7.24,0,0,0,2.07.32c3.35-.44,6.68-1,10-1.44s4.37.63,7.52,1.69c4,1.35,9,2.89,8.14,8.34a7.09,7.09,0,0,1-2,3.88c-.75.68-4.25,2.15-3.79-.32-2.15,1.84-5.15,2.29-8,2.4s-5.74,0-8.4,1c2.6-.86,7.45.31,10.22.42,3,.13,6.1-.15,8.82,1.31,4.62,2.49,5.47,7.62,4.11,12.33-1.58,5.46-6.25,3.48-9.85,3.26-5.29-.32-10.55-1.13-15.82-1.71a4.59,4.59,0,0,0-1.09.14,3,3,0,0,0,.84.52c4.77,1,9.58,1.79,14.3,3,1.76.43,3.31,1.66,4.95,2.53.25.13.48.36.74.39,6.59.67,4.58,7.87,1.42,11.29-6.1,6.61-13.35,1-20.25-1.09a4.25,4.25,0,0,0-1.66.19,7.15,7.15,0,0,0,1.29.78c3.11,1.08,6.3,2,9.34,3.22,3.45,1.45,7.08,2.81,10,5.06,1.38,1.06,1.95,4.19,1.64,6.18-.39,2.48-.11,6.27-4.77,5.91-1.1-.08-2.32,2-3.47,2-1.52,0-3.06-1.07-4.55-1.78-3.3-1.59-6.57-3.27-9.88-4.86a5.13,5.13,0,0,0-1.64-.2,6.05,6.05,0,0,0,1.13,1c3.14,1.59,6.38,3,9.42,4.77,1.34.78,5.54,1.21,1.36,4.08-.13.09-.15.35-.22.54a4.58,4.58,0,0,1,.83,0c1.66.32,4.23.15,4.77,1.11a9.2,9.2,0,0,1,.71,6.11c-.44,1.93-1.89,3.73-3.19,5.35-1.46,1.82-3,2.09-4.34-.41a2.73,2.73,0,0,0-2.25-1.26c-5,1.53-7.46-2.64-10.87-4.66-1.33-.79-2.71-1.49-4.07-2.23,1,1.08,2,2.23,3.08,3.25,3.91,3.64,8,7.14,11.78,10.88,2.91,2.87,2.49,7-.75,10.42-3.78,4-6.85,4.63-10.21,1.54-3.62-3.33-6.93-7-10.4-10.5a4.67,4.67,0,0,0-1.34-.67,5.07,5.07,0,0,0,.53,1.55c1.52,1.95,2.82,4.23,4.74,5.68,4.29,3.22,4,8.09,5.68,12.39,2.24,5.88-2.06,6.74-5,8.46-2.12,1.23-4.75,1.14-4.56-2.75,0-.48-1.08-1-1.66-1.52a60.37,60.37,0,0,1-5.71-5.1c-2.07-2.34-3.77-5-5.66-7.5-.23-.3-.7-.42-1.06-.62a4.44,4.44,0,0,0,.31,1.23c2.46,4,5.43,7.79,7.28,12.06,1.48,3.41,2.68,7.64,1.93,11.06-.48,2.2-4.62,3.74-7.33,5.19-.62.33-2.2-1.54-3.16-1.38-3.54.6-1.6-2.66-1.82-2.74-6.06-2.2-4.88-8.87-8.09-12.74-.41-.49-.84-1-1.26-1.44a6.68,6.68,0,0,0,0,2c1.68,4.76,3.27,9.57,5.21,14.23,1.88,4.49-.13,7.24-3.76,9.19-4.44,2.39-8.42,1.39-11.14-2.4l-1.27-1.79a13.2,13.2,0,0,0-.89,2.15c-.42,1.88-.44,3.91-1.18,5.64a6.2,6.2,0,0,1-3.07,3.13,5.75,5.75,0,0,1-5.77-1c-1.52-1.34-2.44-3-4.88-2.42-.93.24-2.86-14.94-3.29-16.23,0,4.2.4,8.37.6,12.55,0,.84.16,3.44-1.43,2.92-.42-.14-.75-.46-1.16-.64s-1-.1-1.14.31a1.2,1.2,0,0,0,.19.87c2.43,4.87-.72,8.29-5.59,8.35-1.46,0-5.9-.74-6.36-2.5a2.88,2.88,0,0,1,0-1.27c.21-1.08.92-2.87.46-3.82s-1.54-1.13-1.88-2.25c-.53-1.71.22-3.68.22-5.43a66.81,66.81,0,0,1,.33-7.33,4.23,4.23,0,0,0-.5,0c-.37,2.44-.8,4.87-1,7.32-.18,1.86.1,3.78-.17,5.61s-.9,3.56-3.17,1.5a3.05,3.05,0,0,0-.77-.37,2.74,2.74,0,0,0,.15,1,5.27,5.27,0,0,1-4.59,7.79c-3.78-.09-8.68-1.84-9.11-6.2-.07-.68.1-1.52.74-1.74a1.19,1.19,0,0,1,1.39.78,3.17,3.17,0,0,1,0,1.73,14.13,14.13,0,0,1-1.17-8.33c.4-3,1.24-5.86,1.88-8.79a9,9,0,0,0,.06-1.73,5.5,5.5,0,0,0-1,1.32c-1.51,4-2.41,8.34-4.6,11.91-1.62,2.64-4.91,4.23-7.38,6.38-.48.41-.46,1.61-.92,1.79-4.56,1.79-13.52-5-8.93-9.61a4.88,4.88,0,0,0,1.2,1c1.26-2.41-.29-3.52-2.39-2.63a12.12,12.12,0,0,0-4.37,3c-4.26,5.23-7.38.82-10.38-1.2s-2.47-3.7.51-5.66a1.71,1.71,0,0,0,.43-1.58c-1.66-3.64,1.61-5.24,3.06-7.56,1.62-2.6,3.37-5.12,5-7.7a4.37,4.37,0,0,0,.33-1.23,4.7,4.7,0,0,0-1.08.6c-3.68,3.5-7.26,7.12-11.08,10.47-.84.74-2.56.4-3.78.81-.73.25-1.21,1.23-1.94,1.5-1.73.64-3.54,1.06-5.32,1.55a.88.88,0,0,1-.45,0c-3.87-1-6.89-8.69-4.32-11.79,2-2.36,4.62-4.16,7-6.18.8-.67,1.75-1.17,2.54-1.86,1.19-1,2.3-2.18,3.44-3.28a47.56,47.56,0,0,0-4.77,1.21c-2.7,1-5.4,2-8.08,3-2.29.91-4.57,2.32-7.15,2.16A12.37,12.37,0,0,1,11,153a9.78,9.78,0,0,1-3.23-1.38,6.61,6.61,0,0,1-2.3-5.42c0-1.54-.34-4.45,1.29-5.34a2.14,2.14,0,0,1,2.53.39c-.57-.6,6.68-4.87,7.51-5.18,3.58-1.35,7.23-2.55,10.8-3.91a4.53,4.53,0,0,0,1.12-.91,4.15,4.15,0,0,0-1.42-.39c-4.69.51-9.38,1-14,1.64-4.26.59-9.15-.42-11.71-4.17A9.47,9.47,0,0,1,0,122.57c.11-2.67,1.94-4.84,4.14-6.21-.47.3,1.75,1.08,2.1,1a11.34,11.34,0,0,0,2.33-1.18c1.72-.87,3.58-.41,5.41-.38,2.55,0,5.09.11,7.63.13a6.83,6.83,0,0,0,2-.64,7.45,7.45,0,0,0-1.64-1,40.64,40.64,0,0,0-6.92-1.84c-4.55-.51-8-2.7-11.34-5.7a8.42,8.42,0,0,1-3-7.17c.28-2.22,2.19-5.71,4.67-6.1a1.47,1.47,0,0,1,1.67.91C7.25,95,7,95.72,7.51,96a1.13,1.13,0,0,0,1,0,18.33,18.33,0,0,1,4.21-1.26c1.39-.06,2.94.77,4.21,1.22,3.08,1.09,6.18,2.63,9.33,3.42a3.65,3.65,0,0,0,1.05,0,4.14,4.14,0,0,0-.8-.72c-2.83-1.52-5.63-3.12-8.55-4.49C13.25,92,8.8,89.55,7.28,84.21c-.65-2.29.44-4.74,1.82-6.52,1.05-1.34,4.1-4.36,6-3.37a4.41,4.41,0,0,1,1.51,1.61,3.59,3.59,0,0,0,3.68,1.62c2.42-.13,3.05.91,5,2.17s3.67,2.6,5.55,3.84a5.5,5.5,0,0,0,1.63.42,5.88,5.88,0,0,0-.77-1.45c-3.72-3.77-7.89-7.19-11-11.39-1.49-2-2.27-6.25-1.12-8,1.54-2.4,5.39-6,8.38-6.24,1.08-.08,2.3.7,2.26,1.78a2.54,2.54,0,0,1-1.17,1.77c.92-.69,6.1,2.74,6.75,3.36,2,1.94,3.5,4.55,5.29,6.69a7.6,7.6,0,0,0,2.22,1.26,10.06,10.06,0,0,0-.44-2.49c-2.14-4.58-4.65-9-6.49-13.68-1.93-4.92,1.4-7.69,5.12-9.93,2.94-1.78,6.29-2.11,8.32.8s3,6.5,4.39,9.79,2.91,6.7,4.38,10a4.16,4.16,0,0,0,.52.69,3.11,3.11,0,0,0,.14-.94c-.83-4.78-1.91-9.54-2.42-14.36a23.43,23.43,0,0,1,.51-9c1.37-4.51,10.14-6.81,13.76-3.58,1.14,1,.71,3.79,1,5.77,0,.15-.3.36-.28.51.77,4.94,1.54,9.88,2.37,14.81a5.8,5.8,0,0,0,.71,1.49,5.7,5.7,0,0,0,.57-1.36,92.44,92.44,0,0,0,1.19-10c.09-4.8,2.39-8.28,5.88-11.08,4.47-3.6,8.3-2.94,11.85,1.92a3.93,3.93,0,0,1,.46,2.87c-1.21,5.46-2.57,10.9-3.85,16.35a4.71,4.71,0,0,0,.13,1.43c.35-.33.85-.6,1-1,1.54-3.26,2.86-6.63,4.6-9.76.59-1,1.26-4.85,3.7-1.14.08.11.35.1.52.15,0-.28,0-.57-.07-.86-.52-3.6,1.11-6.22,4.64-5.47,3.32.71,6.52,2.75,9.3,4.84.82.61.64,3.68-.11,5.08-2.1,3.89-4.75,7.49-7.15,11.22a8.56,8.56,0,0,0-.61,1.53,12.18,12.18,0,0,0,1.36-1.11c2.1-2.34,4.07-4.81,6.32-7,.42-.41,2,.25,2.92.55.27.08.38.65.57,1,.1-.35.09-.84.33-1,1.46-1.08,3-2,4.46-3.14,2.64-2.13,4.85-.41,5.88,1.43,1.19,2.12,1.17,4.92,1.68,7.43-.81.15-2.19.1-2.32.48a40.54,40.54,0,0,0-1.24,5.58s.53.31.69.23c1.66-.85,3.47-2.22,3.4,1.34a4.66,4.66,0,0,0,.63.12c.74-3.47,2.76-3.07,5.68-2.68,2.73.36,5,1.1,6.47,4.45,1.39,3.17,1.08,6-1.93,7.9s-6.64,3.18-9.63,5.25c-5.53,3.84-11.19,7.64-16,12.24-4.21,4-7.77,4-12.66-1.3-3.13-3.41-6.11-7.25-10-9.64-5-3.14-10.39-6.89-16.85-5.55-4.57,1-8.89,3.08-13.41,4.34-8.9,2.48-12.22,10.29-15.76,17.28-1.9,3.74-1.07,8.88-1.4,13.4-.09,1.16.3,2.38.13,3.52-.66,4.56,1.21,7.87,4.86,10.32,5.66,3.81,11.32,7.62,17.08,11.26.88.55,2.36.06,3.55.21,5.27.66,10.51,1.65,15.8,2a111.24,111.24,0,0,0,16-.05c2.32-.18,4.45-2.16,6.8-2.72,8.77-2.07,16.22-6.92,24.25-10.6,5.72-2.63,6.93-9.21,12.71-11.38,1.4-.53,1.5-4.15,2.53-6.17.72-1.42,2.3-2.4,3-3.83s.71-3.47,1.31-5.13c2.53-6.94,5.21-13.82,7.71-20.78.4-1.12,0-2.49.23-3.71.44-2.74,1.4-5.45,1.46-8.18.06-2.89-.7-5.8-1.08-8.7-.7-5.27-1.32-10.55-2.13-15.8a13.2,13.2,0,0,0-1.58-4.3c-2.45-4.3-4.81-8.67-7.61-12.74-3.88-5.61-2.45-10.33,4-12.11a1.83,1.83,0,0,0,.87-.55c2-2.38,3.64-5.19,6-7.08A94.55,94.55,0,0,1,174.58,3c2.63-1.49,5.7-2.87,8.63-3,5-.21,7,4.26,8.13,8.06,1.33,4.51-3,6.19-6.06,8-4.14,2.4-8.45,4.5-12.66,6.78-.47.26-.77.84-1.15,1.27a6.34,6.34,0,0,0,1.81-.13c3.58-1.34,7-3.33,10.7-4,4.32-.77,9.05-1.19,13.2-.17C199.15,20.3,200.21,24.49,201.69,27Z"/></g></g></svg>