<svg xmlns="http://www.w3.org/2000/svg" viewBox="0 0 153.99 84.84"><defs><style>.cls-1{fill:none;}</style></defs><g id="Layer_2" data-name="Layer 2"><g id="Layer_1-2" data-name="Layer 1"><path d="M84.78,51.21c-4.7-.83-8.94-1.51-13.15-2.36-1.24-.26-1.94-.06-2.4,1.11a6.67,6.67,0,0,1-.79,1.29c-2.67,3.92-6.69,5.42-11.15,5.69-3.17.2-6.44-.65-9.55-.21-2.7.38-4.86-.56-7.27-1.1-3-.67-4-3.39-6.06-5.05-.28-.23,0-1.09,0-2-5.9,1.63-11.6.48-17.27-1.22.94-3.74.95-3.79,4.43-2.88,3.95,1,7.88,1.6,11.87.27,2-.68,2.49-1.55,1.75-3.54-.12-.33-.37-.91-.28-1C37,38.75,37,35.26,40,34.68a16.56,16.56,0,0,1,3.15,0,14.34,14.34,0,0,1,1-3.06c1.88-3.42,3.66-3.65,7.52-3.68,4.88,0,8.16,2.25,11.4,5.31,1.07,1,2.88,1.23,4,2.21,2.81,2.45,4.25,5.77,5.56,9.82l12.78,2.21c-1.14-2.3-.8-3.4.74-4.43.93-.61,1.19-2.15,2-3,1.31-1.3,2.92-1.82,4.45-.53a38.37,38.37,0,0,1,1.3-3.84c1.36-2.94,3.8-4,7.13-3.35a39,39,0,0,1,5.1,1,35.54,35.54,0,0,1,4.24,2.29c1.54.78,2.24,2.94,4.42,2.66a.52.52,0,0,1,.39.17c4,4.32,9.7,4,14.79,4.91,3.51.65,7.24.12,11.11.12l.73,3.12c-6.92,2.2-13.58,1.43-20-.42A19.55,19.55,0,0,1,116.88,57c-3,3.25-6.82,4.25-10.93,4.38-2.89.09-5.84-.71-8.65-.31-2.54.37-4.58-.53-6.86-1-3.16-.58-4.21-3.43-6.4-5-.23-.17,0-1.07.12-1.61C84.35,52.67,84.62,51.79,84.78,51.21Z"/><rect class="cls-1" width="153.99" height="84.84"/></g></g></svg>