<?xml version="1.0" encoding="UTF-8"?>
<svg id="Layer_2" data-name="Layer 2" xmlns="http://www.w3.org/2000/svg" viewBox="0 0 23.17 16.83">
  <defs>
    <style>
      .cls-1 {
        fill: none;
      }

      .cls-1, .cls-2 {
        stroke-width: 0px;
      }
    </style>
  </defs>
  <g id="Layer_2-2" data-name="Layer 2">
    <g id="AnnotationBbox_13" data-name="AnnotationBbox 13">
      <g id="IDF">
        <g id="Layer_2-3" data-name="Layer 2">
          <g id="Layer_1-2" data-name="Layer 1-2">
            <path class="cls-1" d="M17.63,7.33c-.02-.48-.03-.9-.07-1.31-.02-.25-.07-.5-.16-.74-.23-.6-.61-1.13-1.11-1.53-.7-.56-1.47-.93-2.38-.95-.79-.02-1.57.02-2.29.4-.55.29-1.11.59-1.49,1.11-.22.29-.45.57-.65.86-.24.34-.3.75-.38,1.14-.07.4-.12.8-.14,1.2-.05.55-.12,1.11-.36,1.61-.41.89-1.01,1.6-1.9,2.05-.45.23-.91.45-1.35.72s-.86.59-1.28.89c-.37.26-.69.57-.96.94-.12.15-.12.36-.02.52.15.22.27.26.5.18.09-.03.18-.07.26-.12.25-.16.5-.34.76-.49.5-.3,1.02-.56,1.54-.81.5-.22,1-.5,1.48-.77.27-.13.52-.29.75-.49.33-.33.65-.69.94-1.06.18-.22.39-.42.5-.7.08-.19.17-.38.23-.58.13-.32.23-.64.3-.97.09-.52.12-1.05.17-1.58.02-.42.16-.82.42-1.16.2-.25.41-.48.62-.72.22-.25.51-.44.82-.55.26-.08.53-.13.81-.13.38-.01.76-.04,1.14.07.41.13.8.33,1.14.6.23.16.41.39.5.66.08.26.14.52.18.78.09.74.1,1.49.02,2.24-.07.73-.38,1.34-1.08,1.7-.23.13-.5.2-.77.19-.78-.05-1.22-.77-1.02-1.5.05-.17.17-.32.25-.48.2-.36.39-.72.59-1.08.21-.39.39-.79.38-1.24,0-.11-.02-.21-.06-.31-.03-.1-.1-.11-.16-.02-.11.16-.22.32-.3.49-.1.23-.22.44-.38.64-.37.43-.73.86-1.08,1.31-.18.24-.3.51-.35.81-.12.64.08,1.22.45,1.72.5.67,1.21.96,2.04.87.59-.05,1.16-.3,1.59-.71.69-.64,1.12-1.51,1.23-2.44.05-.44.06-.89.08-1.27Z"/>
            <path class="cls-2" d="M17.63,7.33c-.02.38-.03.83-.09,1.27-.1.93-.54,1.8-1.23,2.44-.44.41-1,.66-1.59.71-.83.08-1.54-.2-2.04-.87-.37-.5-.57-1.08-.45-1.72.05-.29.17-.57.35-.81.35-.44.71-.88,1.08-1.31.16-.19.28-.41.38-.64.09-.17.19-.34.3-.49.06-.08.12-.07.16.02.04.1.05.21.06.31,0,.45-.17.85-.38,1.24-.2.36-.39.72-.59,1.08-.09.16-.21.31-.25.48-.2.73.24,1.45,1.02,1.5.27,0,.54-.06.77-.19.69-.35,1-.96,1.08-1.7.08-.74.07-1.5-.02-2.24-.04-.27-.09-.53-.18-.78-.1-.27-.27-.5-.5-.66-.34-.27-.72-.48-1.14-.6-.38-.11-.76-.08-1.14-.07-.27,0-.55.05-.81.13-.32.11-.6.3-.82.55-.21.23-.42.47-.62.72-.26.33-.41.74-.43,1.16-.05.53-.08,1.06-.17,1.58-.07.33-.18.66-.3.97-.07.2-.16.39-.23.58-.11.27-.32.48-.5.7-.29.37-.61.72-.94,1.06-.23.19-.48.36-.75.49-.49.27-.98.55-1.48.77-.53.24-1.04.51-1.54.81-.26.15-.5.33-.76.49-.08.05-.17.09-.26.12-.23.08-.35.03-.5-.18-.11-.16-.1-.37.03-.52.27-.36.59-.68.96-.94.42-.3.84-.62,1.28-.89s.88-.49,1.34-.72c.89-.45,1.49-1.16,1.9-2.05.23-.51.3-1.06.36-1.61.03-.4.08-.8.15-1.19.08-.39.14-.81.38-1.14.21-.29.44-.57.65-.86.39-.52.94-.82,1.49-1.11.72-.38,1.5-.43,2.29-.4.91.03,1.68.39,2.38.95.5.4.88.93,1.11,1.53.09.24.14.49.16.74.04.41.05.82.07,1.3Z"/>
          </g>
        </g>
      </g>
    </g>
    <rect class="cls-1" width="23.17" height="16.83"/>
  </g>
</svg>