<?xml version="1.0" encoding="UTF-8"?>
<svg id="Layer_2" data-name="Layer 2" xmlns="http://www.w3.org/2000/svg" viewBox="0 0 14.7 17.94">
  <defs>
    <style>
      .cls-1 {
        fill: none;
      }

      .cls-1, .cls-2 {
        stroke-width: 0px;
      }
    </style>
  </defs>
  <g id="Layer_2-2" data-name="Layer 2">
    <g id="AnnotationBbox_14" data-name="AnnotationBbox 14">
      <g id="IP">
        <g id="Layer_2-3" data-name="Layer 2">
          <g id="Layer_1-2" data-name="Layer 1-2">
            <path class="cls-1" d="M8.08,11.74s0-.05,0-.08c.02-.04.03-.08.04-.12.03-.07,0-.15-.08-.18,0,0-.01,0-.02,0h-.01s-.04-.04-.03-.06c0,0,0,0,0,0,.01-.03.03-.06.04-.09.05-.11.04-.24-.02-.35,0-.02,0-.04,0-.05.01-.04.03-.07.05-.11.02-.03.01-.07,0-.1-.02-.03-.02-.08,0-.12.02-.04.04-.08.06-.12.02-.05,0-.08-.05-.09-.01,0-.03,0-.04,0-.03,0-.05-.03-.05-.06,0-.03,0-.05.03-.07.01-.01.03-.02.05-.03.04-.02.05-.07.03-.11,0-.01-.01-.02-.02-.03-.05-.07-.05-.17,0-.24.04-.06.04-.15,0-.21-.03-.04-.05-.09-.06-.14-.02-.11-.01-.23.02-.34.02-.05.02-.1,0-.14-.01-.03,0-.06,0-.08.02-.05.04-.11.05-.16.01-.08.01-.17.02-.26,0,0,0-.02,0-.03,0-.04,0-.08-.04-.11-.05-.04-.05-.06,0-.09h0s.07-.07.07-.12c0-.04,0-.08,0-.13-.01-.09,0-.19.03-.28.02-.04.03-.09.04-.13,0-.1.01-.2.01-.3,0-.06.02-.12.04-.17.01-.03.02-.05.02-.08-.01-.06,0-.12.04-.17.05-.05.06-.13.03-.2-.04-.08-.02-.11.04-.17.01,0,.02-.02.02-.04-.02-.07.01-.14.07-.19.06-.04.09-.11.11-.18.07-.22.16-.43.24-.65.03-.05.03-.11,0-.16-.04-.04-.04-.11,0-.15.03-.06.06-.13.08-.19.03-.08,0-.12-.08-.14-.03,0-.05,0-.08-.01-.02,0-.03-.01-.03-.03,0,0,0-.01,0-.02.01-.02.03-.04.04-.06.05-.06.09-.12.14-.18.03-.05.02-.08-.03-.11-.03-.02-.07-.03-.09-.04-.08-.03-.12-.12-.09-.2.02-.08.03-.16.03-.25,0-.03.02-.06.05-.08.06-.05.15-.06.22-.03.03.01.06.03.09.05.02.01.05,0,.06,0,0,0,0,0,0,0,.02-.02.02-.05,0-.06-.01-.01-.03-.02-.04-.03s0-.03,0-.03c.04-.03.08-.05.13-.05.04,0,.05.02.05.06,0,.02,0,.05,0,.07,0,.01.02.04.03.04.02,0,.03-.01.04-.03,0-.03.02-.06.03-.09,0-.04.04-.07.08-.06,0,0,0,0,0,0,.03,0,.06.02.09.03.04.02.08.03.12.04.12.02.23.07.33.14.08.06.16.13.24.2.1.08.22.12.34.11.05,0,.1-.03.12-.08.04-.07.05-.16.04-.24-.02-.11-.05-.22-.1-.33-.03-.08-.1-.14-.19-.14-.06,0-.11,0-.16.02-.02,0-.05.01-.05.04,0,.03.02.05.05.05.03,0,.05,0,.08,0,.06,0,.11.03.14.08.06.11.08.23.06.35,0,.03-.03.06-.06.06-.01,0-.02,0-.03-.01-.1-.04-.18-.1-.26-.17-.2-.19-.45-.31-.73-.33-.12,0-.22-.08-.25-.19-.03-.06-.09-.11-.16-.11-.09-.01-.18.01-.25.07-.06.04-.11.08-.17.12s-.06.02-.08-.03c-.03-.08-.08-.15-.14-.21-.03-.05-.09-.06-.14-.04,0,0-.01,0-.02.02-.02.01-.04.03-.05.04-.02-.03-.04-.06-.07-.09-.03-.04-.09-.05-.14-.03-.02,0-.04.02-.06.04-.03.03-.06.07-.09.1-.06.06-.11.06-.16,0-.07-.06-.15-.1-.24-.11-.08,0-.15-.01-.23-.03-.17-.04-.35-.07-.52-.09-.15,0-.27-.14-.26-.29,0-.23.13-.44.34-.54.06-.03.11-.06.17-.09.07-.05.17-.04.22.03.01.01.02.03.02.05.02.04.03.08.04.12,0,.04.01.08.01.12,0,.02,0,.05.03.05s.04-.02.04-.04c.02-.12,0-.23-.06-.34-.03-.06-.1-.1-.17-.1-.1,0-.21.03-.3.08-.16.08-.3.21-.38.37-.04.08-.07.16-.11.24-.02.04-.03.09-.02.14.03.13.08.24.16.35.08.12.22.19.36.19.1,0,.2.01.3.03.11.03.22.05.33.07.07.01.09.05.07.12-.04.14-.08.28-.12.43,0,.04-.04.07-.09.07-.01,0-.02,0-.03,0-.05-.02-.1-.04-.15-.06-.06-.03-.11-.06-.16-.09-.04-.03-.09-.06-.15-.08-.04-.01-.07,0-.11.05-.02.03-.02.07,0,.09.01.03.03.06.04.08,0,.03.02.06.03.08.02.04.02.05-.02.06-.04.01-.06.05-.05.08,0,.04,0,.08,0,.12,0,.08-.04.16-.1.21-.04.03-.05.08-.04.12,0,.05.01.09,0,.14,0,.04,0,.09,0,.13,0,.03,0,.07-.03.09-.04.04-.06.09-.06.15,0,.02,0,.05-.03.06-.03.02-.05.06-.03.1,0,0,0,0,0,0l.02.03s.01.04,0,.06c0,0,0,0,0,0-.02.02-.04.03-.06.05-.02.02-.03.06,0,.08.02.03.04.05.06.08.04.04.04.05,0,.09-.05.03-.09.08-.11.14-.02.1-.01.21.02.31.02.05.02.06-.03.09-.05.02-.07.07-.05.12,0,0,0,0,0,0,0,.03,0,.05,0,.08-.04.07-.02.16.05.21.04.04.04.05-.01.07-.05.01-.07.06-.06.11,0,0,0,0,0,0,.02.04.02.08,0,.12-.04.07-.06.14-.05.22,0,.06-.01.12-.02.18,0,.07-.02.13-.02.19,0,.02,0,.04,0,.05.02.02.02.05,0,.07-.02.04-.04.07-.07.1-.03.04-.04.09-.02.14.02.04.03.08.05.12,0,.03.02.05.03.07.02.04.03.05,0,.09-.05.04-.05.11-.01.15,0,0,0,0,0,0,.03.03.03.08,0,.12-.04.06-.05.12-.04.19.01.07.02.13.03.2,0,.01,0,.02.01.03.03.04.03.06,0,.09-.09.08-.09.09-.01.19.04.04.03.06-.02.09h-.02s-.05.07-.03.1c0,0,0,0,0,0,.02.04.03.08.03.12,0,.04,0,.07,0,.11,0,.01.01.02.02.04.01,0,.02-.02.03-.03,0,0,0-.02.01-.03s.02-.02.03-.02c.01,0,.02.01.03.02,0,0,0,.02.01.03-.01.05-.02.1-.04.15s-.04.08-.05.13c0,.03-.02.06-.05.07-.02.01-.03.03-.03.05,0,.02,0,.05.03.06.02.01.04.02.06.03.05.02.09.07.09.12,0,.04-.01.08-.04.12-.03.04-.04.09,0,.13.02.03.03.07.03.1,0,.12.01.23.02.35,0,.03.01.05.03.07.09.1.11.24.05.36-.03.07-.02.15.03.2.05.07.08.15.07.24,0,.1.03.21.11.27.02.02.05.04.08.06-.01,0-.02.02-.04.03-.02.01-.03.04-.01.06.03.06.02.14-.03.2-.01.01-.02.02-.03.04-.03.08-.03.16-.02.24.01.06.03.11.06.17.03.06.03.08-.03.12l-.02.02s-.05.07-.02.11c0,0,0,.01.01.01.01.01.03.03.04.04.03.03.03.07,0,.09-.01.02-.03.04-.04.05-.02.03-.03.07-.01.11.04.09.05.19.02.29,0,.03-.01.06,0,.08v.33s0,.08,0,.11c-.01.08,0,.16.06.22.01.01.02.03.03.05.01.03.01.06,0,.09-.02.03,0,.05.03.07.04.02.07.04.1.07.04.04.07.08.1.12.05.05.07.12.05.18-.01.05,0,.08.05.1s.09.05.14.07c.12.06.24.13.33.23.01,0,.02.02.04.02.07.02.13.06.17.12.03.05.06.09.09.14.02.04.06.07.1.07.04,0,.08.02.12.04.24.11.5.18.77.2.08,0,.17.03.24.07.02,0,.04.01.06.01.04,0,.08,0,.12-.01s.09-.01.13-.02c.02,0,.04,0,.05,0,.06.04.11.09.16.15.05.07.1.14.14.22.03.04.04.09.06.14.02.04.04.07.06.11.01.01.03.01.05,0,.01,0,.02-.03.03-.04s0-.02,0-.03c-.07-.25-.22-.48-.42-.64-.05-.03-.06-.09-.05-.15,0-.04.04-.06.07-.06h.05c.12-.01.23,0,.34.05.08.03.16.06.24.08.02,0,.03,0,.05-.01,0-.02.01-.03,0-.05-.01-.03-.03-.05-.05-.07-.12-.08-.25-.13-.39-.14-.11,0-.23,0-.34,0-.08,0-.16-.02-.21-.08-.17-.19-.35-.37-.52-.56-.03-.03-.05-.07-.07-.11-.01-.03-.02-.07-.03-.1-.04-.09-.05-.18-.04-.27.01-.05,0-.11-.02-.15-.05-.06-.05-.15,0-.21.03-.03.02-.08,0-.11-.05-.04-.07-.1-.05-.16,0-.01,0-.02,0-.04,0-.08.04-.15.1-.2.01-.01.02-.03.02-.05,0-.06,0-.07.06-.09.06-.02.11-.06.15-.11.04-.06.04-.1-.03-.13-.05-.02-.1-.03-.16-.04-.06,0-.13,0-.19,0-.02,0-.05-.02-.05-.04,0,0,0,0,0-.01,0-.02,0-.04,0-.06,0-.04,0-.09-.03-.12s-.04-.04-.01-.09c.02-.05.05-.1.06-.15.02-.05.02-.1.04-.15,0-.03,0-.06,0-.09-.01-.05-.02-.09-.03-.14,0-.04-.03-.07-.07-.07-.01,0-.02,0-.03,0l-.04.02s0-.02.01-.03c.06-.09.12-.17.18-.26.04-.04.05-.11,0-.15,0,0-.02-.01-.03-.02-.03-.02-.04-.04-.01-.07,0-.01,0-.03,0-.04,0-.01-.02-.02-.04-.02-.02,0-.03.01-.05.02-.02.02-.04.04-.06.06Z"/>
            <path class="cls-2" d="M8.08,11.74s.04-.04.07-.06c.01-.01.03-.02.05-.02.02,0,.03,0,.04.02,0,.01,0,.03,0,.04-.03.03-.01.05.01.07.05.03.07.1.04.15,0,0,0,.01-.02.02-.06.09-.12.18-.18.26,0,0-.01.02-.01.03l.04-.02s.08,0,.09.03c0,0,0,.02,0,.03,0,.05.02.09.03.14,0,.03,0,.06,0,.09-.01.05-.02.1-.04.15-.02.05-.04.1-.06.15-.02.04-.02.06.01.09s.04.08.03.12c0,.02,0,.04,0,.06,0,.02.01.05.04.05,0,0,0,0,.01,0,.06,0,.13,0,.19,0,.05,0,.11.02.16.04.07.03.08.07.03.13-.04.05-.09.09-.16.1-.06.02-.06.03-.06.09,0,.02,0,.03-.02.05-.06.05-.1.12-.1.2,0,.01,0,.02,0,.04-.02.06,0,.12.05.16.03.03.03.07,0,.11-.05.06-.05.15,0,.21.03.05.03.1.02.15-.01.09,0,.19.04.27,0,.03.02.07.03.1.02.04.04.08.07.11.17.19.35.37.52.56.05.06.13.09.21.08.11,0,.22-.01.34,0,.14.01.28.06.39.14.02.02.04.04.05.07,0,.02,0,.04,0,.05-.01.01-.03.01-.05.01-.08-.02-.16-.05-.24-.08-.11-.05-.22-.06-.34-.05h-.05s-.07.02-.07.06c-.02.05,0,.11.05.15.21.16.36.39.43.65,0,0,0,.02,0,.03s-.01.04-.03.04c-.02,0-.03,0-.05,0-.02-.03-.05-.07-.06-.1-.02-.05-.04-.09-.06-.14-.04-.08-.08-.15-.14-.22-.05-.05-.1-.1-.16-.15-.01,0-.03,0-.05,0-.04,0-.09.01-.13.02s-.08,0-.12.01c-.02,0-.04,0-.06-.01-.07-.04-.16-.07-.24-.07-.27-.02-.53-.08-.77-.2-.04-.02-.08-.03-.12-.04-.04,0-.08-.03-.1-.07-.03-.05-.05-.09-.09-.14-.04-.06-.1-.1-.18-.12-.01,0-.03-.01-.04-.02-.1-.09-.21-.17-.33-.23-.05-.02-.09-.05-.14-.07s-.06-.05-.05-.1c.02-.06,0-.13-.05-.18-.03-.04-.07-.08-.1-.12-.03-.03-.06-.05-.1-.07-.03-.02-.04-.04-.03-.07.01-.03.01-.06,0-.09,0-.02-.02-.03-.03-.05-.05-.06-.08-.14-.06-.22,0-.04,0-.08,0-.11v-.33s0-.06,0-.08c.03-.09.02-.2-.02-.29-.02-.04-.01-.08.01-.11.01-.02.03-.04.04-.05.02-.03.02-.07,0-.09-.01-.01-.03-.03-.04-.04-.03-.03-.03-.08,0-.11,0,0,0,0,.01-.01l.02-.02c.05-.04.05-.06.03-.12-.03-.05-.05-.11-.07-.17-.02-.08,0-.16.02-.24,0-.01.01-.03.03-.04.05-.06.05-.13.03-.2-.01-.02,0-.05.01-.06.01,0,.02-.02.04-.03-.03-.02-.05-.04-.08-.06-.08-.07-.12-.17-.11-.27,0-.09-.02-.17-.07-.24-.05-.05-.06-.13-.03-.2.06-.12.03-.26-.05-.36-.02-.02-.03-.04-.03-.07,0-.12-.02-.23-.02-.35,0-.04,0-.07-.03-.1-.03-.04-.03-.1,0-.13.03-.03.04-.07.04-.12,0-.06-.04-.1-.09-.12-.02-.01-.04-.02-.06-.03-.02,0-.04-.03-.03-.06,0-.02.02-.04.03-.05.03-.01.05-.04.05-.07,0-.04.03-.09.05-.13s.03-.1.04-.15c0-.01,0-.02,0-.04,0-.01-.01-.02-.03-.02,0,0-.02,0-.03.02s0,.02-.01.03c0,0-.02.02-.03.03,0-.01-.02-.02-.02-.04,0-.04,0-.07,0-.11,0-.04-.02-.08-.03-.12-.02-.03,0-.07.03-.09,0,0,0,0,0,0h.02c.05-.03.06-.05.02-.1-.07-.09-.07-.11.01-.19.04-.03.04-.05,0-.09,0,0-.01-.02-.01-.03-.01-.07-.02-.13-.03-.2-.01-.06,0-.13.04-.19.03-.03.03-.08,0-.12-.04-.04-.04-.11,0-.15,0,0,0,0,0,0,.03-.04.03-.04,0-.09-.01-.02-.02-.05-.03-.07-.02-.04-.03-.08-.05-.12-.02-.05-.01-.1.02-.14.02-.03.05-.07.07-.1.02-.02.02-.05,0-.07,0-.02,0-.03,0-.05,0-.07.02-.13.02-.19.01-.06.02-.12.02-.18,0-.08.01-.15.05-.22.02-.04.02-.08,0-.12-.02-.04,0-.1.04-.12,0,0,0,0,.01,0,.05-.03.05-.04.01-.07-.06-.05-.08-.13-.05-.21,0-.02,0-.05,0-.08-.02-.05,0-.1.05-.12,0,0,0,0,0,0,.04-.03.05-.04.03-.09-.04-.1-.05-.2-.02-.31.02-.06.06-.11.11-.14.05-.03.05-.04,0-.09-.02-.02-.04-.05-.06-.08-.02-.02-.02-.06,0-.08.02-.02.04-.04.06-.05.02-.01.03-.04.02-.06,0,0,0,0,0,0l-.02-.03s-.01-.08.02-.1c0,0,0,0,0,0,.02-.01.03-.04.03-.06,0-.06.02-.12.06-.15.03-.02.04-.05.03-.09,0-.04,0-.09,0-.13,0-.05,0-.09,0-.14-.02-.04,0-.09.04-.12.06-.05.1-.13.1-.21,0-.04,0-.08,0-.12,0-.04.02-.07.05-.08.04-.01.04-.02.02-.06-.01-.03-.03-.05-.03-.08-.01-.03-.02-.06-.04-.08-.02-.03-.02-.07,0-.09.03-.04.07-.06.11-.05.05.02.1.04.15.08.05.04.11.07.16.09.05.02.1.04.15.06.04.02.08,0,.11-.03,0,0,0-.02,0-.03.04-.14.08-.28.12-.43.02-.07,0-.11-.07-.12-.11-.02-.22-.04-.33-.07-.1-.02-.2-.03-.3-.03-.14,0-.28-.07-.36-.19-.08-.1-.13-.22-.16-.35-.01-.05,0-.09.02-.14.04-.08.07-.16.11-.24.09-.16.22-.29.38-.37.09-.05.19-.08.3-.08.07,0,.14.04.17.1.06.11.08.23.05.35,0,.02-.01.05-.04.04s-.03-.03-.03-.05c0-.04,0-.08-.01-.12-.01-.04-.03-.08-.04-.12-.03-.08-.12-.13-.2-.1-.02,0-.03.01-.05.02-.05.03-.11.07-.17.09-.21.1-.34.31-.34.54,0,.15.11.28.26.29.18.02.35.05.52.09.07.01.15.02.23.03.09,0,.18.04.25.11.06.06.11.06.16,0,.03-.03.06-.07.09-.1.02-.02.04-.03.06-.04.05-.03.1-.01.14.03.02.03.05.06.07.09.02-.01.03-.03.05-.04.04-.04.11-.04.14,0,0,0,.01.01.02.02.06.06.1.13.14.21.02.05.03.06.08.03s.12-.08.17-.12c.07-.06.16-.08.25-.07.07,0,.13.05.15.12.03.11.14.19.25.19.27.02.53.13.73.32.08.07.16.13.26.17.03.02.06.01.08-.02,0,0,.01-.02.01-.03.02-.12,0-.24-.06-.35-.03-.05-.08-.08-.14-.08-.03,0-.05,0-.08,0-.03,0-.05-.03-.05-.05,0-.03.02-.04.05-.04.05-.01.11-.02.16-.02.08,0,.16.06.19.14.05.1.08.21.1.33,0,.08,0,.16-.04.24-.02.05-.07.08-.12.08-.12.01-.25-.03-.34-.11-.08-.07-.16-.14-.24-.2-.1-.08-.21-.12-.33-.14-.04-.01-.08-.02-.12-.04-.03-.01-.06-.02-.09-.03-.04-.01-.08,0-.09.05,0,0,0,0,0,0,0,.03-.02.06-.03.09,0,.01-.02.02-.04.03-.01,0-.03-.02-.03-.04,0-.02,0-.05,0-.07,0-.04,0-.05-.05-.06-.05,0-.1.02-.13.05,0,0,0,.02,0,.03s.03.02.04.03c.02.02.02.05,0,.06-.01.02-.04.02-.06.01,0,0,0,0,0,0-.03-.02-.06-.03-.09-.05-.07-.03-.16-.01-.22.03-.03.02-.05.05-.05.08,0,.08-.01.17-.04.25-.02.08.02.16.09.2.03.02.07.03.09.04.05.03.06.06.03.11-.04.06-.09.12-.14.18-.01.02-.03.04-.04.06-.01.01,0,.03,0,.04,0,0,.01,0,.02,0,.03,0,.05,0,.08.01.08.01.11.06.08.14-.02.07-.05.13-.08.19-.04.04-.04.11,0,.15.02.05.02.11,0,.16-.08.22-.16.43-.24.65-.01.07-.05.13-.11.18-.06.04-.09.12-.07.19,0,.01,0,.03-.02.04-.06.05-.08.09-.04.17.04.06.03.15-.03.2-.04.05-.05.11-.03.17,0,.03,0,.06-.02.08-.03.05-.04.11-.04.17,0,.1,0,.2-.01.3,0,.05-.02.09-.04.13-.03.09-.05.19-.03.28,0,.04,0,.08,0,.13,0,.05-.02.1-.07.12h0c-.05.03-.06.05,0,.09.04.02.05.06.04.11,0,0,0,.02,0,.03,0,.09,0,.17-.02.26-.01.06-.03.11-.06.16-.02.02-.02.05,0,.08.02.05.02.1,0,.14-.03.11-.04.22-.02.34.01.05.03.1.06.14.04.06.04.15,0,.21-.05.07-.05.17,0,.24,0,.01.01.02.02.03.02.04,0,.08-.03.11-.01.01-.03.02-.05.03-.02.01-.03.04-.03.07,0,.03.02.05.05.06.01,0,.03,0,.04,0,.05.01.07.04.05.09-.02.04-.04.08-.06.12-.02.03-.02.08,0,.12.02.03.02.07,0,.1-.02.04-.03.07-.05.11,0,.02,0,.04,0,.05.07.1.08.23.02.35-.01.03-.03.06-.04.09-.01.02,0,.05.02.06,0,0,0,0,0,0h.01c.07.02.12.1.11.17,0,0,0,.01,0,.02-.01.04-.02.08-.04.12,0,.02-.01.05,0,.07Z"/>
          </g>
        </g>
      </g>
    </g>
    <rect class="cls-1" width="14.7" height="17.94"/>
  </g>
</svg>