<?xml version="1.0" encoding="UTF-8"?>
<svg id="Layer_2" data-name="Layer 2" xmlns="http://www.w3.org/2000/svg" viewBox="0 0 183.33 151.33">
  <defs>
    <style>
      .cls-1 {
        fill: none;
      }

      .cls-1, .cls-2, .cls-3 {
        stroke-width: 0px;
      }

      .cls-3 {
        fill: #fff;
      }
    </style>
  </defs>
  <g id="Layer_1-2" data-name="Layer 1">
    <g id="Layer_2-2" data-name="Layer 2">
      <g id="Layer_1-2" data-name="Layer 1-2">
        <path class="cls-3" d="M25,16.88l-.27.17c.22.42.37.86.47,1.32.11,1.29.11,2.6,0,3.89-.18,1.46-.75,2.88-.93,4.34-.2,1.7-1,3.28-2.25,4.44-.69.69-1.33,1.45-1.89,2.25-1.01,1.33-1.95,2.72-2.81,4.15-.79,1.34-1.44,2.76-1.93,4.24-.51,1.82-.91,3.67-1.21,5.54-.33,1.7-1.25,3.34-.79,5.14.35,1.36.8,2.7,1.35,4,.55,1.67,1.35,3.24,2.37,4.66,1.94,2.28,4.1,4.35,6.45,6.2,2.73,1.99,5.73,3.57,8.92,4.69,2.71,1,5.37,2.16,8.08,3.16,1.53.58,3.1,1.07,4.69,1.46,3,.71,6,1.31,8.94,2,1.63.35,3.25.73,4.88,1.08s3.06.61,3.93,2.08c.53.84.99,1.73,1.37,2.65.66,1.54,1.84,2.81,3.32,3.6.65.39.78,1,.19,1.52s-1.19,1-1.82,1.43c-1.82,1.27-3.71,2.46-5.49,3.8s-3.7,3-5.57,4.5c-1.52,1.2-3,2.41-4.64,3.49-1.41.8-2.64,1.88-3.63,3.17-.76,1.12-1.57,2.21-2.27,3.36-1.21,2-2,4-.92,6.3.16.32,0,.75.16,1.1.19.89.53,1.75,1,2.54.99,1.16,2.3,2,3.77,2.41,2.9.96,5.94,1.45,9,1.44,5.56,0,10.87,1,15.56,4.29.78.46,1.38,1.16,1.71,2,.49,1,.09,2.21-.89,2.73-1.74.73-3.49,1.43-5.23,2.16-.26.11-.73.37-.71.46.08.35.27.67.54.91.9.74,2.09,1.02,3.22.76,1.64-.26,3.14-1.08,4.24-2.33.33-.36.69-.7,1.07-1,1.15-.83,1.74-2.23,1.54-3.63-.17-.86-.48-1.68-.93-2.43-1.51-2.49-3.67-4.52-6.24-5.89-1.14-.75-2.46-1.17-3.82-1.22-2.12.1-4.24.24-6.36.35-.47.07-.96.04-1.42-.09-1.49-.59-3.08-.86-4.68-.78-3,0-4.87-1.51-6.3-4-1.76-3,0-6.58,2.22-7.94,1.36-.83,2.77-1.57,4.09-2.47,1.12-.75,2.17-1.6,3.12-2.56,1.8-1.87,3.45-3.89,5.92-5,.65-.29,1.28-.62,1.88-1,2.31-1.57,4.94-2.63,7.7-3.1,1.57-.33,3.04-1.01,4.3-2,.4-.32.88-.54,1.38-.65,2.56-.25,5.15-.07,7.65.53.85.08,1.72.08,2.57,0,.29-.05.6-.05.89,0,1.07.37,2.1.89,3.19,1.15,1.01.18,2.03.29,3.06.33,3.02.44,6.07.67,9.12.69,2.25-.03,4.51.08,6.75.3,3.15.23,6.3.52,9.44.79.34,0,.68.06,1,.17,2.74,1.15,5.16,2.61,5.83,5.87.31,1.54.53,3-.5,4.41-.2.32-.37.65-.52,1-.77,1.53-2.09,2.71-3.7,3.3-.91.41-1.75.97-2.47,1.66-.7.61-1.23,1.42-1.89,2.1s-1.64,1.49-1.56,2.66c.11,1.18.31,2.34.62,3.48.19.76.64,1.46.83,2.23.57,2.79,1.85,5.4,3.72,7.55.5.66.48,1.58-.05,2.22-.11.15-.23.28-.33.43-.7,1.1-1.76,1.92-3,2.31-2.13.62-4.31,1.07-6.48,1.58s-4.43,1-6.64,1.56c-.46.16-.9.38-1.31.64l.08.36c.63.1,1.26.26,1.9.3,2.7.16,5.4-.13,8-.87.69-.18,1.4-.32,2.11-.4,3.2-.43,6.22-1.73,8.74-3.74,1-.74,1.71-2.87,1.33-3.72-1.22-2.76-2.5-5.5-3.71-8.26-1.37-3.13-1.16-5.26,1.64-7.73,1.12-1,2.09-2.16,3.17-3.21.42-.39.88-.72,1.37-1,.61-.3,1.21-.65,1.77-1.04.7-.63,1.37-1.3,2-2,2.26-2.22,2.39-5.06,2-7.87-.26-1.88-1.49-3.48-2.67-5-1.46-1.89-3.59-2.79-5.61-3.82-2.34-1.19-5-1.26-7.5-1.68s-5.06-.44-7.6-.61c-1.3.04-2.6-.03-3.89-.2-3.43-.8-6.82-1.77-10.22-2.69-.41-.11-.8-.31-1.12-.59-.3-.25-.49-.61-.54-1,.03-.82.18-1.63.45-2.4.81-1.95,1.15-4.06,1-6.16-.02-.85.41-1.66,1.13-2.11.68-.53,1.42-1,2.2-1.38.72-.38,1.47-.7,2.25-.93,2-.55,3.95-1,5.91-1.54s4.21-1.26,6.32-1.88c.76-.13,1.5-.33,2.22-.59,1.52-.79,3.18-1.3,4.88-1.48,2.47-.35,4.81-1.34,6.79-2.87,1.36-1,2.69-2,4-3,.7-.56,1.29-1.25,2-1.84.53-.49,1.1-.95,1.69-1.36.53-.34,1.17-.5,1.71-.84,1.76-1.02,3.79-1.46,5.81-1.27,2.38.02,4.74.41,7,1.15,1.81.58,3.46,1.6,4.79,2.96.89.91,1.84,1.76,2.85,2.53.94.6,1.84,1.27,2.69,2,1.58,1.65,3,3.41,4.47,5.19.26.44.4.95.41,1.46.1.78,0,1.59.2,2.35,1,4.63,2.54,9.16,2.45,14,0,1.28.65,2.47,1.73,3.17.44.42,1.13.45,1.61.07,1.33-.94,2.15-2.43,2.23-4.06,0-2.3-.27-4.59-.48-6.89-.12-1.31-.37-2.62-.53-3.93-.3-2.39-.53-4.8-.87-7.19-.2-1.34-.73-2.61-1.52-3.7-.85-1.18-1.57-2.46-2.14-3.8-1.08-2.69-3.28-4.3-5.42-6-.15-.1-.32-.17-.5-.22-2.63-1-5.33-1.84-7.87-3-2.91-1.25-6.09-1.76-9.24-1.48-2.63.13-5.25.34-7.87.5-1.55.01-3.06.52-4.3,1.44-.68.64-1.46,1.17-2.31,1.56-1.44.47-2.76,1.25-3.88,2.27-2.15,1.93-4.8,3.2-7.64,3.67-1.29.23-2.5.78-3.52,1.59-1.83,1.37-3.97,2.28-6.23,2.66-2.32.33-4.54,1.17-6.49,2.46-.42.28-.9.47-1.4.54-1.82.32-3.65.69-5.49.85-.87.09-1.74-.11-2.48-.57-2.52-1.92-5.32-3.43-8.3-4.49-.83-.24-1.68-.44-2.53-.58-.18-2-.5-3.9-.51-5.85.02-4.8.56-9.59,1.6-14.28.58-2.8,1-5.64,1.5-8.45.82-4.22,3.46-7.85,7.22-9.93,3.3-2.02,6.85-3.59,10.56-4.68,2.53-.91,5.29-.91,7.82,0,1.19.51,2.41.92,3.67,1.22,3.03.6,5.88,1.87,8.35,3.72,1.45,1.1,3.23,1.69,5.05,1.69,2.12.07,4.25.08,6.37.16.5.02.99.12,1.46.3,1.86.71,3.7,1.46,5.55,2.17.41.12.83.19,1.25.2,2.67.19,5.34.38,8,.54.29,0,.82-.1.85-.23.07-.4.03-.82-.11-1.2-.07-.21-.36-.39-.59-.5-.78-.38-1.58-.73-2.38-1.08-1.54-.66-3-1.6-4.79-1.5-.34-.05-.67-.13-1-.24-1.72-.25-3.35-.93-5.16-.81-1.4.16-2.81.07-4.17-.28-2.57-.81-5-1.92-7.55-2.95-.46-.21-.88-.5-1.23-.86-1.29-1.11-2.85-1.88-4.52-2.22-.93-.21-1.82-.56-2.64-1.05-2.18-1.44-4.77-1.58-7.15-2.36-1.1-.19-2.21-.29-3.32-.3-2.39-.37-4.7.18-7,.58-.74.08-1.46.26-2.15.52-.81.43-1.59.92-2.32,1.47-1.28.86-2.6,1.67-3.8,2.62-2.29,1.81-4.52,3.69-6.76,5.57-.39.32-.73.7-1,1.13-1.5,2.59-3.16,5.11-3.73,8.13-.4,2.11-.73,4.24-1.21,6.33-.79,3.44-1.7,6.84-2.51,10.28-.42,1.4-.68,2.84-.79,4.29.05,2.68-.4,5.35-1.31,7.88-.2.7-.71,1.28-1.38,1.57-1.58.7-3.16,1.39-4.73,2.11-3,1.38-4.6,3.91-5.41,7-.5,1.92-.4,2-2.45,2-2.2-.06-4.4-.24-6.58-.54-3.13-.42-6.23-.99-9.3-1.72-4.11-1-8.17-2.28-12.22-3.56-2.33-.62-4.59-1.5-6.74-2.61-2.8-1.49-5.32-3.43-7.48-5.75-1.6-1.81-2.83-3.77-2.76-6.32,0-.56-.04-1.12-.13-1.68-.19-1.25-.45-2.51-.56-3.77-.11-.68-.02-1.37.25-2,1.28-2.22,2.6-4.43,4.09-6.52,1.28-1.78,2.85-3.35,4.18-5.1.6-.84,1.07-1.76,1.38-2.74.34-1.03.57-2.09.7-3.16.48-2.73.25-5.55-.69-8.16-.37-.66-.83-1.27-1.35-1.82Z"/>
        <path class="cls-2" d="M25,16.88c.49.55.92,1.16,1.26,1.81.95,2.61,1.21,5.42.74,8.16-.13,1.07-.36,2.13-.7,3.16-.31.98-.78,1.9-1.38,2.74-1.33,1.75-2.9,3.32-4.18,5.1-1.49,2.09-2.81,4.3-4.09,6.52-.27.63-.36,1.32-.25,2,.11,1.26.37,2.52.56,3.77.1.52.16,1.05.18,1.58-.07,2.55,1.16,4.51,2.76,6.32,2.16,2.32,4.68,4.26,7.48,5.75,2.15,1.11,4.41,1.99,6.74,2.61,4,1.28,8.11,2.52,12.22,3.56,3.07.73,6.17,1.3,9.3,1.72,2.18.3,4.38.48,6.58.54,2.05.07,2,0,2.45-2,.81-3.07,2.4-5.6,5.41-7,1.57-.72,3.15-1.41,4.73-2.11.65-.28,1.14-.83,1.35-1.5.91-2.53,1.36-5.2,1.31-7.88.11-1.45.37-2.89.79-4.29.81-3.44,1.72-6.84,2.51-10.28.48-2.09.81-4.22,1.21-6.33.57-3,2.23-5.54,3.73-8.13.27-.43.61-.81,1-1.13,2.24-1.88,4.47-3.76,6.76-5.57,1.2-1,2.52-1.76,3.8-2.62.73-.55,1.51-1.04,2.32-1.47.69-.26,1.41-.44,2.15-.52,2.32-.4,4.63-.95,7-.58,1.11.01,2.22.11,3.32.3,2.38.78,5,.92,7.15,2.36.82.49,1.71.84,2.64,1.05,1.67.34,3.23,1.11,4.52,2.22.35.36.77.65,1.23.86,2.5,1,5,2.14,7.55,2.95,1.36.35,2.77.44,4.17.28,1.81-.12,3.44.56,5.16.81.33.11.66.19,1,.24,1.79-.1,3.25.84,4.79,1.5.8.35,1.6.7,2.38,1.08.23.11.52.29.59.5.14.38.18.8.11,1.2,0,.13-.56.24-.85.23-2.68-.16-5.35-.35-8-.54-.42-.01-.84-.08-1.25-.2-1.85-.71-3.69-1.46-5.55-2.17-.47-.18-.96-.28-1.46-.3-2.12-.08-4.25-.09-6.37-.16-1.82,0-3.6-.59-5.05-1.69-2.47-1.85-5.32-3.12-8.35-3.72-1.26-.3-2.48-.71-3.67-1.22-2.53-.91-5.29-.91-7.82,0-3.7,1.08-7.24,2.64-10.53,4.64-3.76,2.08-6.4,5.71-7.22,9.93-.52,2.81-.92,5.65-1.5,8.45-1.04,4.69-1.58,9.48-1.6,14.28,0,1.95.33,3.9.51,5.85.85.14,1.7.34,2.53.58,2.98,1.06,5.78,2.57,8.3,4.49.74.46,1.61.66,2.48.57,1.84-.16,3.67-.53,5.49-.85.5-.07.98-.26,1.4-.54,1.95-1.29,4.17-2.13,6.49-2.46,2.26-.38,4.4-1.29,6.23-2.66,1.02-.81,2.23-1.36,3.52-1.59,2.84-.47,5.49-1.74,7.64-3.67,1.12-.99,2.44-1.74,3.87-2.19.85-.38,1.63-.89,2.31-1.52,1.24-.94,2.75-1.46,4.3-1.48,2.62-.16,5.24-.37,7.87-.5,3.16-.27,6.33.25,9.24,1.5,2.54,1.18,5.24,2,7.87,3,.18.05.35.12.5.22,2.14,1.7,4.34,3.31,5.42,6,.57,1.34,1.29,2.62,2.14,3.8.77,1.08,1.28,2.33,1.48,3.65.34,2.39.57,4.8.87,7.19.16,1.31.41,2.62.53,3.93.21,2.3.48,4.59.48,6.89-.08,1.63-.9,3.12-2.23,4.06-.48.38-1.17.35-1.61-.07-1.09-.69-1.75-1.88-1.76-3.17.09-4.84-1.4-9.37-2.45-14-.17-.76-.1-1.57-.2-2.35,0-.51-.15-1.02-.41-1.46-1.43-1.78-2.89-3.54-4.47-5.19-.85-.73-1.75-1.4-2.69-2-.98-.77-1.91-1.6-2.78-2.5-1.3-1.37-2.92-2.4-4.71-3-2.26-.74-4.62-1.13-7-1.15-2.02-.19-4.05.25-5.81,1.27-.54.34-1.18.5-1.71.84-.62.41-1.21.87-1.77,1.37-.68.59-1.27,1.28-2,1.84-1.3,1-2.63,2.07-4,3-1.96,1.52-4.28,2.51-6.73,2.88-1.71.18-3.36.69-4.88,1.48-.72.26-1.46.46-2.22.59-2.11.62-4.21,1.29-6.32,1.88s-4,1-5.91,1.54c-.78.23-1.53.55-2.25.93-.78.38-1.52.85-2.2,1.38-.74.46-1.17,1.28-1.14,2.15.15,2.1-.19,4.21-1,6.16-.27.77-.42,1.58-.45,2.4.05.39.24.75.54,1,.32.28.71.48,1.12.59,3.4.92,6.79,1.89,10.22,2.69,1.29.17,2.59.24,3.89.2,2.54.17,5.1.2,7.6.61s5.16.49,7.5,1.68c2,1,4.15,1.93,5.61,3.82,1.18,1.52,2.41,3.12,2.67,5,.38,2.81.25,5.65-2,7.87-.63.7-1.3,1.37-2,2-.58.36-1.18.68-1.8.95-.49.28-.95.61-1.37,1-1.08,1.05-2.05,2.22-3.17,3.21-2.8,2.47-3,4.6-1.64,7.73,1.21,2.76,2.49,5.5,3.71,8.26.38.85-.37,3-1.33,3.72-2.52,2.01-5.54,3.31-8.74,3.74-.71.08-1.42.22-2.11.4-2.6.74-5.3,1.03-8,.87-.64,0-1.27-.2-1.9-.3l-.08-.36c.41-.26.85-.48,1.31-.64,2.21-.55,4.43-1,6.64-1.56s4.35-1,6.48-1.58c1.24-.39,2.3-1.21,3-2.31.1-.15.22-.28.33-.43.53-.64.55-1.56.05-2.22-1.87-2.15-3.15-4.76-3.72-7.55-.19-.77-.64-1.47-.83-2.23-.31-1.14-.51-2.3-.62-3.48-.08-1.17.81-1.9,1.56-2.66s1.19-1.49,1.89-2.1c.72-.69,1.56-1.25,2.47-1.66,1.61-.59,2.93-1.77,3.7-3.3.15-.35.32-.68.52-1,1-1.38.81-2.87.5-4.41-.67-3.26-3.09-4.72-5.83-5.87-.32-.11-.66-.16-1-.17-3.14-.27-6.29-.56-9.44-.79-2.24-.22-4.5-.33-6.75-.3-3.05-.02-6.1-.25-9.12-.69-1.03-.04-2.05-.15-3.06-.33-1.09-.26-2.12-.78-3.19-1.15-.29-.05-.6-.05-.89,0-.85.08-1.72.08-2.57,0-2.5-.6-5.09-.78-7.65-.53-.52.13-1,.37-1.4.72-1.26.99-2.73,1.67-4.3,2-2.76.47-5.39,1.53-7.7,3.1-.61.42-1.26.8-1.93,1.12-2.47,1.08-4.12,3.1-5.92,5-.96.95-2.02,1.79-3.15,2.53-1.32.9-2.73,1.64-4.09,2.47-2.2,1.36-4,4.91-2.22,7.94,1.43,2.46,3.33,4,6.3,4,1.6-.08,3.19.19,4.68.78.46.13.95.16,1.42.09,2.12-.11,4.24-.25,6.36-.35,1.36.05,2.68.47,3.82,1.22,2.57,1.37,4.73,3.4,6.24,5.89.45.75.76,1.57.93,2.43.2,1.4-.39,2.8-1.54,3.63-.38.3-.74.64-1.07,1-1.1,1.25-2.6,2.07-4.24,2.33-1.13.26-2.32-.02-3.22-.76-.27-.24-.46-.56-.54-.91,0-.09.45-.35.71-.46,1.74-.73,3.49-1.43,5.23-2.16.98-.52,1.38-1.73.89-2.73-.33-.84-.93-1.54-1.71-2-4.69-3.25-10-4.3-15.56-4.29-3.06.01-6.1-.48-9-1.44-1.47-.41-2.78-1.25-3.77-2.41-.47-.79-.81-1.65-1-2.54-.11-.35,0-.78-.16-1.1-1.12-2.32-.29-4.35.92-6.3.7-1.15,1.51-2.24,2.27-3.36.99-1.29,2.22-2.37,3.63-3.17,1.6-1.08,3.12-2.29,4.64-3.49,1.87-1.48,3.67-3.06,5.57-4.5s3.67-2.53,5.49-3.8c.63-.44,1.23-.93,1.82-1.43s.46-1.13-.19-1.52c-1.48-.79-2.66-2.06-3.32-3.6-.35-.95-.78-1.86-1.29-2.74-.87-1.48-2.41-1.8-3.93-2.12s-3.25-.73-4.88-1.08c-3-.65-6-1.25-8.94-2-1.59-.39-3.16-.88-4.69-1.46-2.71-1-5.37-2.13-8.08-3.16-3.18-1.11-6.19-2.67-8.92-4.65-2.35-1.82-4.51-3.87-6.45-6.11-1.02-1.42-1.82-2.99-2.37-4.66-.55-1.3-1-2.64-1.35-4-.46-1.8.46-3.44.79-5.14.33-1.88.76-3.75,1.3-5.58.49-1.48,1.14-2.9,1.93-4.24.86-1.43,1.8-2.82,2.81-4.15.56-.8,1.2-1.56,1.89-2.25,1.25-1.16,2.05-2.74,2.25-4.44.18-1.46.75-2.88.93-4.34.11-1.29.11-2.6,0-3.89-.1-.46-.25-.9-.47-1.32l.18-.22Z"/>
      </g>
    </g>
    <rect class="cls-1" width="183.33" height="151.33"/>
  </g>
</svg>