<svg xmlns="http://www.w3.org/2000/svg" viewBox="0 0 148.23 76.59"><defs><style>.cls-1{fill:none;}</style></defs><g id="Layer_2" data-name="Layer 2"><g id="Layer_1-2" data-name="Layer 1"><path d="M66.49,50.64l-.31,0c-1.17.13-2.32.3-3.49.42s-2.14.22-3.21.34l-3.2.38-1.65.2-.83.1a2.86,2.86,0,0,1-.85.1c1.4.75,2.54,1.34,3.64,2a4.23,4.23,0,0,1,1.84,4.3c-.81,3.57-3,5.63-6.64,5.54A3.65,3.65,0,0,1,48.84,62a39,39,0,0,1-2.15-7.52c-.25-1.25-.61-1.74-1.86-1.64-3.57.27-7.14.58-10.71.71-2.9.1-5.83.1-8.73-.09-4.49-.29-9-.55-13.32-2.08a22,22,0,0,1-7.74-5.16C2.46,44.48.72,42.62.06,40.07A6.46,6.46,0,0,1,.22,38c.59.09,1.19.16,1.78.27.31.05.74.34.89.23,1.36-1,2.06.12,3,.79,1.11.82,2.32,1.5,3.49,2.25L9.68,41c-.38-.32-.74-.68-1.15-1-1.91-1.3-3.87-2.53-5.72-3.9a2.27,2.27,0,0,1-.74-1.65,4.91,4.91,0,0,1,2.57-4.2,79.34,79.34,0,0,1,9.13-4.89c9.48-4,19.47-4.4,29.55-3.51,5.59.5,11.15,1.31,16.71,2.05,2,.27,3.72,0,5-1.69a2.42,2.42,0,0,1,.62-.53,17.15,17.15,0,0,0,5.64-5.44c.66-.92,1.3-1,2.13-.12,2.23,2.32,4.49,4.62,6.79,6.87A9.35,9.35,0,0,0,82,24.13c2.19,1.26,2.19,1.26.75,3.26a4.58,4.58,0,0,0,.89.32c6.05.82,12.11,1.66,18.17,2.4a3.24,3.24,0,0,0,1.9-.74c1.43-1,2.85-2,4.69-1.71a16.37,16.37,0,0,1,2.26.6l0,.68L105.8,30.3l0,.47c.73.14,1.45.33,2.18.41,2.25.25,4.49.48,6.74.69,5.34.49,10.3-.86,15.38-2.43,4-1.22,6.81-4.37,10.8-5.32.42-.1.82-.33,1.25-.4,1.56-.22,3.21-.76,4.37.9.9,1.29.65,3.67-.47,5.3-2.41,3.5-5.29,6.43-9.79,7.83,3.93,1.12,6.64,3.5,9.12,6.17A20.42,20.42,0,0,1,147.6,47c.77,1.23,1,2.74-.12,3.67A4.59,4.59,0,0,1,144,51.88a48.56,48.56,0,0,1-9.08-3.38,32.31,32.31,0,0,0-6.88-2.17c-2.44-.62-4.86-1.38-7.33-1.84a18.69,18.69,0,0,0-5.12-.19c-4.42.45-8.82,1.08-13.23,1.65a12.47,12.47,0,0,0-1.52.42c.33.44.54.75.79,1,.63.7.53,1.16-.27,1.72a79.39,79.39,0,0,0-6.47,4.73c-1.92,1.61-3.54,3.55-5.39,5.24a25.68,25.68,0,0,1-4.22,3.21,2.55,2.55,0,0,1-2.21-.49c-2.33-1.92-4.45-4.11-6.83-6a72.15,72.15,0,0,0-7-4.67,5.9,5.9,0,0,0-1.33-.6A3.27,3.27,0,0,0,66.49,50.64Z"/><rect class="cls-1" width="148.23" height="76.59"/></g></g></svg>