<svg xmlns="http://www.w3.org/2000/svg" viewBox="0 0 36.92 23.46"><defs><style>.cls-1{fill:none;}</style></defs><g id="Layer_2" data-name="Layer 2"><g id="Layer_1-2" data-name="Layer 1"><rect class="cls-1" width="36.92" height="23.46"/><path d="M18.12,15.28l.07,0,.16.11a1.19,1.19,0,0,1,.33.44s0,0,0,0L19,16l.24.14a1.45,1.45,0,0,1,.21.22,1.31,1.31,0,0,1,.26.44,1.77,1.77,0,0,1,.12.64.67.67,0,0,1,0,.2,1.21,1.21,0,0,1,0,.19c0,.08,0,.15,0,.22s0,.09-.05.13a1.93,1.93,0,0,1-.13.21,1.43,1.43,0,0,1-.15.18,1,1,0,0,1-.43.24.1.1,0,0,0-.06.1,1.48,1.48,0,0,1,0,.19.68.68,0,0,1-.1.27l-.17.22a1.17,1.17,0,0,1-.35.28c-.15.09-.31.15-.46.23l-.07,0-.3.09-.36.05h-.23a1.42,1.42,0,0,1-.41-.08,1.55,1.55,0,0,1-.35-.21.54.54,0,0,1-.15-.15c-.05-.06-.05-.07-.11,0a.3.3,0,0,1-.24.1h-.14a.05.05,0,0,0-.07,0,.24.24,0,0,1-.09.18.61.61,0,0,1-.16.12.9.9,0,0,1-.39.07h-.11l-.23-.07a.62.62,0,0,1-.26-.22s0,0-.08,0a.71.71,0,0,1-.14.1.87.87,0,0,1-.53,0l-.08,0a.36.36,0,0,1-.17-.11,2.26,2.26,0,0,1-.13-.2.87.87,0,0,1,0-.22,1,1,0,0,1,0-.17s0,0,0,0h0l-.05,0a1,1,0,0,1-.49.14h-.24a.73.73,0,0,1-.38-.14A.59.59,0,0,1,11.5,19V18.8c0-.09,0-.09-.09-.09a2.69,2.69,0,0,1-.49,0,1.91,1.91,0,0,1-.41-.11.81.81,0,0,1-.31-.21A.69.69,0,0,1,10,17.9a1.56,1.56,0,0,1,0-.48.83.83,0,0,1,.16-.36.74.74,0,0,1,.35-.28s0,0,0-.06a1.36,1.36,0,0,0,0-.17s0-.06,0-.08a1.23,1.23,0,0,1,.16-.35,1.16,1.16,0,0,1,.2-.24,1.77,1.77,0,0,1,.17-.12c.11-.06.23-.1.34-.15l.21,0,.26,0h.3a.08.08,0,0,0,.07,0c.09-.08.17-.17.26-.24a1.62,1.62,0,0,1,.42-.2,2.29,2.29,0,0,1,.58-.11L14,15a1.65,1.65,0,0,1,.53.13.08.08,0,0,0,.08,0,.79.79,0,0,1,.31-.17l.23-.08.23,0a1.67,1.67,0,0,1,.5,0l.14,0,.2,0,.18.08.28.18c.05,0,.1.08.17,0a1,1,0,0,1,.38-.06,2.17,2.17,0,0,1,.36,0l.24,0,.22.05Z"/><path d="M5.12,10.22a1.11,1.11,0,0,1-.44-.12,3.07,3.07,0,0,1-1.17-.87,1.37,1.37,0,0,1-.08-1.12A8.44,8.44,0,0,1,4,6.86a1.35,1.35,0,0,1,.86-.7,2.8,2.8,0,0,1,1,0c.31,0,.48-.27.77-.41a1.73,1.73,0,0,1,1.68.08A.69.69,0,0,0,8.63,6c.14,0,.26-.08.4-.12a.58.58,0,0,1,.73.51,1.44,1.44,0,0,1,1.08.06.56.56,0,0,1,.23.33,1.32,1.32,0,0,1,.06.39.81.81,0,0,1-.06.31.66.66,0,0,1-.23.29.05.05,0,0,0,0,0,.75.75,0,0,0,0,.15V8a1.63,1.63,0,0,1-.07.3.59.59,0,0,1-.12.22.69.69,0,0,1-.11.13,2.58,2.58,0,0,1-.54.29c-.25.13-.45.33-.69.47a4.86,4.86,0,0,1-1.68.65,8.94,8.94,0,0,1-1.36.13A7,7,0,0,1,5.12,10.22Z"/><path d="M26,12.65a3,3,0,0,1-.53-.41,2.54,2.54,0,0,1-1-1.74v-.2a1.36,1.36,0,0,1,0-.2,1.55,1.55,0,0,1,0-.21.5.5,0,0,1,0-.13,1.55,1.55,0,0,1,.12-.22,1.09,1.09,0,0,1,.13-.17.82.82,0,0,1,.37-.24s.05-.05.05-.1,0-.12,0-.19a.79.79,0,0,1,.1-.27,1.64,1.64,0,0,1,.14-.22,1.13,1.13,0,0,1,.3-.28,3.3,3.3,0,0,1,.41-.23l.05,0,.27-.09.31,0h.2a1.05,1.05,0,0,1,.35.08,1.36,1.36,0,0,1,.32.21l.12.15c0,.06.05.06.1,0A.22.22,0,0,1,28.2,8h.12s.05,0,.06,0a.23.23,0,0,1,.08-.18.39.39,0,0,1,.14-.12.67.67,0,0,1,.34-.07H29l.2.07a.43.43,0,0,1,.22.22s0,0,.08,0a.4.4,0,0,1,.12-.1.66.66,0,0,1,.46,0l.07,0a.28.28,0,0,1,.14.12,2,2,0,0,1,.12.19.86.86,0,0,1,0,.23.92.92,0,0,1,0,.16.11.11,0,0,1,0,.05l0,0,0,0a.78.78,0,0,1,1,.05.84.84,0,0,1,.2.69,1.61,1.61,0,0,1,.89.16,1,1,0,0,1,.24,1.41,6.61,6.61,0,0,0-.37.55c-.09.17-.13.38-.24.55-.25.41-.73.43-1.12.55s-.76.54-1.28.55a2.62,2.62,0,0,1-.28,0,1.27,1.27,0,0,1-.46-.13.06.06,0,0,0-.07,0,1,1,0,0,1-.27.17l-.2.08-.2,0a1,1,0,0,1-.43,0l-.12,0-.18-.05a1.29,1.29,0,0,1-.16-.09l-.24-.17s-.09-.08-.15-.05A1.19,1.19,0,0,1,26,12.65Z"/></g></g></svg>