<?xml version="1.0" encoding="UTF-8"?>
<svg id="Layer_2" data-name="Layer 2" xmlns="http://www.w3.org/2000/svg" viewBox="0 0 19.55 16.33">
  <defs>
    <style>
      .cls-1 {
        fill: none;
      }

      .cls-1, .cls-2 {
        stroke-width: 0px;
      }
    </style>
  </defs>
  <g id="Layer_2-2" data-name="Layer 2">
    <g id="AnnotationBbox_11" data-name="AnnotationBbox 11">
      <g id="Nod">
        <g id="Layer_2-3" data-name="Layer 2">
          <g id="Layer_1-2" data-name="Layer 1-2">
            <path class="cls-1" d="M3.57,10.24s-.03.02-.05.03c-.06.04-.13.08-.19.13-.07.05-.12.13-.14.22-.02.12-.05.24-.07.36-.04.14.02.28.13.36.11.07.23.13.35.2.11.05.19.14.22.26.01.05.03.09.06.13.06.08.13.16.2.23.15.13.3.27.46.4.06.05.12.1.18.13.17.14.39.21.61.22.05,0,.1,0,.15.01.12.03.24.06.36.08.08.02.15.07.18.15.06.14.21.2.35.15,0,0,0,0,0,0,.06-.03.13-.02.19.01.11.06.22.09.34.1.18,0,.36.02.55.01.16,0,.31-.05.42-.16.03-.03.08-.04.12-.03.06.02.12.05.17.08.19.12.42.19.65.18.22,0,.45.02.67.03l.95.03c.06,0,.12-.01.17-.05.11-.1.27-.11.39-.03.11.05.24.07.35.03.2-.06.4-.1.61-.12.06,0,.12,0,.17.03.07.06.17.05.24-.01.04-.03.07-.07.11-.1.03-.04.08-.07.13-.07.12-.01.24-.03.36-.06.11-.02.21-.03.32-.06.16-.04.32-.11.45-.22.12-.09.24-.17.36-.25.05-.04.08-.03.13.01.06.06.15.08.23.04.02,0,.04-.02.06-.03.12-.09.25-.18.37-.28.08-.06.11-.16.1-.25-.02-.1.04-.2.14-.22,0,0,.02,0,.03,0,.12-.02.22-.09.28-.19.09-.13.19-.25.3-.36.15-.15.26-.33.3-.54.02-.09.08-.17.16-.21.1-.05.16-.14.18-.24,0-.04,0-.08.02-.11.04-.13.07-.28.12-.42.05-.12.05-.25,0-.37-.03-.07,0-.11.07-.12.05,0,.1,0,.13-.02.07,0,.14-.05.16-.12.03-.11.08-.2.15-.29.08-.09.08-.23-.01-.31,0,0,0,0,0,0-.05-.04-.08-.1-.08-.16,0-.09-.01-.18-.01-.27,0-.17-.11-.31-.28-.33-.03,0-.06-.01-.08-.02-.06,0-.11-.06-.1-.13,0,0,0,0,0,0,0-.09-.02-.17-.08-.23-.03-.03-.06-.06-.09-.1s-.03-.06,0-.09c.07-.05.09-.16.04-.23,0,0,0,0,0,0-.11-.18-.21-.37-.3-.56-.04-.1-.14-.18-.25-.19-.03,0-.06,0-.09-.01-.07-.01-.12-.07-.11-.13v-.08c0-.06-.03-.12-.07-.16-.26-.19-.49-.4-.7-.64-.07-.08-.17-.14-.27-.16l-.39-.1s-.03,0-.04,0c-.07,0-.13.02-.2.03-.09.02-.18-.02-.21-.11-.01-.02-.02-.05-.03-.08-.04-.14-.13-.26-.24-.35-.09-.08-.2-.13-.32-.13-.07,0-.13-.04-.16-.1-.04-.09-.09-.17-.15-.25-.08-.15-.25-.23-.42-.21-.08,0-.1-.01-.15-.09-.03-.05-.06-.09-.1-.13-.15-.13-.32-.22-.52-.27-.12-.04-.24-.04-.36,0-.02,0-.05,0-.07,0-.07,0-.1-.06-.13-.11-.06-.13-.19-.21-.33-.23-.2-.02-.4-.03-.61-.05-.14-.01-.28.02-.4.1-.07.05-.18.04-.23-.03-.03-.03-.07-.07-.1-.1-.11-.11-.26-.16-.42-.15-.08,0-.17.03-.25.03-.12,0-.23.05-.31.13-.12.11-.24.22-.37.32-.08.06-.19.06-.27,0-.03-.02-.06-.04-.09-.05-.07-.04-.15-.02-.19.04-.04.04-.08.09-.11.13-.08.13-.19.24-.32.32-.09.05-.15.14-.16.24,0,.08,0,.15-.01.23,0,.11-.06.2-.16.24-.13.05-.23.17-.27.31-.03.13-.04.27-.02.4.01.13.11.23.24.24h.06c-.16.08-.23.24-.37.33-.02-.07-.06-.13-.13-.16-.03-.02-.06-.05-.09-.08-.08-.12-.22-.17-.35-.14-.16.03-.32.07-.47.1-.23.03-.44.17-.56.37-.01.01-.03.02-.05.02-.1-.02-.2.01-.27.09-.06.06-.12.11-.19.17-.09.07-.13.18-.1.29.02.08.02.17.01.26,0,.04,0,.08,0,.12,0,.07-.04.14-.11.16-.23.1-.43.24-.6.42-.15.15-.15.39,0,.55.05.05.11.1.17.13.07.05.08.09.04.17-.08.14-.12.3-.1.46,0,.03,0,.07-.02.1-.03.07-.06.13-.09.21-.06.14-.04.3.06.42.03.03.06.06.08.09.03.02.04.07.01.1,0,0-.01.01-.02.02-.05.05-.09.11-.1.18-.02.07-.03.13-.05.21-.02.08,0,.16.05.22.04.04.08.07.12.11Z"/>
            <path class="cls-2" d="M3.57,10.24s-.08-.07-.12-.11c-.06-.06-.08-.14-.06-.22.02-.07.03-.13.05-.21.02-.07.06-.13.11-.18.03-.02.05-.06.03-.1,0,0-.01-.02-.02-.02-.03-.03-.06-.06-.08-.09-.1-.12-.12-.28-.06-.42.02-.07.06-.13.09-.21.01-.03.02-.06.02-.1-.02-.16.02-.32.1-.46.04-.07.03-.12-.04-.17-.06-.04-.12-.08-.17-.13-.15-.15-.15-.39,0-.55.17-.18.38-.32.6-.42.07-.02.11-.09.11-.16,0-.04,0-.08,0-.12.01-.09,0-.17-.01-.26-.02-.11.02-.21.1-.28.06-.05.13-.11.19-.17.07-.08.17-.11.27-.09.02,0,.04,0,.05-.02.12-.2.32-.34.56-.37.16-.03.31-.07.47-.1.13-.03.27.02.35.14.02.03.05.06.09.08.06.04.11.09.13.16.13-.09.2-.25.37-.32h-.06c-.13-.03-.23-.13-.24-.26-.02-.13-.01-.27.02-.4.03-.14.13-.26.26-.31.1-.04.16-.14.16-.24,0-.08,0-.15.01-.23.01-.1.07-.19.16-.24.13-.08.24-.19.32-.32.03-.05.07-.09.11-.13.05-.06.13-.07.19-.04.03.01.06.03.09.05.08.06.19.06.27,0,.13-.1.25-.21.37-.32.08-.09.19-.13.31-.13.08,0,.17-.02.25-.03.15-.02.3.03.41.14.04.03.07.07.1.1.06.07.16.09.23.03.12-.08.26-.11.4-.1.2.01.4.03.61.05.14.01.27.1.33.23.03.06.06.11.13.11.02,0,.05,0,.07,0,.12-.04.24-.04.36,0,.19.04.37.14.52.27.04.04.07.09.1.13.04.07.06.09.15.09.17-.02.33.06.42.21.05.08.1.17.15.25.03.06.09.1.16.1.12,0,.23.06.32.13.12.09.2.21.24.35,0,.03.02.05.03.08.03.09.12.13.21.11.07-.01.13-.02.2-.03.01,0,.03,0,.04,0l.39.1c.1.02.2.08.27.16.21.24.44.45.7.64.05.04.08.1.07.16v.08c0,.07.05.12.11.13.03,0,.06,0,.09.01.11.01.21.09.25.19.09.2.19.39.3.57.06.07.05.17-.02.23,0,0,0,0,0,0-.03.03-.03.05,0,.09s.06.07.09.1c.06.06.09.15.08.23-.01.06.03.12.09.13,0,0,0,0,0,0,.03,0,.06.01.08.02.16.02.28.16.28.33,0,.09,0,.18.01.27,0,.06.04.12.08.16.09.08.1.22.03.31,0,0,0,0,0,0-.07.09-.12.18-.15.29-.02.07-.09.12-.16.12-.05,0-.09,0-.13.02-.08.01-.1.05-.07.12.05.12.05.25,0,.37-.04.13-.08.28-.12.42,0,.04-.01.08-.02.11-.02.11-.09.2-.18.25-.09.04-.15.12-.16.21-.04.21-.15.39-.3.54-.11.11-.21.23-.3.36-.06.1-.16.17-.28.19-.1,0-.18.09-.17.19,0,0,0,.02,0,.03.01.1-.03.19-.1.25-.12.1-.24.19-.37.28-.02.01-.04.03-.06.03-.08.04-.18.02-.23-.04-.05-.05-.07-.05-.13-.01-.12.08-.24.17-.36.25-.13.11-.29.18-.45.22-.11.02-.22.03-.32.06-.12.03-.24.05-.36.06-.05,0-.1.03-.13.07-.04.03-.07.07-.11.1-.06.06-.17.07-.24.01-.05-.03-.11-.04-.17-.03-.21.02-.41.06-.61.12-.12.03-.24.02-.35-.03-.12-.08-.28-.07-.39.03-.05.04-.11.06-.17.05l-.95-.03c-.22,0-.45-.03-.67-.03-.23,0-.45-.06-.64-.18-.05-.03-.11-.06-.17-.08-.04-.02-.09,0-.12.03-.11.11-.27.17-.42.16-.18,0-.36,0-.55-.01-.12,0-.24-.04-.34-.1-.06-.03-.13-.04-.19-.01-.14.06-.29,0-.35-.14,0,0,0,0,0,0-.03-.08-.1-.14-.18-.15-.12-.03-.24-.06-.36-.08-.05,0-.1-.01-.15-.01-.22,0-.44-.09-.62-.23-.06-.04-.12-.09-.18-.13-.15-.13-.31-.26-.46-.4-.07-.07-.14-.15-.2-.24-.03-.04-.05-.09-.06-.13-.03-.11-.11-.21-.22-.26-.12-.06-.24-.13-.35-.2-.12-.08-.17-.22-.13-.36.03-.12.05-.24.07-.36.02-.09.07-.17.14-.22.06-.05.13-.09.19-.13.01,0,.03-.01.05-.03Z"/>
          </g>
        </g>
      </g>
    </g>
    <rect class="cls-1" width="19.55" height="16.33"/>
  </g>
</svg>