<svg xmlns="http://www.w3.org/2000/svg" viewBox="0 0 298.09 318.14"><defs><style>.cls-1{fill:none;}</style></defs><g id="Layer_2" data-name="Layer 2"><g id="Layer_1-2" data-name="Layer 1"><path d="M150.88,33.16c.56,3.3.39,6.64.54,10,.35,7.79.45,15.58.7,23.37q.36,11.12.85,22.22A59.14,59.14,0,0,1,154,80c.21,6.12-.19,12.25.34,18.37,1.38-6.14,1.41-12.44,2.59-18.58a11.52,11.52,0,0,1,.2,4c-.21,4.84-.47,9.68-.69,14.52,0,.51-.13,1.23.53,1.3s.7-.7.78-1.16c.74-4,1.43-8,2.14-12.06.31-1.73.61-3.47,1-5.19a2.11,2.11,0,0,1,.7-1.52,22.72,22.72,0,0,1-.45,4.65c-.59,4.85-1.24,9.7-1.84,14.55-.05.43-.3,1.13.28,1.25s.64-.6.76-1c1.42-5.13,2.37-10.37,3.6-15.55a4.66,4.66,0,0,1,.61-1.58c-.47,6.18-1.72,12.25-2.63,18.37l.39.08L167,79.77l.48.1-3.18,19.49c1.38-2.29,1.92-4.9,3.27-7.4a3.28,3.28,0,0,1-.15,2.34c-.45,2-1,4.06-1.47,6.1-.12.53-.42,1.24.32,1.49s.94-.5,1.18-1c1.7-3.35,3.07-6.85,4.54-10.31Q178.53,75,185.11,59.47A2.08,2.08,0,0,1,186.27,58c-3.84,12.62-7.59,25-11.35,37.33l.19.09,1.26-2.59a1.33,1.33,0,0,1,0,1.46c-.78,2.59-1.51,5.2-2.37,7.77a2.05,2.05,0,0,0,.84,2.56c.68.54,1,.5,1.41-.23.86-1.53,1.77-3,2.67-4.55.26-.43.56-.82.84-1.24l.36.19-2.62,6.94c3.64-5.64,6.69-11.59,10.24-17.24l.39.2-7.71,15.83.16.1q4.38-7.14,8.74-14.29l.45.24-8.31,16c3.34-4.07,6-8.58,9.51-12.54-2.56,5-5.71,9.65-8,14.81l12.22-17.32.48.32c-3.66,5.9-7.31,11.81-11.09,17.91,1.14.06,1.5-.66,1.92-1.2,2.7-3.51,4.92-7.34,7.39-11a12.47,12.47,0,0,1,1.8-2.2,47.32,47.32,0,0,1-3,6.12c11.84-13.2,23.6-26.47,35.8-39.82a2.57,2.57,0,0,1-.76,1.65q-8,10.8-15.94,21.57-9.56,13-19.08,26a7.57,7.57,0,0,0-1.61,2.82c-.07.36-.17.84.19,1.06s.67-.22.91-.47c2.94-3.06,5.5-6.43,8.27-9.63a30.61,30.61,0,0,1,2.83-3c-2.92,5-6.61,9.37-9.72,14.23,4.25-3.83,8.25-7.9,12.72-11.47-3,4-6.54,7.43-9.74,11.21,4.67-3.67,9-7.77,13.85-11.2-3.16,3.67-6.81,6.82-10.09,10.39l12.81-10.47c0,.88-.53,1.23-1,1.65l-14.35,13.06a7.11,7.11,0,0,0-.92.9c-.32.4-1.16.76-.65,1.33s1-.19,1.4-.52c3.82-3.13,7.62-6.29,11.44-9.44a6.46,6.46,0,0,1,1.75-1.12c-2.56,3.23-5.72,5.84-8.51,8.84l9.35-7.64.27.31c-3.83,4.12-8.13,7.77-12,11.9,3-1.08,5.41-3.13,8.52-4.25-.19.78-.74,1-1.17,1.33-1.45,1.07-2.94,2.09-4.41,3.15a14.61,14.61,0,0,0-1.44,1.16,1.65,1.65,0,0,0-.29,2c.4.71,1,0,1.42-.26,2.55-1.27,5.08-2.6,7.62-3.91a4,4,0,0,1,1.67-.59c-.12.62-.61.77-1,1l-8,5.17c-.58.36-1.29.69-.79,1.52s1,.14,1.48-.07q18.94-8.46,37.88-17a28.42,28.42,0,0,1,6-2.26c-14.06,8.32-28.37,16.2-42.38,24.6l.29.54,12.92-6,.19.36c-3.37,2.4-7.2,4-10.61,6.46l15.83-5,.18.48c-3.81,1.85-7.91,3-11.78,4.72,4.51-.81,8.93-2.06,13.73-2.81a2,2,0,0,1-1.45.87c-5.08,1.43-10.16,2.84-15.22,4.32-.75.21-2.17.22-1.93,1.21s1.48.2,2.19.08c4.92-.82,9.82-1.75,14.73-2.63a1.43,1.43,0,0,1,1.47.32l-18.25,4.56.07.4c7-.73,13.94-2.16,21-3a4.49,4.49,0,0,1-2.42.92c-5.33,1.18-10.68,2.31-16,3.49-.65.14-1.46.08-1.95,1.16l18.17-2.26.08.47L208,147.58l.08.56,41.64-4.54.1.54L214,152.19l0,.23,17.35-1.55.07.5-22.3,3.36,0,.21,18.48-1.13.06.5-16.81,2.17v.19h24.4l0,.44-25.82,1.46c6.41.46,12.84.57,19.27.92-5.39.88-10.84.59-16.25,1.06,6,1.23,12.14.36,18.2.95-3.14.67-6.38.36-9.61,1.13l8.73,2.34-.09.37c-6.32-.62-12.4-3.21-19.17-2.47,4.27,1.22,8.4,1.95,12.37,3.26l-.09.47-12.35-2.19c12.74,4.1,25.68,7.41,38.39,11.54a19.15,19.15,0,0,1-5.13-.66c-11.28-2.22-22.55-4.49-33.83-6.69-.49-.1-1.3-.7-1.59.19s.51,1.2,1.21,1.4l15.49,4.41a4.53,4.53,0,0,1,2.06.9c-6.4-.93-12.64-2.67-19-3.74,2.82,1.48,6,2,8.83,3.4-2.1.07-4.11-.57-6.23-.66l33.45,14.38-.18.55L206.18,180c3,1.91,6.37,2.84,9.41,4.59-2.76-.31-5.32-1.32-8-2,5.41,2.49,11,4.45,16.41,7l-.17.44-19.53-6.69c.48,1.23,1.4,1.44,2.15,1.79,4.5,2.16,9,4.27,13.53,6.41.85.4,1.67.85,2.76,1.42a2.09,2.09,0,0,1-1.71-.22l-16.4-6.59c-.63-.26-1.25-.63-1.67.29s.47,1.1,1,1.34c4,1.84,8,3.62,11.93,5.45.54.24,1.18.39,1.41,1.26l-14.48-5.42-.08.2,9,4.29c-.68.5-1.12.14-1.51,0-2.62-.88-5.21-1.81-7.82-2.71-1.65-.58-2.42,0-2,1.73.19.81.28,1.06-.78.88-.85-.14-1.16.65-.89,1.49.2.61.81,1.06.74,1.81-.62.19-.83-.35-1.17-.62s-.66-.6-1.08-.13-.67.86-.21,1.38,1.09,1.19,1.66,1.77l23.77,24a5.77,5.77,0,0,1,1.12,1.49c-10.31-7.51-20.07-15.74-30.53-23.08,3.12,5,7.14,9.34,10.37,14.25-3.24-2.75-5.79-6.16-8.83-9.09,3.12,4.34,6.55,8.44,9.58,12.84l-.33.28L190.64,204.7c.69,2.12,2.3,3.67,3.12,5.68l-.28.27c-1.23-1.33-2.47-2.65-3.7-4,9.06,14.69,18.84,28.87,28,43.47l-.43.33-31.5-39.2-.19.13,11.54,17.85c-.83,0-1.06-.56-1.39-1q-5.46-7.49-10.9-15c-.45-.61-.92-1.22-1.42-1.78-.35-.4-.68-1.27-1.26-.85s.16,1,.42,1.44c2.4,4.05,4.85,8.07,7.27,12.11a4.32,4.32,0,0,1,.88,2.31c-2.88-3.57-5-7.21-7.63-10.56,1.57,4.32,3.91,8.31,5.29,12.71-2.78-4.2-4.84-8.8-7.46-13.11l6.58,14.61-.47.24Q182.54,222,178,213.56c1.71,6.29,4.41,12.21,6.31,18.41l-.43.19-8-18.2a3.18,3.18,0,0,0,.1,2.79c2.56,8.11,5.15,16.22,7.71,24.33a2.52,2.52,0,0,1,.13,1.94L170.25,217c-.55,1.86.3,3.58.09,5.72-1-1.45-1-2.81-1.42-4-.17-.47,0-1.29-.93-1.17s-.76.83-.76,1.45l0,14.27v1.69l-.49,0-1.05-16.21c-.9,6.89-.52,13.83-1.36,20.75-.1-1.37-.27-2.74-.3-4.1-.13-5-.2-10-.33-15,0-.54.34-1.47-.55-1.51s-1,.9-1,1.6c0,3.19.13,6.37.2,9.56a6.38,6.38,0,0,1-.17,1.83c-.75-1.16-.58-2.51-.74-3.76-.32-2.45-.44-4.92-.67-7.38-.05-.46.11-1.24-.65-1.17s-.6.78-.54,1.29q.75,6.59,1.53,13.16,1.22,10,2.44,20.08.9,7.43,1.85,14.84a8.37,8.37,0,0,1,.07,2.34l-.39.05q-5-24.57-9.95-49.16c-.21,4.8-.29,9.57-.89,14.31-.82-5.22-.22-10.52-1-16a3,3,0,0,0-.77,2.36c-.43,8.59-.81,17.19-1.24,25.78q-.68,13.67-1.4,27.33a1.23,1.23,0,0,1-.72,1.35c-.79-18.94-1.58-37.67-2.37-56.41h-.38c-1.06,4-1.17,8.2-2.43,12.18-.39-2,.11-3.88.2-5.81s.26-3.7.45-5.54c.13-1.33-.73-1.46-1.69-1.54-1.15-.1-1,.7-1,1.42,0,1,.11,2,.14,3,0,.59.24,1.23-.29,1.74-.52-.24-.17-.82-.6-1.24-1,3.27-1,6.68-2.18,9.82l-.37-.07q.85-7.23,1.72-14.47c-1.62,4.64-2.33,9.52-3.78,14.19l-.42-.09,2.24-13.81c-1.95,3.71-2.82,7.83-4.72,11.55.6-4.28,1.9-8.4,2.71-12.66-2.08,3.59-2.93,7.71-4.7,11.43l-.41-.13c.74-2.83,1.47-5.67,2.21-8.51l-.25-.11q-6,12.09-12.07,24.17l-.54-.22,5.91-21.31c-1.72,2.28-2.89,4.91-4.88,7.08.32-.77.6-1.55,1-2.3,1.77-3.63,3.59-7.24,5.34-10.88.25-.54,1-1.36.36-1.75s-1.14.62-1.49,1.17c-2.45,3.8-4.85,7.62-7.28,11.43-.43.66-.76,1.42-1.77,1.7q4-7.35,8.12-14.68c-3.79,4.49-6.59,9.69-10.32,14.23a8.27,8.27,0,0,1,1.39-3c2.17-3.69,4.38-7.35,6.54-11,.28-.49,1.14-1.1.3-1.68s-1.32.21-1.77.75c-2.77,3.32-5.51,6.67-8.27,10-.39.46-.71,1-1.57,1.09l8.8-12.53-.29-.22c-11.85,15.17-22.75,31.06-34.55,46.3a3.24,3.24,0,0,1,.64-1.8Q99.78,235,112.87,211.14c.18-.33.34-.68.54-1,.51-.8,0-1.22-.58-1.62s-.92.19-1.19.58q-3.92,5.88-7.81,11.76a5.36,5.36,0,0,1-1.23,1.38c2.22-4.72,4.92-9.17,7.43-13.74-4.11,4.63-7.52,9.84-11.72,14.4a3.87,3.87,0,0,1,1-2c3.14-4.59,6.31-9.16,9.44-13.76.29-.42.86-.83.38-1.5-.6-.86-1.3-.88-2,.06-2.39,3.08-4.76,6.18-7.15,9.25-1,1.32-2.08,2.6-3.14,3.89-.22.27-.36.68-.88.61-.12-.61.36-.94.63-1.35q4.53-6.57,9.07-13.15a9.7,9.7,0,0,0,.61-1c.13-.24.33-.53,0-.78s-.55-.06-.78.11c-.91.68-1.83,1.35-2.72,2.06-10.18,8.15-20,16.67-30,25.06a6.41,6.41,0,0,1-2.64,1.7c9.89-11.37,20.17-22.39,30.72-33.71l-11.16,5.08-.23-.42c3.43-2.51,7.5-4,11.25-6.65-1.87-.38-3.23.9-5,.48,1.06-1,2.4-1.21,3.28-2.1-6.07,2.39-11.81,5.52-17.88,7.88l-.24-.46,15.94-8.37c-2,.38-3.73,1.54-5.76,1.87,1.6-1.86,4-2.45,5.74-4.24L78.35,199.3l-.21-.44c5.66-3,11.56-5.61,17.08-9l-5.58,1.7-.15-.33c1.81-1.18,3.89-1.87,5.8-2.87l-.18-.36L41,213l-.24-.46L91.2,184l-.18-.33L74.3,192.2l-.26-.5L92,181.35c-.25-.38-.48-.23-.67-.16-5.73,2-11.29,4.35-16.83,6.78a5.13,5.13,0,0,1-2.17.68c.3-.7.91-.82,1.39-1.07,5.38-2.74,10.77-5.46,16.14-8.23.53-.27,1.59-.45,1.3-1.19s-1.13,0-1.67.14c-3.44,1.12-6.85,2.29-10.27,3.45a5.4,5.4,0,0,1-2.45.48c3.55-2,7.48-3.17,11.12-5-4.31.6-8.45,2.06-12.88,2.62.29-.81.92-.72,1.37-.86,4.08-1.28,8.17-2.51,12.26-3.76a3.13,3.13,0,0,0,.54-.19c.45-.21,1.17-.31,1-1s-.81-.38-1.26-.32l-21.3,3-14.53,2a5.64,5.64,0,0,1-1.87-.07c12.59-3.5,25.35-6.29,37.94-9.74l-.1-.62-19.92,1.29c.8-.89,1.82-.8,2.76-.92,5.18-.62,10.37-1.19,15.56-1.78.86-.1,1.6-.27,1.51-1.43s-.9-.91-1.57-.93L74.5,164.2a4,4,0,0,1-2-.52c4.93-.79,9.93-.12,14.74-.86-7.14-.28-14.42.17-21.69-.64,1.12-.12,2.23-.31,3.35-.35,6.08-.23,12.16-.42,18.24-.62.28,0,.57,0,.85,0s.49-.12.53-.39-.2-.52-.51-.55c-.85-.11-1.7-.2-2.55-.28-4.76-.41-9.53-.81-14.29-1.5,5.52-.23,11-.06,16.55.14-7.56-.7-15.15-1-22.67-2.19l23.26.54,0-.59c-16.06-2.37-32.26-3.75-48.33-6l0-.58,48.61,1.69c-6.58-1.66-13.36-2.26-19.93-3.9a23.75,23.75,0,0,1,5.59.33c4.57.5,9.14,1.06,13.72,1.56.56.07,1.43.35,1.55-.51s-.77-.68-1.28-.77l-12-1.92c-.25,0-.6.07-.74-.45,2.38-.2,4.69.49,7.36.25-3.36-1-6.55-1.41-9.55-2.49l.09-.47L90.26,146l.11-.46c-5.15-2-10.7-2.66-15.9-4.45l.09-.41,15.91,2.9.1-.44c-5.4-1.75-11-2.72-16.42-4.54l.08-.37,13.15,2.45c-4-2.57-8.22-3.73-12.21-5.4,1.21-.43,2.18.37,3.7.45L36.44,110.78v-.57a6.7,6.7,0,0,1,2.1.84q21.36,10.38,42.71,20.78c3.78,1.84,7.61,3.61,11.41,5.41-3.1-2-6.59-3.18-9.61-5.38l5,1.62.06-.17-8.08-4.16.21-.43,11.6,4.76.11-.23-5.17-2.71.16-.33c1.91.22,3.63,1.29,5.61,1.34-3.35-3-7.31-5.2-10.72-8.26a1.07,1.07,0,0,1,1.21.21q2.46,1.45,4.89,3c2.06,1.27,4.12,2.56,6.17,3.85,1.2.74,2-.25,2.57-.88s-.48-.95-.88-1.28q-5.75-4.68-11.55-9.31-14.49-11.58-29-23.15c-.37-.29-1-.47-.93-1.47l42.92,28c-3.79-3.87-7.79-7.47-11.4-11.45a1.14,1.14,0,0,1,1.12.41c4.21,3.57,8.4,7.15,12.63,10.7.53.45,1.23,1.57,1.76,1s-.55-1.33-1.08-1.83c-4-3.78-8.09-7.51-12.12-11.27-.45-.42-1-.8-1-1.65L99.29,118l.11-.14-12-12.26.15-.2,15.09,13.11.35-.37c-1.14-2.06-3.53-3.07-4.79-5.21.93,0,1.29.74,2.2.81L85.71,100.52l.34-.4,12.22,9.68c-11.83-15-24.1-29.59-36.12-44.89A2.92,2.92,0,0,1,64,66C78,80.86,92.42,95.38,106.63,110.08a2.53,2.53,0,0,0,2.26.93c.35-.05.85.2,1-.23s-.28-.67-.51-1c-3.37-4.25-6.76-8.48-10.12-12.73-.41-.51-1-1-.78-1.88l12.29,13.54c-2.43-5.15-5.8-9.71-8.48-14.66l.39-.27q3.51,4.86,7,9.71c-1.18-3.49-3.15-6.61-4.24-10.13a5.89,5.89,0,0,1,1.11,1.45c2.62,4.58,5.22,9.17,7.85,13.75.28.48.49,1.11,1.5,1.18-2.77-5.78-6.19-11-9-16.51l.41-.24q5.06,7.68,10.1,15.36l.36-.19c-1.45-4.54-3.9-8.71-5.28-13.3,2.7,4,4.52,8.47,7.25,12.45-.92-3.09-2.75-5.8-3.83-8.81l.4-.2,4.53,6.86.22-.13-6.72-15.77.42-.18c2.89,5.36,5.44,10.92,8.47,16.2l.32-.17-2.14-6.56c1.62,1.35,2.12,3.36,3.31,5a3,3,0,0,0,.32-3.42c-1.61-3.71-3.13-7.45-4.66-11.19a4,4,0,0,1-.46-2.18c1.4,2,2.16,4,3.32,5.76-3.87-14.28-8.26-28.39-11.87-42.73,7.31,16.48,13.71,33.32,21.18,49.72a32.21,32.21,0,0,0-1.19-3.76c-.12-.33-.44-1-.09-1,1.22-.2.39-.88.29-1.19-1.24-3.75-2.54-7.47-3.8-11.21a1.85,1.85,0,0,1-.08-1.71c3.05,6.77,5.35,13.6,8.64,20,.13-3.41-1-6.69-.93-10.18.69.34.64.87.75,1.3.48,1.94.95,3.88,1.43,5.81.21.83.42,1.66.67,2.48.09.29.15.72.6.67s.52-.49.51-.87a8.34,8.34,0,0,0-.16-1.41c-.44-1.9-.92-3.78-1.37-5.68a12.92,12.92,0,0,1-.67-3.85c1,1.29,1.17,2.69,1.9,4.07.09-4.2-.55-8.12-.24-12l.36,0q.78,7.72,1.55,15.47c0-5.65-.66-11.29-.56-16.94l.41,0q1,10.32,2.09,20.64h.41c-.36-6.89-.34-13.77-.29-20.64h.37q.74,9.91,1.46,19.82h.64c.78-6.59.37-13.26,1-19.85.91,5.55.36,11.17.92,16.73.27-3.33.5-6.64.67-10,.34-6.83.61-13.67,1-20.5.54-10.82,1.18-21.64,1.43-32.47Z"/><rect class="cls-1" width="298.09" height="318.14"/></g></g></svg>