<?xml version="1.0" encoding="UTF-8"?>
<svg id="Layer_2" data-name="Layer 2" xmlns="http://www.w3.org/2000/svg" viewBox="0 0 49.11 32.56">
  <defs>
    <style>
      .cls-1 {
        fill: none;
      }

      .cls-1, .cls-2 {
        stroke-width: 0px;
      }
    </style>
  </defs>
  <g id="Layer_1-2" data-name="Layer 1">
    <g id="Layer_2-2" data-name="Layer 2">
      <g id="Layer_1-2" data-name="Layer 1-2">
        <path class="cls-2" d="M28.12,22.25l.1.06c.07.06.16.09.24.16.22.17.39.4.49.66h0l.43.2c.12.06.24.13.35.22.12.1.22.2.32.32.16.2.29.42.38.66.11.3.17.62.19.94v.3c0,.1,0,.19,0,.29-.02.11-.05.21-.08.32-.01.07-.04.14-.07.2-.06.11-.12.22-.2.32-.06.1-.13.18-.22.25-.18.17-.39.3-.63.37-.07,0-.09.07-.1.14,0,.09,0,.19,0,.28-.03.15-.08.28-.16.41l-.25.33c-.15.17-.32.31-.51.42-.23.12-.47.22-.7.33h-.09c-.15.05-.3.1-.46.13-.17.04-.34.07-.52.08-.12.01-.24.01-.36,0-.2,0-.4-.04-.59-.12-.19-.07-.38-.17-.54-.3-.08-.07-.15-.15-.21-.23-.07-.09-.08-.1-.16,0-.09.1-.22.15-.36.15h-.21c-.06,0-.1,0-.1.07-.01.1-.06.19-.14.26-.07.07-.15.14-.24.18-.18.07-.38.11-.58.11-.05,0-.11,0-.16,0-.12-.02-.24-.06-.35-.1-.16-.06-.29-.18-.37-.32-.05-.06-.06-.06-.13,0-.06.06-.12.11-.2.15-.26.08-.54.08-.8,0h-.11c-.1-.03-.19-.09-.25-.17-.08-.09-.14-.19-.2-.29-.04-.11-.07-.22-.08-.34,0-.08,0-.16,0-.24,0-.02,0-.05,0-.07h-.07s0,0-.07.05c-.22.13-.47.21-.73.21-.12,0-.24,0-.36,0-.21,0-.4-.08-.57-.2-.2-.16-.33-.39-.34-.65v-.31c0-.1,0-.13-.13-.13-.24.02-.49.02-.73,0-.21-.04-.41-.09-.61-.16-.17-.07-.33-.18-.46-.31-.18-.19-.28-.43-.28-.69-.02-.24,0-.48.05-.72.04-.19.13-.38.24-.54.14-.18.31-.32.52-.41.04-.02.07-.05.08-.09.03-.09.05-.17.06-.26,0-.04,0-.08,0-.12.05-.18.13-.35.23-.51.08-.13.18-.25.3-.35.08-.07.17-.13.26-.19l.5-.22.32-.07.39-.06h.43s.08,0,.12-.05c.12-.13.24-.24.38-.35.19-.13.41-.24.63-.31.28-.09.57-.14.86-.15.16-.01.31-.01.47,0,.27.02.54.08.79.19.04.02.08.02.12,0,.14-.11.29-.19.46-.25.12,0,.23-.09.35-.12h.34c.25-.04.49-.04.74,0h.2l.3.08c.09.04.18.08.27.13l.41.26c.09,0,.16.12.27.07.18-.06.37-.09.56-.09.18-.01.35-.01.53,0,.12,0,.24.03.35.06l.34.07.11.06Z"/>
        <path class="cls-2" d="M11.96,9.85h0l-.23-.14c-.2-.17-.35-.38-.45-.62h0l-.48-.24c-.12-.06-.23-.13-.33-.21-.3-.23-.52-.54-.65-.9-.11-.28-.16-.59-.17-.89-.01-.09-.01-.19,0-.28,0-.09,0-.18,0-.27,0-.1,0-.2.07-.3.03-.05.06-.1.09-.15.04-.1.09-.21.15-.3.06-.09.13-.17.21-.24.16-.16.36-.27.58-.34.07,0,.12-.05.12-.12v-.26c.03-.13.08-.26.15-.38.07-.1.15-.2.24-.3.13-.16.29-.29.47-.39.21-.12.43-.21.64-.31h.09c.14,0,.28-.09.43-.12.16-.04.32-.06.48-.08h.33c.19.01.37.05.55.12.18.07.35.16.5.28.07.06.14.13.2.21.06.08.07.09.15,0,.09-.09.21-.14.33-.14h.19c.06,0,.09-.02.09-.06.01-.1.06-.19.14-.25.06-.07.14-.13.22-.17.17-.09.36-.14.56-.15h.15l.33.09c.14.06.27.17.35.3,0,.06.05.06.11,0,.06-.06.12-.1.19-.14.24-.08.5-.08.74,0h.11c.09.03.17.09.23.16.05.09.14.17.18.26.04.1.06.21.08.32v.22s0,.05,0,.07h.06c.06,0,0,0,.07-.05.23-.11.48-.16.73-.14.11,0,.22,0,.33,0,.19,0,.38.07.53.19.19.14.3.36.32.59v.3c0,.1,0,.12.13.12.22-.01.45-.01.67,0,.19.04.38.09.57.15.16.07.3.17.42.29.16.17.26.4.27.64.01.22,0,.44-.05.66-.04.18-.12.35-.22.51-.13.17-.29.3-.49.38-.03.02-.06.05-.07.08-.02.08-.04.16-.06.24,0,.04,0,.07,0,.11-.05.17-.13.33-.22.48-.07.13-.17.24-.28.33-.08.06-.16.12-.24.17l-.47.2-.29.07-.36.06h-.4s-.08-.02-.11,0c-.11.12-.23.23-.36.33-.18.12-.37.21-.57.28-.26.09-.53.14-.81.14-.14,0-.29,0-.43,0-.25-.02-.5-.07-.73-.17h-.11c-.13.1-.28.18-.43.24-.11,0-.21.08-.32.1-.1.03-.21.04-.32.05-.23.04-.46.04-.69,0h-.18l-.28-.08-.25-.11-.39-.25c-.07-.05-.14-.11-.24-.07-.17.06-.34.09-.52.09-.16.01-.33.01-.49,0l-.33-.06-.31-.07-.22-.08Z"/>
        <path class="cls-2" d="M22.28,17.55c-.23-.03-.45-.09-.65-.19-.68-.28-1.27-.73-1.74-1.29-.28-.51-.33-1.12-.13-1.67.26-.64.56-1.26.9-1.86.26-.5.72-.86,1.27-1,.52-.09,1.04-.09,1.56,0,.45,0,.71-.41,1.15-.62.8-.39,1.75-.35,2.5.13.1.09.23.16.36.2.21,0,.4-.12.59-.18.46-.13.93.14,1.06.59.01.05.02.1.03.16.53-.17,1.11-.14,1.61.1.17.11.3.29.35.49.06.19.08.38.08.58,0,.16-.03.32-.09.47-.08.17-.19.31-.34.42-.01.03-.01.06,0,.09,0,.07,0,.14,0,.21,0,.03,0,.07,0,.1-.02.15-.05.3-.09.45-.04.12-.1.23-.18.33-.05.07-.11.13-.17.19-.25.18-.52.32-.81.43-.36.19-.67.49-1,.71-.76.49-1.61.83-2.5,1-.66.11-1.33.18-2,.19-.59.04-1.17.03-1.76-.03Z"/>
        <path class="cls-2" d="M34.78,22.09c-.3-.15-.57-.34-.82-.56-.84-.53-1.4-1.41-1.54-2.4,0-.09,0-.18,0-.27,0-.09,0-.18,0-.27,0-.1.05-.2.07-.3.02-.06.04-.12.07-.18.06-.09.13-.18.2-.26.06-.09.13-.17.21-.24.17-.15.36-.27.58-.34.06,0,.08-.06.09-.12,0-.09,0-.17,0-.26.02-.14.07-.27.15-.38.07-.11.15-.21.23-.31.13-.15.29-.28.47-.38.21-.12.43-.21.64-.31h.09c.14-.05.28-.09.42-.12.16-.04.33-.06.49-.08h.32c.19.01.38.05.56.12.18.07.34.16.49.28.07.06.14.13.2.21.07.08.07.09.15,0,.09-.09.21-.14.33-.14h.19s.09,0,.09-.07c.01-.09.06-.18.13-.24.07-.07.15-.12.23-.17.17-.07.35-.1.53-.09h.15c.11.02.22.05.32.09.14.06.27.17.35.3,0,.06,0,0,.11,0,.06-.06.12-.1.19-.14.24-.08.5-.08.74,0h.1c.09.02.18.08.23.16.06.09.14.17.19.26.03.1.06.2.07.31,0,.08,0,.15,0,.23v.06h.13c.49-.3,1.11-.28,1.57.06.27.26.39.64.31,1,.48-.04.96.04,1.41.23.63.36.84,1.16.48,1.79-.03.05-.06.1-.1.15-.21.24-.4.49-.58.75-.11.26-.24.51-.38.75-.4.57-1.16.6-1.76.77-.76.21-1.21.73-2,.75-.14,0-.29,0-.43,0-.25-.02-.5-.07-.73-.17-.03-.02-.08-.02-.11,0-.13.1-.27.19-.43.24l-.32.11h-.31c-.23.04-.46.04-.69,0h-.18c-.1-.02-.19-.04-.28-.08l-.25-.11-.38-.24c-.08-.05-.14-.12-.24-.07-.6.16-1.24.04-1.75-.32Z"/>
        <path class="cls-2" d="M13.71,16.08h.08c.06.05.14.08.2.13.19.15.34.35.43.57h0c.12.06.25.11.37.18.11.05.21.11.3.18.1.08.19.18.27.28.15.16.26.35.33.56.1.26.15.53.16.81v.26c0,.08,0,.17,0,.25,0,.09,0,.18-.07.28-.01.06-.03.11-.06.16-.04.1-.1.19-.17.27-.05.08-.12.16-.19.23-.16.14-.34.24-.54.31-.05.01-.09.07-.08.12v.24c-.03.12-.07.24-.14.35-.07.1-.14.19-.22.28-.48.54-1.17.84-1.89.83-.72,0-1.4-.6-2.11-.32-.34.14-.63.49-1,.45-.65-.08-2.27-.36-2.3-1.2-.35.27-.81.32-1.21.13-.44-.21-.38-.73-.67-.94s-.85,0-1.23-.29c-1.44-1.08.28-3.58,1.63-3.84l.36.03h.37s.07.01.1,0c.1-.11.22-.21.34-.3.16-.12.34-.2.53-.26.21-.1.43-.16.66-.19h.41c.23.02.46.07.67.16.03.02.07.02.1,0,.12-.09.26-.17.4-.22l.3-.1h.29c.21-.03.43-.03.64,0h.17l.26.07c.08.03.16.06.23.11.12.07.24.14.35.22s.13.11.23.07c.15-.06.32-.08.48-.08.15-.01.31-.01.46,0h.3l.29.07c.07.03.13.08.17.14Z"/>
        <path class="cls-2" d="M32.17,8.67c-1.47-.53-2.46-1.53-2.21-3.26l.06-.28.06-.16c.05-.09.11-.18.17-.27.06-.08.13-.16.2-.23.15-.14.33-.24.53-.31.06,0,.08-.06.09-.12,0-.08,0-.16,0-.24.02-.13.07-.25.14-.35.06-.1.13-.19.21-.28.48-.54,1.17-.84,1.89-.83.72,0,1.4.61,2.11.32.34-.14.63-.49,1-.44.65.07,2.26.35,2.3,1.19.35-.28.84-.33,1.24-.13.43.21.37.73.66.94s.85,0,1.23.29c2.15,1.61-1.32,3.72-2.56,4.15-2.33.67-4.79.67-7.12,0Z"/>
        <rect class="cls-1" x=".96" y=".85" width="46.85" height="30.65"/>
      </g>
    </g>
    <rect class="cls-1" width="49.11" height="32.56"/>
  </g>
</svg>