<svg xmlns="http://www.w3.org/2000/svg" viewBox="0 0 260.48 272.39"><defs><style>.cls-1{fill:none;}</style></defs><g id="Layer_2" data-name="Layer 2"><g id="Layer_1-2" data-name="Layer 1"><path d="M243.46,165c.48,6.06-2.24,10.81-5.65,15.27-2.2,2.87-4.68,5.49-8.15,6.77a15.46,15.46,0,0,1-4.9,1c-3.91.11-7.85,0-11.42-1.87a12.17,12.17,0,0,1-3.51-2.92c-6.33-7.41-10.7-19.73-10.42-29.47s6.41-20.13,16.6-22a18.9,18.9,0,0,1,11.54,1.12,24.36,24.36,0,0,1,9.7,7.42,16.85,16.85,0,0,1,1.45,3.06C241.75,150.35,243.65,157.54,243.46,165Z"/><path d="M76.23,64.54c.49,6.06-2.23,10.81-5.65,15.27-2.19,2.87-4.67,5.49-8.14,6.77a15.56,15.56,0,0,1-4.9,1c-3.91.11-7.86,0-11.42-1.88a12.15,12.15,0,0,1-3.52-2.91C36.28,75.34,31.91,63,32.18,53.28s6.41-20.13,16.6-22a19,19,0,0,1,11.55,1.13A24.33,24.33,0,0,1,70,39.86a15.35,15.35,0,0,1,1.45,3.06A50.17,50.17,0,0,1,76.23,64.54Z"/><path d="M133.68,99.6c3.88-4.69,9.65-5.6,15.81-5.7,4-.07,8,.29,11.95,2.47a23.55,23.55,0,0,1,5,3.68c3.5,3.39,6.84,7,8.66,11.45a15,15,0,0,1,1,5.17c.25,10.81-4.7,23.34-11.88,29.93s-19.94,8.44-30.16.68a29.07,29.07,0,0,1-9.3-11c-2-4.58-3.42-9.21-3.19-13.81a15,15,0,0,1,.91-3.44C124.7,111.42,128.16,104.69,133.68,99.6Z"/><path d="M119.65,207.18c3.89-4.68,9.65-5.6,15.81-5.7,4-.06,8,.3,11.95,2.48a23.52,23.52,0,0,1,5,3.68c3.49,3.39,6.84,7,8.65,11.45a14.68,14.68,0,0,1,1,5.16c.25,10.81-4.71,23.34-11.89,29.93s-19.94,8.44-30.16.68a29,29,0,0,1-9.29-11c-2.06-4.58-3.42-9.2-3.19-13.81a14.47,14.47,0,0,1,.91-3.43C110.67,219,114.13,212.28,119.65,207.18Z"/><path d="M197.51,43.69c17.77,0,28.43,7.11,34.62,24.33,2.86,8,2.82,16-3.23,22.53-6.21,6.66-14.43,7.35-22.67,4.5-11-3.79-19.62-10.79-24.3-21.55-1.69-3.88-1.36-8.63-2-13.32-7.84,3-15,.47-21.22-4.8-7.85-6.6-13.73-14.54-14.48-25.25-.87-12.49,8.2-22.19,20.82-21.26,14.32,1.06,25.35,8.05,31,21.59C197.68,34.23,197.07,38.92,197.51,43.69Z"/><path d="M50,149.9c2.88-16,31.17-25.07,44.78-13.48a20.21,20.21,0,0,1,7.06,13.3c1.76,13.86-9.62,29.92-23.16,32.52-2.36.46-4.86.18-7.34.25-8.19,17.1-22.1,24.06-37.88,18.89C21.88,197.59,15.77,186.78,18,174.1,20.63,159.37,33.86,149.26,50,149.9Z"/><rect class="cls-1" width="260.48" height="272.39"/></g></g></svg>