<?xml version="1.0" encoding="UTF-8"?>
<svg id="Layer_2" data-name="Layer 2" xmlns="http://www.w3.org/2000/svg" viewBox="0 0 262 230">
  <defs>
    <style>
      .cls-1 {
        fill: none;
      }

      .cls-1, .cls-2 {
        stroke-width: 0px;
      }
    </style>
  </defs>
  <g id="Layer_1-2" data-name="Layer 1">
    <g id="Layer_2-2" data-name="Layer 2">
      <g id="Layer_1-2" data-name="Layer 1-2">
        <path class="cls-2" d="M68.83,100.8c1.17-2.69,2.17-5.35,3.25-7.96.4-1,.81-1.94,1.19-2.91.5-1.3,1-1.42,1.79-.28.54.79.86.8,1.43.08,1-1.34,1.43-1.38,2.39,0,.83,1.19,1.19.8,1.72-.19,1.53-2.86,1.49-2.8,3.44-.18,2.63,3.52,5.39,6.94,8,10.45,1.86,2.46,3.62,5,5.47,7.49,2,2.73,4.09,5.43,6.14,8.14.22.27.42.55.61.84.31.37.27.92-.09,1.24-.39.34-.99.3-1.33-.09,0,0-.02-.02-.02-.03-.31-.31-.6-.64-.85-1-4-5.52-8.12-10.88-12.26-16.26-2-2.65-3.93-5.42-5.91-8.11-.43-.59-.65-1.69-1.68-1.26-.8.32-1,2.14-.35,3,1.74,2.32,3.52,4.6,5.26,6.92,3.49,4.63,7,9.28,10.43,13.91.36.48.79.9,1.16,1.38s.73,1.08.14,1.6-1.15.06-1.53-.41c-1.67-2.12-3.34-4.25-5-6.4-3.77-5.11-7.56-10.2-11.36-15.27-.62-.84-1.05-.71-1.52.14-.81,1.14-.97,2.62-.41,3.91,2.25,5.33,4.25,10.77,6.34,16.17.15.37.25.75.31,1.14.05.37-.18.71-.54.81-.35.13-.73-.03-.88-.37-.21-.34-.39-.7-.55-1.07-2-5.09-4.03-10.19-6.09-15.3-.09-.23-.13-.51-.44-.5s-.49.31-.64.57c-2.21,3.92-4.48,7.8-6.61,11.76-1.09,2.23-3.25,3.74-5.72,4-2.01.29-4.05.46-6.08.5-1.74-.09-3.47-.37-5.15-.82-1.65-.33-3.03-1.45-3.69-3-2-3.95-4.3-7.78-6.49-11.65-.26-.48-.53-1.09-1.12-1.11s-.68.78-.87,1.24c-1.92,4.74-3.81,9.47-5.72,14.19-.09.28-.2.56-.33.83-.29.49-.65,1-1.3.69s-.59-.89-.38-1.44c.81-2.1,1.63-4.19,2.46-6.28,1.49-3.76,2.98-7.52,4.48-11.27.18-1.27-.25-2.56-1.17-3.46-.7-.44-.88.22-1.14.57-3.52,4.61-7,9.23-10.52,13.85-1.84,2.42-3.7,4.83-5.57,7.24-.43.55-.94,1.25-1.72.67s-.14-1.25.26-1.78c5.49-7.33,10.99-14.64,16.49-21.93.28-.35.5-.74.63-1.17.15-.77-.27-1.55-1-1.84-.68-.34-.87.45-1.18.86-3.18,4.31-6.37,8.59-9.57,12.86l-8.28,11c-.42.56-.86,1.11-1.31,1.64s-1,.79-1.55.27-.25-1,.09-1.47c1.13-1.52,2.29-3,3.43-4.55,4.63-6.12,9.23-12.29,13.88-18.41,1.21-1.59,2.46-3.14,3.56-4.81.68-1,1.33-.89,1.93.09.11.17.18.36.3.52.43.54.43,1.48,1.18,1.66s.89-.79,1.37-1.18c.89-.73,1.47-.26,2,.47s.95,1.21,1.57-.07c.48-1,1.24-.63,1.61.25.88,2.19,1.78,4.35,2.61,6.52.59,1.45,1.21,2.89,1.81,4.34l.36-.07v-8.19c0-4.58-.07-9.16-.06-13.75.14-.9-.47-1.76-1.37-1.91-2.59-.83-2.85-1.36-2.87-3.51-.07-1.24.78-2.34,2-2.58.33-.1.71-.08,1-.21s1-.22,1-.74-.56-.49-.9-.69c-2.11-1.24-4.2-2.5-6.34-3.68-.65-.3-1.04-.97-1-1.68v-18.16c-.05-.62.27-1.21.82-1.5,5.15-2.98,10.29-5.98,15.42-9,1.04-.6,2.34-.52,3.3.2,4,2.34,8,4.74,12,7,4.93,2.77,3.88,1.73,4,6.89.08,4.6,0,9.21,0,13.81.13,1.17-.5,2.28-1.57,2.77-2,1-4,2.23-6,3.38-.29.16-.75.3-.7.69s.56.53.91.67.79.13,1.16.26c1.16.27,1.99,1.3,2,2.49,0,1.4-.1,2.53-1.67,3.12-2.73,1-2.7,1.09-2.63,4,.08,3.23-.16,6.45-.1,9.66.06,3.43,0,6.85.08,10.28-.02.09.14.2.35.47ZM50.05,110.52c-.32-1.45.36-2.89-.42-4.24-1.88-3.24-3.79-6.46-5.68-9.68-.15-.27-.3-.55-.67-.45s-.43.4-.49.7c-.08.96.2,1.91.78,2.67,1.88,3.35,3.82,6.66,5.51,10.12.16.34.26.76.97.88ZM68.54,110.37c.45,0,.6-.37.77-.67,1.33-2.4,2.66-4.79,4-7.19.79-1.44,1.57-2.89,2.35-4.34.37-.68.46-1.49-.26-1.84s-.8.56-1.07,1c-1.19,2-2.28,4-3.55,5.88-1.47,2.16-2.78,4.3-2.24,7.16Z"/>
        <path class="cls-2" d="M143.89,192.55c1.12-2.74,2.19-5.35,3.25-8,.4-1,.81-1.94,1.19-2.91.51-1.3,1-1.42,1.8-.28.54.78.86.8,1.43.07,1.05-1.34,1.42-1.37,2.39,0,.82,1.19,1.18.8,1.71-.19,1.53-2.86,1.49-2.8,3.45-.18,2.62,3.52,5.38,6.94,8,10.45,1.87,2.46,3.63,5,5.47,7.49,2,2.73,4.09,5.42,6.14,8.13.22.27.43.56.62.85.3.37.26.91-.09,1.23-.38.34-.97.31-1.31-.07-.01-.01-.02-.03-.04-.04-.32-.3-.61-.64-.86-1-3.95-5.52-8.12-10.88-12.26-16.26-2-2.65-3.93-5.42-5.91-8.12-.43-.58-.65-1.68-1.68-1.26-.79.33-1,2.15-.35,3,1.74,2.32,3.53,4.61,5.27,6.92l10.43,13.92c.36.48.79.9,1.15,1.38s.74,1.08.14,1.6-1.15.06-1.52-.42c-1.67-2.11-3.33-4.24-5-6.4-3.82-5.06-7.63-10.13-11.44-15.2-.63-.84-1.06-.71-1.53.14-.8,1.14-.96,2.62-.4,3.9,2.25,5.34,4.25,10.78,6.34,16.18.15.37.26.75.31,1.14.04.36-.19.7-.54.81-.35.13-.74-.03-.89-.37-.21-.34-.39-.7-.54-1.07-2.04-5.1-4.07-10.2-6.09-15.3-.1-.24-.14-.51-.45-.5s-.49.31-.64.57c-2.21,3.91-4.48,7.8-6.61,11.76-1.08,2.23-3.24,3.74-5.71,4-2.01.29-4.04.46-6.08.51-1.74-.1-3.47-.37-5.15-.82-1.65-.32-3.04-1.45-3.69-3-2-3.95-4.31-7.78-6.49-11.66-.27-.47-.53-1.09-1.13-1.1s-.67.78-.86,1.24c-1.86,4.72-3.72,9.42-5.65,14.18-.09.28-.2.56-.33.83-.28.49-.64,1-1.3.68s-.59-.88-.37-1.43c.8-2.1,1.63-4.19,2.45-6.28,1.49-3.76,2.99-7.52,4.48-11.27.18-1.27-.25-2.55-1.16-3.46-.7-.44-.88.22-1.15.57l-10.52,13.84c-1.84,2.43-3.7,4.84-5.57,7.25-.43.55-.94,1.25-1.71.67s-.14-1.25.26-1.79c5.49-7.33,10.98-14.64,16.48-21.93.29-.34.51-.73.64-1.16.15-.77-.27-1.55-1-1.84-.68-.34-.86.45-1.17.86-3.2,4.28-6.4,8.56-9.59,12.84-2.75,3.69-5.51,7.36-8.28,11-.42.55-.85,1.11-1.3,1.64s-1,.79-1.55.27-.25-1,.09-1.47c1.13-1.53,2.28-3,3.42-4.55,4.63-6.15,9.24-12.32,13.89-18.45,1.21-1.58,2.46-3.14,3.56-4.8.67-1,1.33-.89,1.93.09.09.18.19.35.3.52.42.54.43,1.48,1.17,1.66s.9-.79,1.37-1.18c.89-.73,1.47-.26,2,.47s1,1.21,1.57-.07c.49-1,1.24-.64,1.61.24.91,2.17,1.76,4.36,2.65,6.53.59,1.45,1.2,2.89,1.8,4.34l.38-.07v-8.19c0-4.58-.08-9.17-.07-13.75.14-.9-.47-1.76-1.37-1.91-2.59-.83-2.85-1.36-2.87-3.52-.07-1.24.79-2.33,2-2.57.33-.11.7-.08,1-.21s1-.22,1-.74-.57-.49-.9-.69c-2.11-1.24-4.21-2.5-6.35-3.69-.65-.29-1.05-.96-1-1.67v-18.12c-.08-.61.21-1.2.74-1.52,5.15-3,10.3-5.94,15.43-8.94,1.02-.59,2.28-.53,3.24.15,4,2.35,8,4.74,12,7,4.94,2.77,3.89,1.72,4,6.89.07,4.6,0,9.21,0,13.81.14,1.17-.5,2.28-1.57,2.76-2,1.06-4,2.24-6,3.39-.28.16-.74.3-.7.69s.56.53.91.67.8.13,1.17.26c1.16.27,1.99,1.3,2,2.49,0,1.4-.1,2.53-1.66,3.12-2.73,1-2.7,1.09-2.63,4,.07,3.22-.17,6.45-.11,9.66.07,3.43,0,6.85.09,10.28.06.1.22.21.42.48ZM125.11,202.27c-.31-1.45.36-2.89-.42-4.24-1.88-3.24-3.78-6.46-5.67-9.69-.16-.26-.31-.54-.68-.44s-.42.39-.48.7c-.08.96.19,1.91.78,2.67,1.87,3.35,3.82,6.66,5.5,10.12.17.34.26.72.97.88ZM143.61,202.12c.45,0,.6-.37.76-.67l4-7.19,2.35-4.34c.36-.68.45-1.5-.27-1.84s-.8.56-1.06,1c-1.19,2-2.28,4-3.56,5.88-1.45,2.15-2.83,4.3-2.22,7.15h0Z"/>
        <path class="cls-2" d="M205.82,86.18c1.11-2.74,2.18-5.35,3.25-8,.39-1,.8-1.94,1.18-2.91.51-1.3,1-1.42,1.8-.28.54.78.86.8,1.43.07,1.05-1.34,1.42-1.37,2.39,0,.82,1.19,1.18.8,1.71-.19,1.53-2.86,1.49-2.8,3.45-.18,2.62,3.52,5.38,6.94,8,10.44,1.87,2.47,3.63,5,5.47,7.5,2,2.73,4.09,5.42,6.14,8.13.22.27.43.56.62.85.3.37.26.91-.09,1.23-.38.34-.97.31-1.31-.07-.01-.01-.02-.03-.04-.04-.32-.31-.6-.64-.86-1-4-5.52-8.12-10.88-12.26-16.26-2-2.65-3.93-5.42-5.91-8.12-.42-.58-.65-1.68-1.68-1.26-.79.33-.95,2.15-.35,3,1.74,2.32,3.53,4.61,5.27,6.92l10.43,13.92c.36.48.79.9,1.15,1.38s.74,1.08.14,1.6-1.14.06-1.52-.42c-1.67-2.11-3.33-4.24-5-6.4-3.82-5.06-7.63-10.13-11.44-15.2-.63-.84-1.06-.71-1.53.14-.8,1.14-.96,2.62-.4,3.9,2.25,5.34,4.25,10.78,6.34,16.18.15.37.26.75.31,1.14.04.37-.19.71-.54.81-.35.13-.74-.03-.89-.37-.2-.34-.38-.7-.54-1.07-2.04-5.1-4.07-10.2-6.09-15.3-.1-.24-.14-.51-.45-.5s-.49.31-.64.57c-2.21,3.91-4.48,7.8-6.6,11.76-1.09,2.23-3.25,3.74-5.72,4-2.01.29-4.04.46-6.08.51-1.74-.1-3.47-.38-5.15-.82-1.65-.33-3.03-1.45-3.69-3-2-4-4.31-7.78-6.49-11.66-.27-.47-.53-1.09-1.13-1.1s-.67.78-.86,1.24c-1.92,4.72-3.82,9.45-5.71,14.18-.1.28-.21.56-.34.83-.28.49-.64,1-1.3.68s-.58-.89-.37-1.43c.81-2.1,1.63-4.19,2.45-6.28l4.48-11.28c.19-1.27-.24-2.55-1.16-3.45-.7-.44-.88.22-1.15.57-3.51,4.61-7.02,9.22-10.51,13.84-1.85,2.43-3.71,4.84-5.58,7.24-.43.56-.94,1.26-1.71.68s-.14-1.26.26-1.79c5.49-7.33,10.99-14.64,16.48-21.93.29-.34.51-.73.64-1.16.15-.77-.27-1.55-1-1.84-.68-.34-.86.45-1.17.86-3.2,4.28-6.4,8.56-9.59,12.84-2.75,3.69-5.51,7.35-8.28,11-.42.55-.85,1.1-1.3,1.64s-1,.79-1.55.27-.25-1,.09-1.47c1.13-1.53,2.28-3,3.43-4.55,4.62-6.15,9.23-12.32,13.88-18.45,1.21-1.58,2.46-3.14,3.56-4.8.67-1,1.33-.89,1.93.09.08.18.18.35.3.51.43.54.43,1.48,1.17,1.67s.9-.79,1.37-1.18c.89-.73,1.47-.26,2,.47s1,1.21,1.57-.07c.49-1,1.24-.64,1.61.24.92,2.17,1.76,4.36,2.65,6.53.59,1.45,1.2,2.89,1.8,4.34h.41v-8.2c0-4.59-.08-9.17-.07-13.75.15-.9-.46-1.76-1.37-1.91,0,0,0,0,0,0-2.59-.83-2.85-1.36-2.87-3.52-.1-1.27.79-2.41,2.05-2.63.33-.11.71-.08,1-.21s1-.22,1-.74-.57-.49-.9-.69c-2.11-1.24-4.21-2.5-6.35-3.69-.65-.29-1.05-.96-1-1.67v-18.16c-.07-.61.22-1.2.74-1.52,5.15-3,10.3-5.94,15.43-8.94,1.02-.59,2.28-.53,3.24.15,4,2.35,8,4.74,12,7,4.94,2.77,3.89,1.72,4,6.89.07,4.6,0,9.21,0,13.81.14,1.15-.46,2.27-1.51,2.77-2,1.06-4,2.24-6,3.39-.28.16-.74.3-.7.69s.56.53.91.67.8.13,1.17.26c1.16.27,1.99,1.3,2,2.49.05,1.4-.1,2.53-1.66,3.12-2.73,1-2.7,1.09-2.63,4,.08,3.22-.17,6.45-.11,9.66.07,3.43,0,6.85.09,10.27,0,.14.15.25.36.52ZM187,95.9c-.31-1.45.36-2.89-.42-4.24-1.87-3.24-3.78-6.46-5.67-9.69-.16-.26-.31-.55-.68-.44s-.42.39-.48.7c-.08.96.19,1.91.78,2.67,1.87,3.35,3.82,6.66,5.5,10.12.2.33.29.76.97.88ZM205.5,95.75c.45,0,.6-.37.77-.67,1.32-2.4,2.66-4.79,4-7.2.79-1.44,1.57-2.88,2.35-4.33.37-.68.46-1.5-.27-1.84s-.8.56-1.06,1c-1.19,1.95-2.28,4-3.56,5.88-1.43,2.16-2.79,4.3-2.2,7.16h-.03Z"/>
      </g>
    </g>
    <rect class="cls-1" width="262" height="230"/>
  </g>
</svg>