<svg xmlns="http://www.w3.org/2000/svg" viewBox="0 0 43.02 29.45"><defs><style>.cls-1{fill:none;}.cls-2{fill:#231f20;}</style></defs><g id="Layer_2" data-name="Layer 2"><g id="Layer_1-2" data-name="Layer 1"><path class="cls-1" d="M0,29.45V0H43V29.45Z"/><path d="M2.26,5.47c.07-.2.13-.34.17-.49.13-.49.39-.61.89-.44a6.71,6.71,0,0,0,6-.76A5.61,5.61,0,0,1,14,3.29c2.21.63,4.44,1.23,6.66,1.84A6.34,6.34,0,0,0,24.58,5a35.45,35.45,0,0,0,3.74-1.48,5,5,0,0,1,3.58-.35c1.8.47,3.62.84,5.44,1.18a7.82,7.82,0,0,0,1.81,0c.37,0,.75-.06,1.15-.1l.25,1a9.11,9.11,0,0,1-4.88.16c-1.42-.33-2.83-.69-4.22-1.11A3,3,0,0,0,29,4.6a11.86,11.86,0,0,1-6.09,1.87,23.06,23.06,0,0,1-4.36-.64c-1.68-.38-3.32-.91-5-1.42a4.42,4.42,0,0,0-3.86.49C7.35,6.43,4.87,6.36,2.26,5.47Z"/><path class="cls-2" d="M22.58,25l1.13-.11a1.39,1.39,0,0,0,.41.84A1.3,1.3,0,0,0,25,26a1.28,1.28,0,0,0,.84-.24.68.68,0,0,0,.28-.55.5.5,0,0,0-.11-.34.91.91,0,0,0-.42-.25c-.14-.05-.44-.13-.93-.25a3.11,3.11,0,0,1-1.3-.57,1.49,1.49,0,0,1-.53-1.15,1.46,1.46,0,0,1,.25-.82,1.58,1.58,0,0,1,.71-.58,3,3,0,0,1,1.13-.2,2.43,2.43,0,0,1,1.62.47,1.68,1.68,0,0,1,.58,1.27l-1.16.05a1,1,0,0,0-.32-.64,1.14,1.14,0,0,0-.73-.19,1.3,1.3,0,0,0-.79.21.4.4,0,0,0-.18.35.43.43,0,0,0,.17.35,3.09,3.09,0,0,0,1.06.38,5.66,5.66,0,0,1,1.25.41,1.63,1.63,0,0,1,.63.59,1.8,1.8,0,0,1,0,1.83,1.6,1.6,0,0,1-.78.64A3.18,3.18,0,0,1,25,27a2.5,2.5,0,0,1-1.67-.5A2.23,2.23,0,0,1,22.58,25Z"/><path class="cls-2" d="M28.21,22.15v-1H29.3v1Zm0,4.71V22.71H29.3v4.15Z"/><path class="cls-2" d="M9.36,23.42V17.69h1.13l2.34,3.82V17.69H13.9v5.73H12.74l-2.3-3.74v3.74Z"/><path class="cls-2" d="M19.9,14.7V9h1.85a6.73,6.73,0,0,1,1.38.08,1.49,1.49,0,0,1,.82.56,1.8,1.8,0,0,1,.33,1.12,1.82,1.82,0,0,1-.19.88,1.58,1.58,0,0,1-1.08.84,6.24,6.24,0,0,1-1.2.08h-.76V14.7Zm1.15-4.76v1.63h.64a3,3,0,0,0,.91-.09.75.75,0,0,0,.49-.73.72.72,0,0,0-.18-.51.81.81,0,0,0-.47-.26,6.33,6.33,0,0,0-.83,0Z"/></g></g></svg>