<svg xmlns="http://www.w3.org/2000/svg" viewBox="0 0 290.5 131.16"><defs><style>.cls-1{fill:#fff;}.cls-2{fill:none;}</style></defs><g id="Layer_2" data-name="Layer 2"><g id="Layer_1-2" data-name="Layer 1"><path class="cls-1" d="M30.44,103.6l.08.21c1.18,0,2.35,0,3.53,0l25.24.11c8.51,0,17,0,25.53.09,5.44,0,10.88.06,16.32.09l25.61.11,25,.09c5.59,0,11.17.06,16.76.09l25.38.11c8.42,0,16.83,0,25.25.08l15.59.07,9,0c4.54,0,9.09,0,13.64,0a1.46,1.46,0,0,0,1-.46c1-1.16,1-2.07.11-3.72-1.73-3.21-3.44-6.42-5.16-9.63a6.42,6.42,0,0,0-4.1-3.52c-.75-.19-1.53-.23-2.28-.37A2.19,2.19,0,0,1,245,84.85c0-.44,0-.87,0-1.31a3.84,3.84,0,0,0-1.41-3.18,79.4,79.4,0,0,1-12.31-11.29,9.16,9.16,0,0,0-4.54-2.85l-7-1.82a2.45,2.45,0,0,0-.93-.08c-1.12.14-2.25.31-3.37.48-2.14.33-3.1-.19-4-2.2-.15-.36-.27-.72-.4-1.08-1.82-4.76-4.91-8-10.21-8.67A3.28,3.28,0,0,1,198.18,51c-.79-1.46-1.6-2.92-2.49-4.32A7.4,7.4,0,0,0,188.26,43a2.25,2.25,0,0,1-2.47-1.29,12.73,12.73,0,0,0-1.73-2.49c-2.58-2.71-5.89-4.12-9.43-5.1a10.52,10.52,0,0,0-6.47,0,2.41,2.41,0,0,1-2.78-1.06c-.34-.47-.6-1-.91-1.48a6.91,6.91,0,0,0-4.36-3.24,20.69,20.69,0,0,0-2.94-.35c-2.92-.23-5.83-.42-8.74-.67a11.59,11.59,0,0,0-7.55,1.72,2.85,2.85,0,0,1-3.78-.26c-.64-.55-1.22-1.18-1.83-1.76-2.28-2.2-4.9-3.46-8.18-3-1.57.24-3.16.4-4.74.56a7.92,7.92,0,0,0-4.73,2.26c-2.08,1.92-4.25,3.72-6.36,5.59a3.94,3.94,0,0,1-5,.37c-.63-.35-1.25-.74-1.91-1a2.7,2.7,0,0,0-3.35.71c-.6.67-1.18,1.35-1.71,2.07A22,22,0,0,1,93,40.79a4.58,4.58,0,0,0-2.22,3.27c-.24,1.54-.32,3.11-.42,4.67a4.8,4.8,0,0,1-3,4.5,7.63,7.63,0,0,0-4.24,4.7,17.08,17.08,0,0,0-.58,8.36,4.45,4.45,0,0,0,3.76,3.9l1,.23-5.84,5.73a5.46,5.46,0,0,0-1.93-2.67,16.63,16.63,0,0,1-2.16-2.12,5.8,5.8,0,0,0-5.72-2.2q-4.8.9-9.56,2c-3.85.87-7,2.74-9,6.29a1,1,0,0,1-1.2.43A4.57,4.57,0,0,0,48,79q-2.22,1.88-4.32,3.87a4.93,4.93,0,0,0-1.43,4.44,15.23,15.23,0,0,1,.21,2c0,1.66-.11,3.32-.13,5a2.5,2.5,0,0,1-1.65,2.48,31.71,31.71,0,0,0-7.25,4.33C32.43,101.89,31.45,102.75,30.44,103.6Z"/><path d="M30.44,103.6c1-.85,2-1.71,3-2.53a31.71,31.71,0,0,1,7.25-4.33,2.5,2.5,0,0,0,1.65-2.48c0-1.66.12-3.32.13-5a15.23,15.23,0,0,0-.21-2,4.93,4.93,0,0,1,1.43-4.44q2.1-2,4.32-3.87a4.57,4.57,0,0,1,3.84-1.1,1,1,0,0,0,1.2-.43c2-3.55,5.2-5.42,9-6.29q4.76-1.08,9.56-2a5.8,5.8,0,0,1,5.72,2.2,16.63,16.63,0,0,0,2.16,2.12,5.46,5.46,0,0,1,1.93,2.67l5.84-5.73-1-.23a4.45,4.45,0,0,1-3.76-3.9,17.08,17.08,0,0,1,.58-8.36,7.63,7.63,0,0,1,4.24-4.7,4.8,4.8,0,0,0,3-4.5c.1-1.56.18-3.13.42-4.67A4.58,4.58,0,0,1,93,40.79a22,22,0,0,0,6.31-6.19c.53-.72,1.11-1.4,1.71-2.07a2.7,2.7,0,0,1,3.35-.71c.66.29,1.28.68,1.91,1a3.94,3.94,0,0,0,5-.37c2.11-1.87,4.28-3.67,6.36-5.59a7.92,7.92,0,0,1,4.73-2.26c1.58-.16,3.17-.32,4.74-.56,3.28-.49,5.9.77,8.18,3,.61.58,1.19,1.21,1.83,1.76a2.85,2.85,0,0,0,3.78.26,11.59,11.59,0,0,1,7.55-1.72c2.91.25,5.82.44,8.74.67a20.69,20.69,0,0,1,2.94.35,6.91,6.91,0,0,1,4.36,3.24c.31.49.57,1,.91,1.48a2.41,2.41,0,0,0,2.78,1.06,10.52,10.52,0,0,1,6.47,0c3.54,1,6.85,2.39,9.43,5.1a12.73,12.73,0,0,1,1.73,2.49A2.25,2.25,0,0,0,188.26,43a7.4,7.4,0,0,1,7.43,3.67c.89,1.4,1.7,2.86,2.49,4.32a3.28,3.28,0,0,0,2.71,1.88c5.3.63,8.39,3.91,10.21,8.67.13.36.25.72.4,1.08.88,2,1.84,2.53,4,2.2,1.12-.17,2.25-.34,3.37-.48a2.45,2.45,0,0,1,.93.08l7,1.82a9.16,9.16,0,0,1,4.54,2.85,79.4,79.4,0,0,0,12.31,11.29A3.84,3.84,0,0,1,245,83.54c0,.44,0,.87,0,1.31A2.19,2.19,0,0,0,246.92,87c.75.14,1.53.18,2.28.37a6.42,6.42,0,0,1,4.1,3.52c1.72,3.21,3.43,6.42,5.16,9.63.88,1.65.89,2.56-.11,3.72a1.46,1.46,0,0,1-1,.46c-4.55,0-9.1,0-13.64,0l-9,0-15.59-.07c-8.42,0-16.83,0-25.25-.08l-25.38-.11c-5.59,0-11.17-.07-16.76-.09l-25-.09-25.61-.11c-5.44,0-10.88-.07-16.32-.09-8.51,0-17-.05-25.53-.09l-25.24-.11c-1.18,0-2.35,0-3.53,0Z"/><rect class="cls-2" width="290.5" height="131.16"/></g></g></svg>