<svg xmlns="http://www.w3.org/2000/svg" viewBox="0 0 141.57 65.43"><defs><style>.cls-1{fill:none;}</style></defs><g id="Layer_2" data-name="Layer 2"><g id="Layer_1-2" data-name="Layer 1"><path d="M99.28,37.05c-1.15-.13-2.3-.31-3.43-.53a5.24,5.24,0,0,1-1.2-.27,2.69,2.69,0,0,0-.9-.27c-2.09-.27-4.18-.56-6.23-1h.06l-4.12-.71h.06l-2.93-.48h.07l-1.26-.24h.06l-5.55-.71H74l-2.16-.14c2.65-1.67,5-3.24,7.45-4.67A49.35,49.35,0,0,0,91,19a41.08,41.08,0,0,0,5.81-7.33c.57-1,1.16-2,1.82-3.12-1.84.26-3.53.37-5.16.74-1.89.43-3.72,1.13-5.6,1.64-1.36.37-2.78.51-4.12.93-1.78.55-3.5,1.3-5.27,1.91-2.71.94-5.5,1.7-8.16,2.78Q64.4,19,58.6,21.82c-6.09,2.93-12.21,5.81-18.12,9.07-2.47,1.36-5,1.68-7.62,2.21s-5,.62-7.46,1c-2.87.42-5.73.9-8.59,1.37a5.75,5.75,0,0,0-1.61.39,51.21,51.21,0,0,0-4.82,2.51c-.84.51-2.2.95-1.39,2.45-1.82.93-1.87,1.72-.25,3,.19.15.36.31.55.47a22.56,22.56,0,0,0,8.87,4.64c4.32,1.2,8.74.9,13.11,1.37,5.11.55,10.29.53,15.44.81a8.77,8.77,0,0,1,5.16,1.71,47.6,47.6,0,0,0,6.49,3.71,5.94,5.94,0,0,0,1.5.27c-.94-1.48-1.34-2.69,0-3.8L55.61,51.7l0-.43c.85,0,1.7,0,2.54,0,4.84-.14,9.68-.39,14.51-.41,1.52,0,3.09-.39,4.64.5a24.21,24.21,0,0,0,5.27,2.15,4.5,4.5,0,0,0,4-.7A32.12,32.12,0,0,1,90.39,50c2.9-1.49,5.67-3.43,9.18-3.28.17,0,.36-.18.74-.37l-2.34-1a8.2,8.2,0,0,0,2.56-.42,4.42,4.42,0,0,1,3.86-.15c3.43,1.22,6.78,2.69,10.15,4.09,3.85,1.61,7.68,3.27,11.84,3.9a19.09,19.09,0,0,0,4,.14c1.13-.07,1.28-.48.59-1.45a13.25,13.25,0,0,0-6.55-4.92,16.71,16.71,0,0,1-6.19-3.86c-1-1-1-1.55.27-2.15,2.34-1.15,4.7-2.26,7.06-3.35A4.24,4.24,0,0,0,127.94,34c-3.79-.81-20.35,1.68-22.13,3.42,0,0-.46,0-.53,0L104,37.33c-1.07,0-2.14,0-3.2-.14C100.27,37.15,99.77,37.11,99.28,37.05Z"/><rect class="cls-1" width="141.57" height="65.43"/></g></g></svg>