<svg xmlns="http://www.w3.org/2000/svg" viewBox="0 0 76.43 44.16"><defs><style>.cls-1{fill:none;}.cls-2{fill:#231f20;}</style></defs><g id="Layer_2" data-name="Layer 2"><g id="Layer_1-2" data-name="Layer 1"><path class="cls-1" d="M0,44.16V0H76.43V44.16Z"/><path d="M4,9.72c.12-.35.24-.6.31-.87C4.54,8,5,7.77,5.89,8.07A11.88,11.88,0,0,0,16.5,6.71a10,10,0,0,1,8.4-.87C28.84,7,32.79,8,36.74,9.12a11.46,11.46,0,0,0,6.93-.19c2.25-.78,4.49-1.64,6.65-2.63a9,9,0,0,1,6.36-.64c3.19.84,6.42,1.5,9.66,2.11a14.35,14.35,0,0,0,3.21,0c.67,0,1.33-.11,2-.18L72,9.36a16.4,16.4,0,0,1-8.67.29c-2.51-.59-5-1.23-7.49-2a5.34,5.34,0,0,0-4.35.5c-3.37,1.87-6.91,3.42-10.83,3.32A40,40,0,0,1,33,10.35c-3-.68-5.9-1.61-8.83-2.51a7.84,7.84,0,0,0-6.86.87C13.05,11.43,8.65,11.3,4,9.72Z"/><path class="cls-2" d="M25.74,32.94c.12.1.18.21.26.22a1.14,1.14,0,0,0,.85-.13,11.48,11.48,0,0,0,.92-.78.83.83,0,0,1,.74-.26.87.87,0,0,0,1-.6,3.5,3.5,0,0,1,.78-1.15.39.39,0,0,1,.28-.11c.25,0,.35-.15.25-.38a1.4,1.4,0,0,0-.14-.27c-.13.07-.3.11-.34.2a.7.7,0,0,1-.57.41.17.17,0,0,0-.11.06,6.43,6.43,0,0,0-.59.7.84.84,0,0,1-1,.51c-.6-.07-.69,0-.93.54l0,.09a1.25,1.25,0,0,1-1,.78A1.07,1.07,0,0,0,25.74,32.94ZM51.1,37.87a1.26,1.26,0,0,0,.2.47,2.1,2.1,0,0,1,.49.81.84.84,0,0,0,1.06.6.79.79,0,0,1,.43.07,1.7,1.7,0,0,1,.38.33,2.18,2.18,0,0,0,1.22.75,1.42,1.42,0,0,0,.54,0,.24.24,0,0,0,.12-.18c0-.06-.07-.13-.12-.19s-.08,0-.12,0a1.06,1.06,0,0,1-1.07-.79,1.3,1.3,0,0,0-.08-.17.7.7,0,0,0-.9-.45.84.84,0,0,1-1-.46,5.7,5.7,0,0,0-.42-.55A.59.59,0,0,0,51.1,37.87ZM25.53,36.14A2.71,2.71,0,0,0,25,36a.93.93,0,0,1-.83-.67c-.25-.65-.39-.74-1.08-.7l-.15,0a.56.56,0,0,1-.58-.2,2.64,2.64,0,0,1-.23-.35,1.55,1.55,0,0,0-.74-.71c-.14,0-.31-.09-.38.06a.37.37,0,0,0,.09.32,3.15,3.15,0,0,1,.64,1,.7.7,0,0,0,.85.49,1,1,0,0,1,.91.33,3,3,0,0,0,1.26.88A.61.61,0,0,0,25.53,36.14ZM35,38.59c.32,0,.53-.09.63-.3a4.86,4.86,0,0,1,.85-1.3.19.19,0,0,0-.14-.34.64.64,0,0,0-.42.15,4.57,4.57,0,0,0-.62.76.79.79,0,0,1-.81.39l-.32,0a.5.5,0,0,0-.59.3c-.08.16-.17.32-.24.48a.87.87,0,0,1-.68.56,2.13,2.13,0,0,0-.43.13c-.06,0-.14.13-.13.18a.31.31,0,0,0,.16.18.4.4,0,0,0,.22,0,1.31,1.31,0,0,0,.93-.3c.22-.19.42-.39.62-.6a.75.75,0,0,1,.87-.29ZM48.65,30a.52.52,0,0,0-.6.18,4.59,4.59,0,0,0-.48.61.87.87,0,0,1-.92.47l-.2,0a.62.62,0,0,0-.75.45.69.69,0,0,0-.05.13,1.37,1.37,0,0,1-1.19.89c-.08,0-.14.09-.22.14s.09.15.16.18a.74.74,0,0,0,.35.08,1.62,1.62,0,0,0,1.14-.55c.14-.16.29-.31.43-.46a.73.73,0,0,1,.67-.22c.55.08.78-.07,1-.59a3.16,3.16,0,0,1,.46-.74A.68.68,0,0,0,48.65,30Zm10.29,3.26a1.3,1.3,0,0,0-.28-.15,1.59,1.59,0,0,1-1.19-1c-.23-.5-.31-.55-.86-.47a.94.94,0,0,1-1-.46,5.26,5.26,0,0,0-.62-.71c-.12-.13-.43-.14-.51,0s0,.27.13.38l.09.09a1.62,1.62,0,0,1,.48.75.69.69,0,0,0,.7.6c.15,0,.3,0,.45,0s.18,0,.23,0a7.57,7.57,0,0,1,.62.53,2.13,2.13,0,0,0,.91.6C58.39,33.55,58.69,33.61,58.94,33.28ZM38.26,24.41A.69.69,0,0,0,39,24a3.38,3.38,0,0,1,.73-1.13.26.26,0,0,0,.06-.25.31.31,0,0,0-.24-.1.85.85,0,0,0-.39.2,9,9,0,0,0-.67.83.61.61,0,0,1-.64.28,2,2,0,0,0-.34,0,.53.53,0,0,0-.67.34c-.1.2-.19.4-.3.58a1,1,0,0,1-.87.5.54.54,0,0,0-.25.06c-.13.06-.13.17,0,.24a.56.56,0,0,0,.16.07,1.22,1.22,0,0,0,1.18-.31,6.35,6.35,0,0,0,.58-.58c.23-.24.47-.42.83-.26A.48.48,0,0,0,38.26,24.41Zm8.86-2.22a.63.63,0,0,0,.67.61,4.28,4.28,0,0,0,1.13-.16,1.21,1.21,0,0,1,1.24.17.57.57,0,0,0,.67.06c.09,0,.17-.11.26-.16.34-.19.68-.37,1-.54.11-.05.24-.07.23-.21s-.14-.2-.27-.23A1.44,1.44,0,0,0,51,22a.76.76,0,0,1-1,0c-.56-.41-.59-.4-1.16,0a1.33,1.33,0,0,1-1.39.19A1.09,1.09,0,0,0,47.12,22.19Zm-5-9.8c-.22-.19-.22-.2-.47-.1a6,6,0,0,0-.93.41.81.81,0,0,1-.93,0,2.71,2.71,0,0,0-.34-.18.55.55,0,0,0-.55.06l-.27.22a1.37,1.37,0,0,1-.79.4,5.9,5.9,0,0,1-.59-.06,1,1,0,0,0-.24,0c0,.09,0,.21,0,.27a.52.52,0,0,0,.27.15A2.51,2.51,0,0,0,39,13.37a.75.75,0,0,1,.93.05.67.67,0,0,0,.47.16,2,2,0,0,0,.57-.31c.28-.18.53-.4.83-.56A.58.58,0,0,0,42.14,12.39Zm-20.59,13a.47.47,0,0,0-.56.16c-.14.19-.29.37-.43.57a.45.45,0,0,1-.48.24c-.56-.15-.86.1-1.07.59a.84.84,0,0,1-.68.53,1.1,1.1,0,0,0-.29.17c.26.26.48.31.74.12a10.66,10.66,0,0,0,.91-.72c.17-.14.32-.27.55-.2a.5.5,0,0,0,.58-.16c.26-.36.47-.76.7-1.15A.66.66,0,0,0,21.55,25.37Zm40.1-5.49c-.2-.09-.34-.08-.46.05a6.08,6.08,0,0,0-.39.47.82.82,0,0,1-.79.45c-.56-.05-.57,0-.82.46l-.08.14a1,1,0,0,1-.8.54c-.08,0-.16.1-.23.15v.08a1.18,1.18,0,0,0,.3.1,1.06,1.06,0,0,0,.73-.23l.57-.5a.66.66,0,0,1,.62-.23A.66.66,0,0,0,61,21c.16-.26.34-.52.49-.79A1.69,1.69,0,0,0,61.65,19.88Zm-28.83.62c0-.08-.08-.17-.14-.2a1.13,1.13,0,0,1-.57-1c0-.5-.11-.57-.6-.69a.65.65,0,0,1-.49-.49c-.08-.27-.2-.54-.29-.81a.31.31,0,0,0-.34-.22.68.68,0,0,0,.06.56,1.23,1.23,0,0,1,.1.49.71.71,0,0,0,.53.86.66.66,0,0,1,.49.45,2.21,2.21,0,0,0,.8,1.06A.3.3,0,0,0,32.82,20.5Zm-7.23-7.1-.06-.07a.8.8,0,0,0-.33.08,1.89,1.89,0,0,0-.46.52.71.71,0,0,1-.8.4.61.61,0,0,0-.74.42l-.13.25a.88.88,0,0,1-.54.42,1.65,1.65,0,0,0-.38.21,4.26,4.26,0,0,0,.43.12.34.34,0,0,0,.24,0,7.68,7.68,0,0,0,.79-.62,1,1,0,0,1,.8-.29.54.54,0,0,0,.57-.29c.16-.25.32-.5.47-.76C25.51,13.64,25.54,13.51,25.59,13.4Zm30.23,2.35-.09-.06-.09,0a1.08,1.08,0,0,1-.94-.72.42.42,0,0,0-.44-.27h-.33a.63.63,0,0,1-.64-.31,2.92,2.92,0,0,0-.46-.47,1.61,1.61,0,0,0-.42-.16.92.92,0,0,0,.08.33,6.09,6.09,0,0,0,.52.8.64.64,0,0,0,.7.23.52.52,0,0,1,.49.13,6.65,6.65,0,0,0,.65.54A.8.8,0,0,0,55.82,15.75ZM37.51,41.69a.3.3,0,0,0,.32.34.34.34,0,0,0,.32-.37c0-.13-.2-.3-.36-.3S37.51,41.49,37.51,41.69ZM58.14,30.85a.27.27,0,0,0,.31-.26c0-.15-.19-.42-.3-.42s-.33.24-.33.39A.29.29,0,0,0,58.14,30.85Zm-24.59.59a.26.26,0,0,0-.27-.29c-.16,0-.42.19-.42.3a.56.56,0,0,0,.43.32C33.45,31.77,33.55,31.64,33.55,31.44ZM20,34.3c0-.15-.16-.37-.27-.37a.36.36,0,0,0-.36.35.3.3,0,0,0,.33.31A.28.28,0,0,0,20,34.3Zm-.39,1.51a.29.29,0,0,0-.28-.33.33.33,0,0,0,0,.65C19.5,36.13,19.6,36,19.61,35.81Zm36.81,2.28a.27.27,0,0,0-.27.27c0,.16.19.4.31.36a.9.9,0,0,0,.37-.3C56.88,38.34,56.57,38.09,56.42,38.09Zm-15.31-5.8c-.22,0-.32.1-.32.3s.15.4.31.34a.63.63,0,0,0,.29-.38C41.44,32.4,41.29,32.29,41.11,32.29Zm10.32,8c.21,0,.31-.09.32-.29a.29.29,0,0,0-.26-.33.43.43,0,0,0-.37.38C51.12,40.15,51.23,40.24,51.43,40.24ZM42,38.63c0-.14-.2-.3-.36-.3a.31.31,0,0,0,.07.62A.29.29,0,0,0,42,38.63Zm5.17.33c.19,0,.37-.14.32-.31a.68.68,0,0,0-.36-.3c-.11,0-.29.2-.29.36S47,39,47.17,39Zm6.43-5.55a.38.38,0,0,0,.36-.3.31.31,0,0,0-.29-.33.37.37,0,0,0-.33.35A.26.26,0,0,0,53.6,33.41ZM38.49,26.88l.28.21A.3.3,0,0,0,39.2,27c.1-.15,0-.27-.1-.37a.24.24,0,0,0-.37,0C38.66,26.73,38.58,26.79,38.49,26.88ZM21.34,24.27a.28.28,0,0,0-.27-.32c-.16,0-.39.17-.39.3s.27.32.41.31S21.33,24.43,21.34,24.27Zm6.08,11.36c.33-.27.4-.44.26-.59a.44.44,0,0,0-.49,0C27,35.16,27.12,35.35,27.42,35.63Zm31-10.28c-.15,0-.24.13-.23.33a.28.28,0,0,0,.3.3c.12,0,.31-.19.3-.31S58.59,25.35,58.44,25.35Zm-12,8.84a.24.24,0,0,0-.23.25c0,.16.15.38.27.39a.34.34,0,0,0,.35-.28A.43.43,0,0,0,46.41,34.19ZM25.17,31.68c-.19,0-.5.22-.44.29a.89.89,0,0,0,.36.31c.11,0,.3-.21.3-.36A.22.22,0,0,0,25.17,31.68Zm34.91,2.57a.3.3,0,0,0,.28-.32c0-.17-.12-.27-.31-.27a.31.31,0,0,0-.32.33A.38.38,0,0,0,60.08,34.25Zm-2-6a.29.29,0,0,0-.58,0c0,.14.17.38.27.39S58,28.42,58,28.27Zm-18.16-.79a.26.26,0,0,0-.26-.28c-.15,0-.38.21-.33.33a.69.69,0,0,0,.29.32C39.66,27.91,39.88,27.62,39.88,27.48ZM34.7,36.76c.21,0,.48-.19.43-.28a.88.88,0,0,0-.35-.31c-.11-.05-.31.19-.31.34A.23.23,0,0,0,34.7,36.76Zm1.08-9.17c0-.14-.23-.45-.3-.4a.9.9,0,0,0-.29.35c0,.11.18.3.33.31A.26.26,0,0,0,35.78,27.59Zm-5.5,11.57a.29.29,0,0,0,.24.34c.12,0,.39-.17.4-.27a.33.33,0,0,0-.31-.32A.26.26,0,0,0,30.28,39.16Zm2.59-17.33c-.12-.09-.22-.19-.32-.25a.25.25,0,0,0-.35.05.32.32,0,0,0,0,.4.25.25,0,0,0,.35,0ZM43,31.37a.42.42,0,0,0,.35.35.32.32,0,0,0,.27-.33c0-.12-.19-.28-.33-.28A.27.27,0,0,0,43,31.37Zm.3-6.07a.29.29,0,0,0,.26.33c.15,0,.36-.13.37-.24a.29.29,0,0,0-.28-.33C43.45,25,43.33,25.12,43.32,25.3Zm-6.87,9.77c.18,0,.49-.21.44-.3a.77.77,0,0,0-.36-.28c-.12-.05-.3.17-.3.34A.21.21,0,0,0,36.45,35.07Zm11.64-5.91a1.77,1.77,0,0,0-.32-.25.34.34,0,0,0-.28,0c-.18.11-.2.25-.08.39s.27.19.44,0ZM38.22,23c.14,0,.39-.21.39-.32s-.24-.29-.38-.28a.28.28,0,0,0-.26.33C38,22.88,38,23,38.22,23Zm-2.74,8c-.09.1-.16.19-.22.27s-.1.22,0,.32.27.19.42.06a.24.24,0,0,0,0-.36C35.66,31.21,35.57,31.13,35.48,31ZM13,28.11c-.19,0-.29.08-.29.24s.16.38.28.38.31-.22.31-.36S13.18,28.11,13,28.11Zm39.7,8.5c-.13,0-.27,0-.29.21s.18.42.29.37A.67.67,0,0,0,53,36.9C53.08,36.77,52.89,36.61,52.69,36.61ZM35.74,17.88c0,.21.07.3.26.31s.4-.13.34-.28a.52.52,0,0,0-.35-.27C35.81,17.59,35.76,17.75,35.74,17.88Zm-3,5.79c0,.17.14.35.3.31a.61.61,0,0,0,.28-.31c0-.11-.16-.29-.32-.3S32.77,23.48,32.77,23.67Zm16.59,9-.13-.11c-.09-.06-.19-.19-.26-.17a.47.47,0,0,0-.28.22c-.09.14,0,.24.13.32a.19.19,0,0,0,.28,0Zm-20.77-16c0-.18-.15-.38-.27-.32a.74.74,0,0,0-.29.36c-.05.13.11.24.3.24S28.59,16.81,28.59,16.61Zm32.33,5.9c0-.17-.19-.46-.26-.42a.79.79,0,0,0-.3.35c0,.11.16.29.3.29A.22.22,0,0,0,60.92,22.51Zm.27-4.06c-.19,0-.4.19-.36.31a.77.77,0,0,0,.26.33c.08.05.32-.26.32-.4A.23.23,0,0,0,61.19,18.45ZM35.33,23.56c.34.33.42.35.58.17a.27.27,0,0,0,0-.4C35.75,23.2,35.57,23.27,35.33,23.56ZM20.83,28c0-.2-.2-.47-.29-.42a.63.63,0,0,0-.26.32c0,.12.17.32.31.32A.21.21,0,0,0,20.83,28ZM33.45,13.11l-.23-.21a.27.27,0,0,0-.39,0,.31.31,0,0,0,0,.41.22.22,0,0,0,.37,0Zm9.45,7.56c.09-.09.15-.17.22-.23s.13-.21,0-.32-.24-.21-.39-.1a.25.25,0,0,0-.09.36A1.47,1.47,0,0,0,42.9,20.67Zm15-3.33a.21.21,0,0,0-.23.22c0,.15.18.38.31.34a.74.74,0,0,0,.31-.27C58.37,17.54,58.11,17.34,57.93,17.34Zm-42.74,6a.26.26,0,0,0-.26.26.4.4,0,0,0,.36.32.32.32,0,0,0,.26-.3C15.55,23.55,15.32,23.37,15.19,23.37Zm5.3,7c-.18-.15-.27-.37-.49-.28a.41.41,0,0,0-.19.33c0,.08.18.24.24.23A2,2,0,0,0,20.49,30.35ZM26.93,26l.34-.32a1.54,1.54,0,0,0-.34-.29c-.1,0-.28.18-.28.33S26.75,25.91,26.93,26Zm21.6.44a3,3,0,0,1-.25-.23.22.22,0,0,0-.35,0c-.09.1-.2.19-.09.34a.27.27,0,0,0,.4.1Zm3.51-1c0-.21-.14-.39-.28-.34a.62.62,0,0,0-.27.34c0,.11.19.28.35.27S52,25.53,52,25.42Zm-8.53,10.3c-.1.14-.34.17-.27.39s.16.2.25.3c.1-.09.25-.17.29-.28S43.64,35.86,43.51,35.72Zm-14.4-14v-.1a2.49,2.49,0,0,0-.37-.23c-.1,0-.28.17-.29.3s.17.29.29.26A1.56,1.56,0,0,0,29.11,21.75ZM29.7,16c.05,0,.12.13.21.15s.37-.18.33-.29a.71.71,0,0,0-.25-.34C29.92,15.49,29.7,15.8,29.7,16Zm27.38,4.89-.34-.34a1.65,1.65,0,0,0-.31.34c0,.09.18.32.29.28S56.93,21,57.08,20.91Zm-34.83-.14h.1c.07-.14.19-.27.19-.4a.35.35,0,0,0-.22-.26c-.11,0-.3.16-.29.22A1.4,1.4,0,0,0,22.25,20.77Zm31.5-1.45c.19,0,.36-.14.32-.28a.51.51,0,0,0-.29-.27c-.1-.05-.31.19-.3.33S53.63,19.31,53.75,19.32Zm.82-5.76c.17,0,.43-.18.38-.26a.7.7,0,0,0-.3-.29c-.1,0-.3.19-.3.33A.2.2,0,0,0,54.57,13.56Zm-27,7c-.05-.18-.08-.3-.23-.32s-.39.17-.35.28a1.33,1.33,0,0,0,.25.35ZM63.3,28.15c0-.23-.17-.49-.24-.44a.7.7,0,0,0-.3.29c0,.1.21.34.34.31S63.26,28.19,63.3,28.15Zm-51-5c0-.16-.22-.35-.33-.31a1.32,1.32,0,0,0-.3.24c.12.11.21.25.35.3S12.17,23.2,12.27,23.12Zm14-11.36c.28.34.34.34.67,0C26.67,11.4,26.61,11.4,26.31,11.76Zm19.35-.56c.26.33.32.34.53.16s.12-.17,0-.27S45.9,10.89,45.66,11.2Zm-15.86,17c-.15-.13-.25-.28-.35-.28s-.24.17-.24.27.17.21.27.24S29.66,28.28,29.8,28.18Zm5.86,5.62c.27.33.29.38.64,0C35.92,33.5,35.88,33.5,35.66,33.8Zm9.68-16.29c.34-.23.35-.27,0-.6C45.08,17.24,45.07,17.29,45.34,17.51Zm-15.26,6-.23-.14c-.11-.07-.22-.07-.27.06a.33.33,0,0,0,.06.23.15.15,0,0,0,.26,0Zm9.21,9.68c-.19.08-.33.25-.27.33a.27.27,0,0,0,.23.09C39.41,33.55,39.42,33.4,39.29,33.18Zm23-.94c-.12,0-.19-.28-.36-.09s-.1.19,0,.26S62.19,32.32,62.3,32.24ZM52,30.68c-.18-.05-.25-.3-.43-.12a.25.25,0,0,0,0,.22C51.7,31,51.8,30.75,52,30.68ZM40.33,21.37c.24-.3.24-.36,0-.45C40.1,21.12,40.1,21.12,40.33,21.37Zm10.93,5.48c-.2-.25-.32-.25-.45,0C51,27.07,51,27.07,51.26,26.85ZM16.11,28.11c.05-.17.28-.21.12-.4s-.16-.13-.25,0S16.06,27.93,16.11,28.11ZM26,34.29c-.07.17-.27.24-.12.41s.16.07.24,0S26,34.46,26,34.29ZM39.72,40c-.25-.22-.32-.21-.43.06C39.47,40.26,39.52,40.25,39.72,40Zm-8.78-5.4c-.23-.26-.28-.27-.43,0C30.66,34.82,30.68,34.82,30.94,34.62ZM20.06,33.05c.18.19.28.18.45,0C20.23,32.82,20.21,32.82,20.06,33.05Zm38.46,5.56c.19-.19.18-.22,0-.47C58.29,38.4,58.29,38.46,58.52,38.61Zm-8.15-4.32c-.24.24-.24.27,0,.44C50.56,34.56,50.56,34.53,50.37,34.29Zm-33-12.83c-.13-.09-.26-.19-.38,0s0,.19.08.21S17.3,21.59,17.36,21.46Zm22.48,15.3c-.29-.19-.31-.19-.44,0C39.56,37,39.6,37,39.84,36.76ZM20.24,20.41c-.2-.25-.24-.25-.41,0C20,20.61,20,20.61,20.24,20.41ZM30.73,36.73c.17.2.22.19.41,0C30.91,36.48,30.87,36.48,30.73,36.73Zm13.2,1c.07-.15.26-.23.08-.37a.2.2,0,0,0-.21,0C43.67,37.57,43.83,37.64,43.93,37.77Zm-22.59-.94c0,.15-.27.2-.09.38s.23.08.32-.06a1.1,1.1,0,0,1-.09-.14ZM50.16,20c.27-.16.25-.32,0-.41C50,19.75,50,19.76,50.16,20Zm-4.64,1.32c.14.25.18.25.41,0C45.73,21.11,45.7,21.1,45.52,21.31ZM13.77,26.64c.07-.14.26-.23.09-.38s-.2,0-.29.1Zm26.81-6.29c.07-.13.25-.22.09-.36a.24.24,0,0,0-.22,0C40.3,20.16,40.5,20.22,40.58,20.35ZM28.82,39.07c.09-.11.28-.15.15-.33a.15.15,0,0,0-.25,0C28.58,38.89,28.76,39,28.82,39.07Zm27.77-23c-.11.15-.14.28,0,.37a.19.19,0,0,0,.17-.06C56.86,16.21,56.72,16.15,56.59,16.07Zm-28.7,5c-.13,0-.18-.24-.34-.09s-.11.17,0,.25S27.78,21.19,27.89,21.1ZM54.84,35c.16.22.19.22.41,0C55,34.76,55,34.76,54.84,35ZM31.35,24.32c.22-.17.21-.21-.05-.39C31.12,24.13,31.12,24.15,31.35,24.32Zm-7.16,2.92.2-.26c-.11-.08-.2-.24-.33-.1S24.13,27.1,24.19,27.24ZM60,27.48c.24-.22.24-.24,0-.4l-.19.23ZM23.46,23.07c-.22-.21-.25-.21-.41,0C23.21,23.3,23.24,23.3,23.46,23.07Zm28.8,1.76.2-.23c-.1-.11-.17-.24-.31-.1S52.17,24.72,52.26,24.83ZM38,36.76c-.1-.08-.2-.23-.32-.08s.07.21.14.33ZM41.72,23c0,.16-.24.23-.07.37a.21.21,0,0,0,.2,0C42,23.16,41.81,23.11,41.72,23Zm3.06,6.45c-.19.24-.18.27.07.39C45,29.65,45,29.63,44.78,29.42Zm11.39-7c.18-.13.19-.17,0-.38C56,22.26,56,22.31,56.17,22.46Zm.58,12.17c.23-.15.23-.18,0-.35C56.56,34.44,56.56,34.45,56.75,34.63ZM46.27,13.13h-.09l0,.31c.08,0,.19,0,.22,0S46.32,13.22,46.27,13.13Zm-18,13c-.22-.2-.26-.2-.39,0C28.07,26.36,28.1,26.35,28.3,26.16Zm37.14,4.26c-.07.13-.26.18-.12.33s.15.08.18.06S65.5,30.58,65.44,30.42Zm.47-8.2c-.1-.08-.15-.25-.3-.13s0,.2.06.29ZM43.68,24c-.19-.23-.21-.23-.37,0C43.41,24.21,43.54,24.18,43.68,24ZM56.19,15.1c-.07.09-.19.14-.09.26s.2.1.33,0Zm-6.89.62.25-.16c-.09-.08-.12-.26-.29-.15S49.25,15.6,49.3,15.72Zm-3.85-.9c.19.18.19.18.41,0C45.65,14.62,45.61,14.62,45.45,14.82Zm6.82-1.71c-.19.23-.19.26,0,.37C52.48,13.32,52.48,13.31,52.27,13.11Zm-13.13,5.7c-.2.16-.19.18,0,.36C39.33,19,39.33,19,39.14,18.81Zm23.5,4.43c-.2-.2-.22-.2-.36,0C62.42,23.44,62.45,23.44,62.64,23.24Zm1.62-1.54c.19-.2.19-.23,0-.36C64.06,21.49,64.06,21.5,64.26,21.7Zm-7.88,3.88c-.2-.2-.24-.2-.37,0l.19.19ZM40.61,14.42h-.09v.3c.06,0,.16,0,.19,0S40.67,14.51,40.61,14.42Zm2.51-2.5c0,.11-.24.18-.08.33a.22.22,0,0,0,.17,0C43.36,12.08,43.19,12,43.12,11.92ZM19.05,18.28c-.19-.17-.2-.17-.35,0C18.82,18.48,18.83,18.48,19.05,18.28Zm28.48,1c.14.16.19.16.37,0C47.69,19.06,47.67,19.06,47.53,19.24Zm8.2,4.42c.13.23.16.23.32,0C56,23.57,55.86,23.48,55.73,23.66Z"/><path class="cls-2" d="M40.72,10.36l.36.28-.26.24a.25.25,0,0,1-.37,0,.25.25,0,0,1,0-.38.75.75,0,0,1,.17-.14Z"/><path class="cls-2" d="M10.08,29c.07,0,.14-.11.21-.11s.15.1.14.14-.09.18-.15.3l-.2-.24Z"/><path class="cls-2" d="M37.51,41.69c0-.2.11-.33.28-.33s.37.17.36.3a.34.34,0,0,1-.32.37A.3.3,0,0,1,37.51,41.69Z"/><path class="cls-2" d="M58.14,30.85a.29.29,0,0,1-.32-.29c0-.15.21-.39.33-.39s.3.27.3.42A.27.27,0,0,1,58.14,30.85Z"/><path class="cls-2" d="M33.55,31.44c0,.2-.1.33-.26.33a.56.56,0,0,1-.43-.32c0-.11.26-.3.42-.3A.26.26,0,0,1,33.55,31.44Z"/><path class="cls-2" d="M20,34.3a.28.28,0,0,1-.3.29.3.3,0,0,1-.33-.31.36.36,0,0,1,.36-.35C19.84,33.93,20,34.15,20,34.3Z"/><path class="cls-2" d="M19.61,35.81c0,.2-.11.32-.3.32a.33.33,0,0,1,0-.65A.29.29,0,0,1,19.61,35.81Z"/><path class="cls-2" d="M56.42,38.09c.15,0,.46.25.41.33a.9.9,0,0,1-.37.3c-.12,0-.31-.2-.31-.36A.27.27,0,0,1,56.42,38.09Z"/><path class="cls-2" d="M41.11,32.29c.18,0,.33.11.28.26a.63.63,0,0,1-.29.38c-.16.06-.31-.14-.31-.34S40.89,32.29,41.11,32.29Z"/><path class="cls-2" d="M51.43,40.24c-.2,0-.31-.09-.31-.24a.43.43,0,0,1,.37-.38.29.29,0,0,1,.26.33C51.74,40.15,51.64,40.24,51.43,40.24Z"/><path class="cls-2" d="M42,38.63a.29.29,0,0,1-.29.32.31.31,0,0,1-.07-.62C41.8,38.33,42,38.49,42,38.63Z"/><path class="cls-2" d="M47.17,39c-.21,0-.33-.1-.33-.25s.18-.4.29-.36a.68.68,0,0,1,.36.3C47.54,38.82,47.36,39,47.17,39Z"/><path class="cls-2" d="M53.6,33.41a.26.26,0,0,1-.26-.28.37.37,0,0,1,.33-.35.31.31,0,0,1,.29.33A.38.38,0,0,1,53.6,33.41Z"/><path class="cls-2" d="M38.49,26.88c.09-.09.17-.15.24-.23a.24.24,0,0,1,.37,0c.12.1.2.22.1.37a.3.3,0,0,1-.43.07Z"/><path class="cls-2" d="M21.34,24.27c0,.16-.07.28-.25.29s-.41-.2-.41-.31.23-.3.39-.3A.28.28,0,0,1,21.34,24.27Z"/><path class="cls-2" d="M27.42,35.63c-.3-.28-.38-.47-.23-.6a.44.44,0,0,1,.49,0C27.82,35.19,27.75,35.36,27.42,35.63Z"/><path class="cls-2" d="M58.44,25.35c.15,0,.37.18.37.32s-.18.32-.3.31a.28.28,0,0,1-.3-.3C58.2,25.48,58.29,25.36,58.44,25.35Z"/><path class="cls-2" d="M46.41,34.19a.43.43,0,0,1,.39.36.34.34,0,0,1-.35.28c-.12,0-.27-.23-.27-.39A.24.24,0,0,1,46.41,34.19Z"/><path class="cls-2" d="M25.17,31.68a.22.22,0,0,1,.22.24c0,.15-.19.41-.3.36a.89.89,0,0,1-.36-.31C24.67,31.9,25,31.69,25.17,31.68Z"/><path class="cls-2" d="M60.08,34.25a.38.38,0,0,1-.35-.26.31.31,0,0,1,.32-.33c.19,0,.32.1.31.27A.3.3,0,0,1,60.08,34.25Z"/><path class="cls-2" d="M58,28.27c0,.15-.19.39-.31.39s-.27-.25-.27-.39a.29.29,0,0,1,.58,0Z"/><path class="cls-2" d="M39.88,27.48c0,.14-.22.43-.3.37a.69.69,0,0,1-.29-.32c0-.12.18-.32.33-.33A.26.26,0,0,1,39.88,27.48Z"/><path class="cls-2" d="M34.7,36.76a.23.23,0,0,1-.23-.25c0-.15.2-.39.31-.34a.88.88,0,0,1,.35.31C35.18,36.57,34.91,36.76,34.7,36.76Z"/><path class="cls-2" d="M35.78,27.59a.26.26,0,0,1-.26.26c-.15,0-.38-.2-.33-.31a.9.9,0,0,1,.29-.35C35.55,27.14,35.79,27.45,35.78,27.59Z"/><path class="cls-2" d="M30.28,39.16a.26.26,0,0,1,.33-.25.33.33,0,0,1,.31.32c0,.1-.28.28-.4.27A.29.29,0,0,1,30.28,39.16Z"/><path class="cls-2" d="M32.87,21.83l-.32.24a.25.25,0,0,1-.35,0,.32.32,0,0,1,0-.4.25.25,0,0,1,.35-.05C32.65,21.64,32.75,21.74,32.87,21.83Z"/><path class="cls-2" d="M43,31.37a.27.27,0,0,1,.29-.26c.14,0,.33.16.33.28a.32.32,0,0,1-.27.33A.42.42,0,0,1,43,31.37Z"/><path class="cls-2" d="M43.32,25.3c0-.18.13-.26.35-.24a.29.29,0,0,1,.28.33c0,.11-.22.25-.37.24A.29.29,0,0,1,43.32,25.3Z"/><path class="cls-2" d="M36.45,35.07a.21.21,0,0,1-.22-.24c0-.17.18-.39.3-.34a.77.77,0,0,1,.36.28C36.94,34.86,36.63,35.07,36.45,35.07Z"/><path class="cls-2" d="M48.09,29.16l-.24.19c-.17.16-.29.15-.44,0s-.1-.28.08-.39a.34.34,0,0,1,.28,0A1.77,1.77,0,0,1,48.09,29.16Z"/><path class="cls-2" d="M38.22,23c-.19,0-.24-.11-.25-.27a.28.28,0,0,1,.26-.33c.14,0,.38.17.38.28S38.36,23,38.22,23Z"/><path class="cls-2" d="M35.48,31c.09.11.18.19.25.29a.24.24,0,0,1,0,.36c-.15.13-.29,0-.42-.06s-.11-.2,0-.32S35.39,31.12,35.48,31Z"/><path class="cls-2" d="M13,28.11c.19,0,.3.1.3.26s-.19.36-.31.36-.28-.23-.28-.38S12.8,28.11,13,28.11Z"/><path class="cls-2" d="M52.69,36.61c.2,0,.39.16.33.29a.67.67,0,0,1-.33.29c-.11.05-.3-.21-.29-.37S52.56,36.61,52.69,36.61Z"/><path class="cls-2" d="M35.74,17.88c0-.13.07-.29.25-.24a.52.52,0,0,1,.35.27c.06.15-.15.29-.34.28S35.73,18.09,35.74,17.88Z"/><path class="cls-2" d="M32.77,23.67c0-.19.1-.3.26-.3s.37.19.32.3a.61.61,0,0,1-.28.31C32.91,24,32.76,23.84,32.77,23.67Z"/><path class="cls-2" d="M49.36,32.66l-.26.25a.19.19,0,0,1-.28,0c-.1-.08-.22-.18-.13-.32a.47.47,0,0,1,.28-.22c.07,0,.17.11.26.17Z"/><path class="cls-2" d="M28.59,16.61c0,.2-.07.29-.26.28s-.35-.11-.3-.24a.74.74,0,0,1,.29-.36C28.44,16.23,28.59,16.43,28.59,16.61Z"/><path class="cls-2" d="M60.92,22.51a.22.22,0,0,1-.26.22c-.14,0-.35-.18-.3-.29a.79.79,0,0,1,.3-.35C60.73,22.05,60.93,22.34,60.92,22.51Z"/><path class="cls-2" d="M61.19,18.45a.23.23,0,0,1,.22.24c0,.14-.24.45-.32.4a.77.77,0,0,1-.26-.33C60.79,18.64,61,18.46,61.19,18.45Z"/><path class="cls-2" d="M35.33,23.56c.24-.29.42-.36.59-.23a.27.27,0,0,1,0,.4C35.75,23.91,35.67,23.89,35.33,23.56Z"/><path class="cls-2" d="M20.83,28a.21.21,0,0,1-.24.22c-.14,0-.35-.2-.31-.32a.63.63,0,0,1,.26-.32C20.63,27.55,20.83,27.82,20.83,28Z"/><path class="cls-2" d="M33.45,13.11l-.22.19a.22.22,0,0,1-.37,0,.31.31,0,0,1,0-.41.27.27,0,0,1,.39,0Z"/><path class="cls-2" d="M42.9,20.67a1.47,1.47,0,0,1-.24-.29.25.25,0,0,1,.09-.36c.15-.11.28,0,.39.1s.08.22,0,.32S43,20.58,42.9,20.67Z"/><path class="cls-2" d="M57.93,17.34c.18,0,.44.2.39.29a.74.74,0,0,1-.31.27c-.13,0-.32-.19-.31-.34A.21.21,0,0,1,57.93,17.34Z"/><path class="cls-2" d="M15.19,23.37c.13,0,.36.18.36.28a.32.32,0,0,1-.26.3.4.4,0,0,1-.36-.32A.26.26,0,0,1,15.19,23.37Z"/><path class="cls-2" d="M20.49,30.35a2,2,0,0,1-.44.28c-.06,0-.24-.15-.24-.23a.41.41,0,0,1,.19-.33C20.22,30,20.31,30.2,20.49,30.35Z"/><path class="cls-2" d="M26.93,26c-.18-.06-.28-.12-.28-.28s.18-.37.28-.33a1.54,1.54,0,0,1,.34.29Z"/><path class="cls-2" d="M48.53,26.41l-.29.19a.27.27,0,0,1-.4-.1c-.11-.15,0-.24.09-.34a.22.22,0,0,1,.35,0A3,3,0,0,0,48.53,26.41Z"/><path class="cls-2" d="M52,25.42c0,.11,0,.26-.2.27s-.39-.16-.35-.27a.62.62,0,0,1,.27-.34C51.9,25,52,25.21,52,25.42Z"/><path class="cls-2" d="M43.51,35.72c.13.14.35.2.27.41s-.19.19-.29.28c-.09-.1-.22-.18-.25-.3S43.41,35.86,43.51,35.72Z"/><path class="cls-2" d="M29.11,21.75a1.56,1.56,0,0,1-.36.23c-.12,0-.3-.16-.29-.26s.19-.34.29-.3a2.49,2.49,0,0,1,.37.23Z"/><path class="cls-2" d="M29.7,16c0-.22.22-.53.29-.48a.71.71,0,0,1,.25.34c0,.11-.19.32-.33.29S29.75,16.06,29.7,16Z"/><path class="cls-2" d="M57.08,20.91c-.15.12-.24.24-.36.28s-.33-.19-.29-.28a1.65,1.65,0,0,1,.31-.34Z"/><path class="cls-2" d="M22.25,20.77a1.4,1.4,0,0,1-.22-.44c0-.06.18-.21.29-.22a.35.35,0,0,1,.22.26c0,.13-.12.26-.19.4Z"/><path class="cls-2" d="M53.75,19.32c-.12,0-.26,0-.27-.22s.2-.38.3-.33a.51.51,0,0,1,.29.27C54.11,19.18,53.94,19.32,53.75,19.32Z"/><path class="cls-2" d="M54.57,13.56a.2.2,0,0,1-.22-.22c0-.14.2-.38.3-.33a.7.7,0,0,1,.3.29C55,13.38,54.74,13.56,54.57,13.56Z"/><path class="cls-2" d="M27.53,20.57l-.33.31a1.33,1.33,0,0,1-.25-.35c0-.11.21-.29.35-.28S27.48,20.39,27.53,20.57Z"/><path class="cls-2" d="M63.3,28.15s-.11.14-.2.16-.39-.21-.34-.31a.7.7,0,0,1,.3-.29C63.13,27.66,63.3,27.92,63.3,28.15Z"/><path class="cls-2" d="M12.27,23.12c-.1.08-.23.25-.28.23s-.23-.19-.35-.3a1.32,1.32,0,0,1,.3-.24C12.05,22.77,12.23,23,12.27,23.12Z"/><path class="cls-2" d="M26.31,11.76c.3-.36.36-.36.67,0C26.65,12.1,26.59,12.1,26.31,11.76Z"/><path class="cls-2" d="M45.66,11.2c.24-.31.3-.32.54-.11s.09.17,0,.27S45.92,11.53,45.66,11.2Z"/><path class="cls-2" d="M29.8,28.18c-.14.1-.24.24-.32.23s-.27-.15-.27-.24.16-.28.24-.27S29.65,28.05,29.8,28.18Z"/><path class="cls-2" d="M35.66,33.8c.22-.3.26-.3.64,0C36,34.18,35.93,34.13,35.66,33.8Z"/><path class="cls-2" d="M45.34,17.51c-.27-.22-.26-.27,0-.6C45.69,17.24,45.68,17.28,45.34,17.51Z"/><path class="cls-2" d="M30.08,23.5l-.18.16a.15.15,0,0,1-.26,0,.33.33,0,0,1-.06-.23c.05-.13.16-.13.27-.06Z"/><path class="cls-2" d="M39.29,33.18c.13.22.12.37,0,.42a.27.27,0,0,1-.23-.09C39,33.43,39.1,33.26,39.29,33.18Z"/><path class="cls-2" d="M62.3,32.24c-.11.08-.16.31-.35.17s-.09-.17,0-.26S62.18,32.21,62.3,32.24Z"/><path class="cls-2" d="M52,30.68c-.19.07-.29.27-.46.1a.25.25,0,0,1,0-.22C51.74,30.38,51.81,30.63,52,30.68Z"/><path class="cls-2" d="M40.33,21.37c-.23-.25-.23-.25,0-.45C40.57,21,40.57,21.07,40.33,21.37Z"/><path class="cls-2" d="M51.26,26.85c-.25.22-.28.22-.45,0C50.94,26.6,51.06,26.6,51.26,26.85Z"/><path class="cls-2" d="M16.11,28.11c-.05-.18-.3-.22-.13-.42s.17-.07.25,0S16.16,27.94,16.11,28.11Z"/><path class="cls-2" d="M26,34.29c.06.17.29.22.12.4s-.16.11-.24,0S25.9,34.46,26,34.29Z"/><path class="cls-2" d="M39.72,40c-.2.23-.25.24-.43.06C39.4,39.81,39.47,39.8,39.72,40Z"/><path class="cls-2" d="M30.94,34.62c-.26.2-.28.2-.43,0C30.66,34.35,30.71,34.36,30.94,34.62Z"/><path class="cls-2" d="M20.06,33.05c.15-.23.17-.23.45,0C20.34,33.23,20.24,33.24,20.06,33.05Z"/><path class="cls-2" d="M58.52,38.61c-.23-.15-.23-.21,0-.47C58.7,38.39,58.71,38.42,58.52,38.61Z"/><path class="cls-2" d="M50.37,34.29c.19.24.19.27,0,.44C50.13,34.56,50.13,34.53,50.37,34.29Z"/><path class="cls-2" d="M17.36,21.46c-.06.13-.14.25-.3.19s-.11-.17-.08-.21S17.23,21.37,17.36,21.46Z"/><path class="cls-2" d="M39.84,36.76c-.24.26-.28.26-.44,0C39.53,36.57,39.55,36.57,39.84,36.76Z"/><path class="cls-2" d="M20.24,20.41c-.21.2-.26.2-.41,0C20,20.16,20,20.16,20.24,20.41Z"/><path class="cls-2" d="M30.73,36.73c.14-.25.18-.25.41,0C31,36.92,30.9,36.93,30.73,36.73Z"/><path class="cls-2" d="M43.93,37.77c-.1-.13-.26-.2-.13-.36a.2.2,0,0,1,.21,0C44.19,37.54,44,37.62,43.93,37.77Z"/><path class="cls-2" d="M21.34,36.83l.14.18a1.1,1.1,0,0,0,.09.14c-.09.14-.19.18-.32.06S21.32,37,21.34,36.83Z"/><path class="cls-2" d="M50.16,20c-.2-.23-.2-.24,0-.41C50.41,19.67,50.43,19.83,50.16,20Z"/><path class="cls-2" d="M45.52,21.31c.18-.21.21-.2.41,0C45.7,21.56,45.66,21.56,45.52,21.31Z"/><path class="cls-2" d="M13.77,26.64l-.2-.28c.09-.09.15-.23.29-.1S13.84,26.5,13.77,26.64Z"/><path class="cls-2" d="M40.58,20.35c-.08-.13-.28-.19-.13-.36a.24.24,0,0,1,.22,0C40.83,20.13,40.65,20.22,40.58,20.35Z"/><path class="cls-2" d="M28.82,39.07c-.06-.12-.24-.18-.1-.33a.15.15,0,0,1,.25,0C29.1,38.92,28.91,39,28.82,39.07Z"/><path class="cls-2" d="M56.59,16.07c.13.08.27.14.2.31a.19.19,0,0,1-.17.06C56.45,16.35,56.48,16.22,56.59,16.07Z"/><path class="cls-2" d="M27.89,21.1c-.11.09-.16.28-.34.16s-.07-.18,0-.25S27.76,21.06,27.89,21.1Z"/><path class="cls-2" d="M54.84,35c.19-.23.2-.23.41,0C55,35.21,55,35.21,54.84,35Z"/><path class="cls-2" d="M31.35,24.32c-.23-.17-.23-.19-.05-.39C31.56,24.11,31.57,24.15,31.35,24.32Z"/><path class="cls-2" d="M24.19,27.24c-.06-.14-.28-.2-.13-.36s.22,0,.33.1Z"/><path class="cls-2" d="M60,27.48l-.2-.17.19-.23C60.22,27.24,60.22,27.26,60,27.48Z"/><path class="cls-2" d="M23.46,23.07c-.22.23-.25.23-.41,0C23.21,22.86,23.24,22.86,23.46,23.07Z"/><path class="cls-2" d="M52.26,24.83c-.09-.11-.26-.17-.11-.33s.21,0,.31.1Z"/><path class="cls-2" d="M38,36.76l-.18.25c-.07-.12-.28-.16-.14-.33S37.87,36.68,38,36.76Z"/><path class="cls-2" d="M41.72,23c.09.14.28.19.13.34a.21.21,0,0,1-.2,0C41.48,23.2,41.68,23.13,41.72,23Z"/><path class="cls-2" d="M44.78,29.42c.23.21.23.23.07.39C44.6,29.69,44.59,29.66,44.78,29.42Z"/><path class="cls-2" d="M56.17,22.46c-.21-.15-.21-.2,0-.38C56.36,22.29,56.35,22.33,56.17,22.46Z"/><path class="cls-2" d="M56.75,34.63c-.19-.18-.19-.19,0-.35C57,34.45,57,34.48,56.75,34.63Z"/><path class="cls-2" d="M46.27,13.13c0,.09.24.14.11.29s-.14,0-.22,0l0-.31Z"/><path class="cls-2" d="M28.3,26.16c-.2.19-.23.2-.39,0C28,26,28.08,26,28.3,26.16Z"/><path class="cls-2" d="M65.44,30.42c.06.16.22.26.06.39s-.15,0-.18-.06S65.37,30.55,65.44,30.42Z"/><path class="cls-2" d="M65.91,22.22l-.24.16c-.1-.09-.19-.19-.06-.29S65.81,22.14,65.91,22.22Z"/><path class="cls-2" d="M43.68,24c-.14.16-.27.19-.37,0C43.47,23.79,43.49,23.79,43.68,24Z"/><path class="cls-2" d="M56.19,15.1l.24.27c-.13.09-.23.12-.33,0S56.12,15.19,56.19,15.1Z"/><path class="cls-2" d="M49.3,15.72c0-.12-.2-.21,0-.31s.2.07.29.15Z"/><path class="cls-2" d="M45.45,14.82c.16-.2.2-.2.41,0C45.64,15,45.64,15,45.45,14.82Z"/><path class="cls-2" d="M52.27,13.11c.21.2.21.21,0,.37C52.08,13.37,52.08,13.34,52.27,13.11Z"/><path class="cls-2" d="M39.14,18.81c.19.14.19.16,0,.36C39,19,38.94,19,39.14,18.81Z"/><path class="cls-2" d="M62.64,23.24c-.19.2-.22.2-.36,0C62.42,23,62.44,23,62.64,23.24Z"/><path class="cls-2" d="M64.26,21.7c-.2-.2-.2-.21,0-.36C64.45,21.47,64.45,21.5,64.26,21.7Z"/><path class="cls-2" d="M56.38,25.58l-.18.2L56,25.59C56.14,25.38,56.18,25.38,56.38,25.58Z"/><path class="cls-2" d="M40.61,14.42c.06.09.23.15.09.29s-.13,0-.19,0v-.3Z"/><path class="cls-2" d="M43.12,11.92c.07.1.24.16.09.3a.22.22,0,0,1-.17,0C42.88,12.1,43.07,12,43.12,11.92Z"/><path class="cls-2" d="M19.05,18.28c-.22.2-.23.2-.35,0C18.85,18.11,18.86,18.11,19.05,18.28Z"/><path class="cls-2" d="M47.53,19.24c.14-.18.16-.18.37,0C47.72,19.4,47.67,19.4,47.53,19.24Z"/><path class="cls-2" d="M55.73,23.66c.13-.18.23-.09.32,0C55.89,23.89,55.86,23.89,55.73,23.66Z"/></g></g></svg>