<svg xmlns="http://www.w3.org/2000/svg" viewBox="0 0 141.25 218.67"><defs><style>.cls-1{fill:none;}</style></defs><g id="Layer_2" data-name="Layer 2"><g id="Layer_1-2" data-name="Layer 1"><path d="M91.52,203.15c-.65,0-1.25,0-1.84,0-1.13-.06-1.63-.62-1.23-1.64a43.5,43.5,0,0,1,2.78-6.18,9.72,9.72,0,0,1,3-2.83c.93-.63,1-1.1.46-2-3.16-4.89-6.2-9.86-9.43-14.7-3.11-4.63-5.39-9.68-7.86-14.63-2.68-5.39-5.74-10.58-7.7-16.31a11.19,11.19,0,0,0-1.39-2.5c-.79-1.21-1.2-1.24-2.22-.23A5.66,5.66,0,0,1,61.36,144a3.87,3.87,0,0,1-3.17-2.06c-1.37-2.52-2.89-5-4-7.6a14.94,14.94,0,0,1-.88-4.87,2.64,2.64,0,0,0-1.63-2.64,6.2,6.2,0,0,1-4.06-5.34,50.88,50.88,0,0,1-.14-6.3,4.46,4.46,0,0,1,.52-1.7c.63-1.39.58-1.67-.91-2.1s-2.87-1-3.65-2.44a2.85,2.85,0,0,1-.47-1c-.32-3.46-1.55-6.83-.65-10.43.31-1.24-.2-2.74-.53-4.08-.52-2.2-1.35-4.34-1.78-6.55-.69-3.57,2.21-8.2,5.62-9.33a5.44,5.44,0,0,0,3.26-5.87,2.43,2.43,0,0,0-2.15-1.82c-.7-.11-1.43-.13-2.14-.18-1.67-.11-2.23-.65-2.13-2.34s.49-3.33.47-5a16.69,16.69,0,0,0-.72-4.55,6,6,0,0,1-.11-4.19c.37-1,.74-1.93,1.14-2.88a3.08,3.08,0,0,1,2.46-2c1.12-.18,1.41-.89.82-1.93-.88-1.53-1.17-3.44-2.84-4.48a.84.84,0,0,1-.27-.51c-.52-2.53-1.18-5-1.51-7.6a11.87,11.87,0,0,1,2-8.07c1.35-2.08,3.52-2,5.6-1.67a15.53,15.53,0,0,1,3.93,1.36,5.43,5.43,0,0,0,4.48.15,28.08,28.08,0,0,1,3.8-.76A19.49,19.49,0,0,0,66.41,24c3-1.53,5.89-3.32,8.76-5.12,1.91-1.19,5.66-.76,7,1a2.84,2.84,0,0,1,.6,1.63,9.93,9.93,0,0,0,1.52,5.09c1.32,2.44,2.49,5,2.2,7.82a11.2,11.2,0,0,1-1.23,4.67c-1.59,2.52-1.45,5-.84,7.7a9.49,9.49,0,0,0,3.21,5.72,2.06,2.06,0,0,0,1.57.31c2-.51,3.56-.17,4.77,1.52a20.88,20.88,0,0,1,4.18,14.15,4.35,4.35,0,0,1-2.49,3.7c-.68.35-1.23.77-1.06,1.65a1.64,1.64,0,0,0,1.64,1.47,16.2,16.2,0,0,0,3.55-.15c3.64-.69,5.85.87,5.6,4.58A82.93,82.93,0,0,1,103.72,92c-1,4.24-2.83,5.19-7.12,4.43a6.16,6.16,0,0,0-1.54-.12c-.81.08-1.45.63-1.34,1.41a17.3,17.3,0,0,0,1.09,4.95c.92,2,2.9,2.46,5,2.38.28,0,.56-.07.83-.07,2.19,0,2.7.18,2.95,2.35.39,3.35.53,6.74.7,10.11a43.26,43.26,0,0,1-.07,4.41,4.42,4.42,0,0,1-.44,1.48c-.91,2-1.44,2.18-3.34,1.12a2.43,2.43,0,0,0-3.39.65,15.42,15.42,0,0,0-3.39,9.5c-.2,4.1-.55,8.2-.93,12.29-.28,2.91.45,5.7.79,8.54.5,4.19,1.25,8.33,1.06,12.62-.12,2.81.73,5.66,1.12,8.5.3,2.25.57,4.51.83,6.77a1.56,1.56,0,0,1-1.17,1.93c-.69.21-.71.68-.26,1.19,1.08,1.22,2.09,2.53,3.28,3.64a5.79,5.79,0,0,0,2.33,1.11c2,.55,4.14.88,6.14,1.51a13.71,13.71,0,0,1,3.65,1.87,2,2,0,0,1,.51,2.52,2.23,2.23,0,0,1-2.07,1.67c-.56,0-1.25.78-1.58,1.37-1,1.73-1.24,1.87-3.14,1.27a1.74,1.74,0,0,0-1.26.35c-1.83,1.3-3.12,1.19-4.57-.47-.46-.53-1-.85-1.47-.17A5.61,5.61,0,0,1,91.52,203.15Z"/><rect class="cls-1" width="141.25" height="218.67"/></g></g></svg>