<?xml version="1.0" encoding="UTF-8" standalone="no"?>
<!-- Created with Inkscape (http://www.inkscape.org/) -->

<svg
   version="1.1"
   width="528.73932"
   height="222.25638"
   viewBox="0 0 528.73933 222.25638"
   id="svg2"
   xml:space="preserve"
   xmlns="http://www.w3.org/2000/svg"
   xmlns:svg="http://www.w3.org/2000/svg"><defs
   id="defs137" />
<style
   type="text/css"
   id="style4" />
<g
   id="Labels"
   transform="translate(-3.3671573,-5.1526425)">
</g>
<g
   id="Layer_8"
   transform="translate(-3.3671573,-5.1526425)">
</g>
<g
   id="Layer_5"
   transform="translate(-3.3671573,-5.1526425)">
</g>
<g
   id="Layer_4"
   transform="translate(-3.3671573,-5.1526425)">
</g>
<g
   id="Layer_6"
   transform="translate(-3.3671573,-5.1526425)">
</g>
<g
   id="Layer_3"
   transform="translate(-3.3671573,-5.1526425)">
</g>
<g
   id="Layer_7"
   transform="translate(-3.3671573,-5.1526425)">
	<g
   id="g13">
		<path
   d="m 303,61.1 c 1.8,-1.3 3.5,-2.7 3.8,-2.9 1.5,-1.3 1.9,-1.8 4.5,-4.3 1.4,-1.3 2.4,-2.2 3.2,-2.9 1.5,-1.4 3.6,-3.3 5.4,-4.8 3,-2.5 5.6,-4.1 8,-5.5 5.2,-3.1 9.3,-4.9 12.5,-6.3 5.3,-2.2 8,-3.4 8.7,-2.6 1.1,1.3 -3,5.4 -8,15.8 -0.6,1.3 -2.1,4.4 -3.4,8.6 -2.1,6.6 -2,9.6 -1.8,11.3 0.5,3.5 2.2,4.2 1.7,5.3 -1.6,3.3 -15.2,-0.1 -20.9,-1.5 -10.3,-2.5 -11.9,-4.4 -18.8,-4.5 -1.1,0 -4,0 -4.2,-0.7 -0.2,-0.7 4.1,-1.4 9.3,-5 z"
   id="path15" />
		<path
   d="m 158.2,64.1 c -0.3,-1.3 2.1,-2.4 4.9,-6.7 1.3,-2 1.8,-3.3 2.8,-5.6 2.9,-6.4 5.8,-11.5 8.1,-15.3 1.4,-2.4 3.5,-6 6.8,-10.5 2.6,-3.6 7.4,-9.6 14.5,-15.5 3.4,-2.9 7.2,-5.6 7.8,-5.1 0.1,0.1 0,0.4 -0.4,1.6 -0.6,1.8 -0.9,2.7 -1,3.7 -0.1,0.9 -0.3,2.7 0.8,3.7 0.7,0.7 1.4,0.5 1.8,1.3 0.3,0.6 0,1 -0.3,1.9 -0.4,1.8 0,3.1 0.8,5.6 0.2,0.6 0.4,1 0.8,1.2 0.8,0.3 1.6,-0.7 2,-0.4 0.3,0.2 0,0.9 -0.1,2.1 -0.1,1.6 0.3,2.9 0.6,3.6 0.4,1.3 0.7,1.9 1.3,2.3 1.3,0.9 3,-0.1 3.7,0.7 0.3,0.4 0.1,0.6 0.2,1.5 0,0.2 0.2,1.8 1.3,3.1 0.9,1.1 2.6,2.1 4.3,2 1.1,-0.1 1.9,-0.7 2.3,-0.3 0.3,0.3 -0.2,0.9 0.1,1.9 0.1,0.5 0.3,0.8 0.5,1 0.4,0.6 1,1.1 3.3,2.1 1.7,0.7 2.6,1.1 3.3,1 1.2,-0.1 2.1,-0.9 2.3,-0.6 0.2,0.2 -0.4,0.7 -0.3,1.4 0.1,0.4 0.5,0.9 2.1,1.6 2.1,0.9 3.2,1.4 4.2,1.3 1.7,-0.3 2.6,-1.7 3.1,-1.3 0.3,0.2 -0.1,0.9 0.3,1.6 0.1,0.3 0.5,0.9 2.8,1.6 2.5,0.8 3.7,1.2 5.1,0.8 1.2,-0.4 1.7,-1 2.6,-0.8 0.5,0.2 0.6,0.5 1.3,1.1 0.8,0.7 1.7,1 2.6,1.3 0.7,0.2 1.9,0.6 3.4,0.4 2.3,-0.2 3.1,-1.5 4.2,-1 0.7,0.3 0.5,1 1.3,1.9 1.2,1.5 3.2,1.8 4.3,1.9 2.6,0.4 3.3,-0.6 5.3,0 1.5,0.4 2.4,1.4 2.9,1.8 4.8,4.4 14,3.4 14.3,5.5 0.2,1.6 -4.7,3.5 -5.1,3.7 -14.3,5.5 -28.4,3.3 -28.4,3.3 -23.6,-3.6 -66.7,-5 -85.4,-4 -0.5,-0.3 -12.4,0.4 -13.1,-2.4 z"
   id="path17" />
		<path
   d="m 340.2,79.5 c 0.7,-0.3 10.8,-5.2 10.8,-5.2 l 1.3,-0.5 1.1,0.5 2.5,3.1 4.1,7.4 3.1,0.7 6.8,-3.9 h 1.5 l 1.3,1.8 1.4,2.4 1.7,5.5 3,1.1 4.7,-2.7 2.5,-1.1 1.3,0.6 2.5,3.2 2,5.8 2.7,0.9 5.6,-2.8 1.5,-0.4 0.9,0.4 0.7,0.8 4.4,8.5 6.3,-3.5 2.3,-0.6 0.8,0.4 0.9,1.3 2.1,5.9 3.2,0.6 2.9,-2.6 1.7,-1 1.5,-0.2 1.2,0.4 1.5,2.1 1.3,4.2 h 3.1 l 4.5,-3.2 0.7,-0.3 0.8,0.9 3.3,5.4 h 3.4 l 3.3,-2.4 2.1,-1 1,0.1 1.1,0.7 1.9,3.8 -27.3,2.2 -46.2,-4.9 -48.9,-26.1 4,-7.8 z"
   id="path19" />
		<polygon
   points="453,129.8 451,129.8 446.3,127.1 443.7,126.3 438.7,132.2 438,132.2 434.8,131.1 430.7,128.7 429.1,129.1 425.6,136.5 424.7,136.5 415.9,133.4 413.5,134.6 412,142.8 411,143.3 401.1,140.9 401.8,142 398.2,149.9 397.2,150.6 389.2,147.4 385.7,147.8 384.2,157.4 383.2,157.8 382.4,157.8 371.6,153.1 371.2,154.5 367.8,163.6 366.8,164 356.1,159 356.7,160.4 351.6,170.2 350.1,170.2 348.2,170.2 337.7,164.7 362.1,149.2 404.3,135.1 444.3,120.9 454.1,121.3 457.7,123.1 "
   id="polygon21" />
		<path
   d="m 286.5,177.5 c 0.3,1 4.7,-0.8 11.9,0.8 3.4,0.7 6,1.9 7.8,2.8 2.6,1.2 5.5,2.5 8.4,5.3 0.8,0.8 2,2.3 4.4,5.3 3.3,4.2 4,5.2 6.1,7.9 3.3,4.1 4.9,6.1 7,8.1 0,0 4.1,3.8 9,5.6 1.3,0.5 2.6,0.5 2.8,0.5 0.7,0 1.1,0 1.3,-0.1 0.8,-0.8 -1.9,-4.3 -4.1,-8.8 -2,-4 -3,-7.4 -4.1,-11.5 -0.8,-2.7 -1.5,-5.4 -2,-9.1 -0.3,-2.7 -0.8,-6.1 -0.2,-8.2 0.1,-0.2 0.4,-1.4 0.4,-2.9 0,-0.5 0,-1 -0.1,-1.4 -0.5,-1.9 -4.2,-2.5 -5.2,-2.7 -17.3,-2.8 -24.8,-0.9 -24.8,-0.9 -10.6,2.3 -19.1,7.9 -18.6,9.3 z"
   id="path23" />
		<path
   d="m 158,178.3 c -0.9,1.4 0.6,4.4 2.6,6.1 0.9,0.8 1.3,0.7 2.2,1.3 2.2,1.7 2.7,4.5 3.1,6.4 0.4,1.8 1.8,5.3 4.8,12.3 0.6,1.5 2.2,5.1 4.3,9 0,0 5.1,10.3 9.6,13 0.3,0.2 1,0.5 1.9,0.8 0.7,0.2 1,0.3 1.3,0.1 0.5,-0.4 0,-1.7 -0.3,-2.7 -0.3,-1.3 -0.2,-2.3 0.7,-5.8 1.5,-6.4 2.2,-9.6 3.3,-12.6 1.7,-4.6 2.5,-6.9 3,-7.8 1.1,-1.9 2.2,-3.4 1.7,-4.9 -0.2,-0.6 -1,-1.1 -2.4,-2.1 -1.2,-0.8 -2.6,-1.7 -4.6,-2.3 -0.9,-0.2 -1.4,-0.2 -1.4,-0.4 -0.1,-0.8 7.2,-1.5 7.5,-3.6 0.3,-2.1 -6.7,-4.9 -11.2,-6.2 -5.7,-1.6 -5.1,-0.2 -20.2,-1.5 -2.7,-0.1 -5.1,-0.4 -5.9,0.9 z"
   id="path25" />
		<path
   d="m 187.7,188.7 c -1.2,-0.9 -0.1,-2.8 -0.8,-4.3 -0.9,-2 -4.6,-2.2 -12.1,-2.7 -1.6,-0.1 -3.5,0.1 -7.4,0.4 -2,0.2 -3.2,0.3 -3.4,1 -0.4,0.9 1,1.8 2.1,3.9 1.1,2.1 1,3.7 1.3,5.3 0.2,1.6 0.5,2.1 3.9,9.9 2.7,6.2 3.4,7.8 5.1,11.4 0,0 1.5,3.2 4,7.1 0.9,1.5 2,3.1 4,4.5 0.2,0.1 1.1,0.6 2.3,1.3 0.4,0.3 0.8,0.8 1,0.7 0.2,-0.1 0.2,-0.5 0.2,-0.7 0,-0.6 -0.2,-0.9 -0.3,-1.4 0,0 -0.1,-0.3 -0.3,-1.5 -0.2,-1.3 0.2,-2.5 0.4,-3 0.9,-2.7 0.4,-3.4 2.4,-10 1.1,-3.9 1.4,-3.9 3,-8.8 0.5,-1.4 0.7,-2.3 1.4,-3.4 0.2,-0.3 0.6,-0.9 1,-1.8 0.7,-1.3 0.8,-1.7 0.8,-2 0,-1 -0.5,-1.7 -0.7,-1.9 -0.3,-0.3 -0.5,-0.5 -1.1,-0.9 -2,-1.2 -1.6,-1.2 -2.5,-1.6 -0.4,-0.2 -1.3,-0.7 -2.4,-1 -1.4,-0.3 -1.6,-0.2 -1.9,-0.5 z"
   id="path27" />
		<path
   d="m 302.4,177.6 c 0.2,1.3 3.7,0.8 9.3,4.5 2.2,1.5 3.6,2.9 5.1,4.4 5.2,5.2 5.4,7.5 10.6,13.9 3.8,4.7 5.9,7.2 8.9,8.8 2.2,1.1 5.5,2 7.8,3.9 0.2,0.1 0.8,0.7 1,0.5 0.2,-0.1 0.2,-0.6 -1,-3.1 -1.3,-2.8 -2.5,-4.6 -3.1,-5.6 -1,-1.6 -1.6,-3.5 -2.9,-7.2 -1.5,-4.6 -2.4,-8.1 -2.8,-10.6 -1,-6.7 -1,-8.4 -0.9,-8.9 0.2,-1.1 0.4,-1.9 0.6,-3.5 0.2,-1.2 0.2,-1.7 0.1,-2.3 0,0 -0.2,-1.4 -1.1,-2.6 -2.4,-3.6 -32.3,3.8 -31.6,7.8 z"
   id="path29" />
		<path
   d="m 296,64.9 c 2,-0.7 3.4,-1.6 4.8,-2.4 1.1,-0.6 1.8,-1.1 2.3,-1.4 1.5,-1 2.8,-2.1 4.5,-3.6 2,-1.7 2.5,-2.4 4.5,-4.3 0.7,-0.7 2.9,-2.7 5.3,-4.8 1.5,-1.3 4.1,-3.5 7.5,-5.8 3.1,-2.1 5.4,-3.3 9,-5.2 6.2,-3.2 10,-4.6 11.6,-5 0.1,0 2.8,-0.8 2.8,-0.8 v 0 c 0,0 0.8,0.1 0.8,0.2 0.1,0.4 -3.4,1.7 -3.4,1.7 0,0 -4.6,1.6 -12.3,5.2 -1.4,0.7 -0.8,0.5 -11.5,8.3 -3.9,2.8 -7.6,5.5 -11,9.9 -1.4,1.8 -2.3,3.4 -2.5,5.4 -0.3,3.3 1.8,4.8 1.1,6 -1.7,2.7 -14.7,-1.8 -14.5,-3.1 0,0 0.1,0 1,-0.3 z"
   id="path31" />
		<path
   d="m 159.7,61.7 c 0.4,-0.4 1.1,-1.1 1.7,-2 0.2,-0.3 0.4,-0.6 1.4,-2.1 0.8,-1.3 1.2,-2 1.5,-2.5 0.6,-1.1 0.9,-1.8 1.5,-3.3 0,0 0.9,-2.2 2.1,-4.5 0.3,-0.5 0.9,-1.8 2.6,-5 1.3,-2.3 2.5,-4.5 4.1,-7.1 1.8,-3 4,-6.6 7.2,-10.8 3.6,-4.7 6.7,-7.9 7.5,-8.6 1.2,-1.2 3.3,-3.3 6.3,-5.7 7.7,-6.3 2.4,-1.6 4.5,-3.4 0.6,-0.6 2,-1.8 2.8,-1.5 0.1,0 0.3,0.1 0.3,0.3 0,0.3 -0.8,0.6 -1,0.6 -1.4,0.5 -4.4,3 -6.9,5.1 -4.1,3.5 -7.6,7.6 -8.9,9.1 -3.6,4.3 -5.9,7.8 -9.9,14.1 -2.7,4.3 -4.3,6.9 -5.8,9.5 -4.6,8.3 -4.7,10.6 -4.6,12 0.1,2.1 0.8,3.5 -0.1,4.8 -1.2,1.4 -4,1.3 -6.3,1 z"
   id="path33" />
		<path
   d="m 8.5,111.1 c 0,-0.1 -0.1,-0.5 0,-0.9 0.4,-1.3 7,-3.9 7.6,-4.1 4.7,-1.8 13.6,-6.4 25.4,-11.5 0.3,-0.1 1.7,-0.7 3.6,-1.4 0,0 0.7,-0.3 1.4,-0.6 7.6,-3.2 12.9,-6 14,-6.5 10.5,-5.4 34.4,-12.5 36,-13 6.7,-2 30.5,-8.8 65,-13 45.3,-5.5 79.8,-3.3 89.5,-2.5 16.7,1.3 30.8,3.5 39.5,4.8 2.9,0.4 4.7,0.7 8.3,1.3 0,0 0.7,0.1 1.3,0.2 19.5,3.2 29,6.2 29,6.2 1.2,0.4 2.2,0.7 2.8,0.9 4,1.4 8.1,3.5 35.2,14.6 9,3.7 18,7.3 27,11 18,7.5 21.6,9.3 30.5,12 11.2,3.4 9.1,1.7 24.5,5.5 1.5,0.4 5,1.2 9.5,1 2.3,-0.1 5.7,-0.3 9,-2 4,-2.1 5.4,-5.2 9,-11 2.8,-4.6 6.2,-8.9 9,-13.5 7.3,-11.8 10.9,-17.7 15.5,-23.5 0,0 10,-12.6 30,-25.5 0.2,-0.2 0.9,-0.6 1,-0.5 0.2,0.3 -4.3,4.2 -4.7,4.6 -7.8,7 -13.2,22.4 -23,45.3 -1.9,4.5 -2.8,9.3 -4.3,13.9 -1.1,3.1 -2,5.6 -1,8.3 0.6,1.5 1.5,2.4 1.6,4.3 0,1.4 0.1,2.8 -0.8,4.2 -0.3,0.5 -0.7,1 -0.6,1.7 0.1,0.6 0.6,0.8 0.9,1.2 1.1,1.2 0.8,3.3 0.6,5.2 -0.2,1.7 -0.5,1.8 -0.9,3.7 -0.4,2 -0.5,3.5 -0.5,5 -0.1,6 1.8,15.3 1.8,15.3 1.5,7.3 3,12.8 3.7,15.5 1.4,5.4 2.7,9.5 4.3,14 0,0 2.4,6.8 4.8,10.1 0.1,0.2 0.9,1.3 2,2.8 1.1,1.6 1.7,1.9 1.5,2.3 -0.2,0.3 -0.9,0.3 -1.2,0.3 -4.2,-0.4 -10,-9.2 -10,-9.2 -5.8,-8.8 -5,-5 -12.1,-15.5 -7.1,-10.5 -12,-20.4 -12.8,-21.9 -1.4,-2.9 -2.7,-5.7 -5.2,-9.8 -5.5,-9.4 -8.5,-11.2 -10,-11.9 -3,-1.5 -5.7,-1.5 -9.9,-1.3 -11.6,0.6 -17.5,0.9 -24,2.7 -14.8,4 -17.9,8.3 -38.8,17.5 -9.3,4.1 -7.1,2.5 -31.7,12.3 -19.2,7.6 -20.2,8.5 -27.7,11.2 -16.1,5.9 -28.8,8.3 -42.7,11 -12.1,2.3 -34.2,6.5 -63.8,7 -30.6,0.6 -54.8,-3 -67.8,-5.3 -13.3,-2.4 -24.6,-5.2 -38.8,-8.8 -19.8,-5 -34.6,-9.5 -39.5,-11 -17.2,-5.3 -30,-9.1 -43.5,-14.8 -10.5,-4.5 -11.3,-5.8 -19.6,-9.3 -3.7,-1.5 -6.9,-4.2 -10.6,-5.8 0,0 -1.9,-0.8 -3.7,-2.9 -0.7,-0.9 -0.8,-1.2 -0.7,-1.4 0.3,-0.5 1.6,-0.2 2.9,0 2,0.3 4,0.4 5.9,0.8 3.4,0.6 5.1,0.8 7.2,0.8 2.2,0 2.1,-0.2 5.5,-0.2 1.7,0 2.6,0.1 4.6,0 1.6,-0.1 1.7,-0.1 2.6,-0.1 2.3,0.1 3.3,0.5 3.5,0.1 0.2,-0.3 -0.3,-0.9 -1.6,-2.2 -2.1,-2.1 -3.1,-2.9 -5,-4.7 -1.4,-1.3 -1.9,-1.9 -3.2,-2.8 -0.2,-0.2 -0.4,-0.3 -0.6,-0.5 0,0 -0.7,-0.5 -1.4,-0.9 -5.1,-3.1 -8.4,-4.6 -8.4,-4.6 -3.6,-1.7 -6.5,-2.5 -6.9,-4.2 z"
   id="path35" />
		<path
   d="m 142.7,153.2 c -2,-0.6 -4.1,1.9 -6.2,3.8 -16.6,15 -49.9,5.9 -55.7,3.9 -3.4,-1.1 -4.8,-2.4 -10.6,-4.2 -1.7,-0.6 -3.6,-1.1 -5.5,-2.7 -0.9,-0.7 -0.9,-1 -3.5,-4.1 -3.8,-4.6 -3.5,-3.7 -4.4,-5.1 -0.8,-1.3 -1.5,-2.7 -3.1,-3.6 -0.5,-0.3 -1.2,-0.7 -2,-0.7 -1.1,0 -1.5,0.7 -2.3,0.7 -1,-0.1 -1.6,-1.1 -1.9,-1.6 -1.3,-1.9 -3.5,-3 -5.2,-4.5 -3,-2.6 -5.6,-4.7 -8.3,-6.9 -2.3,-1.9 -3.2,-2.6 -4.8,-4.1 -1.6,-1.5 -1.6,-1.7 -2.5,-2.3 -2.6,-1.9 -4.1,-1.7 -4.5,-3 -0.4,-1.3 0.6,-2.8 1.6,-3.6 0.2,-0.2 1.6,-1.3 3.2,-0.9 1,0.2 1.3,0.9 2.5,1.9 0,0 1.8,1.6 4,2.3 0.4,0.1 4.4,1.5 5.9,-0.2 0.4,-0.5 0.3,-0.8 0.6,-3.1 0.3,-2.5 0.5,-3.8 0.9,-4.5 1.1,-2.1 4.2,-2.4 5.7,-2.6 0,0 9.2,-1.1 18.2,-3.5 7.7,-2.1 5.9,-4.9 13.3,-7.2 7.9,-2.5 9.2,0.9 23,-0.8 5.3,-0.7 10.1,-1.8 12.8,-2.5 4.7,-1.2 6.7,-2.1 9.2,-2.8 14,-4.2 20.8,2.1 39,-1.8 3.4,-0.7 2.5,-0.8 5.8,-1.5 13.9,-2.9 25.1,-0.7 30,0.3 24.2,5.1 44,23 82,34.7 19.2,5.9 44.3,10.6 47.3,11.2 7.7,1.4 12.8,2.4 20.2,3.3 27.1,3.5 42.4,1.7 43,5 0.5,2.5 -7.7,6 -13.5,8.3 -26.2,10.6 -46.2,14.2 -61.3,17.7 -34.9,8 -31.9,12.6 -54.7,15.2 -13.1,1.5 -12.4,-0.2 -46.7,-1 -44,-1 -61.4,1.4 -67.2,-8.8 -4.3,-7.8 -0.3,-19.4 -4.3,-20.7 z"
   id="path37" />
		<path
   d="m 129.9,165.6 c 1.3,-1.2 3,-3 4.6,-5.4 2.5,-3.7 3.7,-6.9 4.7,-9.7 2,-5.6 2.5,-10.2 2.8,-13.1 0.3,-3.3 0.6,-5.7 0.1,-9 -0.5,-3.5 -1.2,-4 -1,-5.4 0.8,-5.7 14.6,-8.3 17.2,-8.8 15.3,-2.8 27.8,0 30.5,0.7 10.1,2.4 12.7,4.7 37.5,16.5 2.6,1.3 12,5.5 30.7,14 22.7,10.3 27.8,12.5 36.3,14 10.7,1.9 17.2,0.9 17.7,3 0.8,3.4 -16.4,11 -31.2,15.5 -45.9,13.9 -89.6,4.2 -113.7,-1.5 -14.8,-3.5 -27.1,-7.5 -36.2,-10.8 z"
   id="path39" />
		<path
   d="m 91.8,166.7 c 0.1,-0.6 13.8,0.1 28.6,-0.6 2.1,-0.1 5.8,-0.3 9.6,-2.6 3.9,-2.3 5.7,-5.4 6.5,-6.3 6.8,-8.5 46.9,10.5 55.6,14.3 34.8,15.2 70.1,6.8 112.1,-3.3 17.7,-4.2 69.1,-18.5 87.8,-29 2.1,-1.2 10.8,-6.2 22.7,-7.8 5.5,-0.7 13.1,-0.9 13.2,-0.3 0,0.2 -1.4,0.6 -2.7,0.9 -4.7,1.3 -7.3,3 -12.3,5.7 0,0 -5.7,3.1 -14.1,7.1 -2.8,1.3 -5.8,2.6 -15.6,6.5 -11.6,4.6 -12.8,4.9 -20.9,8 -15.7,6.2 -16.7,7.3 -27.7,11.2 -3.8,1.4 -9.5,3.4 -17.2,5.5 -8,2.2 -14.1,3.4 -23.1,5.2 -5.1,1 -10.8,2.1 -18.3,3.3 -14,2.2 -25.1,3.1 -29.3,3.4 -9.8,0.7 -24.7,1.4 -42.8,0.5 -21.6,-1.1 -38.1,-3.9 -45.2,-5.2 -6.7,-1.2 -15.1,-3.2 -31.9,-7.2 0,0 -11.6,-2.7 -26.1,-6.7 -2,-0.6 -1.7,-0.5 -5.8,-1.7 -2.6,-0.7 -3.1,-0.8 -3.1,-0.9 z"
   id="path41" />
		<path
   d="m 61.1,104.4 c 0.5,1.4 4.3,1.2 4.6,1.2 4,-0.2 6.6,-2.9 8.6,-4.3 3.1,-2.2 8.1,-2.5 18.3,-3 14.9,-0.7 16.8,1.8 21.4,-1.1 1.9,-1.2 5,-3.8 8.5,-3.1 1.2,0.2 1.1,0.6 3.2,1.3 4.2,1.5 7.5,1.3 7.7,2.3 0.1,0.6 -0.9,0.9 -0.9,2 0,0 0,0.7 0.4,1.2 1.3,1.5 9.5,-2.9 15.3,-5.4 0,0 5.4,-2.3 14.8,-4.7 16,-4 20.8,3.4 43.8,2.3 11.6,-0.5 18.4,-1.7 18.4,-1.7 8.7,-1.4 14.4,-3.3 21.2,-0.8 3.1,1.2 4,2.3 6.5,3.8 12.9,7.8 23.2,-2.8 42.4,1.5 8.1,1.8 8.9,4.3 20.8,6.8 4.3,0.9 7.3,1.2 15.8,2 34.8,3.2 35.4,2.4 40.3,4.7 7.5,3.5 10.3,7.5 17.9,7.7 4.5,0.1 6.8,-1.2 11.8,0.1 5.2,1.3 4.6,3.2 10.9,5.3 6.2,2.1 9.5,1.2 11.8,4.3 1.3,1.7 1.3,3.6 3,4.1 1.6,0.5 3.3,-0.6 4.5,-1.4 2.2,-1.4 5.9,-2.4 13.3,-4.4 4.7,-1.3 8,-2.1 12.1,-1.6 2.4,0.3 6.5,1.2 11.8,5.1 16.4,12.3 21.3,37 29.3,45.8 0.6,0.6 2.6,2.7 4.8,5.9 1.8,2.7 1.6,3 3.9,6.6 3.1,5 4.9,6.6 6.6,7.7 1.1,0.7 3,1.7 3.2,1.4 0.2,-0.2 -0.7,-1.2 -0.9,-1.4 -2.7,-3 -5.4,-9.6 -7.6,-14.5 -4.3,-9.8 -5,-8.4 -7.3,-14.6 -5.7,-15.2 -4.3,-31.4 -1.6,-35.6 0.3,-0.5 1.4,-1.9 1.3,-3.8 -0.1,-1.9 -1.2,-2.3 -1.7,-4.4 -0.4,-2.2 0.7,-2.5 0.6,-5.2 -0.1,-2.6 -1.2,-3.1 -1.7,-5.8 0,0 -0.4,-2.2 0.3,-5.6 0.8,-3.9 10.6,-39.7 22.2,-53.9 2.5,-3.1 5.8,-7.1 9.1,-9.8 0.3,-0.2 1.2,-0.9 1.1,-1 -0.2,-0.3 -7.8,4.6 -7.9,4.7 -11.4,7.3 -20.8,22.2 -22.8,25.4 -15.6,24.9 -12.9,34.3 -25.3,42.2 -5.9,3.7 -11.5,4.8 -15.7,5.6 -14.4,2.7 -25.7,-1.2 -37.3,-4.9 -26.7,-8.4 16.6,7.5 -47.3,-12.7 C 342.5,90.6 319.9,82.9 314.3,81 291.8,73.6 271.5,70.6 119.7,79.7 115.1,80 96.8,81.3 77.9,91.3 71.6,94.6 60,101.7 61.1,104.4 Z"
   id="path43" />
		<path
   d="m 9.1,112 c -0.5,-0.4 -0.8,-1.2 -0.6,-1.9 0.2,-0.7 1.1,-1.1 1.4,-1.2 2.6,-1.1 5.1,-2.5 7.7,-3.5 0.1,0 1.7,-0.8 4.9,-2.2 10.6,-4.8 12.2,-5.8 18.9,-8.7 4.4,-1.9 4.1,-1.6 8,-3.3 5.8,-2.5 9.5,-4.5 11.9,-5.7 5.4,-2.7 10.1,-4.3 19.5,-7.6 5.5,-1.9 13.8,-4.6 24.8,-7.5 4.9,-1.3 27.3,-7.1 58.4,-10.8 4.4,-0.5 13.3,-1.5 24.7,-2.3 18.2,-1.2 32,-1.1 36.1,-1 14.9,0.2 26.2,1.1 30.1,1.4 9.1,0.8 15.3,1.6 25.9,3.1 0,0 15.5,2.1 35.8,6.1 4.5,0.9 8.4,1.7 13.3,3.4 0.9,0.3 2.8,1 12.6,5 4.4,1.8 7.6,3.2 9,3.8 5.4,2.3 10.7,4.4 21.1,8.7 13.7,5.6 12.9,5.2 19.1,7.8 5.4,2.3 7.8,3.3 14,5.8 7.3,3 10.9,4.5 13,5.2 6,2.1 5.7,1.4 19.6,5 5.5,1.5 9.1,2.5 14.8,3.1 5.4,0.6 7.8,0.3 9.8,-0.3 1.7,-0.5 5.7,-1.8 9.1,-5.4 1.8,-1.9 2,-2.9 4.5,-7.1 2.1,-3.6 2.8,-4.2 6.1,-9.1 4.4,-6.5 4.2,-6.9 9.3,-14.7 4.5,-6.9 6.7,-10.4 9.7,-13.9 3.8,-4.5 7.1,-7.5 10.6,-10.6 9.7,-8.6 17.9,-13.7 17.9,-13.6 0.1,0.1 -8.8,5.2 -17.4,15.2 -1.7,2 -5.4,6.5 -9.1,13 -10.5,18.6 -5.9,26.9 -16,38 -1.2,1.3 -6.1,6.6 -5.4,7.5 0.6,0.7 3.7,-1.8 6.5,-0.5 1.2,0.6 0.9,1.2 2.3,2 1,0.6 1.9,0.6 6.8,0.9 1.8,0.1 2.7,0.2 2.9,0.6 0.3,0.6 -0.7,1.4 -1.1,3.6 -0.1,0.5 -0.2,1 0.1,1.6 0.2,0.5 0.6,0.6 0.9,1 0.8,0.9 1,2.6 0.5,3 -0.7,0.6 -2.5,-1.6 -4.7,-1.6 -3,-0.1 -5.6,3.8 -6.8,6.3 -1.8,4 -1.4,8.5 3.6,22.4 1,2.8 0.9,2.3 7.4,18.4 3.6,9 5.1,14.3 8.5,17.8 1.4,1.5 2.5,2.4 2.5,2.4 3.5,3.2 6.1,4.3 5.9,4.8 -0.2,0.4 -1.8,0.1 -3.1,-0.4 -1.8,-0.7 -2.8,-2 -3.1,-2.5 -2.8,-3.6 -7.8,-10.1 -8.4,-10.8 -2.2,-2.8 -2.6,-2.6 -5.1,-5.7 -2.1,-2.6 -4.2,-6 -4.2,-6 -3,-4.7 -4.5,-7.1 -5.5,-8.8 -2.3,-3.9 -3.8,-6.8 -6.6,-12.2 -4.1,-7.8 -4.5,-8.9 -6.3,-11.7 -3,-4.7 -4.4,-7.1 -6.8,-8.7 -3.1,-2.1 -6.4,-2.3 -12.9,-2.6 -9.4,-0.4 -16.6,1.2 -18.8,1.7 -5,1.1 -8.5,2.5 -8.6,2.3 -0.1,-0.3 3.5,-1.9 8,-3.8 5.5,-2.4 8.3,-3.6 10,-3.8 2.5,-0.2 4.1,0.3 6.8,-0.8 1.6,-0.6 3.6,-1.9 3.4,-2.6 -0.2,-0.8 -3,-0.3 -8.8,-0.5 -5.3,-0.2 -5.7,-0.7 -11.8,-0.9 -3.3,-0.1 -3.5,0.1 -5.4,-0.1 -4.3,-0.5 -7.4,-1.7 -8.8,-2.3 -4.4,-1.7 -9.2,-3.1 -18.8,-5.8 -8.4,-2.3 -14.3,-2.6 -20,-3.1 -26.2,-2.5 -33.9,-10 -68.8,-14.9 -2.6,-0.4 0.2,0.1 -26.4,-2.6 -33.6,-3.4 -37.2,-4 -46.1,-4.6 -6.8,-0.5 -20.6,-0.4 -48,-0.4 -29,0 -32.6,0.4 -36.9,3.3 -7,4.6 -15.7,6.3 -22.8,10.9 -0.2,0.2 -1.1,0.8 -2,0.5 -0.8,-0.2 -1,-1 -1.5,-1.6 -1.7,-2.2 -4.6,-1.3 -5.1,-2.5 -0.5,-1.5 3.8,-3.1 4,-6.6 0.1,-1.1 -0.2,-2.7 -1.3,-3.3 -1.8,-0.9 -4.8,2.5 -8,4.6 -2.3,1.5 -4.8,2.5 -17,3.5 -17.3,1.4 -18.1,-0.1 -25.1,1.9 -8.5,2.4 -14.9,6.7 -14.5,9.3 0.1,0.4 0.6,1.2 1.5,2.7 0.5,0.8 1.3,1.9 2.4,3.2 0.7,0.8 0.8,0.7 0.8,0.9 0.3,1.5 -4.2,3 -10.9,6.7 -4.3,2.4 -5.7,3.6 -8.9,4 -3.1,0.4 -4.9,-0.3 -5.9,-0.9 -1.4,-0.9 -2.6,-2.5 -2.3,-3.2 0.5,-0.9 3.3,0.3 4,-0.9 0.6,-0.9 -0.7,-2 -0.1,-2.9 0.7,-1.2 3.5,-0.1 4.4,-1.2 1,-1.2 -2.6,-3.7 -1.9,-6 0.6,-1.8 3.1,-2 3,-3.3 0,-0.8 -1.1,-1.5 -2,-1.8 -1.9,-0.5 -3.7,0.9 -5.3,2 -4.2,3.1 -8.4,6 -13,7.4 -2.3,0.7 -4,0.8 -5.6,0.5 -2.3,-0.4 -2.4,-1.2 -4.3,-1.6 -4.5,-1 -8.3,3.2 -10,1.6 z"
   id="path45"
   style="stroke:#000000;stroke-width:0.5;stroke-miterlimit:10" />
		<polygon
   points="43.2,136.7 42.2,135 39.9,132.7 35.7,129.7 35.7,130.8 21.1,131 31.8,134.3 42.4,137.4 "
   id="polygon47"
   style="stroke:#000000;stroke-width:0.5;stroke-miterlimit:10" />
		<g
   id="g49">
			<polyline
   points="29.1,124 49.3,141.2 51.7,140.5    "
   id="polyline51" />
			<path
   d="m 29.1,124 c 1.8,1.3 3.6,2.6 5.3,4 1.8,1.4 3.4,2.8 5.1,4.2 1.7,1.4 3.4,2.9 5,4.3 1.6,1.5 3.3,3 4.9,4.5 h -0.2 c 0.8,-0.2 1.6,-0.4 2.4,-0.5 -0.8,0.3 -1.5,0.6 -2.3,0.8 h -0.1 l -0.1,-0.1 c -1.8,-1.3 -3.5,-2.7 -5.2,-4.1 -1.7,-1.4 -3.4,-2.8 -5.1,-4.2 -1.7,-1.4 -3.4,-2.9 -5,-4.4 -1.5,-1.4 -3.1,-2.9 -4.7,-4.5 z"
   id="path53" />
		</g>
		<g
   id="g55">
			<polyline
   points="22.5,116.7 23.7,115.1 25.7,114.7 26.8,114.2 28.7,115.4 28.7,118.9 34.6,124.7 40.4,128.7 45.9,132.6      48.4,133.9 53.4,135.3 52.5,138.6 54.6,136    "
   id="polyline57" />
			<path
   d="m 22.5,116.7 1.1,-1.6 v 0 0 l 2,-0.5 v 0 l 1.1,-0.5 h 0.1 l 0.1,0.1 c 0.7,0.4 1.3,0.8 2,1.2 l 0.1,0.1 v 0.2 l 0.1,3.5 -0.1,-0.3 c 2,1.9 3.9,3.8 5.9,5.8 l -0.1,-0.1 c 1.9,1.3 3.8,2.6 5.7,3.9 l 5.6,4 v 0 c 0.8,0.4 1.7,0.9 2.5,1.4 h -0.1 l 5,1.5 0.3,0.1 -0.1,0.2 -1,3.2 -0.3,-0.1 c 0.7,-0.8 1.5,-1.7 2.2,-2.5 -0.6,0.9 -1.3,1.8 -2,2.7 l -0.4,0.6 0.2,-0.7 0.8,-3.3 0.2,0.3 -5,-1.3 v 0 0 c -0.8,-0.4 -1.7,-0.8 -2.5,-1.3 v 0 0 l -5.7,-3.9 c -1.9,-1.3 -3.8,-2.6 -5.7,-3.9 v 0 0 c -1.9,-2 -3.9,-3.9 -5.8,-5.9 l -0.1,-0.1 v -0.1 l 0.1,-3.5 0.1,0.2 c -0.6,-0.4 -1.3,-0.9 -1.9,-1.3 h 0.2 l -1.2,0.5 v 0 0 l -2,0.3 H 24 Z"
   id="path59" />
		</g>
		<g
   id="g61">
			<line
   x1="28.700001"
   y1="115.4"
   x2="38.5"
   y2="122.1"
   id="line63" />
			<path
   d="m 28.7,115.4 c 1.9,0.8 3.5,1.8 5.2,2.9 1.6,1.1 3.2,2.3 4.6,3.7 -1.9,-0.8 -3.5,-1.8 -5.2,-2.9 -1.6,-1.1 -3.1,-2.2 -4.6,-3.7 z"
   id="path65" />
		</g>
		<polyline
   class="st1"
   points="8.7,131.9 9,133.2 17.4,137.4 37.6,144.5 60.7,152.7   "
   id="polyline67"
   style="stroke:#000000;stroke-width:0.75;stroke-miterlimit:10" />
		<g
   id="g69">
			<polyline
   points="53.7,141.2 64.7,154 70.8,157 83.1,161.8    "
   id="polyline71" />
			<path
   d="m 53.7,141.2 c 1.9,2 3.8,4.1 5.7,6.2 1.9,2.1 3.7,4.2 5.6,6.4 l -0.1,-0.1 c 2.1,1 4.1,2 6.2,3 v 0 c 2,0.8 4.1,1.7 6.1,2.5 2,0.8 4,1.7 6,2.6 -2.1,-0.7 -4.2,-1.4 -6.2,-2.2 -2.1,-0.8 -4.1,-1.5 -6.2,-2.3 v 0 0 c -2.1,-1 -4.1,-1.9 -6.2,-3 h -0.1 v -0.1 c -1.8,-2.2 -3.7,-4.3 -5.4,-6.5 -1.9,-2.1 -3.7,-4.3 -5.4,-6.5 z"
   id="path73" />
		</g>
		<g
   id="g75">
			<polyline
   points="56,140.8 62.1,147.2 66.9,150.3 74.1,153.5 82.5,154.2 89.5,154.2 93.5,155.9 102.3,156.3 112.9,150.9      110.8,146.1 111.7,134.3 110.4,129.7 105.5,124.7    "
   id="polyline77" />
			<path
   d="m 56,140.8 6.2,6.2 v 0 l 4.9,3.1 v 0 l 7.2,3.1 h -0.1 c 2.8,0.2 5.6,0.4 8.4,0.7 v 0 h 7 0.1 0.1 l 4,1.7 h -0.2 c 2.9,0.1 5.9,0.3 8.8,0.4 l -0.2,0.1 10.6,-5.4 -0.2,0.6 -2,-4.8 v -0.1 -0.1 l 1.1,-11.7 v 0.1 l -1.2,-4.6 v 0.1 l -4.8,-5.1 5,4.9 v 0 0 l 1.4,4.6 v 0 0 l -0.8,11.8 v -0.2 l 2.1,4.8 0.2,0.4 -0.4,0.2 -10.6,5.5 -0.1,0.1 h -0.1 c -2.9,-0.1 -5.9,-0.3 -8.8,-0.4 h -0.1 -0.1 l -4,-1.7 h 0.2 -7 v 0 0 c -2.8,-0.3 -5.6,-0.5 -8.4,-0.8 H 74.1 74 L 66.9,151 v 0 0 l -4.8,-3.2 v 0 0 z"
   id="path79" />
		</g>
		<path
   d="m 56.3,127.4 c -1,-0.2 -3.4,-0.8 -5.8,-2.7 -1.5,-1.2 -2.3,-2.4 -3.1,-3.5 -1,-1.5 -1.7,-2.4 -2,-3.8 -0.5,-2.1 0.1,-3.8 0.3,-4.7 0.1,-0.4 0.8,-2.3 2.5,-4.1 0.9,-0.9 2.7,-2.5 5.6,-3.2 3.7,-0.8 6.6,0.5 7.6,1 5.7,2.7 7.9,9.2 7.8,13.8 0,1.4 -0.1,3.2 -1.3,4.8 -1.7,2.1 -4.6,2.4 -6.7,2.7 -2.2,0.2 -4,-0.1 -4.9,-0.3 z"
   id="path81"
   style="stroke:#000000;stroke-width:0.5;stroke-miterlimit:10" />
		<path
   d="m 47.8,115.3 c 0.3,-2.5 1.8,-4.2 2.4,-4.8 0.6,-0.7 2.3,-2.5 5,-3 4,-0.7 7.1,2.1 7.8,2.7 2.6,2.3 3.2,5.2 3.5,6.6 0.4,2 1,4.5 -0.4,6.7 -1.4,2.2 -3.9,2.8 -4.8,3 -5.2,1.2 -9.4,-2.4 -9.7,-2.7 -0.6,-0.5 -4.4,-3.9 -3.8,-8.5 z"
   id="path83"
   style="stroke:#000000;stroke-width:0.5;stroke-miterlimit:10" />
		<g
   id="g85">
			<polyline
   points="60.7,103.2 54.6,102.1 55.3,99.7 57.3,98.3 61.3,99.5    "
   id="polyline87" />
			<path
   d="m 60.7,103.2 c -2.1,-0.1 -4.2,-0.3 -6.3,-0.7 l -0.5,-0.1 0.2,-0.5 c 0.2,-0.8 0.5,-1.6 0.7,-2.3 l 0.1,-0.2 0.1,-0.1 c 0.7,-0.5 1.3,-0.9 2,-1.4 l 0.2,-0.1 0.2,0.1 c 0.7,0.2 1.3,0.5 2,0.7 0.7,0.3 1.3,0.5 2,0.8 C 60.7,99.3 60,99.2 59.3,99.1 58.6,99 57.9,98.8 57.2,98.7 l 0.4,-0.1 c -0.6,0.5 -1.3,1 -1.9,1.5 l 0.2,-0.2 c -0.2,0.8 -0.5,1.6 -0.8,2.3 l -0.4,-0.6 c 2,0.4 4.1,0.9 6,1.6 z"
   id="path89" />
		</g>
		<g
   id="g91">
			<path
   d="m 62.2,104.5 c 0.6,0.7 1.6,1.7 2.7,3 1.4,1.6 2,2.4 2.5,3 2,2.8 2.7,5.7 2.8,6.5 0.6,2.9 0.3,5.3 -0.1,6.8"
   id="path93" />
			<path
   d="m 62.2,104.5 c 1.3,1.2 2.7,2.5 3.9,3.9 0.6,0.7 1.2,1.4 1.8,2.1 0.5,0.8 1,1.6 1.4,2.4 0.8,1.7 1.3,3.5 1.4,5.4 0.1,1.9 -0.1,3.8 -0.7,5.5 0.2,-1.8 0.2,-3.6 -0.1,-5.4 -0.3,-1.8 -0.8,-3.5 -1.6,-5.1 -0.4,-0.8 -0.8,-1.6 -1.3,-2.3 -0.5,-0.7 -1.1,-1.4 -1.6,-2.1 -1,-1.5 -2.2,-2.9 -3.2,-4.4 z"
   id="path95" />
		</g>
		<g
   id="g97">
			<path
   d="m 42.4,121.4 c 0.7,0.1 1.7,0.2 2.8,0.8 0.5,0.2 0.9,0.5 1.8,1.2 1.7,1.3 2.1,1.9 3,2.6 0.9,0.7 2.1,1.1 4.4,1.8 1.3,0.4 3.1,1 5.3,1.5"
   id="path99" />
			<path
   d="m 42.4,121.4 c 0.8,0 1.6,0.1 2.4,0.3 0.8,0.2 1.5,0.7 2.2,1.1 0.7,0.4 1.3,1 2,1.5 0.6,0.5 1.2,1.1 1.8,1.4 0.6,0.4 1.4,0.6 2.1,0.9 0.7,0.3 1.5,0.6 2.3,0.8 1.5,0.5 3,1.1 4.5,1.7 -1.6,-0.2 -3.2,-0.6 -4.8,-0.9 -1.6,-0.4 -3.1,-0.8 -4.7,-1.6 -0.8,-0.5 -1.4,-1.1 -1.9,-1.6 -0.6,-0.6 -1.2,-1.1 -1.8,-1.6 -1.1,-0.9 -2.5,-1.6 -4.1,-2 z"
   id="path101" />
		</g>
		<g
   id="g103">
			<line
   x1="39.200001"
   y1="118.2"
   x2="40.900002"
   y2="109.8"
   id="line105" />
			<path
   d="m 39.2,118.2 c -0.1,-1.5 0.1,-2.9 0.3,-4.3 0.3,-1.4 0.7,-2.8 1.3,-4.1 0.1,1.5 -0.1,2.9 -0.3,4.3 -0.2,1.4 -0.6,2.8 -1.3,4.1 z"
   id="path107" />
		</g>
		<g
   id="g109">
			<path
   d="m 91.8,166.7 c 5.7,0.2 10.6,0.3 14.2,0.2 10.2,-0.1 13.6,-0.7 15.6,-1.1 5.5,-1.1 9.1,-1.9 12.2,-4.9 2.4,-2.3 3.3,-4.7 5.1,-9.6 2,-5.5 2.7,-10.2 3,-12.9 0.4,-4.1 0.9,-9.2 -0.8,-15.4 -1.3,-4.7 -2.3,-4.2 -3.8,-10 -1.1,-4.1 -1.2,-6.4 -3,-9.8 -1.3,-2.4 -2.9,-4.2 -4.1,-5.3"
   id="path111" />
			<path
   d="m 91.8,166.6 c 2.3,-0.1 4.6,-0.2 6.9,-0.2 l 6.9,-0.1 c 4.6,-0.2 9.2,-0.3 13.7,-1 1.1,-0.2 2.2,-0.4 3.3,-0.6 1.1,-0.2 2.2,-0.5 3.3,-0.8 2.2,-0.6 4.2,-1.3 6,-2.6 1.8,-1.3 3.1,-2.9 4,-4.9 1,-2 1.8,-4.2 2.6,-6.3 1.5,-4.3 2.5,-8.7 2.9,-13.3 0.5,-4.5 0.4,-9.1 -0.7,-13.5 -0.3,-1.1 -0.6,-2.2 -1.1,-3.2 -0.5,-1 -1,-2.1 -1.4,-3.2 -0.9,-2.2 -1.4,-4.5 -1.9,-6.7 -0.5,-2.3 -1,-4.5 -2,-6.5 -1,-2 -2.4,-3.9 -4.1,-5.5 l 0.1,-0.1 c 1.7,1.6 3.2,3.4 4.3,5.4 1.2,2 1.8,4.3 2.3,6.6 0.5,2.2 1.1,4.5 2,6.5 0.4,1 1,2 1.5,3.1 0.5,1.1 0.9,2.2 1.2,3.3 1.3,4.5 1.5,9.3 1.1,13.9 -0.3,4.6 -1.2,9.3 -2.7,13.7 -0.8,2.2 -1.5,4.4 -2.5,6.6 -0.5,1.1 -1.1,2.2 -1.9,3.2 -0.8,1 -1.6,1.9 -2.6,2.6 -2,1.5 -4.3,2.4 -6.6,3 -1.1,0.3 -2.3,0.5 -3.4,0.8 -1.1,0.2 -2.3,0.5 -3.5,0.6 -2.3,0.3 -4.7,0.4 -7,0.4 -2.3,0 -4.6,0.1 -6.9,0 l -6.9,-0.4 c -2.3,-0.2 -4.6,-0.3 -6.9,-0.5 z"
   id="path113" />
		</g>
		<path
   d="m 476.2,130.9 c 0,-0.2 0.2,-1.7 1.4,-2.6 1.3,-0.9 2.8,-0.6 5.8,0.2 0,0 5,1 10.9,1.3 1.5,0.1 2.9,0.6 4.3,0.6 0.2,0 0.7,0 1,0.3 0.6,0.6 0.1,2 -0.2,2.8 -0.2,0.6 -0.2,2.4 -0.1,6.1 0.1,3.9 1,9.1 2.4,15.3 0.5,2.1 1.5,7 3.2,13.3 1.2,4.6 1.8,6.9 2.3,8.1 0.4,1 0.6,1.7 1,3 0.6,2.1 0.6,3 0.4,3.8 -0.1,0.3 -0.5,1.8 -1.3,1.9 -1,0.1 -1.9,-2.1 -2.8,-3.8 -0.2,-0.3 1,2.1 -6.6,-10.3 -2.8,-4.5 -4.1,-6.7 -5.3,-8.8 -3.2,-5.4 -5.3,-9.4 -8.8,-15.8 -5.6,-10.5 -4.8,-9.6 -5.3,-10.1 -0.7,-1.2 -2.5,-3 -2.3,-5.3 z"
   id="path115" />
		<path
   d="m 478.6,122.2 c 4.2,0 7.6,0.1 8.3,0.2 3.7,0.2 5.6,0.3 7.2,0.1 1.3,-0.1 4.3,-0.6 4.3,-0.6 v 0 c 0,0 1.5,0.3 2.1,1.1 0.5,0.7 0.5,1.8 0,2.5 -0.7,0.9 -2.1,0.9 -3.2,0.8 -4.3,-0.2 -6.8,-0.8 -10.2,-1.3 -2.5,-0.3 -5.1,-0.8 -7.6,-1.2 0,0 -0.8,-0.1 -1.9,-0.5 -0.6,-0.2 -1.7,-0.6 -1.7,-0.8 0.1,-0.3 1.7,-0.3 2.7,-0.3 z"
   id="path117" />
		<path
   d="m 500.6,116.8 c -0.5,0.9 -2.8,0.5 -4.8,0.3 -0.8,-0.1 -3.2,0.3 -7.9,1.1 -4.7,0.7 -7.1,1.1 -8.3,1.5 -1.6,0.5 -3,1.1 -3.3,0.8 -0.2,-0.3 0.6,-1.3 1.5,-1.8 1.1,-0.7 2.2,-0.7 2.8,-0.8 0.3,0 2.2,-0.6 5.8,-1.7 2.9,-0.9 2.8,-0.9 6.5,-2.1 4.7,-1.5 6.3,-1.8 7,-1 0.4,0.5 0.5,1.5 0.7,2.5 0.1,0.7 0.1,1 0,1.2 z"
   id="path119" />
		<path
   d="m 479.8,115.3 c -1.3,-1.3 0.8,-4.6 5.1,-14.6 3.1,-7.3 2.4,-6.4 4.5,-11.2 2.9,-6.5 5.3,-11.6 9.8,-17.7 4.1,-5.5 9.5,-11 13.2,-13.5 0.4,-0.3 2.5,-1.7 5.3,-3.8 2.1,-1.7 3.3,-3 3.5,-2.9 0.3,0.2 -1.1,2 -2.8,5.2 -0.8,1.4 -1.4,2.8 -2.6,5.4 -2.2,4.8 -3.7,8.5 -3.8,8.7 -5.9,14.1 -6.3,14.3 -8.2,19.7 -1.7,5 -3.2,10.6 -3.6,12.1 -0.2,0.9 -0.5,1.8 -1,2.9 -0.2,0.6 -1.2,2.7 -2.6,4.2 -1.5,1.5 -3.1,2 -6.2,2.8 -9.6,3 -10.1,3.2 -10.6,2.7 z"
   id="path121" />
		<g
   id="g123">
			<line
   x1="460.10001"
   y1="123"
   x2="473.29999"
   y2="122.6"
   id="line125" />
			<path
   d="m 460.1,123 c 1.1,-0.3 2.2,-0.5 3.3,-0.7 1.1,-0.2 2.2,-0.2 3.3,-0.3 1.1,0 2.2,0 3.3,0.1 1.1,0.1 2.2,0.2 3.3,0.5 -1.1,0.3 -2.2,0.5 -3.3,0.7 -1.1,0.2 -2.2,0.2 -3.3,0.3 -1.1,0 -2.2,0 -3.3,-0.1 -1.1,-0.1 -2.2,-0.2 -3.3,-0.5 z"
   id="path127" />
		</g>
		<g
   id="g129">
			<path
   d="m 458.4,119.7 c 2.1,0.1 14.9,-1.3 14.9,-1.3"
   id="path131" />
			<path
   d="m 458.4,119.7 c 2.5,-0.6 4.9,-1.1 7.4,-1.3 1.2,-0.1 2.5,-0.2 3.7,-0.2 1.3,0 2.5,0 3.8,0.2 -1.2,0.4 -2.4,0.7 -3.7,1 -1.2,0.2 -2.5,0.4 -3.7,0.5 -1.2,0.1 -2.5,0.2 -3.8,0.2 -1.2,-0.1 -2.4,-0.1 -3.7,-0.4 z"
   id="path133" />
		</g>
	</g>
</g>
</svg>
