<?xml version="1.0" encoding="UTF-8"?>
<svg id="Layer_2" data-name="Layer 2" xmlns="http://www.w3.org/2000/svg" viewBox="0 0 22.78 19.31">
  <defs>
    <style>
      .cls-1 {
        fill: none;
      }

      .cls-1, .cls-2 {
        stroke-width: 0px;
      }

      .cls-2 {
        fill: #231f20;
      }
    </style>
  </defs>
  <g id="Layer_1-2" data-name="Layer 1">
    <g id="Layer_2-2" data-name="Layer 2">
      <g id="Layer_1-2" data-name="Layer 1-2">
        <path class="cls-2" d="M14.48,18.26v-5h3.48v.84h-2.46v1.19h2.09v.81h-2.09v2.13l-1.02.03Z"/>
        <path class="cls-2" d="M20.85,17.1l1,.16c-.11.32-.31.6-.59.8-.3.2-.65.29-1,.28-.54.04-1.07-.19-1.4-.62-.25-.37-.38-.81-.36-1.25-.02-.5.14-.99.46-1.37.3-.34.74-.52,1.19-.51.49-.02.96.17,1.28.54.35.47.51,1.06.45,1.64h-2.43c0,.24.08.47.23.66.14.16.35.24.56.24.14,0,.27-.04.38-.12.12-.12.2-.28.23-.45ZM20.9,16.1c.02-.23-.06-.46-.21-.64-.13-.14-.31-.21-.5-.21-.2,0-.39.08-.52.23-.14.17-.22.4-.2.62h1.43Z"/>
        <path class="cls-2" d="M.96,14.82v-5h1l2,3.34v-3.35h1v5h-1l-2-3.26v3.26H.96Z"/>
        <path class="cls-2" d="M11.5,6.1V1.1h1.62c.4-.02.8,0,1.2.08.29.07.55.24.72.49.22.29.32.64.3,1,0,.27-.05.54-.17.78-.1.2-.25.36-.43.49-.16.11-.33.2-.52.24-.33.05-.67.08-1,.07h-.66v1.85h-1.06ZM12.5,1.94v1.43h.55c.27.01.54-.01.8-.08.13-.04.25-.13.32-.25.07-.11.11-.25.11-.38,0-.17-.05-.33-.16-.46-.11-.11-.25-.19-.4-.22-.24-.02-.49-.02-.73,0l-.49-.04Z"/>
      </g>
    </g>
    <rect class="cls-1" width="22.78" height="19.31"/>
  </g>
</svg>