<?xml version="1.0" encoding="UTF-8"?>
<svg id="Layer_2" data-name="Layer 2" xmlns="http://www.w3.org/2000/svg" viewBox="0 0 18.81 14.02">
  <defs>
    <style>
      .cls-1 {
        fill: none;
      }

      .cls-1, .cls-2 {
        stroke-width: 0px;
      }
    </style>
  </defs>
  <g id="Layer_2-2" data-name="Layer 2">
    <g id="AnnotationBbox_5" data-name="AnnotationBbox 5">
      <g id="Xp">
        <g id="Layer_2-3" data-name="Layer 2">
          <g id="Layer_1-2" data-name="Layer 1-2">
            <path class="cls-1" d="M9.87,12.04s-.04-.07-.06-.1c-.05-.05-.09-.1-.14-.14-.14-.11-.16-.31-.05-.45.01-.02.03-.04.05-.05.02-.02.05-.04.08-.06.12-.08.25-.16.37-.24.08-.05.18-.05.26,0,.11.06.21.12.32.18.14.09.29.15.45.18.02,0,.04,0,.06.02.07.03.13.06.2.08.1.03.21.05.32.07.05,0,.11.01.16.01.16,0,.32-.07.45-.17.04-.03.08-.05.13-.07.08-.02.16-.02.24,0,.06.02.12,0,.16-.05.04-.05.02-.11,0-.16-.05-.12-.09-.25-.14-.37-.02-.04-.02-.08,0-.12.07-.1.16-.2.26-.28.15-.11.19-.32.09-.48-.07-.1-.1-.23-.09-.35,0-.18.14-.34.32-.36.06-.01.12-.02.18-.02.13,0,.27,0,.4-.03.26-.05.52-.11.78-.16.14-.03.26-.11.35-.22.15-.16.23-.36.22-.58v-.16c.02-.29.02-.57,0-.86-.02-.24-.09-.47-.21-.67-.06-.11-.12-.21-.18-.32,0-.01-.01-.03-.01-.05,0-.07,0-.14-.03-.21-.02-.06-.04-.13-.06-.2-.02-.06-.05-.11-.09-.16-.04-.04-.09-.08-.14-.12-.1-.06-.16-.17-.16-.28,0-.17-.05-.34-.13-.49-.11-.2-.22-.4-.33-.61-.01-.03-.02-.06-.02-.09,0-.08-.02-.16-.07-.23-.04-.06-.09-.12-.13-.18-.08-.13-.19-.25-.32-.34l-.49-.37c-.11-.08-.22-.17-.34-.24s-.29-.16-.44-.25c-.19-.12-.39-.21-.61-.25-.16-.03-.31-.06-.46-.09-.19-.04-.37-.1-.55-.13-.37-.06-.75-.1-1.12-.14-.14-.01-.28,0-.42-.02-.22,0-.44-.02-.65-.03-.17-.01-.35,0-.52.02-.24.04-.47.11-.69.2-.16.07-.33.12-.5.14-.08,0-.16.02-.23.06l-.07.03c-.35.13-.69.31-1.01.52-.16.11-.32.22-.48.33-.17.13-.32.28-.44.45-.14.2-.29.39-.42.6-.19.31-.38.62-.57.93-.1.18-.18.37-.22.57-.03.12-.05.25-.07.37-.05.21-.11.41-.16.62-.03.17-.06.34-.09.52-.02.17-.02.34,0,.51v.65c0,.11,0,.23.02.35s.04.22.05.34c.02.14.08.28.19.38.16.17.32.33.49.49.12.1.29.1.4-.02.04-.05.1-.07.17-.07.07,0,.14-.02.19-.07.03-.04.07-.06.12-.05.15.02.3.04.44.06s.32.1.49.11c.16.02.31.06.46.11.06.02.1.06.1.12v.02c.02.1.06.12.15.1.06-.01.12-.02.18-.01.11,0,.22.03.33.03.14,0,.27.08.36.19.11.13.22.26.32.4.16.19.16.47,0,.66-.13.19-.22.41-.26.63-.03.11.03.17.15.17.08,0,.17-.02.25-.02.17,0,.35-.02.52-.02.27,0,.54-.01.81-.02l.9-.02c.07,0,.14-.02.22-.02Z"/>
            <path class="cls-2" d="M9.87,12.04c-.08,0-.14.01-.21.02l-.9.02c-.27,0-.54.01-.81.02-.17,0-.35.01-.52.02-.08,0-.17.02-.25.02-.11,0-.17-.06-.15-.17.04-.23.13-.44.26-.63.16-.19.16-.47,0-.66-.1-.13-.21-.27-.32-.4-.09-.11-.22-.18-.36-.19-.11,0-.22-.03-.33-.03-.06,0-.12,0-.18.01-.09.02-.13,0-.15-.1v-.02c0-.06-.05-.1-.11-.12-.15-.05-.31-.09-.46-.11-.17-.01-.32-.09-.49-.11s-.3-.04-.44-.06c-.05,0-.09,0-.12.05-.05.05-.12.08-.19.07-.06,0-.13.02-.17.07-.11.11-.28.12-.4.02-.16-.16-.33-.33-.48-.49-.1-.1-.16-.23-.18-.37,0-.11-.04-.22-.05-.34s-.01-.23-.02-.35v-.65c-.02-.17-.02-.34,0-.51.03-.17.05-.35.09-.52.04-.21.1-.42.16-.62.03-.12.05-.25.07-.37.04-.2.12-.4.22-.57.19-.32.37-.62.57-.93.13-.21.28-.4.42-.6.12-.17.27-.33.44-.45.16-.11.32-.22.48-.33.32-.21.66-.38,1.01-.52l.07-.03c.07-.03.14-.06.21-.06.17-.02.34-.06.5-.14.22-.09.45-.16.69-.2.17-.03.35-.03.52-.02.22.01.44.02.65.03.14,0,.28,0,.42.02.38.04.75.08,1.12.14.19.03.37.09.55.13.16.03.3.06.46.09.22.04.42.13.61.25.14.09.29.16.44.25s.23.16.34.24l.49.37c.13.09.23.21.32.34.04.06.09.12.13.18.05.07.07.15.07.23,0,.03,0,.06.02.09.11.2.21.41.33.61.09.15.13.31.13.49,0,.11.06.22.16.28.05.03.1.07.14.12.04.05.07.1.09.16.03.06.04.13.06.2.03.07.04.14.03.21,0,.02,0,.03.01.05.06.11.11.22.18.32.12.21.19.45.21.69.02.29.02.57,0,.86v.16c0,.21-.08.41-.22.57-.09.11-.21.18-.35.21-.26.05-.52.11-.78.16-.13.02-.27.02-.4.03-.06,0-.12.01-.18.02-.18.02-.32.18-.32.36-.01.12.02.25.09.35.1.16.06.36-.09.48-.1.08-.18.18-.26.29-.02.04-.02.08,0,.12.04.12.09.25.14.37.02.05.04.11,0,.16-.04.04-.11.06-.17.04-.08-.02-.16-.02-.24,0-.04.02-.09.04-.13.07-.13.1-.29.16-.45.17-.05,0-.11,0-.16-.01-.1-.02-.21-.04-.32-.07-.07-.02-.14-.05-.2-.08-.02,0-.04-.02-.06-.02-.16-.03-.32-.09-.46-.18-.1-.06-.21-.12-.32-.18-.08-.05-.18-.05-.26,0-.13.08-.25.16-.37.24-.03.02-.05.04-.08.06-.14.11-.16.31-.05.45.01.02.03.04.05.05.05.05.1.09.14.14.02.03.04.07.06.1Z"/>
          </g>
        </g>
      </g>
    </g>
    <rect class="cls-1" width="18.81" height="14.02"/>
  </g>
</svg>