<svg xmlns="http://www.w3.org/2000/svg" viewBox="0 0 50.29 72.31"><defs><style>.cls-1{fill:none;}</style></defs><g id="Layer_2" data-name="Layer 2"><g id="Layer_1-2" data-name="Layer 1"><path d="M28,57.51c-.5-1.49.12-3.11-.6-4.61.13,2.28.24,4.47.38,6.66A5.68,5.68,0,0,1,27.68,61c-.05.32-.11.68-.43.8s-.52-.36-.85-.75c.16,1.05.33,1.91.43,2.77a11.5,11.5,0,0,1,.09,2c0,.53,0,1.34-.69,1.31s-.55-.83-.6-1.36c-.25-3.18-.19-6.36-.22-9.54a8,8,0,0,0-.18-1c-.42,1.41,0,2.58-.4,3.85-.84-1.28,0-2.53-.38-3.78A5.12,5.12,0,0,0,24.11,58c.36,2.67-.22,5.33,0,8,0,.36.16,1-.34,1s-.42-.56-.51-.93a10.94,10.94,0,0,1,0-3.33c.13-2.87-.38-5.73,0-8.59a17.75,17.75,0,0,0-.38,5,5.89,5.89,0,0,1,0,.84c-.05.54,0,1.4-.58,1.39s-.45-.87-.49-1.38a20.21,20.21,0,0,1,.58-5.69c0-.22.18-.46-.08-.75-1,1.17-.31,2.73-1.06,4.12a8.26,8.26,0,0,1,0-3.92,19.3,19.3,0,0,1,1.71-5.21,7.3,7.3,0,0,0,.53-5.22,13.77,13.77,0,0,1-.23-3.69c0-.5,0-1-.72-.91a.73.73,0,0,1-.69-.4C21,36.85,20,35.48,19.87,33.72a4,4,0,0,0-.22-1.29c-1.15-3-1.08-6.11-.92-9.21.09-1.7.58-3.37.61-5.09a2.79,2.79,0,0,0-.05-1.31,4.16,4.16,0,0,0-.48,2.56,8.27,8.27,0,0,1-.3,2.48c-.09.3-.25.69-.61.63s-.28-.49-.23-.78c.06-.44.11-.87.2-1.3A2.37,2.37,0,0,0,17.24,18,1.79,1.79,0,0,1,17,15.52,16.81,16.81,0,0,0,18,13.25a3.75,3.75,0,0,1,1.68-1.94,5.18,5.18,0,0,0,2.54-2.63,8.07,8.07,0,0,0-3.69,3C16,15.5,14,19.46,14,24.27A32.08,32.08,0,0,1,12.33,36c-.1.25-.09.55-.18.81s.4,1.62-.86.73c0,0-.37.34-.56.52-.81-1.12-.08-2,.24-3a49.86,49.86,0,0,0,1-5.63c.55-3,.3-6,.71-8.93a7,7,0,0,1,.23-1.29A38.75,38.75,0,0,1,19.71,7.66a3.81,3.81,0,0,1,2.62-1.3c.81-.09,1.59-.09,2.15-.81.15-.19.5-.28.65-.11,1.07,1.17,2.86.52,4,1.71a17.91,17.91,0,0,1,2.61,3.53,30.8,30.8,0,0,1,3.89,10,33.12,33.12,0,0,0,1.44,4.61c1,3.08,1.61,6.32,3.45,9.1.39.58,1.12.42,1.46,1.06a1.38,1.38,0,0,0-1.12,1.94c-.59.34-.63-1.12-1.31-.19-.14.2-.33-.28-.26-.46.45-1.11-.48-1.76-.84-2.59-.11-.24-.45-.42-.49-.66-.38-2.68-2.06-4.89-2.62-7.51A78,78,0,0,0,33,18.25c-.47-1.44-.9-2.89-1.41-4.32A5.64,5.64,0,0,0,29.79,11a1.68,1.68,0,0,0,.51,1.11,9.86,9.86,0,0,1,1.55,6.95c-.1.91-.11,1.83-.17,2.75,0,.23,0,.53-.29.59s-.47-.24-.56-.49a5.54,5.54,0,0,1,0-2.83,3.82,3.82,0,0,0-.67-3.51c.31,2.5.36,4.77.52,7a29.5,29.5,0,0,1,.05,7.27,18.79,18.79,0,0,1-3.61,8.73c-.15.18-.41.34-.36.58.25,1.31-.45,2.58-.1,3.91.28,1-.46,2-.26,3.17a14.35,14.35,0,0,0,.94,3.44,17.93,17.93,0,0,1,1.17,7A.69.69,0,0,1,28,57.51Z"/><rect class="cls-1" width="50.29" height="72.31"/></g></g></svg>